<?xml version="1.0" encoding="utf-8"?>
<!-- Generator: Adobe Illustrator 19.0.0, SVG Export Plug-In . SVG Version: 6.00 Build 0)  -->
<svg version="1.1" xmlns="http://www.w3.org/2000/svg" xmlns:xlink="http://www.w3.org/1999/xlink" x="0px" y="0px"
	 viewBox="0 0 500 500" style="enable-background:new 0 0 500 500;" xml:space="preserve">
<style type="text/css">
	.st0{display:none;}
	.st1{display:inline;}
	.st2{fill:none;}
</style>
<g id="Layer_1_copy_2" class="st0">
	<circle id="XMLID_2_" class="st1" cx="252.5" cy="235.5" r="208.5"/>
</g>
<g id="Layer_1_copy">
	<path id="XMLID_26_" d="M222.3,235.5c0,35.2-28.1,63.8-62.7,63.8c-34.8,0-64.1-29.2-64.1-63.8s29.4-63.8,64.1-63.8
		C194.2,171.7,222.3,200.3,222.3,235.5z"/>
	<path id="XMLID_29_" d="M252.5,27C137.3,27,44,120.3,44,235.5S137.3,444,252.5,444S461,350.6,461,235.5S367.7,27,252.5,27z
		 M159.6,320.3c-22.5,0-43.8-8.9-60-25c-16.2-16.1-25.2-37.4-25.2-59.8s8.9-43.7,25.2-59.8c16.2-16.1,37.5-25,60-25
		c46.2,0,83.7,38,83.7,84.8S205.7,320.3,159.6,320.3z M348.8,320.3c-22.5,0-43.6-8.9-59.7-25c-16-16.1-24.8-37.3-24.8-59.8
		c0-22.5,8.8-43.7,24.8-59.8c16-16.1,37.2-25,59.7-25c22.4,0,43.6,8.9,59.7,25c16,16.1,24.8,37.3,24.8,59.8
		c0,22.5-8.8,43.7-24.8,59.8C392.4,311.4,371.2,320.3,348.8,320.3z M348.8,171.7c-35,0-63.4,28.6-63.4,63.8
		c0,35.2,28.5,63.8,63.4,63.8c35,0,63.4-28.6,63.4-63.8C412.2,200.3,383.7,171.7,348.8,171.7z"/>
	<g id="XMLID_8_">
		<g id="XMLID_13_">
			<path id="XMLID_22_" class="st2" d="M159.6,150.7c-22.5,0-43.8,8.9-60,25c-16.2,16.1-25.2,37.4-25.2,59.8s8.9,43.7,25.2,59.8
				c16.2,16.1,37.5,25,60,25c46.2,0,83.7-38,83.7-84.8S205.7,150.7,159.6,150.7z M159.6,299.3c-34.8,0-64.1-29.2-64.1-63.8
				s29.4-63.8,64.1-63.8c34.6,0,62.7,28.6,62.7,63.8C222.3,270.7,194.2,299.3,159.6,299.3z"/>
		</g>
		<g id="XMLID_9_">
			<path id="XMLID_18_" class="st2" d="M408.4,175.7c-16-16.1-37.2-25-59.7-25c-22.5,0-43.6,8.9-59.7,25
				c-16,16.1-24.8,37.3-24.8,59.8c0,22.5,8.8,43.7,24.8,59.8c16,16.1,37.2,25,59.7,25c22.4,0,43.6-8.9,59.7-25
				c16-16.1,24.8-37.3,24.8-59.8C433.2,213,424.4,191.8,408.4,175.7z M348.8,299.3c-35,0-63.4-28.6-63.4-63.8
				c0-35.2,28.5-63.8,63.4-63.8c35,0,63.4,28.6,63.4,63.8C412.2,270.7,383.7,299.3,348.8,299.3z"/>
		</g>
	</g>
</g>
</svg>
