<?xml version="1.0" encoding="utf-8"?>
<!-- Generator: Adobe Illustrator 19.0.0, SVG Export Plug-In . SVG Version: 6.00 Build 0)  -->
<svg version="1.1" xmlns="http://www.w3.org/2000/svg" xmlns:xlink="http://www.w3.org/1999/xlink" x="0px" y="0px"
	 viewBox="0 0 500 500" style="enable-background:new 0 0 500 500;" xml:space="preserve">
<style type="text/css">
	.st0{display:none;}
	.st1{display:inline;}
	.st2{fill:#010101;}
	.st3{fill:none;}
</style>
<g id="Layer_1_copy" class="st0">
	<circle id="XMLID_1_" class="st1" cx="252.5" cy="235.5" r="208.5"/>
</g>
<g id="Layer_1_copy_3">
	<path id="XMLID_9_" class="st2" d="M465.3,242c0,98.4-69,187.8-160.7,210v-86.7c0.1-22-8.4-27.7-15.4-38.4v0
		c54.7-8.2,76.5-37.2,85.1-60.1c21.2-56.1-17-91.1-15.8-94.9c9.2-27.7-2-51.3-2.4-53.8c-11.4,3.7-9.9-4.7-52.5,21.1
		c-1.2,0.7-1.8,0.8-1.7,0.8l-1.9-0.2c-14.8-4-29.8-6.2-44.7-6.3c-14.8,0.2-29.8,2.3-44.1,6.2c-2.5,0.2-1.7,1-4.2-0.4l-5.9-3.5
		c-34.1-20.7-35.9-14.4-46.6-17.5c-0.4,2.5-11.7,25.7-2.5,53.8c0.3,0.8-0.4,2.1-0.8,2.5c-20.3,24-26.4,62-15,92.4
		c8.6,22.9,30.5,51.9,85.1,60.1v0c-5.4,8.2-12.5,14-14.5,29.6c-7.8,2.8-14.4,3.6-20.7,1.8c-6.4-1.9-11.4-6.2-15.8-13.5
		c-9.8-16.5-26.3-29.7-45.4-28.1c-8.3,1-51.7,20.3,2.2,24.5c8.8-0.6,17.3,8.1,22,16.1c7.5,12.6,17.6,20.9,30,24.5
		c9.2,2.7,17.6,2.7,26.7,0.7V452C114.5,429.8,45.5,340.5,45.5,242c0-115.3,94.6-210,210-210C370.7,32.1,465.3,126.7,465.3,242z"/>
	<path id="XMLID_10_" class="st3" d="M135.5,334l-8,7.2c-53.8-4.2-10.5-23.5-2.2-24.5l3.2-0.1L135.5,334z"/>
</g>
</svg>
