<?xml version="1.0" encoding="utf-8"?>
<!-- Generator: Adobe Illustrator 19.0.0, SVG Export Plug-In . SVG Version: 6.00 Build 0)  -->
<svg version="1.1" xmlns="http://www.w3.org/2000/svg" xmlns:xlink="http://www.w3.org/1999/xlink" x="0px" y="0px"
	 viewBox="0 0 500 500" style="enable-background:new 0 0 500 500;" xml:space="preserve">
<style type="text/css">
	.st0{display:none;}
	.st1{display:inline;}
	.st2{fill:none;}
</style>
<g id="Layer_1_copy_2" class="st0">
	<circle id="XMLID_2_" class="st1" cx="252.5" cy="235.5" r="208.5"/>
</g>
<g id="Layer_1_copy_3">
	<path id="XMLID_18_" d="M299.9,243.1c0,25.5-20.8,46.3-46.3,46.3c-25.5,0-46.3-20.8-46.3-46.3c0-25.5,20.8-46.3,46.3-46.3
		C279.1,196.8,299.9,217.6,299.9,243.1z"/>
	<path id="XMLID_24_" d="M315,130.4H192.2c-28.3,0-51.3,23-51.3,51.3v122.8c0,28.3,23,51.3,51.3,51.3H315c28.3,0,51.3-23,51.3-51.3
		V181.7C366.3,153.4,343.2,130.4,315,130.4z M253.6,313.7c-38.9,0-70.6-31.7-70.6-70.6c0-38.9,31.7-70.6,70.6-70.6
		c38.9,0,70.6,31.7,70.6,70.6C324.2,282,292.5,313.7,253.6,313.7z M339.7,182.3c-3.3,3.3-7.9,5.2-12.6,5.2c-4.7,0-9.3-1.9-12.6-5.2
		c-3.3-3.3-5.2-7.9-5.2-12.6c0-4.7,1.9-9.3,5.2-12.6c3.3-3.3,7.9-5.2,12.6-5.2c4.7,0,9.3,1.9,12.6,5.2c3.3,3.3,5.2,7.9,5.2,12.6
		C345,174.4,343.1,179,339.7,182.3z"/>
	<path id="XMLID_31_" d="M252.5,27C137.3,27,44,120.3,44,235.5S137.3,444,252.5,444S461,350.6,461,235.5S367.7,27,252.5,27z
		 M390.6,304.5c0,41.7-33.9,75.6-75.6,75.6H192.2c-41.7,0-75.6-33.9-75.6-75.6V181.7c0-41.7,33.9-75.6,75.6-75.6H315
		c41.7,0,75.6,33.9,75.6,75.6V304.5z"/>
	<g id="XMLID_9_">
		<path id="XMLID_21_" class="st2" d="M315,106.1H192.2c-41.7,0-75.6,33.9-75.6,75.6v122.8c0,41.7,33.9,75.6,75.6,75.6H315
			c41.7,0,75.6-33.9,75.6-75.6V181.7C390.6,140,356.6,106.1,315,106.1z M366.3,304.5c0,28.3-23,51.3-51.3,51.3H192.2
			c-28.3,0-51.3-23-51.3-51.3V181.7c0-28.3,23-51.3,51.3-51.3H315c28.3,0,51.3,23,51.3,51.3V304.5z"/>
		<path id="XMLID_17_" class="st2" d="M253.6,172.5c-38.9,0-70.6,31.7-70.6,70.6c0,38.9,31.7,70.6,70.6,70.6
			c38.9,0,70.6-31.7,70.6-70.6C324.2,204.2,292.5,172.5,253.6,172.5z M253.6,289.4c-25.5,0-46.3-20.8-46.3-46.3
			c0-25.5,20.8-46.3,46.3-46.3c25.5,0,46.3,20.8,46.3,46.3C299.9,268.6,279.1,289.4,253.6,289.4z"/>
		<path id="XMLID_10_" class="st2" d="M345,169.7c0,4.7-1.9,9.3-5.2,12.6c-3.3,3.3-7.9,5.2-12.6,5.2c-4.7,0-9.3-1.9-12.6-5.2
			c-3.3-3.3-5.2-7.9-5.2-12.6c0-4.7,1.9-9.3,5.2-12.6c3.3-3.3,7.9-5.2,12.6-5.2c4.7,0,9.3,1.9,12.6,5.2
			C343.1,160.4,345,165,345,169.7z"/>
	</g>
</g>
</svg>
