<?xml version="1.0" encoding="utf-8"?>
<!-- Generator: Adobe Illustrator 19.0.0, SVG Export Plug-In . SVG Version: 6.00 Build 0)  -->
<svg version="1.1" xmlns="http://www.w3.org/2000/svg" xmlns:xlink="http://www.w3.org/1999/xlink" x="0px" y="0px"
	 viewBox="0 0 500 500" style="enable-background:new 0 0 500 500;" xml:space="preserve">
<style type="text/css">
	.st0{display:none;}
	.st1{display:inline;}
	.st2{fill:none;}
</style>
<g id="Layer_1_copy_3" class="st0">
	<circle id="XMLID_1_" class="st1" cx="252.5" cy="235.5" r="208.5"/>
</g>
<g id="Layer_1_copy_2">
	<polygon id="XMLID_16_" points="354.3,141 372.7,141 372.7,325.1 342,325.1 342,190.1 250,248.4 157.9,190.1 157.9,325.1 
		127.2,325.1 127.2,141 145.6,141 250,205.5 	"/>
	<path id="XMLID_19_" d="M252.5,27C137.3,27,44,120.3,44,235.5S137.3,444,252.5,444S461,350.6,461,235.5S367.7,27,252.5,27z
		 M372.7,355.8H127.2c-16.9,0-30.7-13.8-30.7-30.7V141c0-16.9,13.8-30.7,30.7-30.7h245.5c16.9,0,30.7,13.8,30.7,30.7v184.1
		C403.4,342,389.6,355.8,372.7,355.8z"/>
	<g id="XMLID_6_">
		<g id="gmail">
			<path id="XMLID_21_" class="st2" d="M372.7,110.3H127.2c-16.9,0-30.7,13.8-30.7,30.7v184.1c0,16.9,13.8,30.7,30.7,30.7h245.5
				c16.9,0,30.7-13.8,30.7-30.7V141C403.4,124.1,389.6,110.3,372.7,110.3z M372.7,325.1H342v-135L250,248.4l-92.1-58.3v135h-30.7
				V141h18.4L250,205.5L354.3,141h18.4V325.1z"/>
		</g>
	</g>
</g>
</svg>
