<?xml version="1.0" encoding="utf-8"?>
<!-- Generator: Adobe Illustrator 19.0.0, SVG Export Plug-In . SVG Version: 6.00 Build 0)  -->
<svg version="1.1" xmlns="http://www.w3.org/2000/svg" xmlns:xlink="http://www.w3.org/1999/xlink" x="0px" y="0px"
	 viewBox="0 0 500 500" style="enable-background:new 0 0 500 500;" xml:space="preserve">
<style type="text/css">
	.st0{display:none;}
	.st1{display:inline;}
	.st2{fill:none;}
</style>
<g id="Layer_1_copy" class="st0">
	<circle id="XMLID_1_" class="st1" cx="252.5" cy="235.5" r="208.5"/>
</g>
<g id="Layer_1">
	<path id="XMLID_29_" d="M252.5,27C137.3,27,44,120.3,44,235.5S137.3,444,252.5,444S461,350.6,461,235.5S367.7,27,252.5,27z
		 M103.6,272.8c-0.2,0.7-1.5,1.3-3.2,1.3c-1.7,0-3.1-0.6-3.3-1.3l-4.9-23.7l4.9-24.5c0.1-0.7,1.5-1.3,3.3-1.3c1.7,0,3.1,0.6,3.2,1.3
		l5.5,24.5L103.6,272.8z M138.3,286c-0.1,1.4-1.9,2.6-4,2.6c-2.2,0-3.9-1.1-4-2.6l-4.2-36.6l4.2-56.6c0.1-1.4,1.9-2.6,4-2.6
		c2.1,0,3.9,1.1,4,2.6l4.7,56.6L138.3,286z M172.9,285.3c-0.1,1.8-2.2,3.2-4.8,3.2c-2.6,0-4.7-1.4-4.8-3.1l-3.5-36l3.5-75.4
		c0.1-1.8,2.2-3.2,4.8-3.2c2.6,0,4.6,1.4,4.8,3.2l3.9,75.4L172.9,285.3z M207.4,284.8c-0.1,2.1-2.5,3.7-5.4,3.7
		c-3,0-5.4-1.6-5.4-3.7l-2.9-35.5l2.9-76c0.1-2.1,2.5-3.7,5.4-3.7c2.9,0,5.3,1.6,5.4,3.7l3.2,76L207.4,284.8z M242,284.4
		c-0.1,2.4-2.8,4.3-6.1,4.3c-3.3,0-6-2-6-4.3c0,0-2.3-35-2.3-35l2.3-87.1c0-2.4,2.8-4.3,6-4.3c3.3,0,6,1.9,6.1,4.3l2.5,87.1
		L242,284.4z M387,288.8c-0.8,0-120.8-0.1-120.9-0.1c-2.6-0.3-4.7-2.4-4.7-5V149.9c0-2.5,0.9-3.7,4.2-5c8.5-3.2,18.1-5,27.9-5
		c40.2,0,73.2,29.8,76.6,67.8c5.2-2.1,10.9-3.3,16.9-3.3c24.1,0,43.6,18.9,43.6,42.2C430.6,269.9,411.1,288.8,387,288.8z"/>
	<g id="XMLID_9_">
		<path id="XMLID_8_" class="st2" d="M210.7,249.4l-3.2,35.5c-0.1,2.1-2.5,3.7-5.4,3.7c-3,0-5.4-1.6-5.4-3.7l-2.9-35.5l2.9-76
			c0.1-2.1,2.5-3.7,5.4-3.7c2.9,0,5.3,1.6,5.4,3.7L210.7,249.4z"/>
		<path id="XMLID_12_" class="st2" d="M109.1,249.1l-5.5,23.7c-0.2,0.7-1.5,1.3-3.2,1.3c-1.7,0-3.1-0.6-3.3-1.3l-4.9-23.7l4.9-24.5
			c0.1-0.7,1.5-1.3,3.3-1.3c1.7,0,3.1,0.6,3.2,1.3L109.1,249.1z"/>
		<path id="XMLID_13_" class="st2" d="M143,249.3l-4.7,36.6c-0.1,1.4-1.9,2.6-4,2.6c-2.2,0-3.9-1.1-4-2.6l-4.2-36.6l4.2-56.6
			c0.1-1.4,1.9-2.6,4-2.6c2.1,0,3.9,1.1,4,2.6L143,249.3z"/>
		<path id="XMLID_14_" class="st2" d="M176.8,249.4l-3.9,36c-0.1,1.8-2.2,3.2-4.8,3.2c-2.6,0-4.7-1.4-4.8-3.1l-3.5-36l3.5-75.4
			c0.1-1.8,2.2-3.2,4.8-3.2c2.6,0,4.6,1.4,4.8,3.2L176.8,249.4z"/>
		<path id="XMLID_11_" class="st2" d="M244.5,249.4l-2.5,35c-0.1,2.4-2.8,4.3-6.1,4.3c-3.3,0-6-2-6-4.3c0,0-2.3-35-2.3-35l2.3-87.1
			c0-2.4,2.8-4.3,6-4.3c3.3,0,6,1.9,6.1,4.3L244.5,249.4z"/>
		<path id="XMLID_15_" class="st2" d="M430.6,246.6c0,23.3-19.5,42.2-43.6,42.2c-0.8,0-120.8-0.1-120.9-0.1c-2.6-0.3-4.7-2.4-4.7-5
			V149.9c0-2.5,0.9-3.7,4.2-5c8.5-3.2,18.1-5,27.9-5c40.2,0,73.2,29.8,76.6,67.8c5.2-2.1,10.9-3.3,16.9-3.3
			C411.1,204.4,430.6,223.3,430.6,246.6z"/>
	</g>
</g>
</svg>
