<?xml version="1.0" encoding="utf-8"?>
<!-- Generator: Adobe Illustrator 19.0.0, SVG Export Plug-In . SVG Version: 6.00 Build 0)  -->
<svg version="1.1" xmlns="http://www.w3.org/2000/svg" xmlns:xlink="http://www.w3.org/1999/xlink" x="0px" y="0px"
	 viewBox="0 0 500 500" style="enable-background:new 0 0 500 500;" xml:space="preserve">
<style type="text/css">
	.st0{display:none;}
	.st1{display:inline;}
	.st2{fill:none;}
</style>
<g id="Layer_1_copy_3" class="st0">
	<circle id="XMLID_1_" class="st1" cx="252.5" cy="235.5" r="208.5"/>
</g>
<g id="Layer_1_copy_4">
	<path id="XMLID_16_" d="M252.5,27C137.3,27,44,120.3,44,235.5S137.3,444,252.5,444S461,350.6,461,235.5S367.7,27,252.5,27z
		 M364.7,191.1l0.2,7.7c0,78.2-59.5,168.5-168.4,168.5c-33.4,0-64.5-9.8-90.8-26.6c4.6,0.5,9.3,0.8,14.1,0.8
		c27.7,0,53.3-9.4,73.5-25.3c-25.9-0.5-47.8-17.6-55.3-41.1c3.6,0.7,7.3,1.1,11.1,1.1c5.4,0,10.6-0.7,15.6-2.1
		c-27.1-5.5-47.5-29.4-47.5-58.1v-0.7c8,4.4,17.1,7.1,26.8,7.4c-15.9-10.6-26.3-28.7-26.3-49.3c0-10.9,2.9-21,8-29.8
		c29.2,35.8,72.8,59.4,122,61.9c-1-4.3-1.5-8.8-1.5-13.5c0-32.7,26.5-59.2,59.2-59.2c17,0,32.4,7.2,43.2,18.7
		c13.5-2.7,26.1-7.6,37.6-14.4c-4.4,13.8-13.8,25.4-26,32.7c12-1.4,23.4-4.6,34-9.3C386.4,172.4,376.3,182.8,364.7,191.1z"/>
	<g id="XMLID_5_">
		<g id="XMLID_6_">
			<path id="XMLID_10_" class="st2" d="M364.7,191.1l0.2,7.7c0,78.2-59.5,168.5-168.4,168.5c-33.4,0-64.5-9.8-90.8-26.6
				c4.6,0.5,9.3,0.8,14.1,0.8c27.7,0,53.3-9.4,73.5-25.3c-25.9-0.5-47.8-17.6-55.3-41.1c3.6,0.7,7.3,1.1,11.1,1.1
				c5.4,0,10.6-0.7,15.6-2.1c-27.1-5.5-47.5-29.4-47.5-58.1v-0.7c8,4.4,17.1,7.1,26.8,7.4c-15.9-10.6-26.3-28.7-26.3-49.3
				c0-10.9,2.9-21,8-29.8c29.2,35.8,72.8,59.4,122,61.9c-1-4.3-1.5-8.8-1.5-13.5c0-32.7,26.5-59.2,59.2-59.2
				c17,0,32.4,7.2,43.2,18.7c13.5-2.7,26.1-7.6,37.6-14.4c-4.4,13.8-13.8,25.4-26,32.7c12-1.4,23.4-4.6,34-9.3
				C386.4,172.4,376.3,182.8,364.7,191.1z"/>
		</g>
	</g>
</g>
</svg>
