<?xml version="1.0" encoding="utf-8"?>
<!-- Generator: Adobe Illustrator 19.0.0, SVG Export Plug-In . SVG Version: 6.00 Build 0)  -->
<svg version="1.1" id="Layer_1" xmlns="http://www.w3.org/2000/svg" xmlns:xlink="http://www.w3.org/1999/xlink" x="0px" y="0px"
	 viewBox="0 0 50 50" style="enable-background:new 0 0 50 50;" xml:space="preserve">
<style type="text/css">
	.st0{fill:#070706;}
	.st1{fill:#131313;}
	.st2{fill:#1C1C12;}
	.st3{fill:#D7D6D6;}
	.st4{fill:#DBDADA;}
	.st5{fill:#929191;}
	.st6{fill:#E6E5E5;}
	.st7{fill:#E0DFDF;}
	.st8{fill:#9D9D9D;}
	.st9{fill:#DAD9D9;}
	.st10{fill:#A8A7A7;}
	.st11{fill:#3F3F3F;}
	.st12{fill:#383838;}
	.st13{fill:#2F2F2F;}
	.st14{fill:#3D3D3D;}
	.st15{fill:#B0B0B0;}
	.st16{fill:#242424;}
	.st17{fill:#393939;}
	.st18{fill:#252525;}
	.st19{fill:#4F4F4F;}
	.st20{fill:#262626;}
	.st21{fill:#D4D3D3;}
	.st22{fill:#DDDCDC;}
	.st23{fill:#CCCCCC;}
	.st24{fill:#E0DFDE;}
	.st25{fill:#B8B6B6;}
	.st26{fill:#E9E8E8;}
	.st27{fill:#ECECEC;}
	.st28{fill:#B8B7B7;}
	.st29{fill:#B4B3B3;}
	.st30{fill:#575757;}
	.st31{fill:#CAC8C8;}
	.st32{fill:#989797;}
	.st33{fill:#B1B0B0;}
	.st34{fill:#C2C1C1;}
	.st35{fill:#777776;}
	.st36{fill:#717171;}
	.st37{fill:#CDCCCB;}
	.st38{fill:#9B9A9B;}
	.st39{fill:#BEBDBD;}
	.st40{fill:#858484;}
	.st41{fill:#999898;}
	.st42{fill:#C0BFBF;}
	.st43{fill:#B6B5B5;}
	.st44{fill:#CBCAC9;}
	.st45{fill:#C5C4C3;}
	.st46{fill:#C5C4C4;}
	.st47{fill:#A9A8A8;}
	.st48{fill:#666666;}
	.st49{fill:#767575;}
	.st50{fill:#D9D8D8;}
	.st51{fill:#D9D8D7;}
	.st52{fill:#969695;}
	.st53{fill:#CAC9C9;}
	.st54{fill:#6E6E6E;}
	.st55{fill:#D8D7D7;}
	.st56{fill:#E3E2E2;}
	.st57{fill:#545454;}
	.st58{fill:#D9D7D7;}
	.st59{fill:#3E3E3E;}
	.st60{fill:#9A9999;}
	.st61{fill:#ADACAC;}
	.st62{fill:#CECDCD;}
	.st63{fill:#A3A3A3;}
	.st64{fill:#4E4E4E;}
	.st65{fill:#D8D7D6;}
	.st66{fill:#CAC9C8;}
	.st67{fill:#D3D3D2;}
	.st68{fill:#E0E0DF;}
	.st69{fill:#DAD9D8;}
	.st70{fill:#909090;}
	.st71{fill:#E2E1E1;}
	.st72{fill:#232323;}
	.st73{fill:#868686;}
	.st74{fill:#2D2D2D;}
	.st75{fill:#2E2E2D;}
	.st76{fill:#E7E7E6;}
	.st77{fill:#949393;}
	.st78{fill:#DDDCDB;}
	.st79{fill:#9C9C9C;}
	.st80{fill:#797979;}
	.st81{fill:#9A9899;}
	.st82{fill:#FFFFFF;}
</style>
<g id="XMLID_2_">
	<path id="XMLID_646_" class="st0" d="M50,25.058c0,8.269,0,16.538,0.004,24.807c0,0.144-0.033,0.177-0.177,0.177
		c-16.538-0.004-33.077-0.004-49.615,0c-0.144,0-0.177-0.033-0.177-0.177c0.004-16.551,0.004-33.102,0-49.653
		c0-0.144,0.033-0.177,0.177-0.177c16.538,0.004,33.077,0.004,49.615,0c0.144,0,0.177,0.033,0.177,0.177
		C50,8.494,50,16.776,50,25.058z"/>
	<path id="XMLID_645_" class="st1" d="M40.989,13.487c0.204,0.247,0.305,0.534,0.415,0.816c0.012,0.03,0.005,0.068-0.024,0.086
		c-0.042,0.026-0.084,0.015-0.126-0.009C40.991,14.228,40.862,13.815,40.989,13.487z"/>
	<path id="XMLID_644_" class="st2" d="M40.457,36.446c-0.102,0.187-0.075,0.249,0.138,0.3c0.096,0.023,0.173,0.072,0.239,0.154
		c-0.152-0.056-0.308-0.104-0.454-0.174c-0.061-0.029-0.155-0.085-0.13-0.167C40.273,36.48,40.361,36.448,40.457,36.446z"/>
	<path id="XMLID_643_" class="st3" d="M45.376,3.354c-0.001,0.064-0.043,0.094-0.098,0.094c-0.055,0-0.096-0.031-0.096-0.095
		c0-0.07,0.037-0.111,0.105-0.104C45.341,3.255,45.376,3.294,45.376,3.354z"/>
	<path id="XMLID_642_" class="st4" d="M4.101,3.163c0.056,0.016,0.097,0.04,0.099,0.101c0.002,0.061-0.03,0.098-0.087,0.101
		C4.049,3.369,4.007,3.332,4.008,3.264C4.009,3.204,4.059,3.183,4.101,3.163z"/>
	<path id="XMLID_641_" class="st4" d="M21.997,48.73c-0.002,0.063-0.044,0.093-0.097,0.092c-0.053-0.001-0.097-0.035-0.095-0.096
		c0.002-0.066,0.045-0.107,0.108-0.101C21.967,48.629,22,48.67,21.997,48.73z"/>
	<path id="XMLID_640_" class="st5" d="M22.907,1.735C22.962,1.749,23,1.779,22.994,1.84c-0.005,0.049-0.034,0.085-0.086,0.087
		c-0.061,0.002-0.098-0.038-0.099-0.094C22.809,1.776,22.849,1.743,22.907,1.735z"/>
	<path id="XMLID_639_" class="st6" d="M7.168,9.603C7.161,9.668,7.132,9.709,7.072,9.709c-0.059,0-0.095-0.041-0.096-0.097
		C6.974,9.555,7.013,9.515,7.071,9.514C7.13,9.512,7.159,9.554,7.168,9.603z"/>
	<path id="XMLID_638_" class="st7" d="M7.555,24.538c-0.003,0.063-0.037,0.095-0.098,0.09c-0.057-0.005-0.099-0.04-0.093-0.1
		c0.005-0.055,0.046-0.097,0.103-0.094C7.525,24.436,7.555,24.478,7.555,24.538z"/>
	<path id="XMLID_637_" class="st8" d="M8.399,42.884c0.057,0.015,0.08,0.053,0.082,0.11c0.002,0.073-0.043,0.082-0.098,0.077
		c-0.058-0.006-0.097-0.039-0.088-0.098C8.301,42.919,8.34,42.886,8.399,42.884z"/>
	<path id="XMLID_636_" class="st9" d="M20.334,10.546c-0.012,0.055-0.043,0.091-0.103,0.092c-0.062,0.001-0.097-0.032-0.095-0.094
		c0.002-0.058,0.037-0.1,0.095-0.098C20.287,10.449,20.322,10.488,20.334,10.546z"/>
	<path id="XMLID_635_" class="st7" d="M28.885,10.872c0.056,0.013,0.089,0.047,0.087,0.107c-0.001,0.063-0.037,0.095-0.098,0.09
		c-0.057-0.005-0.099-0.04-0.093-0.1C28.786,10.913,28.828,10.881,28.885,10.872z"/>
	<path id="XMLID_634_" class="st8" d="M45.646,21.733c-0.066-0.005-0.107-0.037-0.104-0.094c0.003-0.054,0.042-0.097,0.1-0.093
		c0.069,0.004,0.089,0.057,0.088,0.121C45.729,21.732,45.682,21.729,45.646,21.733z"/>
	<path id="XMLID_633_" class="st8" d="M14.066,37.217c0.006,0.052-0.02,0.077-0.075,0.078c-0.067,0.001-0.115-0.027-0.112-0.096
		c0.003-0.053,0.043-0.095,0.102-0.091C14.039,37.112,14.065,37.155,14.066,37.217z"/>
	<path id="XMLID_632_" class="st7" d="M10.554,36.681c0.056,0.016,0.086,0.052,0.083,0.111c-0.004,0.063-0.041,0.093-0.102,0.085
		c-0.056-0.008-0.098-0.042-0.088-0.104C10.455,36.718,10.495,36.686,10.554,36.681z"/>
	<path id="XMLID_631_" class="st7" d="M23.318,16.849c-0.071-0.003-0.115-0.027-0.122-0.087c-0.007-0.06,0.034-0.099,0.087-0.108
		c0.06-0.011,0.094,0.028,0.102,0.087C23.395,16.803,23.361,16.835,23.318,16.849z"/>
	<path id="XMLID_630_" class="st7" d="M19.441,27.935c0.057,0.01,0.092,0.041,0.094,0.101c0.002,0.062-0.03,0.099-0.091,0.098
		c-0.057-0.001-0.1-0.035-0.101-0.094C19.343,27.982,19.387,27.951,19.441,27.935z"/>
	<path id="XMLID_629_" class="st7" d="M3.701,35.847c-0.01,0.053-0.049,0.079-0.109,0.065c-0.056-0.013-0.094-0.05-0.078-0.11
		c0.014-0.052,0.053-0.093,0.113-0.081C3.685,35.734,3.709,35.779,3.701,35.847z"/>
	<path id="XMLID_628_" class="st7" d="M21.23,22.953c0,0.062-0.032,0.099-0.093,0.097c-0.057-0.002-0.1-0.036-0.099-0.096
		c0.001-0.058,0.043-0.098,0.098-0.1C21.194,22.851,21.227,22.893,21.23,22.953z"/>
	<path id="XMLID_627_" class="st8" d="M40.144,27.437c0.004,0.061-0.034,0.075-0.084,0.073c-0.066-0.003-0.112-0.034-0.1-0.104
		c0.009-0.053,0.049-0.092,0.108-0.081C40.125,27.335,40.147,27.381,40.144,27.437z"/>
	<path id="XMLID_626_" class="st7" d="M42.301,21.223c-0.001,0.063-0.035,0.097-0.096,0.093c-0.057-0.003-0.1-0.039-0.096-0.098
		c0.003-0.056,0.045-0.097,0.101-0.097C42.268,21.121,42.3,21.163,42.301,21.223z"/>
	<path id="XMLID_625_" class="st8" d="M24.22,35.102c0.057,0.01,0.087,0.042,0.092,0.101c0.006,0.065-0.024,0.092-0.087,0.09
		c-0.058-0.002-0.1-0.032-0.101-0.089C24.124,35.147,24.165,35.114,24.22,35.102z"/>
	<path id="XMLID_624_" class="st8" d="M29.813,29.514c-0.058-0.001-0.1-0.029-0.102-0.087c-0.002-0.057,0.038-0.099,0.093-0.1
		c0.069-0.001,0.094,0.049,0.095,0.115C29.899,29.502,29.863,29.515,29.813,29.514z"/>
	<path id="XMLID_623_" class="st9" d="M4.501,18.336c-0.016,0.054-0.051,0.087-0.11,0.083c-0.062-0.004-0.093-0.04-0.085-0.102
		c0.008-0.058,0.041-0.098,0.102-0.088C4.462,18.238,4.497,18.275,4.501,18.336z"/>
	<path id="XMLID_622_" class="st7" d="M5.398,30.734c0,0.062-0.032,0.099-0.093,0.097c-0.057-0.002-0.1-0.036-0.099-0.096
		c0.001-0.058,0.044-0.098,0.098-0.1C5.362,30.633,5.395,30.674,5.398,30.734z"/>
	<path id="XMLID_621_" class="st7" d="M13.045,18.652c0.06,0.011,0.094,0.044,0.095,0.104c0.001,0.063-0.033,0.098-0.094,0.095
		c-0.057-0.003-0.1-0.037-0.098-0.097C12.95,18.696,12.995,18.667,13.045,18.652z"/>
	<path id="XMLID_620_" class="st7" d="M36.969,15.069c0.061,0.015,0.094,0.048,0.093,0.109c-0.001,0.063-0.037,0.095-0.098,0.09
		c-0.057-0.005-0.098-0.04-0.093-0.1C36.875,15.11,36.92,15.082,36.969,15.069z"/>
	<path id="XMLID_619_" class="st7" d="M26.379,28.898c0.063,0.018,0.093,0.054,0.09,0.113c-0.004,0.063-0.041,0.093-0.102,0.085
		c-0.056-0.008-0.097-0.042-0.088-0.104C26.286,28.936,26.33,28.908,26.379,28.898z"/>
	<path id="XMLID_618_" class="st7" d="M35.367,20.246c0.003,0.066-0.024,0.106-0.086,0.107c-0.057,0.001-0.101-0.03-0.105-0.09
		c-0.004-0.059,0.039-0.098,0.092-0.105C35.328,20.151,35.36,20.192,35.367,20.246z"/>
	<path id="XMLID_617_" class="st10" d="M39.217,8.983c-0.004,0.054-0.039,0.085-0.098,0.08c-0.057-0.004-0.096-0.04-0.09-0.097
		c0.005-0.054,0.045-0.093,0.101-0.09C39.186,8.878,39.217,8.917,39.217,8.983z"/>
	<path id="XMLID_616_" class="st11" d="M10.195,28.964c-0.061-0.003-0.096-0.034-0.097-0.093c-0.001-0.041,0.022-0.076,0.064-0.08
		c0.059-0.006,0.096,0.035,0.108,0.086C10.282,28.928,10.243,28.954,10.195,28.964z"/>
	<path id="XMLID_615_" class="st12" d="M29.649,27.939c0.061,0.008,0.086,0.042,0.084,0.091c-0.002,0.05-0.035,0.082-0.085,0.085
		c-0.049,0.003-0.09-0.02-0.089-0.074C29.561,27.983,29.608,27.958,29.649,27.939z"/>
	<path id="XMLID_614_" class="st11" d="M15.778,23.186c-0.06-0.004-0.095-0.035-0.095-0.095c0-0.041,0.023-0.076,0.066-0.079
		c0.059-0.004,0.096,0.037,0.107,0.088C15.867,23.152,15.827,23.177,15.778,23.186z"/>
	<path id="XMLID_613_" class="st13" d="M20.991,21.469c0.053,0.008,0.077,0.042,0.073,0.091c-0.003,0.05-0.036,0.081-0.086,0.083
		c-0.049,0.002-0.091-0.022-0.086-0.076C20.898,21.514,20.938,21.482,20.991,21.469z"/>
	<path id="XMLID_612_" class="st12" d="M39.98,26.015c-0.003,0.061-0.034,0.095-0.093,0.097c-0.041,0.001-0.076-0.021-0.08-0.064
		c-0.006-0.059,0.037-0.095,0.086-0.107C39.946,25.928,39.971,25.967,39.98,26.015z"/>
	<path id="XMLID_611_" class="st14" d="M12.877,17.445c-0.047-0.01-0.086-0.036-0.071-0.088c0.013-0.05,0.05-0.091,0.109-0.084
		c0.041,0.005,0.064,0.041,0.062,0.082C12.973,17.414,12.937,17.444,12.877,17.445z"/>
	<path id="XMLID_610_" class="st11" d="M26.106,21.115c-0.018,0.051-0.051,0.075-0.102,0.065c-0.049-0.01-0.077-0.044-0.073-0.094
		c0.004-0.05,0.034-0.088,0.086-0.076C26.067,21.021,26.104,21.058,26.106,21.115z"/>
	<path id="XMLID_609_" class="st14" d="M26.305,27.61c-0.013,0.056-0.048,0.087-0.107,0.079c-0.041-0.006-0.073-0.034-0.067-0.076
		c0.008-0.053,0.044-0.094,0.101-0.095C26.285,27.518,26.304,27.56,26.305,27.61z"/>
	<path id="XMLID_608_" class="st15" d="M39.024,6.309c0.003,0.061-0.027,0.098-0.088,0.098c-0.058,0-0.099-0.035-0.097-0.093
		c0.001-0.046,0.034-0.083,0.084-0.088C38.983,6.218,39.019,6.247,39.024,6.309z"/>
	<path id="XMLID_607_" class="st16" d="M38.966,7.661c-0.048-0.006-0.091-0.027-0.083-0.08c0.008-0.051,0.045-0.091,0.101-0.093
		c0.043-0.001,0.066,0.033,0.069,0.073C39.057,7.622,39.022,7.652,38.966,7.661z"/>
	<path id="XMLID_606_" class="st14" d="M10.392,35.473C10.341,35.472,10.3,35.453,10.3,35.4c0-0.056,0.041-0.092,0.094-0.1
		c0.043-0.006,0.07,0.026,0.076,0.067C10.481,35.427,10.447,35.459,10.392,35.473z"/>
	<path id="XMLID_605_" class="st17" d="M8.224,41.676c-0.055-0.012-0.094-0.037-0.079-0.09c0.013-0.049,0.05-0.091,0.109-0.084
		c0.041,0.005,0.064,0.041,0.062,0.082C8.313,41.644,8.274,41.67,8.224,41.676z"/>
	<path id="XMLID_604_" class="st14" d="M7.317,23.048c0.053,0.008,0.077,0.042,0.074,0.092c-0.003,0.05-0.037,0.081-0.086,0.083
		c-0.049,0.002-0.091-0.023-0.087-0.076C7.222,23.092,7.262,23.06,7.317,23.048z"/>
	<path id="XMLID_603_" class="st12" d="M24.15,33.802c-0.014,0.064-0.047,0.097-0.107,0.089c-0.041-0.005-0.074-0.031-0.069-0.074
		c0.006-0.054,0.044-0.094,0.099-0.097C24.128,33.717,24.142,33.763,24.15,33.802z"/>
	<path id="XMLID_602_" class="st13" d="M36.899,13.772c-0.009,0.057-0.039,0.092-0.1,0.089c-0.041-0.002-0.075-0.026-0.074-0.069
		c0.001-0.057,0.042-0.094,0.092-0.102C36.87,13.681,36.892,13.724,36.899,13.772z"/>
	<path id="XMLID_601_" class="st12" d="M45.566,20.242c-0.007,0.058-0.038,0.093-0.098,0.091c-0.041-0.001-0.075-0.024-0.076-0.067
		c-0.002-0.058,0.04-0.095,0.09-0.105C45.534,20.151,45.559,20.192,45.566,20.242z"/>
	<path id="XMLID_600_" class="st14" d="M42.138,19.818c-0.006,0.059-0.038,0.093-0.098,0.091c-0.041-0.001-0.075-0.025-0.076-0.067
		c-0.002-0.059,0.04-0.096,0.09-0.105C42.106,19.728,42.131,19.769,42.138,19.818z"/>
	<path id="XMLID_599_" class="st14" d="M28.716,9.665c-0.055-0.013-0.093-0.038-0.079-0.091c0.014-0.05,0.05-0.091,0.11-0.083
		c0.041,0.006,0.063,0.042,0.061,0.083C28.806,9.635,28.766,9.66,28.716,9.665z"/>
	<path id="XMLID_598_" class="st13" d="M5.236,29.331c-0.012,0.062-0.043,0.097-0.103,0.092c-0.041-0.003-0.074-0.028-0.072-0.071
		c0.003-0.056,0.043-0.093,0.095-0.1C5.21,29.245,5.226,29.291,5.236,29.331z"/>
	<path id="XMLID_597_" class="st12" d="M13.903,35.796c-0.007,0.066-0.039,0.101-0.099,0.099c-0.041-0.001-0.075-0.024-0.076-0.067
		c-0.002-0.058,0.04-0.095,0.09-0.105C13.872,35.713,13.892,35.758,13.903,35.796z"/>
	<path id="XMLID_596_" class="st11" d="M31.691,15.32c-0.003,0.053-0.034,0.083-0.084,0.084c-0.05,0.001-0.084-0.028-0.091-0.078
		c-0.007-0.05,0.015-0.091,0.067-0.095C31.642,15.227,31.671,15.271,31.691,15.32z"/>
	<path id="XMLID_595_" class="st14" d="M23.133,15.443c-0.05-0.006-0.09-0.029-0.083-0.082c0.008-0.052,0.045-0.092,0.102-0.092
		c0.043,0,0.067,0.034,0.069,0.075C23.226,15.405,23.19,15.434,23.133,15.443z"/>
	<path id="XMLID_594_" class="st18" d="M41.937,13.317c-0.002,0.054-0.034,0.082-0.083,0.082c-0.049,0.001-0.083-0.028-0.09-0.077
		c-0.007-0.049,0.014-0.091,0.066-0.094C41.887,13.225,41.914,13.271,41.937,13.317z"/>
	<path id="XMLID_593_" class="st19" d="M28.231,7.57c-0.003,0.051-0.028,0.084-0.077,0.092c-0.05,0.008-0.09-0.014-0.097-0.064
		c-0.009-0.06,0.032-0.098,0.084-0.103C28.185,7.491,28.223,7.519,28.231,7.57z"/>
	<path id="XMLID_592_" class="st19" d="M12.396,15.377c-0.02,0.055-0.06,0.079-0.116,0.063c-0.039-0.011-0.067-0.043-0.056-0.084
		c0.014-0.051,0.046-0.092,0.108-0.077C12.377,15.292,12.407,15.322,12.396,15.377z"/>
	<path id="XMLID_591_" class="st20" d="M32.036,23.221c-0.001,0.044-0.026,0.069-0.067,0.077c-0.05,0.009-0.089-0.012-0.097-0.063
		c-0.007-0.043,0.025-0.069,0.065-0.077C31.986,23.149,32.02,23.172,32.036,23.221z"/>
	<path id="XMLID_590_" class="st21" d="M36.347,42.331c-0.005,0.047-0.023,0.082-0.08,0.083c-0.047,0.001-0.075-0.028-0.08-0.066
		c-0.007-0.047,0.017-0.086,0.071-0.094C36.314,42.246,36.336,42.281,36.347,42.331z"/>
	<path id="XMLID_589_" class="st20" d="M16.204,30.995c0.001,0.05-0.024,0.075-0.065,0.084c-0.05,0.01-0.089-0.011-0.099-0.06
		c-0.009-0.043,0.023-0.069,0.063-0.078C16.153,30.928,16.184,30.955,16.204,30.995z"/>
	<path id="XMLID_588_" class="st22" d="M33.75,46.981c-0.049-0.013-0.087-0.034-0.084-0.089c0.003-0.052,0.035-0.083,0.085-0.083
		c0.052,0,0.08,0.039,0.079,0.088C33.83,46.947,33.798,46.976,33.75,46.981z"/>
	<path id="XMLID_587_" class="st23" d="M34.785,2.391c0.06,0.013,0.089,0.044,0.085,0.094c-0.004,0.049-0.033,0.084-0.086,0.077
		c-0.047-0.006-0.081-0.033-0.077-0.088C34.711,2.42,34.751,2.405,34.785,2.391z"/>
	<path id="XMLID_586_" class="st24" d="M2.743,46.384c-0.05-0.003-0.084-0.026-0.083-0.081c0.002-0.052,0.034-0.08,0.085-0.08
		c0.045,0,0.069,0.029,0.072,0.071C2.821,46.345,2.799,46.379,2.743,46.384z"/>
	<path id="XMLID_585_" class="st7" d="M16.794,47.642c0.048,0.01,0.08,0.04,0.07,0.09c-0.009,0.045-0.044,0.079-0.095,0.068
		c-0.04-0.008-0.061-0.043-0.061-0.084C16.708,47.663,16.741,47.64,16.794,47.642z"/>
	<path id="XMLID_584_" class="st25" d="M13.905,5.98c-0.01,0.053-0.037,0.075-0.081,0.072c-0.043-0.003-0.073-0.025-0.067-0.072
		c0.005-0.044,0.036-0.068,0.078-0.065C13.877,5.917,13.899,5.946,13.905,5.98z"/>
	<path id="XMLID_583_" class="st26" d="M41.837,47.175c-0.004,0.057-0.03,0.09-0.084,0.085c-0.052-0.004-0.078-0.039-0.076-0.091
		c0.002-0.046,0.035-0.066,0.076-0.067C41.803,47.1,41.837,47.123,41.837,47.175z"/>
	<path id="XMLID_582_" class="st27" d="M19.145,5.968c-0.003,0.049-0.028,0.082-0.082,0.081c-0.043-0.001-0.071-0.029-0.073-0.072
		c-0.002-0.053,0.025-0.085,0.08-0.084C19.114,5.895,19.139,5.921,19.145,5.968z"/>
	<path id="XMLID_581_" class="st27" d="M3.221,13.674c0.056,0,0.086,0.023,0.091,0.066c0.007,0.052-0.02,0.089-0.073,0.091
		c-0.054,0.003-0.082-0.031-0.08-0.084C3.16,13.702,3.19,13.681,3.221,13.674z"/>
	<path id="XMLID_580_" class="st28" d="M32.618,39.86c0.046,0.003,0.08,0.03,0.076,0.083c-0.003,0.04-0.031,0.072-0.073,0.074
		c-0.055,0.003-0.078-0.037-0.08-0.086C32.54,39.886,32.568,39.863,32.618,39.86z"/>
	<path id="XMLID_579_" class="st6" d="M45.802,45.334c0.053,0.009,0.081,0.032,0.079,0.077c-0.002,0.051-0.03,0.084-0.084,0.078
		c-0.041-0.005-0.069-0.032-0.07-0.075C45.726,45.357,45.766,45.341,45.802,45.334z"/>
	<path id="XMLID_578_" class="st29" d="M48.529,32.154c-0.009,0.047-0.033,0.084-0.086,0.081c-0.042-0.002-0.065-0.035-0.07-0.076
		c-0.005-0.045,0.019-0.073,0.062-0.079C48.488,32.073,48.518,32.102,48.529,32.154z"/>
	<path id="XMLID_577_" class="st30" d="M38.629,7.034c-0.04-0.012-0.067-0.037-0.057-0.079c0.007-0.03,0.031-0.056,0.067-0.049
		c0.041,0.008,0.066,0.036,0.057,0.078C38.69,7.014,38.665,7.035,38.629,7.034z"/>
	<path id="XMLID_576_" class="st31" d="M9.893,1.848c0.044,0,0.072,0.026,0.076,0.066c0.005,0.043-0.028,0.07-0.067,0.074
		C9.86,1.991,9.83,1.966,9.827,1.923C9.823,1.879,9.852,1.857,9.893,1.848z"/>
	<path id="XMLID_575_" class="st32" d="M31.539,21.224c-0.014,0.042-0.042,0.066-0.084,0.057c-0.03-0.007-0.058-0.029-0.054-0.065
		c0.005-0.04,0.029-0.07,0.073-0.065C31.515,21.155,31.537,21.183,31.539,21.224z"/>
	<path id="XMLID_574_" class="st19" d="M47.254,37.487c-0.01,0.041-0.035,0.068-0.078,0.06c-0.031-0.006-0.056-0.03-0.052-0.067
		c0.005-0.044,0.036-0.067,0.077-0.059C47.231,37.426,47.255,37.449,47.254,37.487z"/>
	<path id="XMLID_573_" class="st12" d="M17.822,3.24c0.035,0.004,0.07,0.017,0.065,0.067c-0.003,0.031-0.018,0.065-0.054,0.067
		c-0.045,0.003-0.066-0.031-0.07-0.071C17.76,3.266,17.78,3.244,17.822,3.24z"/>
	<path id="XMLID_572_" class="st33" d="M24.84,21.53c0.053,0.013,0.087,0.032,0.081,0.079c-0.006,0.043-0.038,0.068-0.081,0.062
		c-0.032-0.005-0.058-0.031-0.06-0.066C24.779,21.559,24.816,21.545,24.84,21.53z"/>
	<path id="XMLID_571_" class="st34" d="M7.197,23.906c-0.001,0.045-0.028,0.071-0.069,0.078c-0.036,0.006-0.061-0.022-0.071-0.052
		c-0.015-0.045,0.016-0.076,0.054-0.086C7.154,23.835,7.179,23.87,7.197,23.906z"/>
	<path id="XMLID_570_" class="st35" d="M14.381,22.131c-0.047-0.003-0.072-0.025-0.076-0.058c-0.004-0.043,0.021-0.073,0.066-0.074
		c0.036-0.001,0.063,0.024,0.067,0.056C14.444,22.1,14.41,22.12,14.381,22.131z"/>
	<path id="XMLID_569_" class="st36" d="M7.961,40.974c0.001,0.036-0.019,0.062-0.051,0.069c-0.043,0.01-0.072-0.015-0.08-0.056
		c-0.007-0.036,0.019-0.061,0.049-0.069C7.923,40.905,7.947,40.935,7.961,40.974z"/>
	<path id="XMLID_568_" class="st37" d="M19.536,5.05c0.038,0.012,0.071,0.034,0.065,0.078c-0.005,0.039-0.033,0.07-0.075,0.067
		c-0.043-0.003-0.067-0.035-0.064-0.076C19.465,5.079,19.492,5.053,19.536,5.05z"/>
	<path id="XMLID_567_" class="st30" d="M20.646,21.017c-0.037-0.006-0.063-0.026-0.064-0.061c-0.001-0.046,0.028-0.073,0.073-0.066
		c0.032,0.005,0.058,0.03,0.054,0.068C20.705,20.993,20.681,21.014,20.646,21.017z"/>
	<path id="XMLID_566_" class="st31" d="M13.194,7.78c0.056,0,0.084,0.026,0.088,0.065c0.005,0.043-0.027,0.07-0.067,0.074
		c-0.041,0.004-0.071-0.021-0.076-0.064C13.135,7.81,13.17,7.794,13.194,7.78z"/>
	<path id="XMLID_565_" class="st38" d="M38.858,8.358c-0.014,0.042-0.042,0.07-0.082,0.06C38.74,8.41,38.707,8.38,38.722,8.336
		c0.009-0.029,0.032-0.056,0.069-0.051C38.832,8.291,38.855,8.318,38.858,8.358z"/>
	<path id="XMLID_564_" class="st39" d="M20.793,22.407c-0.039-0.016-0.072-0.04-0.063-0.084c0.006-0.03,0.03-0.058,0.067-0.056
		c0.043,0.003,0.073,0.03,0.072,0.072C20.867,22.382,20.834,22.403,20.793,22.407z"/>
	<path id="XMLID_563_" class="st40" d="M28.457,8.965c-0.002,0.04-0.027,0.062-0.059,0.066c-0.043,0.005-0.074-0.02-0.076-0.065
		c-0.001-0.035,0.024-0.061,0.057-0.065C28.424,8.897,28.447,8.926,28.457,8.965z"/>
	<path id="XMLID_562_" class="st35" d="M24.602,19.994c0.052,0.004,0.079,0.026,0.082,0.058c0.005,0.043-0.024,0.072-0.068,0.075
		c-0.037,0.002-0.06-0.023-0.065-0.057C24.544,20.023,24.582,20.008,24.602,19.994z"/>
	<path id="XMLID_561_" class="st41" d="M41.788,19.202c-0.007,0.052-0.032,0.077-0.074,0.077c-0.033,0-0.059-0.023-0.064-0.055
		c-0.006-0.042,0.02-0.071,0.06-0.077C41.755,19.14,41.769,19.18,41.788,19.202z"/>
	<path id="XMLID_560_" class="st33" d="M14.678,23.593c-0.008,0.056-0.034,0.084-0.077,0.081c-0.043-0.003-0.071-0.036-0.067-0.078
		c0.003-0.03,0.027-0.058,0.064-0.06C14.645,23.534,14.663,23.568,14.678,23.593z"/>
	<path id="XMLID_559_" class="st42" d="M28.615,10.347c-0.001,0.045-0.027,0.071-0.068,0.078c-0.036,0.006-0.061-0.022-0.071-0.051
		c-0.015-0.045,0.016-0.076,0.053-0.086C28.572,10.276,28.596,10.311,28.615,10.347z"/>
	<path id="XMLID_558_" class="st34" d="M41.943,20.604c-0.011,0.044-0.039,0.073-0.081,0.067c-0.039-0.006-0.071-0.038-0.061-0.082
		c0.007-0.029,0.031-0.058,0.068-0.056C41.912,20.536,41.935,20.564,41.943,20.604z"/>
	<path id="XMLID_557_" class="st43" d="M8.039,42.296c0.044,0,0.075,0.026,0.079,0.065c0.005,0.044-0.029,0.069-0.07,0.073
		c-0.035,0.003-0.061-0.024-0.068-0.055C7.971,42.335,8.001,42.311,8.039,42.296z"/>
	<path id="XMLID_556_" class="st44" d="M2.338,44.33c-0.005,0.042-0.028,0.072-0.069,0.075c-0.042,0.003-0.07-0.024-0.073-0.066
		c-0.003-0.043,0.026-0.07,0.066-0.075C2.307,44.258,2.326,44.291,2.338,44.33z"/>
	<path id="XMLID_555_" class="st43" d="M45.371,21.026c-0.009,0.044-0.036,0.072-0.078,0.067c-0.04-0.005-0.071-0.036-0.063-0.079
		c0.005-0.03,0.029-0.058,0.066-0.057C45.339,20.958,45.361,20.986,45.371,21.026z"/>
	<path id="XMLID_554_" class="st42" d="M12.711,18.067c0.041,0.01,0.074,0.032,0.069,0.076c-0.005,0.042-0.039,0.069-0.081,0.062
		c-0.03-0.005-0.059-0.029-0.059-0.066C12.641,18.096,12.668,18.072,12.711,18.067z"/>
	<path id="XMLID_553_" class="st45" d="M35.009,19.63c-0.001,0.045-0.028,0.071-0.069,0.078c-0.036,0.006-0.061-0.022-0.071-0.052
		c-0.015-0.045,0.016-0.076,0.054-0.086C34.967,19.559,34.991,19.594,35.009,19.63z"/>
	<path id="XMLID_552_" class="st46" d="M27.768,47.375c-0.01,0.044-0.037,0.071-0.078,0.067c-0.039-0.004-0.071-0.029-0.066-0.074
		c0.005-0.041,0.032-0.068,0.076-0.064C27.741,47.308,27.763,47.336,27.768,47.375z"/>
	<path id="XMLID_551_" class="st43" d="M39.706,26.734c0.044,0.002,0.074,0.027,0.077,0.067c0.003,0.044-0.031,0.069-0.072,0.07
		c-0.034,0.001-0.06-0.025-0.066-0.057C39.637,26.771,39.666,26.747,39.706,26.734z"/>
	<path id="XMLID_550_" class="st41" d="M25.954,26.985c-0.002,0.046-0.025,0.071-0.067,0.075c-0.035,0.003-0.061-0.02-0.069-0.05
		c-0.011-0.043,0.017-0.073,0.054-0.082C25.915,26.918,25.937,26.953,25.954,26.985z"/>
	<path id="XMLID_549_" class="st45" d="M19.093,27.347c0.053,0.013,0.086,0.035,0.081,0.08c-0.005,0.042-0.039,0.069-0.081,0.063
		c-0.03-0.005-0.058-0.029-0.059-0.066C19.033,27.376,19.07,27.364,19.093,27.347z"/>
	<path id="XMLID_548_" class="st36" d="M29.378,27.41c0.001,0.041-0.019,0.066-0.05,0.074c-0.043,0.01-0.072-0.015-0.08-0.056
		c-0.007-0.036,0.019-0.061,0.049-0.069C29.341,27.346,29.363,27.378,29.378,27.41z"/>
	<path id="XMLID_547_" class="st36" d="M45.212,19.629c-0.003,0.047-0.026,0.071-0.058,0.074c-0.042,0.005-0.072-0.02-0.074-0.064
		c-0.002-0.035,0.023-0.059,0.055-0.064C45.18,19.569,45.198,19.604,45.212,19.629z"/>
	<path id="XMLID_546_" class="st35" d="M8.862,27.821c-0.021,0.07-0.049,0.094-0.093,0.085c-0.033-0.007-0.058-0.036-0.05-0.071
		c0.009-0.039,0.037-0.071,0.082-0.056C8.828,27.788,8.85,27.813,8.862,27.821z"/>
	<path id="XMLID_545_" class="st34" d="M26.111,28.377c-0.003,0.044-0.029,0.071-0.071,0.075c-0.036,0.004-0.061-0.023-0.07-0.053
		c-0.013-0.045,0.017-0.075,0.056-0.084C26.07,28.306,26.094,28.34,26.111,28.377z"/>
	<path id="XMLID_544_" class="st30" d="M4.811,28.668c0.039,0.005,0.067,0.027,0.065,0.07c-0.001,0.034-0.026,0.057-0.059,0.058
		c-0.043,0.001-0.07-0.025-0.068-0.068C4.751,28.695,4.775,28.675,4.811,28.668z"/>
	<path id="XMLID_543_" class="st43" d="M29.539,28.806c-0.008,0.043-0.034,0.071-0.077,0.069c-0.033-0.001-0.06-0.026-0.064-0.059
		c-0.006-0.044,0.022-0.073,0.063-0.077C29.506,28.735,29.527,28.767,29.539,28.806z"/>
	<path id="XMLID_542_" class="st34" d="M23.029,16.133c-0.009,0.043-0.034,0.072-0.077,0.07c-0.033-0.001-0.06-0.026-0.065-0.059
		c-0.006-0.044,0.022-0.074,0.064-0.078C22.996,16.061,23.017,16.094,23.029,16.133z"/>
	<path id="XMLID_541_" class="st33" d="M30.439,15.896c-0.043-0.006-0.073-0.031-0.073-0.075c0-0.033,0.025-0.06,0.059-0.065
		c0.043-0.006,0.076,0.019,0.082,0.061C30.513,15.863,30.479,15.884,30.439,15.896z"/>
	<path id="XMLID_540_" class="st32" d="M15.627,28.93c0.044-0.001,0.073,0.025,0.078,0.063c0.005,0.043-0.026,0.068-0.067,0.071
		c-0.035,0.002-0.06-0.021-0.067-0.052C15.561,28.969,15.59,28.944,15.627,28.93z"/>
	<path id="XMLID_539_" class="st41" d="M22.794,14.677c0.043,0.001,0.072,0.026,0.076,0.066c0.004,0.043-0.028,0.067-0.07,0.068
		c-0.034,0.001-0.059-0.023-0.065-0.054C22.728,14.713,22.756,14.69,22.794,14.677z"/>
	<path id="XMLID_538_" class="st33" d="M9.091,29.374c0,0.046-0.026,0.075-0.067,0.079c-0.044,0.004-0.072-0.027-0.075-0.07
		c-0.002-0.035,0.024-0.061,0.056-0.067C9.048,29.307,9.076,29.334,9.091,29.374z"/>
	<path id="XMLID_537_" class="st40" d="M12.626,16.741c0.001,0.037-0.019,0.062-0.052,0.07c-0.044,0.011-0.074-0.014-0.082-0.056
		c-0.008-0.036,0.018-0.062,0.049-0.071C12.586,16.672,12.609,16.705,12.626,16.741z"/>
	<path id="XMLID_536_" class="st39" d="M4.969,30.188c-0.04-0.008-0.071-0.029-0.071-0.073c0-0.035,0.026-0.06,0.057-0.066
		c0.044-0.008,0.075,0.023,0.082,0.061C5.045,30.154,5.009,30.176,4.969,30.188z"/>
	<path id="XMLID_535_" class="st47" d="M15.796,30.459c-0.05-0.016-0.082-0.039-0.074-0.083c0.005-0.03,0.028-0.058,0.064-0.058
		c0.043,0,0.071,0.028,0.073,0.068C15.862,30.433,15.819,30.442,15.796,30.459z"/>
	<path id="XMLID_534_" class="st39" d="M36.632,14.484c0.041,0.01,0.074,0.032,0.068,0.076c-0.005,0.042-0.038,0.069-0.08,0.062
		c-0.03-0.005-0.059-0.029-0.059-0.066C36.562,14.514,36.589,14.49,36.632,14.484z"/>
	<path id="XMLID_533_" class="st35" d="M30.272,14.282c-0.01,0.048-0.04,0.072-0.082,0.065c-0.032-0.005-0.059-0.031-0.054-0.068
		c0.006-0.042,0.035-0.071,0.079-0.061C30.247,14.225,30.27,14.249,30.272,14.282z"/>
	<path id="XMLID_532_" class="st47" d="M40.754,13.83c-0.014,0.042-0.043,0.07-0.085,0.059c-0.038-0.01-0.069-0.042-0.054-0.086
		c0.01-0.029,0.034-0.058,0.072-0.05C40.729,13.76,40.756,13.784,40.754,13.83z"/>
	<path id="XMLID_531_" class="st48" d="M27.691,32.247c0.037-0.001,0.064,0.02,0.071,0.051c0.01,0.044-0.018,0.072-0.059,0.079
		c-0.037,0.007-0.062-0.02-0.069-0.05C27.623,32.284,27.65,32.257,27.691,32.247z"/>
	<path id="XMLID_530_" class="st36" d="M23.721,33.265c-0.04-0.012-0.069-0.037-0.058-0.08c0.008-0.029,0.031-0.057,0.069-0.05
		c0.041,0.008,0.068,0.037,0.058,0.079C23.784,33.245,23.758,33.266,23.721,33.265z"/>
	<path id="XMLID_529_" class="st48" d="M43.525,24.598c-0.035-0.009-0.062-0.028-0.061-0.064c0.001-0.043,0.027-0.071,0.072-0.067
		c0.033,0.003,0.059,0.027,0.059,0.061C43.596,24.573,43.566,24.594,43.525,24.598z"/>
	<path id="XMLID_528_" class="st48" d="M11.871,40.028c0.034,0.01,0.061,0.029,0.06,0.064c-0.001,0.044-0.03,0.07-0.073,0.067
		c-0.033-0.003-0.059-0.027-0.058-0.062C11.801,40.052,11.828,40.029,11.871,40.028z"/>
	<path id="XMLID_527_" class="st43" d="M23.953,34.574c-0.001,0.046-0.027,0.072-0.068,0.079c-0.036,0.006-0.061-0.021-0.071-0.051
		c-0.014-0.045,0.016-0.075,0.053-0.085C23.911,34.506,23.934,34.542,23.953,34.574z"/>
	<path id="XMLID_526_" class="st41" d="M10.053,34.843c-0.04-0.006-0.07-0.026-0.069-0.07c0.001-0.033,0.025-0.058,0.056-0.064
		c0.043-0.007,0.073,0.022,0.079,0.06C10.127,34.812,10.095,34.835,10.053,34.843z"/>
	<path id="XMLID_525_" class="st30" d="M36.543,13.167c0,0.036-0.022,0.06-0.053,0.066c-0.041,0.007-0.071-0.017-0.076-0.06
		c-0.004-0.036,0.021-0.061,0.051-0.066C36.507,13.099,36.533,13.126,36.543,13.167z"/>
	<path id="XMLID_524_" class="st45" d="M3.272,35.273c-0.04-0.01-0.072-0.031-0.07-0.076c0.002-0.034,0.027-0.06,0.06-0.064
		c0.044-0.005,0.075,0.025,0.08,0.064C3.349,35.242,3.312,35.262,3.272,35.273z"/>
	<path id="XMLID_523_" class="st36" d="M13.547,35.191c0,0.044-0.023,0.069-0.054,0.074c-0.042,0.007-0.072-0.017-0.077-0.06
		c-0.004-0.036,0.022-0.061,0.052-0.067C13.511,35.129,13.533,35.162,13.547,35.191z"/>
	<path id="XMLID_522_" class="st36" d="M39.625,25.416c-0.002,0.038-0.025,0.061-0.057,0.065c-0.043,0.005-0.072-0.021-0.074-0.064
		c-0.002-0.035,0.024-0.06,0.055-0.064C39.593,25.348,39.617,25.376,39.625,25.416z"/>
	<path id="XMLID_521_" class="st37" d="M3.695,12.979c-0.043-0.01-0.069-0.036-0.065-0.078c0.004-0.04,0.03-0.072,0.074-0.067
		c0.04,0.004,0.071,0.032,0.066,0.075C3.765,12.949,3.737,12.974,3.695,12.979z"/>
	<path id="XMLID_520_" class="st49" d="M40.518,12.283c-0.01,0.044-0.039,0.069-0.081,0.062c-0.032-0.005-0.059-0.031-0.054-0.068
		c0.006-0.041,0.035-0.071,0.079-0.061C40.492,12.222,40.518,12.245,40.518,12.283z"/>
	<path id="XMLID_519_" class="st34" d="M10.283,36.156c-0.017,0.055-0.045,0.086-0.087,0.077c-0.038-0.008-0.071-0.039-0.059-0.083
		c0.008-0.029,0.031-0.056,0.07-0.054C10.254,36.098,10.262,36.138,10.283,36.156z"/>
	<path id="XMLID_518_" class="st47" d="M31.694,22.606c-0.01,0.044-0.038,0.072-0.079,0.066c-0.039-0.006-0.07-0.037-0.06-0.08
		c0.007-0.029,0.03-0.057,0.067-0.055C31.664,22.539,31.686,22.567,31.694,22.606z"/>
	<path id="XMLID_517_" class="st43" d="M13.707,36.587c-0.008,0.043-0.034,0.071-0.077,0.069c-0.033-0.001-0.06-0.026-0.064-0.059
		c-0.006-0.044,0.022-0.073,0.063-0.077C13.674,36.516,13.695,36.548,13.707,36.587z"/>
	<path id="XMLID_516_" class="st41" d="M6.973,22.458c0.04,0.011,0.07,0.034,0.065,0.076c-0.006,0.042-0.04,0.065-0.08,0.057
		c-0.029-0.006-0.058-0.029-0.055-0.065C6.906,22.486,6.93,22.461,6.973,22.458z"/>
	<path id="XMLID_515_" class="st50" d="M33.379,21.404c-0.009,0.051-0.04,0.07-0.08,0.065c-0.042-0.005-0.064-0.035-0.055-0.079
		c0.007-0.034,0.032-0.051,0.067-0.05C33.355,21.343,33.377,21.367,33.379,21.404z"/>
	<path id="XMLID_514_" class="st51" d="M5.49,25.616c0.043-0.002,0.074,0.018,0.076,0.06c0.003,0.042-0.026,0.068-0.069,0.069
		c-0.034,0.001-0.06-0.016-0.065-0.051C5.426,25.652,5.445,25.623,5.49,25.616z"/>
	<path id="XMLID_513_" class="st52" d="M26.146,18.715c-0.013,0.039-0.042,0.06-0.084,0.049c-0.031-0.008-0.058-0.031-0.05-0.067
		c0.01-0.041,0.043-0.062,0.085-0.053C26.129,18.651,26.15,18.675,26.146,18.715z"/>
	<path id="XMLID_512_" class="st53" d="M30.002,24.306c0.043,0.006,0.07,0.029,0.063,0.074c-0.006,0.045-0.042,0.063-0.082,0.057
		c-0.031-0.004-0.056-0.026-0.054-0.065C29.932,24.326,29.958,24.306,30.002,24.306z"/>
	<path id="XMLID_511_" class="st51" d="M19.168,24.167c-0.043-0.006-0.067-0.03-0.061-0.074c0.005-0.034,0.027-0.054,0.062-0.055
		c0.043-0.001,0.071,0.022,0.072,0.064C19.241,24.145,19.21,24.165,19.168,24.167z"/>
	<path id="XMLID_510_" class="st54" d="M43.984,26.279c-0.01,0.032-0.026,0.059-0.063,0.058c-0.036-0.001-0.059-0.024-0.058-0.06
		c0.001-0.043,0.025-0.076,0.07-0.069C43.962,26.214,43.986,26.241,43.984,26.279z"/>
	<path id="XMLID_509_" class="st51" d="M21.399,17.897c-0.005,0.046-0.031,0.069-0.074,0.067c-0.043-0.002-0.067-0.028-0.062-0.073
		c0.004-0.034,0.026-0.054,0.062-0.056C21.369,17.833,21.392,17.857,21.399,17.897z"/>
	<path id="XMLID_508_" class="st52" d="M10.314,26.496c-0.013,0.039-0.042,0.06-0.084,0.049c-0.031-0.008-0.058-0.031-0.05-0.067
		c0.01-0.041,0.043-0.062,0.085-0.053C10.297,26.433,10.318,26.456,10.314,26.496z"/>
	<path id="XMLID_507_" class="st51" d="M35.074,16.319c-0.007,0.048-0.035,0.069-0.076,0.066c-0.043-0.003-0.066-0.032-0.059-0.075
		c0.005-0.034,0.028-0.053,0.064-0.053C35.046,16.256,35.069,16.279,35.074,16.319z"/>
	<path id="XMLID_506_" class="st39" d="M39.815,40.27c0.038,0.006,0.076,0.019,0.077,0.065c0.001,0.042-0.023,0.071-0.068,0.073
		c-0.037,0.002-0.061-0.024-0.068-0.055C39.746,40.311,39.774,40.284,39.815,40.27z"/>
	<path id="XMLID_505_" class="st50" d="M17.549,29.174c-0.009,0.06-0.038,0.08-0.08,0.076c-0.043-0.004-0.065-0.034-0.057-0.077
		c0.006-0.033,0.03-0.051,0.066-0.052C17.525,29.12,17.535,29.155,17.549,29.174z"/>
	<path id="XMLID_504_" class="st51" d="M3.344,31.818c0.041,0.005,0.069,0.025,0.064,0.07c-0.005,0.045-0.039,0.063-0.079,0.058
		c-0.031-0.003-0.057-0.022-0.056-0.061C3.275,31.84,3.299,31.82,3.344,31.818z"/>
	<path id="XMLID_503_" class="st54" d="M12.251,41.901c-0.033-0.01-0.058-0.028-0.053-0.066c0.004-0.033,0.02-0.064,0.057-0.063
		c0.045,0.001,0.069,0.033,0.063,0.075C12.313,41.878,12.289,41.903,12.251,41.901z"/>
	<path id="XMLID_502_" class="st54" d="M28.089,34.12c-0.036-0.004-0.058-0.024-0.06-0.06c-0.001-0.034,0.017-0.065,0.051-0.069
		c0.045-0.005,0.071,0.025,0.069,0.068C28.148,34.093,28.125,34.116,28.089,34.12z"/>
	<path id="XMLID_501_" class="st53" d="M14.236,32.149c-0.004,0.045-0.029,0.069-0.073,0.069c-0.034,0-0.06-0.017-0.064-0.053
		c-0.005-0.043,0.014-0.073,0.06-0.077C14.202,32.084,14.227,32.107,14.236,32.149z"/>
	<path id="XMLID_500_" class="st51" d="M37.154,10.054c0.043-0.002,0.074,0.018,0.076,0.06c0.003,0.042-0.026,0.068-0.069,0.069
		c-0.034,0.001-0.06-0.016-0.065-0.051C37.09,10.089,37.109,10.061,37.154,10.054z"/>
	<path id="XMLID_499_" class="st50" d="M18.334,11.689c-0.005,0.046-0.029,0.075-0.073,0.073c-0.041-0.002-0.075-0.025-0.072-0.071
		c0.002-0.034,0.028-0.057,0.064-0.06C18.297,11.626,18.325,11.647,18.334,11.689z"/>
	<path id="XMLID_498_" class="st55" d="M4.122,17.713c-0.008,0.047-0.038,0.064-0.082,0.056c-0.038-0.007-0.05-0.039-0.047-0.072
		c0.003-0.034,0.023-0.058,0.062-0.057C4.104,17.641,4.123,17.668,4.122,17.713z"/>
	<path id="XMLID_497_" class="st55" d="M19.848,9.858c0.084,0.001,0.108,0.024,0.106,0.071c-0.001,0.038-0.026,0.058-0.06,0.06
		c-0.048,0.004-0.07-0.028-0.068-0.071C19.827,9.885,19.844,9.858,19.848,9.858z"/>
	<path id="XMLID_496_" class="st53" d="M40.314,22.367c-0.007,0.048-0.035,0.07-0.077,0.067c-0.043-0.003-0.067-0.032-0.06-0.076
		c0.005-0.034,0.029-0.054,0.065-0.054C40.286,22.303,40.309,22.327,40.314,22.367z"/>
	<path id="XMLID_495_" class="st53" d="M24.409,30.216c-0.041-0.004-0.068-0.024-0.065-0.071c0.002-0.036,0.024-0.057,0.059-0.061
		c0.043-0.004,0.075,0.018,0.078,0.06C24.484,30.188,24.455,30.212,24.409,30.216z"/>
	<path id="XMLID_494_" class="st53" d="M8.58,37.997c-0.041-0.003-0.069-0.021-0.068-0.068c0.001-0.037,0.022-0.058,0.056-0.063
		c0.043-0.006,0.076,0.016,0.081,0.057C8.654,37.965,8.627,37.992,8.58,37.997z"/>
	<path id="XMLID_493_" class="st50" d="M2.444,19.545c-0.049-0.003-0.086-0.021-0.088-0.065c-0.002-0.043,0.029-0.068,0.074-0.069
		c0.035-0.001,0.062,0.015,0.069,0.052C2.508,19.511,2.474,19.529,2.444,19.545z"/>
	<path id="XMLID_492_" class="st50" d="M1.651,36.903c0.043,0.006,0.069,0.029,0.062,0.073c-0.006,0.045-0.041,0.061-0.081,0.056
		c-0.031-0.004-0.055-0.025-0.053-0.063C1.581,36.922,1.607,36.903,1.651,36.903z"/>
	<path id="XMLID_491_" class="st56" d="M46.688,9.115c0.004,0.062-0.018,0.09-0.061,0.092c-0.034,0.001-0.057-0.023-0.061-0.057
		c-0.005-0.044,0.019-0.074,0.062-0.074C46.656,9.076,46.689,9.091,46.688,9.115z"/>
	<path id="XMLID_490_" class="st57" d="M41.903,10.98c-0.035-0.008-0.063-0.022-0.053-0.061c0.008-0.033,0.034-0.053,0.069-0.047
		c0.033,0.006,0.056,0.029,0.052,0.064C41.967,10.975,41.933,10.978,41.903,10.98z"/>
	<path id="XMLID_489_" class="st58" d="M2.759,11.714c0.045,0.009,0.065,0.038,0.059,0.082c-0.005,0.035-0.03,0.062-0.064,0.057
		c-0.041-0.006-0.067-0.037-0.06-0.083C2.699,11.736,2.722,11.716,2.759,11.714z"/>
	<path id="XMLID_488_" class="st22" d="M7.568,11.815c-0.011,0.045-0.038,0.069-0.081,0.058c-0.031-0.008-0.055-0.032-0.048-0.069
		c0.008-0.043,0.038-0.064,0.081-0.055C7.555,11.755,7.565,11.785,7.568,11.815z"/>
	<path id="XMLID_487_" class="st59" d="M19.035,37.736c-0.04-0.008-0.044-0.04-0.041-0.071c0.002-0.026,0.013-0.052,0.044-0.05
		c0.034,0.002,0.058,0.024,0.057,0.061C19.094,37.711,19.07,37.729,19.035,37.736z"/>
	<path id="XMLID_486_" class="st60" d="M42.633,13.07c-0.005,0.034-0.023,0.061-0.058,0.066c-0.045,0.007-0.076-0.019-0.081-0.061
		c-0.004-0.034,0.023-0.061,0.056-0.067C42.595,13.001,42.622,13.027,42.633,13.07z"/>
	<path id="XMLID_485_" class="st61" d="M38.747,28.809c-0.008,0.042-0.04,0.06-0.082,0.053c-0.033-0.006-0.059-0.031-0.053-0.066
		c0.007-0.041,0.037-0.069,0.082-0.06C38.726,28.743,38.747,28.769,38.747,28.809z"/>
	<path id="XMLID_484_" class="st62" d="M10.351,16.448c0.029,0.003,0.054,0.02,0.057,0.055c0.005,0.046-0.024,0.074-0.064,0.074
		c-0.041,0-0.068-0.029-0.063-0.075C10.286,16.466,10.31,16.45,10.351,16.448z"/>
	<path id="XMLID_483_" class="st63" d="M45.893,16.59c-0.006,0.034-0.023,0.058-0.061,0.06c-0.035,0.001-0.064-0.011-0.067-0.05
		c-0.003-0.045,0.021-0.071,0.067-0.071C45.872,16.529,45.885,16.558,45.893,16.59z"/>
	<path id="XMLID_482_" class="st56" d="M43.124,41.344c0.044,0.006,0.066,0.032,0.066,0.075c0,0.034-0.012,0.062-0.05,0.066
		c-0.043,0.005-0.073-0.012-0.078-0.058C43.058,41.381,43.087,41.359,43.124,41.344z"/>
	<path id="XMLID_481_" class="st64" d="M27.93,33.899c-0.033-0.001-0.064-0.011-0.063-0.049c0.001-0.032,0.023-0.056,0.059-0.057
		c0.036-0.001,0.06,0.022,0.063,0.054C27.993,33.884,27.965,33.898,27.93,33.899z"/>
	<path id="XMLID_480_" class="st64" d="M12.088,41.573c0.035,0,0.06,0.016,0.067,0.049c0.009,0.039-0.019,0.055-0.052,0.057
		c-0.031,0.003-0.065-0.003-0.068-0.042C12.032,41.603,12.056,41.583,12.088,41.573z"/>
	<path id="XMLID_479_" class="st64" d="M43.824,26.065c-0.005,0.04-0.031,0.054-0.066,0.052c-0.026-0.001-0.053-0.008-0.056-0.04
		c-0.004-0.038,0.019-0.061,0.054-0.066C43.793,26.006,43.811,26.034,43.824,26.065z"/>
	<path id="XMLID_478_" class="st65" d="M42.684,35.084c0.002,0.039-0.024,0.061-0.056,0.064c-0.042,0.003-0.073-0.021-0.072-0.066
		c0.001-0.044,0.03-0.067,0.075-0.062C42.668,35.023,42.682,35.049,42.684,35.084z"/>
	<path id="XMLID_477_" class="st66" d="M36.768,2.072c-0.046,0-0.066-0.028-0.067-0.07C36.7,1.97,36.713,1.94,36.749,1.934
		c0.044-0.008,0.071,0.018,0.079,0.058C36.836,2.036,36.807,2.059,36.768,2.072z"/>
	<path id="XMLID_476_" class="st65" d="M26.784,42.931c-0.042-0.011-0.069-0.038-0.06-0.081c0.006-0.031,0.033-0.054,0.069-0.051
		c0.047,0.005,0.064,0.037,0.058,0.079C26.846,42.914,26.816,42.927,26.784,42.931z"/>
	<path id="XMLID_475_" class="st67" d="M35.642,3.011c-0.046-0.001-0.077-0.028-0.075-0.067c0.001-0.04,0.035-0.064,0.078-0.061
		c0.034,0.003,0.059,0.022,0.061,0.057C35.71,2.985,35.683,3.007,35.642,3.011z"/>
	<path id="XMLID_474_" class="st68" d="M45.897,2.938c0.036,0.016,0.067,0.036,0.062,0.081c-0.005,0.045-0.033,0.064-0.076,0.059
		c-0.037-0.004-0.051-0.031-0.052-0.065C45.83,2.97,45.859,2.949,45.897,2.938z"/>
	<path id="XMLID_473_" class="st61" d="M7.083,44.371c-0.008,0.043-0.04,0.06-0.082,0.053c-0.033-0.006-0.059-0.031-0.053-0.066
		c0.007-0.041,0.037-0.069,0.082-0.06C7.062,44.305,7.082,44.332,7.083,44.371z"/>
	<path id="XMLID_472_" class="st59" d="M34.855,29.83c0.046,0.004,0.068,0.024,0.071,0.059c0.003,0.037-0.022,0.06-0.055,0.063
		c-0.029,0.003-0.043-0.022-0.046-0.048C34.822,29.872,34.83,29.844,34.855,29.83z"/>
	<path id="XMLID_471_" class="st69" d="M3.273,45.459c-0.009,0.04-0.03,0.072-0.074,0.066c-0.045-0.005-0.059-0.043-0.053-0.082
		c0.004-0.03,0.023-0.062,0.06-0.059C3.246,45.388,3.271,45.415,3.273,45.459z"/>
	<path id="XMLID_470_" class="st70" d="M34.095,3.978c-0.045-0.009-0.078-0.027-0.069-0.074c0.006-0.032,0.032-0.053,0.068-0.051
		c0.043,0.003,0.069,0.027,0.063,0.072C34.153,3.962,34.122,3.972,34.095,3.978z"/>
	<path id="XMLID_469_" class="st53" d="M35.789,46.418c-0.006,0.044-0.033,0.07-0.074,0.066c-0.045-0.004-0.06-0.041-0.054-0.081
		c0.004-0.032,0.026-0.061,0.061-0.058C35.761,46.35,35.789,46.374,35.789,46.418z"/>
	<path id="XMLID_468_" class="st65" d="M18.651,4.001c-0.002,0.041-0.023,0.074-0.068,0.07c-0.031-0.003-0.058-0.027-0.058-0.065
		c0-0.045,0.021-0.074,0.068-0.072C18.629,3.936,18.647,3.963,18.651,4.001z"/>
	<path id="XMLID_467_" class="st22" d="M23.4,4.022c-0.002,0.042-0.019,0.072-0.066,0.071c-0.034-0.001-0.06-0.021-0.063-0.056
		c-0.003-0.044,0.021-0.07,0.065-0.072C23.374,3.964,23.39,3.99,23.4,4.022z"/>
	<path id="XMLID_466_" class="st50" d="M2.205,4.408C2.208,4.454,2.181,4.481,2.14,4.483C2.109,4.484,2.08,4.465,2.077,4.426
		C2.073,4.381,2.095,4.354,2.141,4.353C2.175,4.352,2.199,4.372,2.205,4.408z"/>
	<path id="XMLID_465_" class="st71" d="M34.606,47.426c-0.044,0.001-0.078-0.022-0.08-0.062c-0.003-0.042,0.03-0.066,0.073-0.067
		c0.035-0.001,0.061,0.015,0.067,0.051C34.673,47.394,34.649,47.418,34.606,47.426z"/>
	<path id="XMLID_464_" class="st62" d="M26.177,8.667c0.037,0.004,0.061,0.022,0.063,0.058c0.003,0.046-0.025,0.071-0.067,0.071
		c-0.031,0-0.059-0.02-0.06-0.059C26.111,8.691,26.136,8.67,26.177,8.667z"/>
	<path id="XMLID_463_" class="st61" d="M22.916,36.584c-0.004,0.037-0.028,0.058-0.061,0.06c-0.043,0.003-0.076-0.021-0.074-0.065
		c0.001-0.031,0.024-0.059,0.061-0.062C22.888,36.513,22.908,36.543,22.916,36.584z"/>
	<path id="XMLID_462_" class="st72" d="M29.982,27.67c0.002,0.039-0.024,0.054-0.057,0.059c-0.026,0.004-0.053-0.002-0.055-0.034
		c-0.002-0.036,0.021-0.057,0.055-0.062C29.953,27.628,29.973,27.643,29.982,27.67z"/>
	<path id="XMLID_461_" class="st72" d="M45.765,19.947c-0.032,0.003-0.058-0.002-0.062-0.032c-0.005-0.037,0.02-0.057,0.053-0.064
		c0.028-0.006,0.05,0.009,0.057,0.035C45.822,19.928,45.788,19.937,45.765,19.947z"/>
	<path id="XMLID_460_" class="st73" d="M31.719,29.581c-0.031-0.006-0.052-0.028-0.053-0.061c-0.002-0.037,0.023-0.057,0.057-0.057
		c0.034,0,0.059,0.021,0.057,0.058C31.778,29.553,31.758,29.576,31.719,29.581z"/>
	<path id="XMLID_459_" class="st72" d="M8.57,41.231c-0.016,0.045-0.043,0.059-0.076,0.058c-0.028-0.001-0.048-0.02-0.042-0.048
		c0.008-0.033,0.035-0.056,0.069-0.049C8.54,41.195,8.556,41.219,8.57,41.231z"/>
	<path id="XMLID_458_" class="st74" d="M16.964,5.015c0.027,0.002,0.049,0.01,0.053,0.041c0.004,0.039-0.016,0.059-0.053,0.058
		c-0.029-0.001-0.045-0.023-0.045-0.049C16.919,5.038,16.934,5.019,16.964,5.015z"/>
	<path id="XMLID_457_" class="st72" d="M40.167,25.629c0.033-0.002,0.056,0.01,0.06,0.038c0.006,0.039-0.024,0.054-0.056,0.059
		c-0.026,0.004-0.053-0.002-0.055-0.034C40.113,25.655,40.139,25.637,40.167,25.629z"/>
	<path id="XMLID_456_" class="st75" d="M9.89,28.246c0.003,0.028-0.006,0.05-0.035,0.056c-0.038,0.009-0.061-0.011-0.063-0.047
		c-0.001-0.026,0.016-0.048,0.045-0.049C9.864,28.205,9.886,28.216,9.89,28.246z"/>
	<path id="XMLID_455_" class="st76" d="M3.765,2.713C3.734,2.707,3.704,2.697,3.699,2.661C3.692,2.615,3.721,2.593,3.761,2.586
		c0.036-0.006,0.06,0.019,0.064,0.051C3.831,2.678,3.811,2.708,3.765,2.713z"/>
	<path id="XMLID_454_" class="st72" d="M14.15,35.451c0.002,0.039-0.024,0.054-0.057,0.059c-0.026,0.004-0.053-0.002-0.055-0.034
		c-0.002-0.036,0.021-0.057,0.055-0.062C14.121,35.409,14.14,35.424,14.15,35.451z"/>
	<path id="XMLID_453_" class="st77" d="M28.502,30.798c-0.003,0.042-0.025,0.063-0.058,0.067c-0.043,0.004-0.074-0.02-0.074-0.062
		c0-0.03,0.021-0.059,0.057-0.062C28.473,30.736,28.49,30.767,28.502,30.798z"/>
	<path id="XMLID_452_" class="st77" d="M44.274,22.958c0.034,0.002,0.058,0.028,0.058,0.069c0,0.035-0.027,0.054-0.06,0.056
		c-0.043,0.002-0.071-0.023-0.068-0.066C44.206,22.986,44.226,22.961,44.274,22.958z"/>
	<path id="XMLID_451_" class="st75" d="M15.477,22.484c-0.004,0.03-0.025,0.045-0.051,0.043c-0.037-0.003-0.055-0.027-0.045-0.065
		c0.008-0.028,0.03-0.038,0.058-0.032C15.468,22.435,15.477,22.457,15.477,22.484z"/>
	<path id="XMLID_450_" class="st78" d="M44.111,44.557c0,0.038-0.022,0.058-0.057,0.059c-0.033,0.001-0.063-0.011-0.065-0.051
		c-0.002-0.043,0.02-0.074,0.065-0.072C44.09,44.495,44.106,44.524,44.111,44.557z"/>
	<path id="XMLID_449_" class="st73" d="M47.545,21.798c-0.03-0.009-0.049-0.032-0.047-0.066c0.002-0.038,0.029-0.053,0.063-0.049
		c0.035,0.004,0.056,0.026,0.05,0.063C47.605,21.778,47.586,21.8,47.545,21.798z"/>
	<path id="XMLID_448_" class="st72" d="M24.397,33.463c-0.013,0.034-0.041,0.046-0.074,0.045c-0.029-0.002-0.046-0.022-0.039-0.05
		c0.009-0.034,0.036-0.052,0.07-0.047C24.382,33.414,24.397,33.434,24.397,33.463z"/>
	<path id="XMLID_447_" class="st73" d="M15.947,37.307c-0.008,0.033-0.027,0.057-0.062,0.053c-0.035-0.005-0.052-0.031-0.05-0.066
		c0.002-0.038,0.029-0.053,0.063-0.05C15.932,37.248,15.951,37.27,15.947,37.307z"/>
	<path id="XMLID_446_" class="st75" d="M25.671,20.524c-0.028-0.004-0.047-0.021-0.046-0.049c0.001-0.036,0.023-0.057,0.061-0.049
		c0.029,0.006,0.039,0.028,0.037,0.055C25.72,20.513,25.697,20.521,25.671,20.524z"/>
	<path id="XMLID_445_" class="st75" d="M31.267,14.745c-0.028,0.001-0.049-0.008-0.055-0.037c-0.007-0.039,0.013-0.06,0.05-0.061
		c0.027-0.001,0.047,0.019,0.047,0.047C31.309,14.719,31.297,14.741,31.267,14.745z"/>
	<path id="XMLID_444_" class="st76" d="M21.624,48.101c-0.011,0.051-0.035,0.074-0.08,0.062c-0.034-0.008-0.055-0.031-0.049-0.066
		c0.007-0.044,0.04-0.061,0.081-0.055C21.612,48.048,21.62,48.078,21.624,48.101z"/>
	<path id="XMLID_443_" class="st77" d="M12.537,38.591c0.004-0.035,0.019-0.063,0.052-0.069c0.043-0.008,0.071,0.018,0.078,0.058
		c0.006,0.036-0.019,0.059-0.051,0.065C12.575,38.653,12.547,38.631,12.537,38.591z"/>
	<path id="XMLID_442_" class="st79" d="M31.658,12.986c-0.035-0.006-0.063-0.027-0.061-0.061c0.002-0.032,0.027-0.058,0.064-0.058
		c0.033,0,0.04,0.024,0.041,0.051C31.703,12.95,31.702,12.982,31.658,12.986z"/>
	<path id="XMLID_441_" class="st80" d="M10.569,31.562c0.013-0.03,0.031-0.055,0.069-0.051c0.035,0.004,0.059,0.026,0.055,0.061
		c-0.004,0.033-0.03,0.055-0.066,0.051C10.592,31.619,10.572,31.598,10.569,31.562z"/>
	<path id="XMLID_440_" class="st6" d="M44.129,1.453c-0.032-0.01-0.06-0.023-0.062-0.062c-0.002-0.037,0.016-0.064,0.052-0.068
		c0.044-0.004,0.072,0.022,0.072,0.068C44.19,1.428,44.161,1.444,44.129,1.453z"/>
	<path id="XMLID_439_" class="st80" d="M26.459,23.844c-0.036-0.011-0.063-0.028-0.056-0.065c0.007-0.033,0.033-0.053,0.069-0.048
		c0.034,0.005,0.058,0.027,0.052,0.063C26.518,23.829,26.489,23.841,26.459,23.844z"/>
	<path id="XMLID_438_" class="st79" d="M15.812,20.764c-0.026-0.01-0.054-0.027-0.045-0.065c0.008-0.033,0.033-0.054,0.07-0.05
		c0.035,0.004,0.033,0.034,0.033,0.058C15.87,20.74,15.865,20.773,15.812,20.764z"/>
	<path id="XMLID_437_" class="st80" d="M42.36,16.005c-0.01,0.032-0.028,0.056-0.064,0.056c-0.037,0-0.063-0.024-0.062-0.056
		c0.001-0.03,0.025-0.056,0.063-0.056C42.334,15.949,42.351,15.973,42.36,16.005z"/>
	<path id="XMLID_436_" class="st81" d="M41.707,37.769c0.025,0.008,0.049,0.02,0.046,0.05c-0.003,0.029-0.027,0.045-0.054,0.038
		c-0.015-0.004-0.033-0.023-0.035-0.038C41.659,37.791,41.68,37.774,41.707,37.769z"/>
	<path id="XMLID_435_" class="st82" d="M46.003,49.635c0.016,0.012,0.035,0.019,0.039,0.032c0.009,0.027-0.011,0.047-0.035,0.047
		c-0.013,0-0.033-0.021-0.036-0.035C45.969,49.668,45.989,49.652,46.003,49.635z"/>
</g>
</svg>
