<?xml version="1.0" encoding="utf-8"?>
<!-- Generator: Adobe Illustrator 19.0.0, SVG Export Plug-In . SVG Version: 6.00 Build 0)  -->
<svg version="1.1" xmlns="http://www.w3.org/2000/svg" xmlns:xlink="http://www.w3.org/1999/xlink" x="0px" y="0px"
	 viewBox="0 0 50 50" style="enable-background:new 0 0 50 50;" xml:space="preserve">
<style type="text/css">
	.st0{display:none;}
	.st1{display:inline;fill:#D84E4E;}
	.st2{fill:#070707;}
	.st3{fill:#121211;}
	.st4{fill:#DCDBDB;}
	.st5{fill:#DDDCDC;}
	.st6{fill:#929191;}
	.st7{fill:#171717;}
	.st8{fill:#E6E5E5;}
	.st9{fill:#E0DFDF;}
	.st10{fill:#DAD9D9;}
	.st11{fill:#A8A7A8;}
	.st12{fill:#242423;}
	.st13{fill:#2F2F2F;}
	.st14{fill:#B0B0B0;}
	.st15{fill:#252525;}
	.st16{fill:#4F4F4F;}
	.st17{fill:#CCCCCC;}
	.st18{fill:#BFBDBD;}
	.st19{fill:#3A3A3A;}
	.st20{fill:#ECECEC;}
	.st21{fill:#CAC8C8;}
	.st22{fill:#575757;}
	.st23{fill:#9B9A9B;}
	.st24{fill:#383838;}
	.st25{fill:#C0BFBF;}
	.st26{fill:#858484;}
	.st27{fill:#777776;}
	.st28{fill:#767575;}
	.st29{fill:#CDCCCB;}
	.st30{fill:#A9A8A9;}
	.st31{fill:#D0CECE;}
	.st32{fill:#D0CFCE;}
	.st33{fill:#D9D8D8;}
	.st34{fill:#1B1B1B;}
	.st35{fill:#545454;}
	.st36{fill:#D7D5D5;}
	.st37{fill:#D9D7D7;}
	.st38{fill:#D5D3D3;}
	.st39{fill:#D3D3D2;}
	.st40{fill:#E0E0DF;}
	.st41{fill:#909090;}
	.st42{fill:#D8D7D6;}
	.st43{fill:#CECDCD;}
	.st44{fill:#D8D7D7;}
	.st45{fill:#A1A1A1;}
	.st46{fill:#222322;}
	.st47{fill:#2D2D2D;}
	.st48{fill:#9C9C9C;}
	.st49{fill:#4B4B4B;}
	.st50{fill:#A4A2A2;}
</style>
<g id="Layer_2" class="st0">
	<rect id="XMLID_1_" x="-3.167" y="-4.5" class="st1" width="60.167" height="63.5"/>
</g>
<g id="Layer_1">
	<g id="XMLID_2_">
		<path id="XMLID_184_" class="st2" d="M0.039,14.611c0-4.8,0.001-9.599-0.004-14.399c0-0.145,0.033-0.177,0.177-0.177
			C16.821,0.039,33.43,0.039,50.039,0.039c0.036,0.067,0.018,0.139,0.018,0.208c0.001,4.715,0.001,9.43,0.001,14.145
			c0,0.261,0.031,0.238-0.236,0.238c-4.246,0-8.492,0-12.738,0c-12.266,0-24.532,0-36.798-0.001
			C0.203,14.628,0.118,14.648,0.039,14.611z"/>
		<path id="XMLID_182_" class="st3" d="M40.997,13.462c0.215,0.255,0.318,0.538,0.429,0.817c0.021,0.053,0.038,0.119-0.017,0.159
			c-0.049,0.036-0.105-0.002-0.14-0.033c-0.161-0.144-0.317-0.282-0.304-0.539c0.005-0.105-0.104-0.214-0.02-0.334
			C40.959,13.511,40.974,13.492,40.997,13.462z"/>
		<path id="XMLID_181_" class="st4" d="M45.409,3.328c0.003,0.081-0.03,0.117-0.088,0.121c-0.056,0.005-0.098-0.023-0.105-0.084
			c-0.007-0.069,0.031-0.114,0.096-0.114C45.366,3.251,45.404,3.289,45.409,3.328z"/>
		<path id="XMLID_180_" class="st5" d="M4.204,3.277C4.202,3.34,4.161,3.371,4.107,3.37C4.054,3.369,4.011,3.335,4.012,3.275
			c0.001-0.067,0.044-0.107,0.107-0.102C4.173,3.176,4.205,3.218,4.204,3.277z"/>
		<path id="XMLID_179_" class="st6" d="M23.014,1.826c-0.005,0.059-0.032,0.102-0.093,0.102c-0.059,0-0.095-0.041-0.094-0.099
			c0.001-0.048,0.034-0.085,0.083-0.091C22.971,1.733,23.002,1.771,23.014,1.826z"/>
		<path id="XMLID_178_" class="st7" d="M26.235,7.676c0.057,0.009,0.093,0.039,0.088,0.101c-0.004,0.051-0.04,0.082-0.089,0.08
			c-0.058-0.002-0.094-0.038-0.089-0.099C26.149,7.707,26.184,7.683,26.235,7.676z"/>
		<path id="XMLID_177_" class="st8" d="M7.077,9.719c-0.059-0.008-0.095-0.043-0.096-0.1c0-0.057,0.038-0.097,0.096-0.098
			c0.059-0.001,0.095,0.038,0.094,0.097C7.171,9.677,7.136,9.711,7.077,9.719z"/>
		<path id="XMLID_176_" class="st9" d="M28.994,10.969c0.003,0.068-0.024,0.108-0.086,0.109c-0.057,0.001-0.101-0.03-0.105-0.09
			c-0.004-0.059,0.039-0.098,0.093-0.105C28.958,10.875,28.988,10.917,28.994,10.969z"/>
		<path id="XMLID_175_" class="st10" d="M20.349,10.551c-0.01,0.056-0.04,0.093-0.1,0.095c-0.061,0.002-0.098-0.028-0.097-0.091
			c0.001-0.059,0.034-0.101,0.093-0.101C20.301,10.455,20.335,10.495,20.349,10.551z"/>
		<path id="XMLID_174_" class="st11" d="M39.152,9.071c-0.057-0.007-0.097-0.039-0.094-0.096c0.003-0.055,0.044-0.094,0.099-0.093
			c0.056,0.001,0.09,0.039,0.09,0.098C39.247,9.042,39.211,9.069,39.152,9.071z"/>
		<path id="XMLID_173_" class="st12" d="M38.908,7.593c0.021-0.055,0.049-0.098,0.105-0.099c0.053-0.001,0.075,0.041,0.071,0.09
			c-0.004,0.05-0.038,0.08-0.087,0.082C38.947,7.668,38.918,7.638,38.908,7.593z"/>
		<path id="XMLID_172_" class="st13" d="M36.843,13.698c0.054,0.002,0.082,0.034,0.083,0.083c0.001,0.05-0.028,0.083-0.078,0.09
			c-0.05,0.007-0.091-0.014-0.094-0.066C36.75,13.747,36.797,13.72,36.843,13.698z"/>
		<path id="XMLID_171_" class="st14" d="M38.974,6.228c0.062,0.01,0.086,0.048,0.08,0.107c-0.005,0.054-0.04,0.079-0.09,0.076
			c-0.057-0.003-0.1-0.036-0.095-0.095C38.874,6.261,38.914,6.228,38.974,6.228z"/>
		<path id="XMLID_170_" class="st15" d="M41.97,13.327c-0.009,0.062-0.044,0.085-0.093,0.082c-0.05-0.003-0.081-0.036-0.083-0.085
			c-0.002-0.048,0.022-0.09,0.076-0.086C41.925,13.242,41.951,13.288,41.97,13.327z"/>
		<path id="XMLID_169_" class="st16" d="M28.156,7.496c0.052,0.012,0.094,0.028,0.096,0.082c0.001,0.05-0.028,0.082-0.077,0.09
			c-0.05,0.008-0.089-0.015-0.097-0.065C28.067,7.541,28.117,7.519,28.156,7.496z"/>
		<path id="XMLID_168_" class="st17" d="M34.899,2.486c-0.011,0.052-0.038,0.086-0.09,0.078c-0.047-0.007-0.081-0.035-0.075-0.09
			c0.006-0.052,0.042-0.08,0.09-0.077C34.874,2.401,34.896,2.44,34.899,2.486z"/>
		<path id="XMLID_167_" class="st18" d="M13.837,5.918c0.04,0.004,0.072,0.021,0.075,0.066c0.003,0.045-0.025,0.069-0.068,0.071
			c-0.042,0.002-0.075-0.014-0.077-0.061C13.765,5.949,13.795,5.928,13.837,5.918z"/>
		<path id="XMLID_166_" class="st19" d="M28.797,9.522c0.051,0.041,0.045,0.084,0.003,0.125c-0.029,0.029-0.067,0.034-0.102,0.014
			c-0.042-0.025-0.066-0.059-0.02-0.103C28.72,9.552,28.753,9.519,28.797,9.522z"/>
		<path id="XMLID_165_" class="st20" d="M19.079,6.056c-0.054-0.01-0.081-0.041-0.074-0.093c0.006-0.042,0.035-0.068,0.08-0.065
			c0.044,0.003,0.072,0.028,0.073,0.072C19.161,6.023,19.13,6.051,19.079,6.056z"/>
		<path id="XMLID_164_" class="st20" d="M3.316,13.757c-0.002,0.05-0.025,0.084-0.079,0.085c-0.044,0.001-0.072-0.027-0.075-0.07
			c-0.004-0.052,0.022-0.086,0.077-0.086C3.283,13.685,3.308,13.711,3.316,13.757z"/>
		<path id="XMLID_163_" class="st21" d="M9.888,1.849c0.056,0,0.084,0.026,0.088,0.065c0.005,0.043-0.028,0.07-0.067,0.074
			C9.868,1.993,9.838,1.968,9.834,1.925C9.829,1.879,9.864,1.863,9.888,1.849z"/>
		<path id="XMLID_162_" class="st22" d="M38.671,6.91c0.04,0.012,0.066,0.038,0.055,0.08c-0.008,0.031-0.034,0.054-0.069,0.047
			c-0.04-0.008-0.066-0.036-0.055-0.079C38.611,6.928,38.635,6.907,38.671,6.91z"/>
		<path id="XMLID_161_" class="st23" d="M38.824,8.431c-0.05-0.016-0.082-0.039-0.074-0.082c0.008-0.038,0.038-0.067,0.081-0.056
			c0.03,0.008,0.055,0.032,0.055,0.066C38.886,8.406,38.847,8.415,38.824,8.431z"/>
		<path id="XMLID_160_" class="st21" d="M13.204,7.786c0.056,0,0.084,0.026,0.088,0.065c0.005,0.043-0.027,0.07-0.067,0.074
			c-0.041,0.004-0.071-0.021-0.076-0.064C13.145,7.816,13.18,7.8,13.204,7.786z"/>
		<path id="XMLID_159_" class="st24" d="M17.902,3.311c-0.012,0.032-0.021,0.066-0.059,0.066c-0.045-0.001-0.065-0.034-0.066-0.075
			c-0.001-0.036,0.02-0.059,0.057-0.058C17.876,3.246,17.905,3.265,17.902,3.311z"/>
		<path id="XMLID_158_" class="st25" d="M28.637,10.367c-0.013,0.043-0.041,0.073-0.083,0.065c-0.038-0.008-0.071-0.039-0.059-0.083
			c0.008-0.029,0.031-0.058,0.07-0.054C28.607,10.3,28.631,10.326,28.637,10.367z"/>
		<path id="XMLID_157_" class="st26" d="M28.479,8.963c0.001,0.042-0.02,0.067-0.052,0.075c-0.044,0.011-0.074-0.014-0.082-0.057
			c-0.007-0.037,0.019-0.062,0.05-0.071C28.441,8.897,28.461,8.933,28.479,8.963z"/>
		<path id="XMLID_156_" class="st27" d="M30.221,14.362c-0.036-0.009-0.063-0.029-0.061-0.065c0.002-0.043,0.028-0.072,0.073-0.068
			c0.033,0.003,0.06,0.027,0.061,0.062C30.293,14.337,30.262,14.357,30.221,14.362z"/>
		<path id="XMLID_155_" class="st28" d="M40.475,12.357c-0.036-0.009-0.063-0.029-0.061-0.065c0.002-0.043,0.027-0.072,0.073-0.068
			c0.033,0.003,0.061,0.027,0.06,0.062C40.547,12.332,40.517,12.353,40.475,12.357z"/>
		<path id="XMLID_154_" class="st29" d="M3.709,12.992c-0.055-0.013-0.081-0.039-0.077-0.081c0.004-0.04,0.03-0.072,0.074-0.067
			c0.04,0.005,0.069,0.032,0.066,0.076C3.769,12.962,3.731,12.976,3.709,12.992z"/>
		<path id="XMLID_153_" class="st22" d="M36.571,13.177c0,0.038-0.023,0.061-0.056,0.067c-0.037,0.007-0.065-0.018-0.071-0.05
			c-0.008-0.043,0.016-0.075,0.063-0.077C36.543,13.116,36.561,13.143,36.571,13.177z"/>
		<path id="XMLID_152_" class="st29" d="M19.543,5.054c0.042,0.004,0.071,0.028,0.074,0.069c0.003,0.043-0.028,0.071-0.067,0.076
			c-0.045,0.007-0.069-0.028-0.073-0.067C19.472,5.09,19.501,5.065,19.543,5.054z"/>
		<path id="XMLID_151_" class="st30" d="M40.786,13.836c-0.012,0.045-0.04,0.07-0.082,0.064c-0.032-0.005-0.059-0.03-0.059-0.065
			c0-0.042,0.025-0.075,0.069-0.07C40.751,13.769,40.78,13.796,40.786,13.836z"/>
		<path id="XMLID_150_" class="st31" d="M19.97,9.923c0.003,0.044-0.018,0.072-0.061,0.075c-0.045,0.004-0.067-0.025-0.069-0.067
			c-0.001-0.034,0.016-0.06,0.051-0.064C19.932,9.862,19.963,9.877,19.97,9.923z"/>
		<path id="XMLID_149_" class="st21" d="M3.833,2.648C3.828,2.696,3.803,2.722,3.759,2.717C3.717,2.712,3.691,2.684,3.699,2.64
			c0.005-0.033,0.031-0.053,0.065-0.055C3.809,2.583,3.83,2.609,3.833,2.648z"/>
		<path id="XMLID_148_" class="st32" d="M37.194,10.194c-0.052-0.008-0.076-0.032-0.07-0.077c0.005-0.035,0.027-0.055,0.063-0.056
			c0.044-0.001,0.072,0.022,0.073,0.065C37.26,10.171,37.226,10.187,37.194,10.194z"/>
		<path id="XMLID_147_" class="st33" d="M18.347,11.713c-0.012,0.04-0.039,0.066-0.083,0.056c-0.038-0.009-0.072-0.032-0.059-0.081
			c0.01-0.034,0.036-0.051,0.072-0.05C18.323,11.641,18.348,11.664,18.347,11.713z"/>
		<path id="XMLID_146_" class="st34" d="M27.869,6.975c-0.001,0.033-0.009,0.066-0.049,0.061c-0.033-0.004-0.057-0.032-0.048-0.066
			c0.005-0.02,0.027-0.045,0.045-0.05C27.858,6.909,27.867,6.942,27.869,6.975z"/>
		<path id="XMLID_145_" class="st35" d="M42.006,10.938c-0.007,0.037-0.032,0.051-0.066,0.049c-0.035-0.001-0.063-0.019-0.058-0.055
			c0.004-0.032,0.028-0.055,0.064-0.053C41.982,10.88,41.999,10.905,42.006,10.938z"/>
		<path id="XMLID_144_" class="st36" d="M36.786,2.073c-0.045-0.01-0.063-0.043-0.055-0.085c0.006-0.032,0.028-0.061,0.066-0.053
			c0.041,0.009,0.068,0.038,0.059,0.083C36.848,2.051,36.82,2.068,36.786,2.073z"/>
		<path id="XMLID_143_" class="st37" d="M2.768,11.724c0.038,0.008,0.058,0.037,0.052,0.081c-0.005,0.035-0.03,0.062-0.064,0.057
			c-0.041-0.006-0.067-0.037-0.06-0.083C2.702,11.745,2.723,11.724,2.768,11.724z"/>
		<path id="XMLID_142_" class="st38" d="M7.576,11.822c-0.009,0.032-0.022,0.061-0.06,0.062c-0.045,0.001-0.072-0.024-0.072-0.067
			c0-0.034,0.023-0.058,0.059-0.062C7.551,11.75,7.568,11.782,7.576,11.822z"/>
		<path id="XMLID_141_" class="st39" d="M35.736,2.952c-0.009,0.042-0.033,0.067-0.078,0.06c-0.041-0.006-0.069-0.031-0.062-0.074
			c0.005-0.033,0.033-0.051,0.067-0.052C35.709,2.884,35.731,2.908,35.736,2.952z"/>
		<path id="XMLID_140_" class="st40" d="M45.996,3.001c-0.001,0.057-0.024,0.082-0.068,0.081c-0.036,0-0.057-0.024-0.06-0.058
			c-0.005-0.043,0.019-0.077,0.059-0.081C45.965,2.94,45.989,2.972,45.996,3.001z"/>
		<path id="XMLID_139_" class="st41" d="M34.186,3.922c-0.006,0.032-0.027,0.055-0.061,0.056c-0.042,0.002-0.076-0.022-0.074-0.064
			c0.002-0.04,0.036-0.065,0.079-0.058C34.163,3.861,34.183,3.885,34.186,3.922z"/>
		<path id="XMLID_138_" class="st42" d="M18.596,4.075c-0.041-0.015-0.064-0.043-0.054-0.087c0.008-0.034,0.031-0.057,0.068-0.05
			c0.046,0.008,0.062,0.042,0.053,0.085C18.656,4.055,18.633,4.077,18.596,4.075z"/>
		<path id="XMLID_137_" class="st38" d="M23.347,3.968c0.043-0.001,0.065,0.021,0.07,0.055c0.006,0.043-0.016,0.073-0.062,0.074
			c-0.035,0.001-0.061-0.018-0.066-0.054C23.283,3.998,23.308,3.973,23.347,3.968z"/>
		<path id="XMLID_136_" class="st33" d="M2.207,4.414c0.001,0.047-0.026,0.072-0.068,0.072c-0.032,0-0.059-0.02-0.061-0.059
			C2.076,4.38,2.1,4.356,2.145,4.356C2.18,4.357,2.203,4.377,2.207,4.414z"/>
		<path id="XMLID_135_" class="st43" d="M26.261,8.732c0.002,0.046-0.025,0.071-0.067,0.071c-0.032,0-0.059-0.02-0.06-0.059
			c-0.002-0.046,0.022-0.07,0.066-0.07C26.235,8.675,26.257,8.695,26.261,8.732z"/>
		<path id="XMLID_134_" class="st44" d="M46.655,9.082c0.034,0.001,0.062,0.013,0.069,0.049c0.007,0.042-0.007,0.075-0.053,0.083
			c-0.037,0.006-0.061-0.015-0.068-0.049C46.593,9.123,46.609,9.091,46.655,9.082z"/>
		<path id="XMLID_133_" class="st45" d="M42.665,13.083c-0.011,0.04-0.034,0.069-0.079,0.063c-0.035-0.004-0.06-0.031-0.058-0.063
			c0.003-0.041,0.032-0.068,0.077-0.063C42.64,13.024,42.658,13.05,42.665,13.083z"/>
		<path id="XMLID_132_" class="st46" d="M41.545,12.751c-0.027,0.001-0.049-0.008-0.055-0.037c-0.007-0.038,0.013-0.06,0.049-0.061
			c0.027-0.001,0.047,0.018,0.047,0.047C41.587,12.726,41.576,12.747,41.545,12.751z"/>
		<path id="XMLID_131_" class="st47" d="M16.972,5.02c0.028-0.003,0.05,0.006,0.056,0.035c0.009,0.038-0.011,0.061-0.047,0.063
			c-0.026,0.001-0.048-0.016-0.049-0.045C16.931,5.047,16.942,5.025,16.972,5.02z"/>
		<path id="XMLID_130_" class="st48" d="M31.727,12.941c-0.003,0.035-0.013,0.067-0.056,0.051c-0.02-0.008-0.046-0.032-0.048-0.051
			c-0.004-0.034,0.023-0.06,0.057-0.064C31.723,12.872,31.728,12.907,31.727,12.941z"/>
		<path id="XMLID_129_" class="st8" d="M44.226,1.389c0,0.03-0.02,0.057-0.054,0.061c-0.045,0.005-0.071-0.021-0.07-0.068
			c0-0.039,0.028-0.061,0.061-0.06C44.194,1.323,44.221,1.345,44.226,1.389z"/>
		<path id="XMLID_128_" class="st49" d="M28.797,9.522c-0.033,0.035-0.063,0.077-0.119,0.036
			C28.709,9.516,28.736,9.461,28.797,9.522z"/>
		<path id="XMLID_127_" class="st50" d="M10.23,7.45c-0.019-0.012-0.05-0.013-0.039-0.048c0.008-0.025,0.024-0.044,0.051-0.036
			c0.013,0.004,0.026,0.023,0.031,0.038C10.282,7.439,10.251,7.44,10.23,7.45z"/>
	</g>
</g>
</svg>
