<?xml version="1.0" encoding="utf-8"?>
<!-- Generator: Adobe Illustrator 19.0.0, SVG Export Plug-In . SVG Version: 6.00 Build 0)  -->
<svg version="1.1" xmlns="http://www.w3.org/2000/svg" xmlns:xlink="http://www.w3.org/1999/xlink" x="0px" y="0px"
	 viewBox="0 0 50 50" style="enable-background:new 0 0 50 50;" xml:space="preserve">
<style type="text/css">
	.st0{display:none;}
	.st1{display:inline;fill:#B31E48;}
	.st2{display:inline;fill:none;stroke:#000000;stroke-width:1.250000e-002;stroke-miterlimit:10;}
	.st3{display:inline;}
	.st4{fill:#0D0D0D;}
	.st5{fill:#0E0D0D;}
	.st6{fill:#111010;}
	.st7{fill:#111111;}
	.st8{fill:#21201F;}
	.st9{fill:#ED1D7E;}
	.st10{fill:#CFCACA;}
	.st11{fill:#FFFEFE;}
	.st12{fill:#FFFEFF;}
	.st13{fill:#FFFFFF;}
	.st14{display:inline;fill:none;stroke:#000000;stroke-width:0.13;stroke-miterlimit:10;}
	.st15{fill:#EE2A7B;}
	.st16{fill:none;stroke:#000000;stroke-width:0.13;stroke-miterlimit:10;}
	.st17{fill:#0F100B;}
	.st18{fill:#BDCD61;}
	.st19{fill:#BECE61;}
	.st20{fill:#353E23;}
	.st21{fill:#74763D;}
	.st22{fill:#285453;}
	.st23{fill:#275352;}
	.st24{fill:#275454;}
	.st25{fill:#285552;}
	.st26{fill:#171C10;}
	.st27{fill:#2A5652;}
	.st28{fill:#242917;}
	.st29{fill:#285451;}
	.st30{fill:#15190E;}
	.st31{fill:#13170D;}
	.st32{fill:#2E574F;}
	.st33{fill:#16ADC5;}
	.st34{fill:#16ACC4;}
	.st35{fill:#17ABC3;}
	.st36{fill:#17ACC3;}
	.st37{fill:#16AEC6;}
	.st38{fill:#17A9C1;}
	.st39{fill:#17A9C2;}
	.st40{fill:#B5C561;}
	.st41{fill:#BBCB61;}
	.st42{fill:#A9BB63;}
	.st43{fill:#0E1109;}
</style>
<g id="Layer_2" class="st0">
	<rect id="XMLID_3_" x="0.1" class="st1" width="49.9" height="50"/>
</g>
<g id="Layer_3" class="st0">
	<circle id="XMLID_1_" class="st2" cx="25" cy="25.1" r="24.9"/>
	<g id="XMLID_2_" class="st3">
		<path id="XMLID_129_" class="st4" d="M49.9,26.8c0,0.6-0.1,1.2-0.2,1.9c-0.2,1.7-0.6,3.3-1.2,4.9c-2.7,7.1-7.6,12-14.7,14.8
			c-1.6,0.6-3.3,1-5,1.3C27,50,25.2,50,23.4,49.9c-4.8-0.3-9.2-1.9-13.1-4.8c-0.7-0.5-1.4-1.1-2.1-1.7c0,0,0,0-0.1-0.1
			c0,0,0-0.1,0-0.1c0.2,0.1,0.3,0.2,0.4,0.3c1.3,1.1,2.6,2.1,4.1,3c1.4,0.8,2.9,1.5,4.4,2c1.5,0.5,3,0.9,4.5,1.1
			c0.8,0.1,1.6,0.2,2.3,0.2c0.6,0,1.2,0,1.8,0c1.6-0.1,3.1-0.2,4.6-0.6c1.6-0.3,3.1-0.8,4.6-1.5c1.5-0.7,2.9-1.4,4.3-2.4
			c1-0.7,2-1.5,2.9-2.4c1.8-1.7,3.2-3.5,4.4-5.6c0.8-1.4,1.5-2.9,2-4.5c0.6-1.7,0.9-3.4,1.1-5.1c0-0.4,0-0.7,0.1-1.1
			c0-0.1,0-0.1,0.1-0.2C49.9,26.6,49.9,26.7,49.9,26.8z"/>
		<path id="XMLID_128_" class="st5" d="M8.1,6.7c0.4-0.3,0.8-0.7,1.2-1c3.1-2.5,6.5-4.2,10.4-5c2.1-0.5,4.2-0.7,6.3-0.6
			c5.6,0.2,10.5,2.1,14.9,5.6c0.9,0.7,1.8,1.6,2.6,2.4c0.1,0.1,0.2,0.2,0.3,0.3c0,0,0,0.1,0,0.1c-0.1,0-0.1-0.1-0.2-0.1
			c-0.3-0.3-0.6-0.7-0.9-1c-1.7-1.6-3.5-3-5.5-4.2c-1.3-0.7-2.7-1.3-4.1-1.8c-1.5-0.5-3.1-0.9-4.7-1.1c-0.7-0.1-1.4-0.1-2.1-0.2
			c-0.6,0-1.1,0-1.7,0c-0.8,0-1.6,0.1-2.4,0.2c-1.2,0.1-2.3,0.4-3.4,0.7c-1.5,0.4-2.9,0.9-4.2,1.6c-1.8,0.9-3.5,2-5.1,3.2
			C9,6.2,8.6,6.5,8.3,6.7C8.2,6.8,8.2,6.8,8.1,6.7C8.1,6.8,8.1,6.8,8.1,6.7z"/>
		<path id="XMLID_127_" class="st6" d="M43.6,8.6C43.7,8.5,43.7,8.5,43.6,8.6c0.6,0.6,1.2,1.3,1.7,2c2,2.9,3.4,6,4.1,9.4
			c0.4,2.1,0.6,4.2,0.5,6.4c0,0.2,0,0.3,0,0.5c0-0.1,0-0.2,0-0.3c-0.1-0.1-0.1-0.3,0-0.5c0-0.7,0-1.3,0-2c0-0.3,0-0.6,0-0.8
			c-0.1-1.1-0.2-2.2-0.5-3.2c-0.2-1-0.5-1.9-0.8-2.9c-0.3-1-0.7-1.9-1.2-2.9c-0.9-1.9-2-3.6-3.4-5.2C43.8,8.9,43.7,8.8,43.6,8.6z"/>
		<path id="XMLID_126_" class="st6" d="M0.2,26.5c-0.1-1.1-0.1-2.2,0-3.3c0.1-1.6,0.4-3.2,0.8-4.8C2,15,3.5,12,5.7,9.3
			C5.9,9,6.1,8.8,6.4,8.5c0,0,0.1,0.1,0.1,0.1C6.3,8.8,6.2,8.9,6.1,9.1c-1.1,1.3-2,2.6-2.8,4c-0.6,1.1-1.1,2.2-1.6,3.4
			c-0.6,1.5-0.9,3.1-1.2,4.7c-0.1,0.7-0.2,1.3-0.2,2c-0.1,0.9-0.1,1.9-0.1,2.8c0,0.1,0,0.2,0,0.3C0.2,26.4,0.2,26.4,0.2,26.5z"/>
		<path id="XMLID_125_" class="st7" d="M8.2,43.3C8.2,43.3,8.1,43.3,8.2,43.3c-0.9-0.8-1.8-1.7-2.5-2.6c-2.3-2.9-3.9-6.1-4.8-9.7
			c-0.3-1.2-0.5-2.4-0.6-3.6c0-0.1,0-0.2,0-0.4c0-0.1,0-0.2,0-0.3c0.1,0,0.1,0.1,0.1,0.1c0.1,0.9,0.2,1.7,0.3,2.5
			c0.2,1,0.4,1.9,0.7,2.9c0.4,1.3,0.9,2.5,1.5,3.7c0.8,1.7,1.8,3.3,3,4.8c0.6,0.7,1.2,1.4,1.8,2c0.1,0.1,0.3,0.2,0.4,0.4
			C8.1,43.2,8.2,43.2,8.2,43.3z"/>
		<path id="XMLID_124_" class="st8" d="M6.4,8.6C6.4,8.6,6.4,8.5,6.4,8.6c0.5-0.7,1.1-1.3,1.7-1.9c0,0,0,0.1,0,0.1
			C8.1,7,8,7.1,7.9,7.2C7.4,7.5,7,8,6.6,8.4C6.5,8.5,6.5,8.6,6.4,8.6z"/>
		<path id="XMLID_123_" class="st7" d="M0.2,26.5c0.1-0.2,0-0.3,0-0.5c0.1,0.1,0.1,0.2,0.1,0.3c0,0.1,0,0.1,0,0.2
			c0,0.1,0,0.2-0.1,0.3C0.1,26.7,0.2,26.6,0.2,26.5z"/>
		<path id="XMLID_122_" class="st6" d="M0.2,26.8c0-0.1,0-0.2,0-0.3c0.1,0.1,0.1,0.1,0,0.2c0,0.1,0,0.2,0,0.3
			C0.2,27,0.2,26.9,0.2,26.8z"/>
		<path id="XMLID_120_" class="st9" d="M8.5,24c-0.6,0.5-1.2,0.2-1.4-0.5c-0.1-0.4-0.1-0.7,0-1.1c0.1-0.4,0.5-0.7,0.8-0.7
			c0.4,0,0.7,0.2,0.9,0.6C9,22.6,9,22.9,9.1,23.1c0,0.6,0.1,1.1-0.1,1.7c-0.2,0.5-0.6,0.9-1.1,0.8c-0.4,0-0.8-0.4-0.8-0.9
			c0,0,0,0,0,0c0.2-0.1,0.3-0.1,0.5-0.1c0.1,0,0.1,0.1,0.1,0.1C7.8,25,8,25.1,8.2,25c0.1-0.1,0.2-0.2,0.2-0.3
			C8.4,24.5,8.5,24.3,8.5,24z"/>
		<path id="XMLID_119_" class="st9" d="M25.8,43.6c0.5-0.4,1.1-0.3,1.3,0.4c0.2,0.4,0.2,0.8,0,1.2c-0.1,0.4-0.4,0.6-0.8,0.6
			c-0.4,0-0.7-0.2-0.9-0.5c-0.2-0.3-0.2-0.5-0.2-0.8c0-0.5-0.1-1.1,0.1-1.6c0.1-0.5,0.5-0.8,0.9-0.9c0.5,0,0.9,0.4,0.9,0.8
			c0,0.1,0,0.1-0.1,0.1c-0.1,0-0.3,0-0.4,0.1c-0.1,0-0.1-0.1-0.1-0.1c0-0.2-0.1-0.3-0.3-0.3c-0.2,0-0.3,0.1-0.4,0.3
			C25.9,43.1,25.9,43.3,25.8,43.6z"/>
		<path id="XMLID_118_" class="st9" d="M6.7,23.8c0,0.3,0,0.7-0.1,1c0,0.1-0.1,0.2-0.1,0.3c-0.2,0.3-0.4,0.5-0.8,0.5
			c-0.4,0-0.6-0.2-0.8-0.6c-0.1-0.2-0.2-0.5-0.2-0.7c0-0.6-0.1-1.2,0.1-1.8c0.1-0.4,0.3-0.7,0.8-0.8C6,21.8,6.3,22,6.5,22.5
			C6.6,22.9,6.7,23.3,6.7,23.8z"/>
		<path id="XMLID_117_" class="st9" d="M41.9,24.3c0,0.3,0,0.7-0.1,1c0,0.1-0.1,0.2-0.1,0.4c-0.2,0.3-0.4,0.5-0.8,0.5
			c-0.4,0-0.6-0.2-0.7-0.5c-0.1-0.2-0.2-0.5-0.2-0.7c0-0.6-0.1-1.2,0.1-1.8c0.1-0.4,0.4-0.7,0.8-0.8c0.4,0,0.8,0.2,0.9,0.7
			C41.9,23.4,41.9,23.8,41.9,24.3z"/>
		<path id="XMLID_116_" class="st9" d="M22.8,43.8c0-0.3,0-0.6,0.1-1c0-0.1,0.1-0.2,0.1-0.3c0.2-0.3,0.4-0.5,0.8-0.5
			c0.4,0,0.6,0.2,0.7,0.5c0.1,0.3,0.2,0.6,0.2,0.9c0,0.5,0,1.1-0.1,1.6c0,0.1-0.1,0.2-0.1,0.4c-0.2,0.3-0.4,0.5-0.8,0.5
			c-0.4,0-0.6-0.2-0.7-0.6C22.8,44.8,22.8,44.4,22.8,43.8z"/>
		<path id="XMLID_115_" class="st9" d="M26.1,6.9c0.4,0,0.7,0,1,0c0.1,0,0.2,0,0.2,0.2c0,0.5,0,0.5-0.5,0.5c-0.5,0-1,0-1.4,0
			c-0.2,0-0.2,0-0.2-0.2c0.1-0.5,0.4-0.9,0.7-1.3c0.2-0.2,0.4-0.4,0.5-0.7c0.1-0.2,0.2-0.4,0.2-0.6c0-0.2-0.1-0.4-0.3-0.4
			c-0.2,0-0.4,0.1-0.4,0.3c0,0.1,0,0.2-0.1,0.2c-0.2,0-0.3,0-0.5-0.1c0,0,0-0.1,0-0.1c0.1-0.6,0.5-0.9,1.1-0.9c0.5,0,0.9,0.4,0.9,1
			c0,0.5-0.2,0.9-0.5,1.2c-0.2,0.3-0.5,0.5-0.7,0.8C26.1,6.8,26.1,6.8,26.1,6.9z"/>
		<path id="XMLID_114_" class="st9" d="M43.8,24c0.7,0.3,0.7,1.3,0.3,1.7c-0.3,0.3-0.7,0.5-1.1,0.3c-0.4-0.1-0.7-0.5-0.7-0.9
			c0-0.1,0-0.1,0.1-0.1c0.1,0,0.3,0,0.4-0.1c0.1,0,0.1,0,0.1,0.1c0,0,0,0,0,0c0.1,0.3,0.2,0.4,0.4,0.4c0.2,0,0.3-0.2,0.4-0.5
			c0-0.1,0-0.3,0-0.4c-0.1-0.3-0.3-0.4-0.5-0.3c-0.1,0-0.1,0-0.1-0.1c0-0.1,0-0.2,0-0.2c0-0.2,0-0.2,0.2-0.3
			c0.3-0.1,0.4-0.4,0.2-0.7c-0.1-0.1-0.2-0.2-0.3-0.1c-0.2,0-0.2,0.1-0.3,0.3c0,0.1,0,0.2-0.1,0.2c-0.2,0-0.3,0-0.5-0.1
			c0,0,0,0,0-0.1c0.1-0.6,0.4-1,1.1-0.9c0.4,0.1,0.6,0.3,0.7,0.7c0.1,0.3,0,0.6-0.2,0.9C43.9,23.9,43.9,24,43.8,24z"/>
		<path id="XMLID_113_" class="st9" d="M23.7,4.8c-0.2,0.2-0.4,0.3-0.6,0.4c-0.1,0-0.1,0-0.2,0.1c0-0.2,0-0.4,0-0.6
			c0-0.1,0-0.1,0.1-0.1c0.3-0.2,0.6-0.4,0.8-0.8c0-0.1,0.1-0.1,0.2-0.1c0.3,0,0.3,0,0.3,0.3c0,1.1,0,2.2,0,3.2c0,0.2,0,0.2-0.2,0.2
			c-0.4,0-0.4,0-0.4-0.4C23.7,6.4,23.7,5.6,23.7,4.8z"/>
		<path id="XMLID_107_" class="st10" d="M26.8,2.6c0.1,0,0.2,0,0.2,0C26.9,2.7,26.9,2.6,26.8,2.6z"/>
		<path id="XMLID_95_" class="st11" d="M7.6,23c0-0.1,0-0.3,0.1-0.4c0.1-0.3,0.4-0.3,0.6-0.1c0.2,0.2,0.2,0.8,0.1,1
			c-0.2,0.3-0.5,0.2-0.6,0C7.6,23.4,7.6,23.2,7.6,23z"/>
		<path id="XMLID_94_" class="st12" d="M26.7,44.6c0,0.1,0,0.3-0.1,0.4c-0.1,0.3-0.4,0.3-0.6,0.1c-0.2-0.2-0.2-0.8-0.1-1
			c0.2-0.2,0.5-0.2,0.6,0C26.7,44.3,26.7,44.4,26.7,44.6z"/>
		<path id="XMLID_93_" class="st13" d="M5.3,23.7c0-0.3,0-0.5,0-0.8c0-0.1,0-0.1,0-0.2c0-0.2,0.1-0.3,0.3-0.3c0.2,0,0.3,0.2,0.3,0.3
			c0.1,0.5,0.1,1,0.1,1.5c0,0.2,0,0.4-0.1,0.5c0,0.2-0.1,0.3-0.3,0.3c-0.2,0-0.3-0.2-0.3-0.3C5.3,24.4,5.3,24.1,5.3,23.7z"/>
		<path id="XMLID_92_" class="st13" d="M41.3,24.1c0,0.4,0,0.7-0.1,1.1c0,0.1,0,0.1-0.1,0.2c-0.1,0.1-0.1,0.2-0.3,0.2
			c-0.1,0-0.2-0.1-0.3-0.2c-0.1-0.2-0.1-0.4-0.1-0.6c0-0.5,0-0.9,0-1.4c0-0.1,0-0.3,0.1-0.4c0.1-0.2,0.3-0.2,0.4,0
			c0.1,0.1,0.1,0.3,0.1,0.4C41.3,23.7,41.3,23.9,41.3,24.1z"/>
		<path id="XMLID_91_" class="st13" d="M23.4,43.9c0-0.3,0-0.6,0-0.9c0-0.3,0.2-0.5,0.3-0.5c0.2,0,0.3,0.1,0.3,0.4
			c0.1,0.6,0.1,1.2,0,1.8c0,0.2-0.1,0.4-0.3,0.4c-0.2,0-0.3-0.1-0.3-0.4C23.4,44.6,23.4,44.2,23.4,43.9z"/>
	</g>
</g>
<g id="Layer_4" class="st0">
	<path id="XMLID_121_" class="st14" d="M0.2,26.7c0-0.1,0-0.1,0-0.2c0-0.2,0-0.3,0-0.5c0-0.7,0-1.4,0-2.1c0.1-2.1,0.4-4.1,1-6
		c1-3.4,2.7-6.4,5-9.1c0.1-0.1,0.1-0.1,0.2-0.2C6.9,8,7.5,7.4,8.1,6.8c0.8-0.7,1.6-1.4,2.4-2c2.9-2.1,6.1-3.5,9.5-4.2
		c2.1-0.4,4.3-0.6,6.4-0.4c5.4,0.3,10.2,2.2,14.3,5.7c1,0.8,1.8,1.6,2.7,2.6c0,0,0.1,0.1,0.1,0.1c0.7,0.8,1.4,1.7,2,2.6
		c1.8,2.7,3.1,5.6,3.7,8.8c0.4,2.1,0.6,4.2,0.5,6.3c0,0.1,0,0.2,0,0.3c-0.1,1.2-0.2,2.3-0.5,3.5c-0.8,3.7-2.3,7.1-4.6,10.1
		c-2.8,3.7-6.4,6.3-10.6,8c-1.8,0.7-3.6,1.2-5.5,1.5c-1.7,0.2-3.4,0.3-5.1,0.2c-5.2-0.3-9.9-2.1-14-5.4c-0.5-0.4-0.9-0.8-1.3-1.1
		c-0.6-0.6-1.2-1.2-1.7-1.8c-2.8-3.1-4.6-6.7-5.6-10.8c-0.3-1.3-0.5-2.6-0.6-3.9C0.2,26.8,0.2,26.8,0.2,26.7z"/>
	<g id="XMLID_4_" class="st3">
		<g id="XMLID_7_">
			<path id="XMLID_8_" class="st15" d="M23.2,5.2V4.5l0.6-0.4h0.6v3.4h-0.6V4.8L23.2,5.2z"/>
			<path id="XMLID_29_" class="st15" d="M26.1,5.5c0.1-0.2,0.2-0.3,0.2-0.5V4.9c0-0.1,0-0.2-0.1-0.3c-0.1-0.1-0.1-0.1-0.3-0.1
				s-0.2,0-0.3,0.1c-0.1,0.1-0.1,0.2-0.1,0.3V5h-0.6V4.9c0-0.2,0-0.3,0.1-0.5c0.1-0.1,0.2-0.2,0.3-0.3C25.5,4,25.7,4,25.9,4
				c0.2,0,0.4,0,0.5,0.1c0.1,0.1,0.3,0.2,0.3,0.3c0.1,0.1,0.1,0.3,0.1,0.5V5c0,0.1,0,0.3-0.1,0.4c-0.1,0.1-0.1,0.2-0.2,0.4l-0.8,1.1
				h1.1v0.6h-1.9V6.9L26.1,5.5z"/>
		</g>
		<g id="XMLID_9_">
			<path id="XMLID_10_" class="st15" d="M22.5,44.5v-1.3c0-0.4,0.1-0.7,0.3-0.9s0.5-0.3,0.8-0.3c0.4,0,0.6,0.1,0.8,0.3
				c0.2,0.2,0.3,0.5,0.3,0.9v1.3c0,0.4-0.1,0.7-0.3,0.9c-0.2,0.2-0.5,0.3-0.8,0.3c-0.4,0-0.6-0.1-0.8-0.3
				C22.6,45.3,22.5,45,22.5,44.5z M24,44.5v-1.1c0-0.3,0-0.4-0.1-0.6c-0.1-0.1-0.2-0.2-0.3-0.2s-0.3,0.1-0.3,0.2
				c-0.1,0.1-0.1,0.3-0.1,0.6v1.1c0,0.3,0,0.4,0.1,0.6c0.1,0.1,0.2,0.2,0.3,0.2c0.2,0,0.3-0.1,0.3-0.2C24,44.9,24,44.7,24,44.5z"/>
			<path id="XMLID_25_" class="st15" d="M25.2,44.7v-0.2c0-0.1,0-0.3,0.1-0.4c0-0.1,0.1-0.3,0.2-0.4l0.8-1.6H27l-0.8,1.5
				c0.1,0,0.2-0.1,0.3-0.1c0.3,0,0.5,0.1,0.7,0.3c0.2,0.2,0.3,0.4,0.3,0.7v0.2c0,0.3-0.1,0.6-0.3,0.8c-0.2,0.2-0.5,0.3-0.8,0.3
				c-0.4,0-0.6-0.1-0.8-0.3C25.3,45.3,25.2,45.1,25.2,44.7z M26.8,44.7v-0.2c0-0.2,0-0.3-0.1-0.4c-0.1-0.1-0.2-0.1-0.3-0.1
				s-0.2,0-0.3,0.1c-0.1,0.1-0.1,0.2-0.1,0.3v0.2c0,0.1,0,0.3,0.1,0.4s0.2,0.1,0.3,0.1s0.2,0,0.3-0.1S26.8,44.9,26.8,44.7z"/>
		</g>
		<g id="XMLID_11_">
			<path id="XMLID_12_" class="st15" d="M39.9,24.7v-1.2c0-0.4,0.1-0.6,0.3-0.8c0.2-0.2,0.4-0.3,0.7-0.3c0.3,0,0.6,0.1,0.8,0.3
				c0.2,0.2,0.2,0.5,0.2,0.8v1.2c0,0.4-0.1,0.7-0.2,0.9c-0.2,0.2-0.4,0.3-0.8,0.3c-0.3,0-0.6-0.1-0.8-0.3
				C40,25.4,39.9,25.1,39.9,24.7z M41.2,24.6v-1c0-0.2,0-0.4-0.1-0.5C41.1,23,41,23,40.9,23s-0.2,0-0.3,0.1c0,0.1-0.1,0.3-0.1,0.5v1
				c0,0.2,0,0.4,0.1,0.5c0.1,0.1,0.1,0.1,0.3,0.1c0.1,0,0.2,0,0.3-0.1C41.2,25,41.2,24.9,41.2,24.6z"/>
			<path id="XMLID_21_" class="st15" d="M42.3,25v-0.1h0.6V25c0,0.1,0,0.2,0.1,0.3c0.1,0.1,0.2,0.1,0.3,0.1c0.1,0,0.2,0,0.3-0.1
				c0.1-0.1,0.1-0.2,0.1-0.3v-0.1c0-0.1,0-0.3-0.1-0.3s-0.2-0.1-0.3-0.1h-0.2v-0.5h0.2c0.1,0,0.2,0,0.3-0.1c0.1-0.1,0.1-0.2,0.1-0.3
				v-0.1c0-0.1,0-0.2-0.1-0.3c-0.1-0.1-0.1-0.1-0.3-0.1c-0.1,0-0.2,0-0.3,0.1s-0.1,0.1-0.1,0.3v0.1h-0.6v-0.1c0-0.3,0.1-0.5,0.3-0.7
				c0.2-0.2,0.4-0.2,0.7-0.2c0.3,0,0.5,0.1,0.7,0.2c0.2,0.2,0.3,0.4,0.3,0.6v0.1c0,0.1,0,0.3-0.1,0.4c-0.1,0.1-0.2,0.2-0.3,0.3
				c0.1,0.1,0.3,0.2,0.3,0.3c0.1,0.1,0.1,0.3,0.1,0.5v0.1c0,0.2,0,0.4-0.1,0.5s-0.2,0.3-0.4,0.3c-0.2,0.1-0.3,0.1-0.5,0.1
				c-0.3,0-0.6-0.1-0.7-0.2C42.4,25.5,42.3,25.3,42.3,25z"/>
		</g>
		<g id="XMLID_6_">
			<path id="XMLID_13_" class="st15" d="M4.6,24.7v-1.2c0-0.4,0.1-0.7,0.3-0.9c0.2-0.2,0.4-0.3,0.8-0.3c0.4,0,0.6,0.1,0.8,0.3
				c0.2,0.2,0.3,0.5,0.3,0.9v1.2c0,0.4-0.1,0.7-0.3,0.9c-0.2,0.2-0.4,0.3-0.8,0.3c-0.4,0-0.6-0.1-0.8-0.3S4.6,25.1,4.6,24.7z
				 M6,24.7v-1.1c0-0.2,0-0.4-0.1-0.5c-0.1-0.1-0.2-0.2-0.3-0.2S5.3,23,5.3,23.1c0,0.1-0.1,0.3-0.1,0.5v1.1c0,0.2,0,0.4,0.1,0.5
				c0.1,0.1,0.1,0.2,0.3,0.2c0.1,0,0.2-0.1,0.3-0.2C5.9,25.1,6,24.9,6,24.7z"/>
			<path id="XMLID_16_" class="st15" d="M8,24.5c-0.3,0-0.5-0.1-0.6-0.3c-0.2-0.2-0.2-0.4-0.2-0.7v-0.2c0-0.3,0.1-0.6,0.3-0.8
				c0.2-0.2,0.5-0.3,0.8-0.3c0.3,0,0.6,0.1,0.8,0.3c0.2,0.2,0.3,0.4,0.3,0.8v0.2c0,0.1,0,0.3-0.1,0.4c0,0.1-0.1,0.3-0.2,0.4
				l-0.8,1.5H7.5l0.7-1.4C8.2,24.5,8.1,24.5,8,24.5z M8.6,23.5v-0.2c0-0.1,0-0.3-0.1-0.3c-0.1-0.1-0.2-0.1-0.3-0.1
				c-0.1,0-0.2,0-0.3,0.1c-0.1,0.1-0.1,0.2-0.1,0.3v0.2c0,0.1,0,0.3,0.1,0.3C7.9,23.9,8,24,8.2,24c0.1,0,0.2,0,0.3-0.1
				C8.5,23.8,8.6,23.7,8.6,23.5z"/>
		</g>
	</g>
</g>
<g id="Layer_4_copy">
	<path id="XMLID_56_" class="st16" d="M0.2,26.7c0-0.1,0-0.1,0-0.2c0-0.2,0-0.3,0-0.5c0-0.7,0-1.4,0-2.1c0.1-2.1,0.4-4.1,1-6
		c1-3.4,2.7-6.4,5-9.1c0.1-0.1,0.1-0.1,0.2-0.2C6.9,8,7.5,7.4,8.1,6.8c0.8-0.7,1.6-1.4,2.4-2c2.9-2.1,6.1-3.5,9.5-4.2
		c2.1-0.4,4.3-0.6,6.4-0.4c5.4,0.3,10.2,2.2,14.3,5.7c1,0.8,1.8,1.6,2.7,2.6c0,0,0.1,0.1,0.1,0.1c0.7,0.8,1.4,1.7,2,2.6
		c1.8,2.7,3.1,5.6,3.7,8.8c0.4,2.1,0.6,4.2,0.5,6.3c0,0.1,0,0.2,0,0.3c-0.1,1.2-0.2,2.3-0.5,3.5c-0.8,3.7-2.3,7.1-4.6,10.1
		c-2.8,3.7-6.4,6.3-10.6,8c-1.8,0.7-3.6,1.2-5.5,1.5c-1.7,0.2-3.4,0.3-5.1,0.2c-5.2-0.3-9.9-2.1-14-5.4c-0.5-0.4-0.9-0.8-1.3-1.1
		c-0.6-0.6-1.2-1.2-1.7-1.8c-2.8-3.1-4.6-6.7-5.6-10.8c-0.3-1.3-0.5-2.6-0.6-3.9C0.2,26.8,0.2,26.8,0.2,26.7z"/>
	<g id="XMLID_31_">
		<path id="XMLID_445_" class="st17" d="M12.7,17.1c0-0.3,0-0.5-0.1-0.7c-0.2-0.3-0.2-0.7-0.2-1.1c0,0,0-0.1,0-0.1
			c-0.3-0.4-0.3-0.9-0.4-1.4c-0.1-0.5,0-0.8,0.5-1.1c0.3-0.2,0.6-0.3,1-0.3c0.1,0,0.2-0.1,0.2-0.1c0.5-0.3,1-0.3,1.5,0
			c0.1,0.1,0.3,0.1,0.4,0.1c0.4,0.1,0.7,0.3,0.9,0.5c0.1,0.1,0.2,0.2,0.4,0.3c0.5,0.1,0.8,0.6,0.8,1.1c0,0.3,0,0.3,0.3,0.2
			c0.2-0.1,0.4-0.2,0.6-0.1c0.1,0,0.2,0,0.1-0.1c0-0.2,0-0.3,0.1-0.5c0.2-0.5,1.2-0.7,1.6-0.3c0.1,0.1,0.2,0.2,0.2,0.4
			c0.1,0.2,0.1,0.2,0.3,0.1c0.4-0.3,1.2-0.1,1.3,0.6c0,0.2,0.1,0.2,0.3,0.1c0.3-0.1,0.5-0.1,0.7,0c0.1,0,0.1,0.1,0.2,0.2
			c0.1,0.1,0.2,0.2,0.3,0.1c0.2-0.1,0.3-0.1,0.5-0.1c0.1,0,0.1,0,0.2-0.1c0.3-0.5,0.9-0.6,1.4-0.1c0,0,0.1,0.1,0.2,0.1
			c0.1,0,0.1-0.1,0.1-0.1c0-0.2,0.1-0.4,0.1-0.6c0.1-0.4,0.2-0.7,0.6-0.9c0.2-0.1,0.3-0.3,0.4-0.4c0.3-0.4,0.6-0.5,1-0.4
			c0.1,0,0.2,0.1,0.3,0.2c0.1,0.1,0.2,0.1,0.3,0c0.2-0.2,0.3-0.5,0.5-0.7c0.5-0.4,1.2,0,1.3,0.5c0.1,0.3,0,0.6-0.1,0.9
			c-0.1,0.3-0.2,0.6-0.1,0.9c0,0.1,0,0.1,0,0.2c0,0.2,0,0.3,0.3,0.2c0.2-0.1,0.5-0.1,0.7-0.1c0.1,0,0.2,0,0.2-0.1
			c0.3-0.3,0.6-0.4,1-0.2c0.1,0.1,0.2,0,0.3,0c0.2,0,0.4,0,0.6,0.1c0.1,0,0.1-0.1,0.1-0.1c0.2-0.3,0.4-0.5,0.8-0.6c0,0,0,0,0.1,0
			c0.2,0.1,0.4,0,0.5-0.2c0.4-0.4,1.1-0.2,1.3,0.3c0.1,0.3,0.3,0.6,0.3,0.9c0,0.1,0.1,0.2,0.2,0.3c0.1,0.1,0.1,0.2,0.1,0.3
			c0,0.1,0,0.1,0.1,0.1c0.1,0,0.1,0,0.1,0c0.2-0.2,0.5-0.3,0.8-0.4c0.3-0.1,0.8,0.2,0.9,0.4c0.2,0.3,0.1,0.6-0.1,0.9
			c-0.3,0.4-0.7,0.6-1.1,0.9c-0.4,0.3-0.8,0.6-1.2,1c-0.1,0.1-0.2,0.2-0.3,0.2c-0.2,0.2-0.3,0.4-0.5,0.6c-0.3,0.4-0.6,0.7-0.9,1
			c-0.1,0.1-0.3,0.2-0.5,0.2c-0.2,0.1-0.4,0.3-0.6,0.4c-0.4,0.2-0.9,0.1-1.2-0.4c-0.2-0.4-0.1-0.7,0.1-1c0.2-0.2,0.2-0.2,0-0.4
			c0,0-0.1-0.1-0.1-0.1c-0.1-0.2-0.2-0.2-0.3-0.2c-0.2,0-0.4,0-0.5-0.2c-0.1-0.1-0.2-0.1-0.3-0.1c-0.1,0-0.3,0.1-0.4,0.1
			c-0.1,0-0.1,0.1-0.1,0.2c0,0.2,0.1,0.4,0.1,0.6c0,0.3-0.3,0.7-0.7,0.8c-0.4,0.1-1.1-0.2-1.2-0.7c0-0.2-0.2-0.4-0.3-0.6
			c0-0.1-0.1-0.2-0.2-0.1c-0.3,0.1-0.6,0-0.8-0.3c0,0-0.1-0.1-0.2-0.1c-0.1,0-0.1,0.1-0.1,0.2c-0.1,0.4-0.1,0.7-0.3,1
			c-0.2,0.3-0.5,0.4-0.9,0.4c-0.4-0.1-0.7-0.5-0.7-0.7c0-0.1,0-0.3,0-0.4c0-0.1-0.1-0.2-0.1-0.1c-0.4,0.2-0.7,0-1.1-0.1
			c-0.2-0.1-0.4-0.1-0.6-0.1c-0.1,0-0.2,0-0.2,0.1c-0.2,0.2-0.4,0.2-0.7,0.1c-0.1,0-0.2,0-0.4,0c-0.1,0.1-0.2,0.1-0.3,0.1
			c-0.1,0-0.2,0-0.2,0.2c0,0.5-0.4,1-0.9,1.1c-0.4,0.1-0.9-0.2-1-0.6c0,0,0-0.1,0-0.1c0-0.2-0.1-0.3-0.3-0.1c-0.3,0.2-0.5,0.2-0.8,0
			c-0.1-0.1-0.2-0.2-0.3-0.3c-0.1-0.1-0.2-0.1-0.2,0c0,0-0.1,0.1-0.1,0.1c-0.1,0-0.1,0.1,0,0.2c0.2,0.4,0.3,0.8,0.2,1.2
			c-0.2,0.7-1,0.9-1.5,0.4c-0.3-0.3-0.6-0.7-0.8-1c-0.2-0.3-0.5-0.6-0.8-0.7c-0.1,0-0.1-0.1-0.2,0c0,0,0,0.1,0,0.1
			c0.1,0.1,0.1,0.3,0,0.4c-0.1,0.2-0.1,0.5-0.2,0.8c-0.3,0.7-1.2,0.7-1.6,0c-0.1-0.1-0.1-0.3-0.2-0.4c-0.1-0.4-0.2-0.7-0.3-1.1
			C12.8,17.9,12.8,17.4,12.7,17.1z M24.5,16.2C24.5,16.2,24.5,16.2,24.5,16.2c0-0.2,0-0.3,0-0.5c0-0.1-0.1-0.3-0.2-0.3
			c-0.2,0-0.2,0-0.3,0.2c-0.1,0.1-0.1,0.2-0.2,0.3c-0.1-0.1-0.1-0.3-0.2-0.4c-0.2-0.1-0.3,0-0.4,0.1c0-0.1,0-0.2,0-0.3
			c-0.1-0.2-0.3-0.3-0.5-0.1c-0.1,0.1-0.1,0.1-0.1,0.2c0,0.1-0.1,0.2-0.2,0.2c-0.2,0.2-0.3,0.4-0.2,0.6c0,0.1,0,0.2,0,0.4
			c-0.2,0.3-0.2,0.5-0.1,0.8c0,0.1,0.1,0.2,0.2,0.3c0.1,0,0.2,0,0.3-0.2c0.1-0.1,0.1-0.3,0.2-0.4c0.1,0.1,0.1,0.3,0.2,0.4
			c0.1,0.2,0.3,0.2,0.4,0.1c0.1-0.2,0.4-0.2,0.4-0.4c0.1,0.2,0.1,0.3,0.3,0.3c0.1,0,0.2,0,0.4,0.1c0.1,0,0.2,0.1,0.3,0.1
			c0.1,0,0.2,0,0.2,0.1c0.1,0.1,0.2,0.1,0.4,0.1c0.1-0.1,0.2-0.2,0.2-0.4c0-0.1-0.1-0.3-0.1-0.4c0-0.1-0.1-0.2,0-0.2
			c0.1-0.5,0.1-1,0.1-1.5c0-0.1,0-0.2-0.1-0.3c-0.1-0.1-0.3-0.1-0.4,0.1c-0.1,0.1-0.2,0.2-0.2,0.4c0,0.1,0,0.2-0.1,0.4
			C24.6,15.9,24.7,16.1,24.5,16.2z M32,16.9C32,16.9,32,16.9,32,16.9c0,0.2,0,0.4,0,0.6c0,0.2,0.3,0.4,0.4,0.2
			c0.1-0.1,0.1-0.2,0.1-0.3c0-0.1,0-0.2,0.1-0.3C33,17.3,33,17.7,33,18c0.1,0.4,0.3,0.5,0.6,0.3c0,0.2,0.1,0.4,0.3,0.5
			c0,0.1-0.1,0.1-0.2,0.1c-0.3,0.1-0.5,0.3-0.6,0.6c-0.1,0.1-0.1,0.3,0,0.4c0.1,0.1,0.3,0.1,0.4,0c0.1-0.1,0.2-0.2,0.3-0.2
			c0.1-0.1,0.2-0.1,0.3-0.1c0.5-0.1,0.8-0.5,1.1-0.8c0.3-0.3,0.4-0.7,0.8-0.9c0.2-0.1,0.3-0.2,0.4-0.4c0-0.1,0.1-0.1,0.2-0.2
			c0.3-0.1,0.5-0.2,0.6-0.5c0,0,0.1-0.1,0.1-0.1c0.2-0.1,0.4-0.3,0.6-0.4c0.2-0.1,0.3-0.3,0.5-0.4c0.1-0.1,0.1-0.2,0-0.3
			c-0.1-0.1-0.2-0.2-0.3-0.1c-0.2,0.1-0.3,0.1-0.4,0.2c-0.2,0.2-0.5,0.3-0.8,0.5c-0.2,0.1-0.3,0-0.3-0.1c0-0.1-0.1-0.1-0.1-0.2
			c0.1-0.4-0.1-0.7-0.3-1c-0.1-0.3-0.2-0.6-0.3-0.8c-0.1-0.1-0.2-0.2-0.3-0.1c-0.1,0-0.2,0.2-0.2,0.3c0,0.1,0,0.1,0,0.2
			c0,0.1,0,0.2,0,0.2c-0.1,0.1-0.1,0.3-0.1,0.4c0,0.2,0,0.3,0,0.5c0,0.2,0,0.3,0.1,0.5c0,0.1,0.1,0.2,0,0.3
			c-0.2-0.1-0.4-0.2-0.7-0.2c-0.1,0-0.2-0.1-0.2-0.3c0.1-0.2,0.2-0.4,0.1-0.6c0-0.2,0-0.3,0-0.4c0.1-0.2,0.1-0.4-0.1-0.5
			c-0.2-0.1-0.4,0-0.5,0.2c-0.1,0.2-0.2,0.4-0.3,0.7c-0.1,0.2-0.1,0.5-0.2,0.7c0-0.2-0.1-0.4-0.2-0.5c0,0,0-0.1,0-0.1
			c0-0.2-0.1-0.4-0.4-0.4c-0.1,0-0.1,0-0.2,0c-0.1-0.1-0.2-0.1-0.3,0c-0.1,0.1-0.1,0.1-0.1,0c-0.1-0.1-0.2-0.2-0.3-0.1
			c-0.1,0-0.2,0.2-0.2,0.3c0,0.2,0,0.5,0,0.7c0-0.1-0.1-0.2-0.1-0.3c-0.2-0.4-0.8-0.6-1.1-0.3c-0.2,0.2-0.5,0.4-0.6,0.8
			C30,15.4,30,15,29.9,14.7c-0.1-0.2,0-0.5-0.1-0.8c-0.1-0.3,0-0.5,0.1-0.8c0.1-0.2,0.1-0.3,0.2-0.5c0.1-0.2,0-0.4-0.1-0.5
			c-0.1-0.1-0.3,0-0.4,0.2c-0.2,0.3-0.4,0.5-0.4,0.8c0,0.1-0.1,0.1-0.1,0.2c-0.2,0.2-0.2,0.4-0.3,0.6c-0.1,0.3-0.1,0.6-0.3,0.9
			c0,0,0,0.1-0.1,0.1c-0.1,0-0.1-0.1-0.1-0.1c0-0.2-0.1-0.4-0.1-0.7c0,0,0-0.1,0-0.1c-0.1-0.1-0.1-0.3,0-0.4
			c0.1-0.2,0.1-0.3,0.1-0.5c0-0.1,0-0.2-0.2-0.3c-0.1,0-0.2,0-0.3,0.1c-0.1,0.2-0.2,0.3-0.3,0.5c0,0.1-0.1,0.3-0.3,0.2
			c-0.1-0.1-0.2,0-0.3,0.1c-0.1,0.1-0.1,0.3-0.2,0.4c0,0.3-0.1,0.5-0.2,0.8c-0.1,0.3-0.1,0.7-0.1,1c0,0.2,0,0.4-0.1,0.6
			c-0.2,0.3-0.2,0.6-0.1,0.9c0,0.1,0.1,0.2,0,0.3c-0.1,0.3,0,0.7,0,1c0,0.2,0.1,0.3,0.2,0.3c0.1,0,0.3-0.1,0.3-0.3
			c0-0.1,0-0.2,0.1-0.4c0.1-0.2,0.1-0.4,0-0.6c0-0.2,0-0.3,0.1-0.4c0.1-0.1,0.1-0.2,0.1-0.3c0-0.5,0.1-1,0.2-1.5
			c0.1,0.1,0.1,0.1,0.2,0.2c0,0.1,0,0.3,0.1,0.4c0.1,0.2,0.1,0.4,0.1,0.7c0,0.1,0,0.2,0.1,0.3c0.2,0.1,0.2,0.3,0.3,0.5
			c0.1,0.2,0.2,0.3,0.4,0.2c0.2,0,0.2-0.2,0.2-0.4c0-0.1,0-0.3,0-0.4c0.1-0.2,0.2-0.4,0.1-0.6c0-0.1,0-0.2,0.1-0.2
			c0.1,0.2,0.1,0.5,0.1,0.7c0,0.2,0.1,0.4,0.2,0.6c0.1,0.1,0.1,0.1,0,0.2c0,0.2,0,0.3,0.1,0.5c0.1,0.2,0.1,0.4,0.3,0.5c0,0,0,0,0,0
			c-0.1,0.3,0.1,0.3,0.3,0.4c0.2,0.1,0.4,0,0.4-0.3c0-0.2,0-0.5-0.2-0.6c0,0,0-0.1,0-0.1c0.1-0.2,0-0.5-0.1-0.7c0,0,0,0,0-0.1
			c0,0,0,0,0,0c0,0,0,0,0,0c0,0,0-0.1,0-0.1c0,0,0-0.1,0-0.1c0.2,0.2,0.5,0.2,0.7,0.4c0,0,0,0,0,0c0.3,0,0.5,0,0.7-0.3
			C31.7,17.2,31.9,17.1,32,16.9z M19.2,17.2c0,0.1,0,0.2-0.1,0.4c-0.1,0.2-0.1,0.3,0,0.5c0.1,0.1,0.1,0.2,0.2,0.2
			c0.1,0,0.2-0.1,0.2-0.2c0.1-0.2,0.2-0.5,0.3-0.8c0-0.1,0-0.2,0.1-0.2c0.1,0,0.1,0.1,0.2,0.2c0,0.1,0,0.1,0.1,0.2
			c0,0.1,0,0.1,0.1,0.2c0.2,0.3,0.4,0.7,0.5,1.1c0,0.2,0.2,0.3,0.4,0.2c0.3-0.1,0.4-0.3,0.3-0.6c-0.2-0.5-0.2-1-0.4-1.5
			c0-0.1-0.1-0.2-0.2-0.2c-0.2-0.1-0.3-0.3-0.4-0.4c0-0.1,0-0.1,0-0.1c0.3-0.1,0.5-0.3,0.5-0.5c0,0,0,0,0,0c0.3-0.1,0.4-0.4,0.6-0.5
			c0.1-0.1,0.2-0.2,0.1-0.4c-0.1-0.2-0.3-0.1-0.4-0.1c-0.2,0.1-0.3,0.2-0.5,0.3c-0.2,0.2-0.4,0.3-0.6,0.4c0-0.2,0-0.3,0-0.5
			c0-0.2,0.1-0.3,0.1-0.4c0-0.1,0-0.2,0-0.2c0-0.1-0.1-0.2-0.2-0.2c-0.4-0.1-0.6,0.2-0.6,0.5c0,0.3,0,0.5-0.1,0.8
			c-0.1-0.2-0.3-0.2-0.5-0.2c-0.1,0-0.1,0-0.1,0c-0.1-0.1-0.3,0-0.4,0c-0.3,0.1-0.5,0.4-0.7,0.6c0,0,0,0.1,0,0.1
			c0,0.2-0.1,0.3-0.1,0.6c-0.2-0.4-0.1-0.4-0.1-0.7c0-0.2,0.1-0.5-0.2-0.6c0,0,0-0.1,0-0.1c0.1-0.2,0.1-0.3,0.1-0.5
			c0-0.1-0.2-0.5-0.3-0.6c-0.2-0.1-0.3,0-0.4,0.1c0,0,0,0.1-0.1,0.1c0,0-0.1-0.1-0.1-0.1c0-0.1,0-0.1,0-0.2c0-0.2,0-0.3-0.2-0.4
			c-0.2-0.1-0.4-0.1-0.5-0.3c0,0-0.1,0-0.1,0c-0.1,0-0.2,0-0.2-0.1c-0.5-0.3-1-0.4-1.4,0.1c0,0.1-0.1,0.1-0.2,0.1
			c-0.2-0.1-0.3,0-0.5,0.1c0,0-0.1,0.1-0.1,0.1c-0.4,0.1-0.5,0.4-0.2,0.7c0.1,0.1,0.1,0.2,0.1,0.3c-0.1,0.3,0,0.5,0.2,0.7
			c0.1,0.1,0.1,0.2,0.1,0.3c-0.1,0.3,0,0.6,0.1,0.8c0.1,0.3,0.1,0.5,0.2,0.8c0,0.1,0,0.2,0,0.2c-0.1,0.1,0,0.3,0.1,0.4
			c0.1,0.1,0.1,0.1,0.1,0.2c-0.1,0.2-0.1,0.4,0,0.6c0.1,0.2,0.2,0.4,0.2,0.6c0,0,0,0.1,0,0.1c0.1,0.1,0.1,0.2,0.2,0.4
			c0.1,0.3,0.3,0.4,0.5,0.2c0.1-0.1,0.3-0.8,0.2-0.9c0,0,0,0,0,0c0-0.1,0-0.1,0-0.2c0.1-0.2,0-0.3-0.1-0.4c0-0.1-0.1-0.1,0-0.2
			c0.1-0.2,0.1-0.3,0-0.5c0-0.1,0-0.2,0.1-0.2c0.1,0,0.2,0,0.2,0.1c0,0,0,0.1,0,0.1c0.1,0.1,0.2,0.2,0.4,0.2c0.1,0,0.3,0,0.3,0.2
			c0,0.1,0.1,0.2,0.2,0.2c0.2,0,0.3,0.2,0.4,0.3c0,0,0.1,0.1,0.1,0.1c0.1,0,0.1,0.1,0.2,0.2c0.1,0.1,0.1,0.2,0.2,0.2
			c0.1,0,0.1,0.1,0.1,0.2c0,0.1,0.1,0.2,0.2,0.3c0.1,0.3,0.4,0.4,0.6,0.6c0.1,0.1,0.2,0.1,0.3,0c0.1-0.1,0.2-0.2,0.1-0.3
			c0-0.4-0.1-0.7-0.4-1c0,0-0.1-0.1-0.1-0.1c0-0.2-0.1-0.3-0.3-0.4c-0.1,0-0.1-0.1,0-0.1c0.2-0.1,0.1-0.3,0.1-0.5
			c0-0.1,0-0.2,0.1-0.3c0.2,0.1,0.4,0.2,0.4,0.5c0,0.1,0.1,0.3,0.2,0.3c0.2,0,0.3-0.1,0.3-0.2c0.1-0.3,0.3-0.3,0.5-0.3
			C19,17.3,19.1,17.3,19.2,17.2z M35.1,19.1c0,0-0.1,0-0.1,0c0,0.1,0.1,0.1,0.1,0.1c0.1,0,0.1,0,0.1-0.1
			C35.2,19,35.1,19.1,35.1,19.1z"/>
		<path id="XMLID_435_" class="st18" d="M32,16.9c-0.1,0.1-0.2,0.3-0.3,0.4c-0.2,0.2-0.5,0.2-0.7,0.3c0,0,0,0,0,0
			c-0.2-0.2-0.5-0.2-0.7-0.4c0-0.2,0-0.4,0-0.7c-0.1,0.2-0.2,0.4-0.1,0.6c0,0.1,0,0.1,0,0.2c0,0,0,0.1,0,0.1c0,0,0,0,0,0
			c0,0,0,0.1,0,0.1c0.2,0.2,0.2,0.4,0.1,0.7c0,0,0,0.1,0,0.1c0.2,0.2,0.1,0.4,0.2,0.6c0,0.2-0.1,0.3-0.4,0.3
			c-0.2-0.1-0.4-0.2-0.3-0.4c0,0,0,0,0,0c-0.2-0.1-0.2-0.3-0.3-0.5c-0.1-0.2-0.1-0.3-0.1-0.5c0-0.1,0-0.2,0-0.2
			c-0.1-0.2-0.2-0.4-0.2-0.6c0-0.2,0-0.5-0.1-0.7c-0.1,0-0.1,0.1-0.1,0.2c0,0.2,0,0.4-0.1,0.6c-0.1,0.1-0.1,0.2,0,0.4
			c0,0.2,0,0.3-0.2,0.4c-0.2,0-0.3-0.1-0.4-0.2c0-0.2-0.1-0.3-0.3-0.5c-0.1-0.1-0.1-0.2-0.1-0.3c0-0.2,0-0.5-0.1-0.7
			c-0.1-0.1-0.1-0.2-0.1-0.4c0-0.1,0-0.2-0.2-0.2c-0.1,0.5-0.2,1-0.2,1.5c0,0.1,0,0.3-0.1,0.3C27,17.4,27,17.6,27,17.7
			c0,0.2,0,0.4,0,0.6c-0.1,0.1-0.1,0.2-0.1,0.4c-0.1,0.2-0.2,0.3-0.3,0.3c-0.2,0-0.3-0.2-0.2-0.3c0-0.3-0.1-0.7,0-1
			c0-0.1,0-0.2,0-0.3c-0.1-0.3-0.1-0.6,0.1-0.9c0.1-0.2,0.2-0.4,0.1-0.6c-0.1-0.3,0-0.7,0.1-1c0.1-0.2,0.2-0.5,0.2-0.8
			c0-0.1,0.1-0.3,0.2-0.4c0.1-0.1,0.2-0.2,0.3-0.1c0.2,0.1,0.2,0,0.3-0.2c0-0.2,0.1-0.4,0.3-0.5c0.1-0.1,0.2-0.1,0.3-0.1
			c0.1,0.1,0.2,0.2,0.2,0.3c0,0.2-0.1,0.3-0.1,0.5c-0.1,0.2-0.1,0.3,0,0.4c0,0,0.1,0.1,0,0.1c0,0.2,0.1,0.4,0.1,0.7
			c0,0.1,0,0.1,0.1,0.1c0.1,0,0.1-0.1,0.1-0.1c0.2-0.3,0.3-0.6,0.3-0.9c0-0.2,0.1-0.4,0.3-0.6c0-0.1,0.1-0.1,0.1-0.2
			c0-0.3,0.2-0.6,0.4-0.8c0.1-0.2,0.3-0.3,0.4-0.2c0.2,0.1,0.2,0.3,0.1,0.5c-0.1,0.2-0.1,0.3-0.2,0.5c-0.1,0.3-0.1,0.5-0.1,0.8
			c0.1,0.3,0.1,0.5,0.1,0.8c0.1,0.4,0.1,0.7,0.2,1.1c0.1-0.4,0.4-0.5,0.6-0.8c0.3-0.3,0.9-0.1,1.1,0.3c0,0.1,0.1,0.2,0.1,0.3
			c0-0.3,0-0.5,0-0.7c0-0.2,0.1-0.3,0.2-0.3c0.1,0,0.3,0,0.3,0.1c0,0.1,0.1,0.1,0.1,0c0.1-0.1,0.2-0.1,0.3,0c0.1,0,0.1,0,0.2,0
			c0.2,0,0.4,0.2,0.4,0.4c0,0.1,0,0.1,0,0.1c0.1,0.1,0.2,0.3,0.2,0.5c0.1-0.2,0.1-0.5,0.2-0.7c0.1-0.3,0.2-0.5,0.3-0.7
			c0.1-0.2,0.3-0.3,0.5-0.2c0.2,0.1,0.2,0.3,0.1,0.5c-0.1,0.1-0.1,0.2,0,0.4c0.1,0.2-0.1,0.4-0.1,0.6c-0.1,0.2,0,0.3,0.2,0.3
			c0.2,0,0.4,0.2,0.7,0.2c0-0.1,0-0.2,0-0.3c-0.1-0.2-0.1-0.3-0.1-0.5c0-0.2,0-0.3,0-0.5c0-0.1,0-0.3,0.1-0.4c0-0.1,0-0.1,0-0.2
			c0-0.1,0-0.1,0-0.2c0-0.1,0-0.2,0.2-0.3c0.1,0,0.2,0,0.3,0.1c0.2,0.3,0.2,0.6,0.3,0.8c0.1,0.3,0.3,0.6,0.3,1c0,0.1,0,0.1,0.1,0.2
			c0.1,0.2,0.2,0.2,0.3,0.1c0.3-0.1,0.5-0.3,0.8-0.5c0.1-0.1,0.3-0.2,0.4-0.2c0.1,0,0.2,0,0.3,0.1c0.1,0.1,0.1,0.2,0,0.3
			c-0.2,0.2-0.3,0.3-0.5,0.4c-0.2,0.1-0.4,0.3-0.6,0.4c0,0-0.1,0-0.1,0.1c-0.1,0.3-0.3,0.4-0.6,0.5c-0.1,0-0.2,0.1-0.2,0.2
			c-0.1,0.2-0.2,0.3-0.4,0.4c-0.4,0.2-0.5,0.6-0.8,0.9c-0.3,0.4-0.6,0.8-1.1,0.8c-0.1,0-0.2,0.1-0.3,0.1c-0.1,0.1-0.2,0.2-0.3,0.2
			c-0.1,0.1-0.3,0.1-0.4,0c-0.1-0.1-0.1-0.3,0-0.4c0.2-0.2,0.4-0.4,0.6-0.6c0.1,0,0.1-0.1,0.2-0.1c-0.3-0.1-0.3-0.3-0.3-0.5
			c-0.4,0.2-0.5,0.1-0.6-0.3c-0.1-0.3-0.1-0.6-0.4-0.8c-0.1,0.1-0.1,0.2-0.1,0.3c0,0.1,0,0.3-0.1,0.3c-0.2,0.1-0.5,0-0.4-0.2
			C32,17.3,32,17.1,32,16.9C32,16.9,32,16.9,32,16.9C32,16.9,32,16.9,32,16.9z M26.6,16.5C26.6,16.5,26.6,16.5,26.6,16.5
			c-0.3,0.3-0.3,0.6-0.2,0.9c0,0.1,0.1,0.2,0,0.3c-0.1,0.3,0,0.6,0,1c0,0,0,0.1,0,0.1c0,0.1,0,0.1,0.1,0.1c0.1,0,0.1,0,0.1-0.1
			c0.1-0.3,0.3-0.6,0.2-1c-0.1-0.2,0-0.4,0.2-0.5c0.1-0.1,0.1-0.2,0.1-0.3c0-0.2,0-0.3,0-0.5c0-0.4,0.2-0.8,0.1-1.2
			c0-0.2,0.1-0.4,0.1-0.5c0,0.2,0,0.4,0.2,0.6c0.1,0.1,0.2,0.1,0.2,0.3c0,0.4,0.3,0.8,0.2,1.2c0,0.1,0,0.2,0.1,0.2
			c0.1,0,0.2,0.1,0.2,0.2c0,0.1,0,0.1,0,0.2c0,0.1,0.1,0.2,0.2,0.1c0.1,0,0.1-0.1,0.1-0.2c0-0.2,0.1-0.4,0.1-0.6
			c0.1-0.3,0.1-0.7,0.3-1c0.1-0.2-0.1-0.4,0.1-0.6c0.3,0.2,0.3,0.2,0.2,0.5c-0.1,0.2-0.1,0.4-0.1,0.6c0.1,0.2,0.1,0.3,0.1,0.5
			c0,0.2,0.1,0.4,0.2,0.6c0.1,0.1,0.1,0.2,0.1,0.3c0,0.1-0.1,0.3,0,0.4c0.1,0.2,0.1,0.4,0.3,0.6c0,0,0,0,0,0.1c0,0.2,0,0.3,0.2,0.3
			c0.1,0,0.2,0,0.1-0.1c0-0.2,0-0.4-0.1-0.5c-0.1-0.1-0.1-0.3-0.1-0.4c0-0.1,0-0.2-0.1-0.4c-0.1-0.3-0.1-0.5-0.2-0.8
			c0,0,0-0.1,0-0.1c0.2-0.3,0-0.6,0.1-0.9c0,0,0,0,0,0c-0.1-0.1-0.1-0.3-0.1-0.4c0-0.2-0.1-0.4-0.1-0.7c0-0.2,0-0.4-0.1-0.6
			c-0.1-0.4-0.1-0.7,0.1-1c0.1-0.1,0.1-0.3,0.2-0.4c0-0.1,0-0.2-0.1-0.2c-0.1,0-0.1,0-0.2,0c-0.1,0.2-0.4,0.4-0.4,0.7
			c0,0.1,0,0.3-0.1,0.4c-0.2,0.2-0.2,0.5-0.3,0.7c-0.1,0.2-0.1,0.5-0.3,0.7c-0.1,0.1-0.1,0.1-0.1,0.2c-0.1,0.2-0.1,0.5-0.1,0.7
			c0,0.1,0,0.3-0.1,0.4c0,0,0-0.1-0.1-0.1c-0.1-0.4,0-0.8-0.1-1.2C28,14.6,28,14.4,28,14.2c0,0,0-0.1,0-0.1
			c-0.1-0.1-0.1-0.2-0.1-0.4c0-0.1,0.1-0.3,0.1-0.4c0-0.1,0.1-0.2-0.1-0.3c-0.1-0.1-0.2,0.1-0.2,0.1c-0.2,0.2-0.2,0.5-0.3,0.7
			c-0.1,0.1-0.2,0.1-0.2,0c-0.1-0.2-0.2,0-0.2,0c0,0.1-0.1,0.1-0.1,0.2c0,0.3-0.1,0.6-0.2,0.9c-0.1,0.2-0.1,0.4-0.1,0.6
			C26.7,15.9,26.7,16.2,26.6,16.5L26.6,16.5z M36.5,16.3c0-0.1,0-0.2-0.1-0.2c-0.1-0.1-0.1-0.2-0.1-0.3c0-0.3,0-0.6-0.2-0.8
			c-0.2-0.3-0.2-0.6-0.3-0.9c0-0.1-0.1-0.2-0.2-0.1c-0.1,0-0.1,0.1-0.1,0.2c0,0.1,0.1,0.3,0,0.4c-0.1,0.1-0.1,0.2-0.1,0.3
			c0,0.2,0,0.4,0,0.6c0,0.3,0.2,0.5,0.2,0.8c0,0,0,0.1,0.1,0.1c0.1,0.1,0.1,0.1,0.1,0.2c0,0.2-0.2,0.3-0.1,0.5
			c0,0.2-0.1,0.2-0.2,0.3c-0.1,0-0.1,0-0.2,0.1c-0.1,0-0.1,0.1-0.1,0.1c0,0.1,0,0.1-0.1,0.2c-0.1,0.1-0.3,0.2-0.2,0.4
			c0,0.1,0,0.1-0.1,0.2c-0.4,0.3-0.6,0.7-1,0.9c-0.1,0.1-0.2,0.2-0.4,0.3c-0.1,0.1-0.2,0.2-0.1,0.2c0.1,0.1,0.2,0,0.3,0
			c0.2-0.2,0.4-0.4,0.7-0.4c0,0,0.1,0,0.1-0.1c0.4-0.3,0.7-0.8,1-1.2c0.1-0.1,0.2-0.3,0.3-0.4c0.1-0.1,0.3-0.2,0.4-0.3
			c0.1-0.2,0.2-0.3,0.4-0.3c0.2-0.1,0.3-0.2,0.4-0.4c0-0.1,0.1-0.1,0.2-0.1c0.4-0.2,0.7-0.4,1-0.7c0.1-0.1,0.1-0.1,0.1-0.2
			c-0.1-0.1-0.1,0-0.2,0c-0.2,0.1-0.4,0.2-0.5,0.3C37.1,16.1,36.8,16.2,36.5,16.3z M32.4,15.2c0-0.1,0-0.2,0-0.3
			c0-0.1-0.1-0.1-0.2-0.1c-0.1,0-0.1,0.1-0.1,0.2c0,0.1,0,0.1,0,0.2c0,0.3,0,0.6-0.1,0.9c0,0.2,0.1,0.4,0.1,0.6c0,0.3,0,0.5,0,0.8
			c0,0.1,0,0.2,0.1,0.2c0.1,0,0.2-0.1,0.2-0.2c0-0.2,0.2-0.5,0.1-0.7c0.1,0.1,0.1,0.1,0.2,0.1c0.2,0.2,0.4,0.4,0.4,0.7
			c0,0.1,0.1,0.3,0.1,0.4c0,0.1,0.1,0.2,0.2,0.1c0.1,0,0.1-0.1,0.1-0.2c0-0.1-0.1-0.2-0.1-0.3c0-0.3-0.1-0.6-0.2-0.9
			c-0.1-0.2-0.1-0.4-0.3-0.5c-0.1,0-0.1-0.1,0-0.1c0.1,0,0.2-0.1,0.3-0.2c0.3-0.1,0.4-0.4,0.2-0.6c-0.1-0.1-0.1-0.2-0.1-0.3
			c0-0.1-0.1-0.2-0.2-0.2c-0.1,0-0.1,0-0.2,0c-0.2-0.1-0.3,0-0.5,0.2C32.5,15.1,32.5,15.1,32.4,15.2z M34.4,16.7
			c0-0.2-0.1-0.3,0.2-0.2c0.2,0.1,0.4,0.1,0.6,0.1c0.2,0,0.2-0.2,0.3-0.2c0-0.1,0-0.1-0.1-0.2C35,16.2,34.8,16,34.5,16
			c-0.1,0-0.1,0-0.1-0.1c0.1-0.2,0.1-0.5,0.2-0.7c0-0.1,0-0.2,0-0.2c-0.1-0.1-0.1-0.2,0-0.3c0-0.1,0.1-0.1,0.1-0.2
			c0-0.1,0.1-0.2,0-0.2c-0.1-0.1-0.2,0-0.2,0.1c-0.1,0.2-0.3,0.4-0.3,0.6c0,0.2-0.1,0.4-0.1,0.6c0,0.3-0.1,0.6-0.5,0.6
			c-0.1,0-0.1,0.1-0.1,0.1c0,0.1,0,0.1,0.1,0.1c0.1,0,0.2,0.1,0.3,0.1c0.1,0,0.1,0.1,0.1,0.1c-0.1,0.3,0,0.6,0,0.9
			c0,0.2,0,0.4,0,0.5c0,0.2-0.1,0.3,0,0.5c0,0,0,0.1,0.1,0.1c0.1,0,0.1,0,0.1-0.1c0.1-0.2,0.1-0.4,0.1-0.7c0-0.1,0-0.3,0.1-0.4
			C34.4,17.2,34.3,16.9,34.4,16.7z M35.6,16.5C35.6,16.5,35.6,16.5,35.6,16.5C35.5,16.5,35.5,16.5,35.6,16.5
			c-0.2,0.3-0.4,0.4-0.8,0.2c-0.2-0.1-0.3,0-0.3,0.2c0,0.1,0,0.2,0,0.4c-0.2,0.3,0,0.7-0.2,1.1c0.1-0.1,0.2-0.2,0.3-0.2
			c0,0,0.1-0.1,0.1-0.1c0-0.2,0.1-0.3,0.2-0.4c0,0,0.1-0.1,0.1-0.1c0-0.2,0.2-0.3,0.4-0.3c0.1,0,0.1,0,0.1-0.1
			C35.5,16.9,35.6,16.7,35.6,16.5z M30.3,16.9c0,0.2,0,0.4,0.3,0.4c0.1,0,0.2,0.1,0.3,0.2c0,0,0.1,0.1,0.1,0.1c0.2,0,0.4,0,0.6-0.2
			c0.1-0.1,0.2-0.2,0.3-0.3c0.2-0.2,0.2-0.4,0-0.6c-0.1-0.1-0.1-0.2-0.1-0.2c0.1-0.2,0.1-0.4,0-0.7c-0.1-0.2-0.3-0.3-0.5-0.4
			c-0.2-0.1-0.4,0.1-0.5,0.2c-0.1,0.1-0.1,0.2-0.2,0.2c-0.3,0.2-0.2,0.5-0.4,0.7c0,0,0,0.1,0,0.1C30.3,16.5,30.3,16.7,30.3,16.9z
			 M33.7,18c0.1-0.2,0-0.3,0-0.5c0-0.3-0.1-0.5,0-0.8c0-0.1,0-0.2-0.2-0.2c-0.1,0-0.2-0.1-0.3-0.2c0,0,0-0.1-0.1-0.1
			c-0.1,0,0,0.1,0,0.1c0.2,0.2,0.2,0.6,0.3,0.8c0,0,0,0.1,0,0.1C33.5,17.5,33.6,17.7,33.7,18z M32,16.5c0.1-0.2-0.1-0.3-0.1-0.4
			C31.7,16.2,31.9,16.3,32,16.5z"/>
		<path id="XMLID_426_" class="st19" d="M19.2,17.2c-0.1,0.2-0.3,0.2-0.4,0.2c-0.2,0-0.4,0.1-0.5,0.3c0,0.1-0.2,0.3-0.3,0.2
			c-0.2,0-0.2-0.2-0.2-0.3c0-0.2-0.2-0.3-0.4-0.5c-0.1,0.1-0.1,0.2-0.1,0.3c0,0.2,0,0.3-0.1,0.5c-0.1,0.1,0,0.1,0,0.1
			c0.2,0.1,0.3,0.2,0.3,0.4c0,0.1,0,0.1,0.1,0.1c0.3,0.3,0.4,0.6,0.4,1c0,0.1,0,0.2-0.1,0.3c-0.1,0-0.2,0.1-0.3,0
			c-0.2-0.2-0.4-0.3-0.6-0.6c-0.1-0.1-0.1-0.2-0.2-0.3c0-0.1-0.1-0.1-0.1-0.2c-0.1-0.1-0.2-0.1-0.2-0.2c0-0.1-0.1-0.1-0.2-0.2
			c0,0-0.1,0-0.1-0.1c-0.1-0.1-0.2-0.3-0.4-0.3c-0.1,0-0.2-0.1-0.2-0.2c0-0.2-0.2-0.2-0.3-0.2c-0.2,0-0.3-0.1-0.4-0.2
			c0,0,0-0.1,0-0.1c-0.1-0.1-0.1-0.1-0.2-0.1c-0.1,0-0.1,0.1-0.1,0.2c0.1,0.2,0.1,0.3,0,0.5c0,0.1,0,0.1,0,0.2
			c0.1,0.1,0.1,0.3,0.1,0.4c0,0.1,0,0.1,0,0.2c0,0,0,0,0,0c0,0.1-0.1,0.9-0.2,0.9c-0.2,0.1-0.5,0-0.5-0.2c0-0.1,0-0.3-0.2-0.4
			c0,0,0-0.1,0-0.1c0.1-0.2-0.1-0.4-0.2-0.6c-0.1-0.2-0.1-0.4,0-0.6c0-0.1,0-0.2-0.1-0.2c-0.1-0.1-0.1-0.2-0.1-0.4
			c0-0.1,0.1-0.2,0-0.2c-0.1-0.3-0.1-0.5-0.2-0.8c-0.1-0.3-0.2-0.5-0.1-0.8c0-0.1,0-0.2-0.1-0.3c-0.2-0.2-0.2-0.4-0.2-0.7
			c0-0.1,0-0.2-0.1-0.3c-0.2-0.3-0.1-0.6,0.2-0.7c0.1,0,0.1-0.1,0.1-0.1c0.2-0.1,0.3-0.2,0.5-0.1c0.1,0,0.1,0,0.2-0.1
			c0.5-0.5,0.9-0.4,1.4-0.1c0.1,0.1,0.2,0.1,0.2,0.1c0,0,0.1,0,0.1,0c0.1,0.2,0.3,0.2,0.5,0.3c0.2,0.1,0.2,0.3,0.2,0.4
			c0,0.1,0,0.1,0,0.2c0,0,0,0.1,0.1,0.1c0,0,0.1,0,0.1-0.1c0.1-0.2,0.3-0.2,0.4-0.1c0.1,0.1,0.4,0.4,0.3,0.6c0,0.2,0,0.4-0.1,0.5
			c0,0,0,0.1,0,0.1c0.2,0.2,0.2,0.4,0.2,0.6c0,0.3,0,0.3,0.1,0.7c0-0.2,0.1-0.4,0.1-0.6c0,0,0-0.1,0-0.1c0.2-0.2,0.4-0.4,0.7-0.6
			c0.1-0.1,0.2-0.1,0.4,0c0,0,0.1,0,0.1,0c0.2,0,0.3,0,0.5,0.2c0.1-0.3,0.1-0.6,0.1-0.8c0-0.4,0.2-0.6,0.6-0.5
			c0.1,0,0.2,0.1,0.2,0.2c0,0.1,0,0.2,0,0.2c0,0.1-0.1,0.3-0.1,0.4c0,0.1,0.1,0.3,0,0.5c0.2-0.1,0.4-0.2,0.6-0.4
			c0.1-0.1,0.3-0.3,0.5-0.3c0.1-0.1,0.3-0.1,0.4,0.1c0.1,0.2,0,0.3-0.1,0.4c-0.2,0.2-0.3,0.4-0.6,0.5c0,0,0,0,0,0
			c-0.1,0.3-0.3,0.4-0.5,0.5c-0.1,0-0.1,0.1,0,0.1c0.1,0.2,0.2,0.4,0.4,0.4c0.1,0,0.2,0.1,0.2,0.2c0.2,0.5,0.3,1,0.4,1.5
			c0.1,0.3-0.1,0.5-0.3,0.6c-0.2,0.1-0.3,0-0.4-0.2c0-0.4-0.2-0.8-0.5-1.1c0-0.1-0.1-0.1-0.1-0.2c0-0.1,0-0.2-0.1-0.2
			c0-0.1-0.1-0.2-0.2-0.2c-0.1,0-0.1,0.1-0.1,0.2c0,0.3-0.1,0.5-0.3,0.8c0,0.1-0.1,0.2-0.2,0.2c-0.1,0-0.2-0.1-0.2-0.2
			c-0.1-0.2-0.1-0.3,0-0.5C19.2,17.4,19.2,17.3,19.2,17.2z M19.1,15.6c-0.3,0.1-0.5,0.2-0.7,0.4c-0.1,0.1-0.3,0.2-0.1,0.4
			c0,0,0,0.1,0,0.1c0,0.1,0,0.2,0.1,0.1c0.2,0,0.4,0.1,0.7,0c0,0,0.1,0.1,0.1,0c0-0.1,0.2-0.2,0-0.3C19.1,16.3,19,16.1,19,16
			C19,15.9,19.1,15.8,19.1,15.6C19.1,15.6,19.1,15.6,19.1,15.6C19.1,15.6,19.1,15.6,19.1,15.6z M15.1,16.3c0.1-0.1,0.2-0.2,0.3-0.2
			c0.1-0.1,0.2-0.1,0.3-0.1c0,0,0.1,0,0.1-0.1c0.1-0.2,0.2-0.4,0.3-0.7c0-0.1,0-0.2,0.1-0.2c0.2-0.3,0.1-0.6,0.1-0.9c0,0,0,0,0,0
			c-0.1-0.1-0.1-0.3-0.1-0.4c0-0.2-0.1-0.3-0.4-0.3c-0.1,0-0.1,0-0.1-0.1c0-0.2-0.1-0.2-0.2-0.2c-0.1,0-0.1,0-0.2,0
			c-0.1-0.1-0.3-0.2-0.4-0.2c-0.2-0.1-0.4-0.1-0.6,0c-0.1,0.1-0.2,0.1-0.3,0.2c-0.1,0-0.1,0.1-0.2,0.1c-0.2-0.1-0.4,0-0.5,0.1
			c0,0-0.1,0.1-0.1,0.1c-0.2,0.1-0.3,0.2-0.1,0.4C13,14,13,14.1,13,14.2c-0.1,0.2,0,0.4,0.2,0.6c0.1,0.1,0.1,0.2,0.1,0.3
			c-0.1,0.4,0,0.7,0.2,1c0,0,0,0,0,0.1c0,0.2,0.1,0.4,0.1,0.5c0,0.1,0.1,0.3,0,0.4c-0.1,0.1,0,0.2,0,0.3c0.1,0.1,0.1,0.3,0.1,0.4
			c-0.1,0.1,0,0.3,0,0.4c0.1,0.1,0.2,0.3,0.2,0.4c0,0.3,0.2,0.5,0.2,0.7c0,0.1,0.1,0.2,0.2,0.1c0.1,0,0.1-0.1,0.1-0.2
			c0-0.1,0.1-0.2,0.1-0.3c0.1-0.3,0-0.6,0-0.8c0-0.2-0.1-0.3,0-0.4c0-0.1,0-0.1,0-0.2c-0.1-0.2,0-0.4-0.1-0.6c0,0,0-0.2,0.1-0.1
			c0.1,0.1,0.3,0.2,0.5,0.2c0,0,0.1,0.1,0.1,0.1c0.1,0.1,0.1,0.3,0.4,0.2c0,0,0,0,0,0c0.1,0.1,0.3,0.1,0.4,0.4
			c0,0.1,0.1,0.2,0.2,0.1c0.1,0,0.1,0,0.2,0.1c0.2,0.3,0.5,0.5,0.7,0.7c0,0.1,0.2,0.1,0.2,0.2c0,0.1,0.1,0.2,0.1,0.3
			c0.1,0.2,0.4,0.3,0.5,0.6c0,0,0.1,0,0.1,0c0,0,0.1-0.1,0.1-0.1c0-0.3-0.1-0.6-0.3-0.8c-0.2-0.2-0.3-0.5-0.5-0.7
			c-0.2-0.1-0.4-0.3-0.4-0.6c0,0,0-0.1-0.1-0.1c-0.1-0.1-0.2-0.2-0.2-0.3c-0.1-0.1-0.1-0.3-0.3-0.3c-0.2,0-0.3-0.2-0.4-0.3
			C15.4,16.5,15.3,16.4,15.1,16.3z M19.5,16c-0.1,0.3-0.1,0.6-0.1,1c0,0.2-0.1,0.5-0.1,0.7c0,0.1,0,0.3,0.1,0.3
			c0.1,0,0.1-0.1,0.2-0.2c0.1-0.2,0.2-0.5,0.2-0.8c0-0.1,0.1-0.1,0.2-0.2c0,0,0,0,0.1,0c0.1,0.2,0.3,0.3,0.3,0.5
			c0,0.1,0,0.1,0.1,0.2c0.2,0.3,0.4,0.7,0.5,1.1c0,0.1,0.1,0.2,0.2,0.1c0.1-0.1,0.2-0.1,0.2-0.2c0.1-0.1,0-0.2,0-0.3
			c-0.1-0.3-0.1-0.5-0.2-0.8c-0.1-0.3-0.1-0.7-0.5-0.7c0,0-0.1-0.1-0.1-0.1c-0.1-0.1-0.2-0.2-0.3-0.4c-0.1-0.2-0.1-0.2,0.1-0.3
			c0.2-0.1,0.4-0.2,0.5-0.4c0,0,0-0.1,0.1-0.1c0.3-0.1,0.4-0.4,0.6-0.6c0.1,0,0.1-0.1,0.1-0.2c0-0.1-0.1-0.1-0.2,0
			c-0.2,0.1-0.3,0.1-0.4,0.3c-0.2,0.2-0.5,0.3-0.8,0.5c0,0-0.1,0.1-0.2,0c-0.1,0,0-0.1,0-0.2c0-0.1,0.1-0.1,0-0.2
			c-0.1-0.3-0.1-0.5,0-0.8c0.1-0.3,0-0.3-0.3-0.2c0,0,0,0-0.1,0c-0.2,0-0.2,0.1-0.2,0.2c0.1,0.6-0.1,1.1-0.3,1.6
			c0,0.1-0.1,0.2,0,0.3C19.4,16.3,19.4,16.1,19.5,16z M16.6,17.3c0-0.1-0.1-0.2-0.1-0.3c0.1-0.4-0.2-0.8-0.1-1.1c0,0,0,0,0-0.1
			c0-0.3-0.1-0.5,0.1-0.8c0.1-0.1,0-0.1-0.1-0.1c0,0-0.1-0.1-0.1,0c0,0.1-0.1,0.2-0.2,0.3c0,0.3-0.2,0.5-0.3,0.7
			c0,0.1-0.2,0.2-0.3,0.3c-0.2,0-0.2,0.1-0.1,0.2c0.1,0.1,0.2,0.2,0.4,0.3c0.2,0.1,0.3,0.2,0.4,0.4C16.4,17.2,16.5,17.3,16.6,17.3z
			 M17.4,17c0,0.1,0,0.2,0.1,0.2c0,0,0.1,0,0.1,0c0,0.2,0.1,0.2,0.1,0.4c0,0.1,0,0.2,0.1,0.2c0.1,0,0.2-0.1,0.2-0.1
			c0.1-0.3,0.4-0.4,0.7-0.4c0.2,0,0.2-0.1,0.3-0.2c0-0.1,0-0.1,0-0.2c0,0-0.1,0-0.1,0c-0.1,0-0.1,0.1-0.2,0c-0.2-0.1-0.4-0.1-0.6,0
			c0,0-0.1,0-0.1,0c0,0,0-0.1,0-0.1c0-0.1,0.1-0.1,0.1-0.2c0-0.1,0.1-0.2,0-0.2c-0.1-0.1-0.1-0.2,0-0.3c0.1-0.1,0.1-0.1,0.2-0.1
			c0.2-0.2,0.3-0.4,0.6-0.4c0.1,0,0.2-0.1,0.1-0.2c0-0.1-0.1-0.1-0.2-0.1c-0.1,0-0.2,0.1-0.2,0c-0.1-0.1-0.2-0.1-0.3,0
			c-0.2,0.1-0.3,0.4-0.6,0.5c0,0,0,0.1,0,0.1c-0.1,0.2-0.1,0.5-0.3,0.7c0,0.1-0.1,0.1,0,0.2C17.5,16.8,17.5,16.9,17.4,17z
			 M16.8,17.4c0,0.1,0,0.1,0,0.1c0,0.1,0,0.3,0.2,0.3c0.1,0,0.1-0.2,0.1-0.3c0-0.2,0-0.3,0.1-0.5c0-0.1,0.1-0.2,0-0.3
			c-0.1-0.1-0.1-0.2,0-0.3c0.1-0.1,0.1-0.2,0-0.3c-0.1-0.1-0.1-0.2-0.1-0.3c0.1-0.2,0.1-0.4,0-0.6c0-0.1,0-0.2-0.1-0.2
			c-0.2,0-0.4,0.1-0.3,0.2c0,0.2-0.1,0.4,0.1,0.5c-0.1,0.2,0,0.4,0,0.7c0,0.2,0,0.4,0,0.5C16.7,17.2,16.8,17.3,16.8,17.4z
			 M16.4,14.5c0,0.2,0.2,0.4,0.4,0.3c0.1,0,0.1,0,0.2-0.1c0-0.2,0.1-0.3,0.1-0.5c0-0.1-0.1-0.1-0.1-0.2c0,0,0,0,0-0.1
			c0-0.1-0.1-0.2-0.2-0.2c-0.1,0-0.2,0.1-0.1,0.2c0,0.1,0,0.2,0,0.2C16.5,14.5,16.5,14.5,16.4,14.5z"/>
		<path id="XMLID_423_" class="st18" d="M24.5,16.2c0.2-0.1,0.1-0.3,0.2-0.5c0.1-0.1,0.1-0.2,0.1-0.4c0-0.1,0.1-0.3,0.2-0.4
			c0.1-0.1,0.2-0.1,0.4-0.1c0.1,0.1,0.1,0.2,0.1,0.3c-0.1,0.5-0.1,1-0.1,1.5c0,0.1,0,0.2,0,0.2c0.1,0.1,0.1,0.2,0.1,0.4
			c0,0.2,0,0.3-0.2,0.4c-0.1,0.1-0.3,0.1-0.4-0.1c-0.1-0.1-0.1-0.1-0.2-0.1c-0.1,0-0.2,0-0.3-0.1c-0.1,0-0.2-0.1-0.4-0.1
			c-0.2,0-0.2-0.1-0.3-0.3c-0.1,0.2-0.3,0.2-0.4,0.4c-0.1,0.1-0.3,0.1-0.4-0.1c-0.1-0.1-0.1-0.3-0.2-0.4c0,0.2-0.1,0.3-0.2,0.4
			c-0.1,0.1-0.2,0.2-0.3,0.2c-0.1,0-0.2-0.1-0.2-0.3c-0.1-0.3-0.1-0.5,0.1-0.8c0.1-0.1,0.1-0.2,0-0.4c0-0.2,0.1-0.5,0.2-0.6
			c0.1-0.1,0.1-0.1,0.2-0.2c0-0.1,0.1-0.1,0.1-0.2c0.2-0.2,0.4-0.1,0.5,0.1c0,0.1,0,0.2,0,0.3c0.1-0.1,0.3-0.2,0.4-0.1
			c0.1,0.1,0.2,0.2,0.2,0.4c0.1-0.1,0.1-0.2,0.2-0.3c0.1-0.1,0.2-0.2,0.3-0.2c0.1,0,0.2,0.2,0.2,0.3C24.5,15.9,24.5,16.1,24.5,16.2
			C24.4,16.2,24.4,16.2,24.5,16.2C24.5,16.2,24.5,16.2,24.5,16.2z M23.6,16.7c0.1,0.1,0.2,0.3,0.3,0.5c0,0.1,0.1,0.1,0.1,0.1
			c0.1,0,0.1-0.1,0.1-0.1c0.2,0.3,0.5,0.3,0.7,0.1c0.1,0.1,0.1,0.3,0.3,0.3c0.2-0.1,0.1-0.2,0.1-0.4c0,0,0,0,0,0
			c-0.2-0.4-0.1-0.8,0-1.2c0-0.1,0-0.1,0-0.2c-0.1-0.2,0-0.3,0-0.5c0-0.1,0.1-0.2-0.1-0.2c-0.1,0-0.2,0-0.2,0.1
			c-0.1,0.2-0.1,0.4-0.1,0.5c-0.1,0.2-0.1,0.4-0.2,0.5c-0.2,0.1-0.3,0.3-0.4,0.4c0-0.1,0-0.1,0-0.2c0-0.2,0.1-0.5,0.1-0.7
			c0-0.1,0-0.1-0.1-0.2c-0.1,0-0.1,0-0.2,0.1c-0.1,0.2-0.1,0.3-0.2,0.5c-0.2-0.1-0.3-0.2-0.3-0.4c0,0,0,0,0,0c0-0.1-0.1-0.1-0.2-0.1
			c-0.1,0-0.1,0.1-0.1,0.1c0,0.1,0,0.3,0,0.4c0,0.1,0,0.2-0.1,0.3c-0.1,0-0.1-0.1-0.1-0.1c-0.1-0.3-0.1-0.6-0.2-0.9
			c0-0.1,0-0.2-0.1-0.2c-0.1,0-0.2,0.1-0.2,0.2c0,0,0,0.1,0,0.1c0,0.1,0,0.1-0.1,0.1c-0.1,0.1-0.3,0.3-0.2,0.5
			c0.1,0.2,0,0.3-0.1,0.5c-0.1,0.2-0.1,0.5-0.1,0.7c0,0.1,0,0.1,0.1,0.1c0.1,0,0.1,0,0.1-0.1c0.1-0.2,0.1-0.4,0.2-0.6
			c0-0.1,0-0.2,0.1-0.2c0.1,0,0.1,0.1,0.1,0.2c0,0.2,0.1,0.3,0.2,0.5c0,0.1,0.1,0.1,0.2,0.1c0.1,0,0.1-0.1,0.1-0.2
			c0-0.1-0.1-0.1,0-0.2c0.1,0,0.1,0.2,0.2,0.1c0.1-0.1,0.1-0.2,0.1-0.3C23.6,16.9,23.6,16.8,23.6,16.7
			C23.6,16.7,23.6,16.7,23.6,16.7z"/>
		<path id="XMLID_422_" class="st20" d="M30.1,17.3c0-0.1,0-0.1,0-0.2c-0.1-0.2-0.1-0.3,0.1-0.6c0,0.3,0,0.5,0,0.7
			C30.1,17.2,30.1,17.3,30.1,17.3z"/>
		<path id="XMLID_421_" class="st21" d="M35.1,19.1c0,0,0.1,0,0.1,0.1c0,0.1-0.1,0.1-0.1,0.1c0,0-0.1,0-0.1-0.1
			C35,19,35,19.1,35.1,19.1z"/>
		<path id="XMLID_420_" class="st20" d="M30.1,17.4C30.1,17.4,30.1,17.4,30.1,17.4C30.1,17.4,30.1,17.4,30.1,17.4
			C30.1,17.4,30.1,17.4,30.1,17.4z"/>
		<path id="XMLID_419_" class="st22" d="M26.6,16.4c0.1-0.2,0.1-0.5,0-0.8c0-0.2,0-0.4,0.1-0.6c0.1-0.3,0.2-0.6,0.2-0.9
			c0-0.1,0-0.2,0.1-0.2c0.1-0.1,0.1-0.3,0.2,0c0,0,0.1,0.1,0.2,0c0.2-0.2,0.1-0.5,0.3-0.7c0.1-0.1,0.1-0.2,0.2-0.1
			c0.1,0.1,0.1,0.2,0.1,0.3c0,0.1-0.1,0.3-0.1,0.4c0,0.1-0.1,0.3,0.1,0.4c0,0,0,0.1,0,0.1c0,0.2,0,0.5,0.1,0.7
			c0.2,0.4,0,0.8,0.1,1.2c0,0,0,0.1,0.1,0.1c0.1-0.1,0.1-0.3,0.1-0.4c0-0.2,0-0.5,0.1-0.7c0-0.1,0-0.2,0.1-0.2
			c0.2-0.2,0.2-0.5,0.3-0.7c0.1-0.3,0.1-0.5,0.3-0.7c0.1-0.1,0.1-0.2,0.1-0.4c0-0.3,0.3-0.5,0.4-0.7c0,0,0.1-0.1,0.2,0
			c0.1,0.1,0.1,0.1,0.1,0.2c-0.1,0.1-0.1,0.3-0.2,0.4c-0.1,0.3-0.2,0.7-0.1,1c0.1,0.2,0.1,0.4,0.1,0.6c0,0.2,0.1,0.4,0.1,0.7
			c0,0.1,0,0.3,0.1,0.4c0,0,0,0,0,0c-0.1,0.3,0.1,0.6-0.1,0.9c0,0,0,0.1,0,0.1c0.1,0.3,0.1,0.6,0.2,0.8c0,0.1,0.1,0.2,0.1,0.4
			c0,0.1,0,0.3,0.1,0.4c0.1,0.2,0.1,0.3,0.1,0.5c0,0.1,0,0.1-0.1,0.1c-0.2,0-0.2-0.1-0.2-0.3c0,0,0-0.1,0-0.1
			c-0.2-0.1-0.2-0.4-0.3-0.6c-0.1-0.1-0.1-0.3,0-0.4c0-0.1,0-0.2-0.1-0.3c-0.1-0.2-0.2-0.4-0.2-0.6c0-0.2,0-0.3-0.1-0.5
			c-0.1-0.2,0-0.4,0.1-0.6c0.1-0.3,0.1-0.3-0.2-0.5c-0.1,0.2,0,0.4-0.1,0.6c0,0,0,0-0.1,0c0-0.1,0-0.2,0-0.3c0-0.2,0-0.4,0.1-0.6
			c0,0,0-0.1,0.1-0.1c0.1,0,0,0.1,0,0.1c0,0.1,0,0.3,0.1,0.4c0.1,0.1,0.1,0.2,0.1,0.3c-0.1,0.2-0.2,0.5-0.1,0.7
			c0.1,0.2,0.1,0.4,0.1,0.5c0,0.2,0,0.4,0.2,0.5c0.1,0.1,0.1,0.2,0.1,0.4c0,0.1,0,0.2,0.1,0.4c0.1,0.2,0.2,0.4,0.3,0.5
			c0,0.1,0.1,0.2,0.2,0.3c0-0.2,0-0.3-0.1-0.5C30,18.3,30,18.1,30,18c0-0.1,0-0.2,0-0.3c-0.1-0.3-0.1-0.6-0.2-0.9c0,0,0-0.1,0.1-0.2
			c0-0.1,0.1-0.2,0.1-0.3c0-0.3-0.1-0.6-0.1-0.9c0-0.3-0.2-0.5-0.1-0.8c0-0.2,0-0.4-0.1-0.6c-0.1-0.2-0.1-0.4,0-0.6
			c0-0.3,0.2-0.5,0.3-0.8c0,0,0.1-0.1,0-0.1c-0.1,0-0.1,0-0.1,0.1c-0.1,0.2-0.3,0.4-0.3,0.7c0,0.1-0.1,0.2-0.1,0.2
			c-0.2,0.2-0.2,0.4-0.3,0.7c-0.1,0.3-0.1,0.6-0.3,0.8c0,0-0.1,0.1-0.1,0.2c-0.1,0.2-0.1,0.4-0.1,0.6c0,0.2,0,0.4-0.1,0.5
			c0,0,0,0.1-0.1,0.1c-0.1,0-0.1-0.1-0.1-0.1c-0.2-0.4,0-0.9-0.2-1.3c-0.1-0.2-0.2-0.5-0.1-0.7c0,0,0-0.1,0-0.1
			c-0.2-0.2-0.1-0.4-0.1-0.6c0-0.1,0.1-0.2,0.1-0.3c0,0,0-0.1,0-0.1c-0.1,0-0.1,0-0.1,0.1c0,0-0.1,0.1-0.1,0.1
			c-0.1,0.3-0.2,0.5-0.3,0.7c0,0.1,0,0.3-0.2,0c0,0,0,0-0.1,0c-0.2,0.2-0.1-0.1-0.2-0.1c0,0.1-0.1,0.2-0.1,0.2
			c0,0.3-0.1,0.5-0.2,0.8c-0.1,0.3-0.1,0.6-0.1,1C26.8,16.1,26.8,16.3,26.6,16.4C26.7,16.4,26.6,16.4,26.6,16.4z"/>
		<path id="XMLID_416_" class="st23" d="M36.5,16.3c0.3-0.1,0.7-0.2,0.9-0.4c0.2-0.1,0.3-0.3,0.5-0.3c0.1,0,0.2-0.1,0.2,0
			c0.1,0.1,0,0.1-0.1,0.2c-0.3,0.3-0.6,0.5-1,0.7c-0.1,0-0.1,0.1-0.2,0.1c-0.1,0.2-0.2,0.3-0.4,0.4c-0.2,0.1-0.3,0.2-0.4,0.3
			c-0.1,0.2-0.3,0.2-0.4,0.3c-0.1,0.1-0.2,0.2-0.3,0.4c-0.3,0.4-0.6,0.9-1,1.2c0,0-0.1,0.1-0.1,0.1c-0.3,0-0.5,0.2-0.7,0.4
			c-0.1,0.1-0.2,0.1-0.3,0c-0.1-0.1,0-0.2,0.1-0.2c0.1-0.1,0.2-0.2,0.4-0.3c0.4-0.2,0.6-0.6,1-0.9c0,0,0.1-0.1,0.1-0.2
			c-0.1-0.2,0.1-0.3,0.2-0.4c0.1,0,0.2-0.1,0.1-0.2c0-0.1,0-0.1,0.1-0.1c0.1,0,0.1-0.1,0.2-0.1c0.1,0,0.2-0.1,0.2-0.3
			c0-0.2,0.1-0.3,0.1-0.5c0-0.1,0.1-0.2-0.1-0.2c0,0-0.1,0-0.1-0.1c0-0.3-0.2-0.5-0.2-0.8c0-0.2,0-0.4,0-0.6c0-0.1,0-0.2,0.1-0.3
			c0.1-0.1,0-0.3,0-0.4c0-0.1,0-0.2,0.1-0.2c0.1,0,0.1,0.1,0.2,0.1c0.2,0.3,0.1,0.6,0.3,0.9c0.2,0.3,0.2,0.5,0.2,0.8
			c0,0.1,0.1,0.2,0.1,0.3C36.5,16.2,36.5,16.2,36.5,16.3z M38.1,15.6c-0.2,0.1-0.4,0.1-0.5,0.3c-0.1,0.1-0.3,0.2-0.5,0.3
			c-0.2,0.1-0.5,0.1-0.7,0.4c0,0-0.1,0.1-0.1,0c0,0,0-0.1,0-0.1c0-0.1,0.1-0.2,0-0.3c-0.2-0.2-0.2-0.5-0.2-0.7c0-0.1,0-0.2-0.1-0.3
			c-0.2-0.2-0.2-0.4-0.3-0.6c-0.1-0.2-0.1-0.4-0.2-0.6c0,0.1,0,0.1,0,0.2c0,0.1,0,0.3,0,0.4c-0.1,0.1-0.1,0.2-0.1,0.2
			c0,0.5,0.1,0.9,0.2,1.4c0,0,0,0.1,0,0.1c0.2,0.1,0.1,0.2,0.1,0.3c0,0.2-0.2,0.4-0.1,0.6c0,0.1-0.1,0.1-0.1,0.1
			c-0.1,0-0.2,0-0.2,0.1c-0.1,0-0.2,0-0.1,0.2c0,0,0,0.1-0.1,0.1c-0.1,0.1-0.2,0.1-0.3,0.2c0,0-0.1,0.1-0.1,0.2
			c0.1,0.2,0,0.3-0.1,0.4c-0.1,0.1-0.2,0.2-0.3,0.3c-0.2,0.2-0.3,0.4-0.6,0.5c-0.2,0.1-0.3,0.2-0.4,0.4c0,0-0.1,0.1-0.1,0.2
			c0.1,0.1,0.1,0,0.2-0.1c0.1,0,0.1-0.1,0.2-0.1c0.1-0.1,0.3-0.2,0.4-0.2c0.2,0,0.4-0.1,0.5-0.3c0.1-0.1,0.1-0.1,0.2-0.2
			c0.2-0.2,0.4-0.5,0.6-0.7c0.1-0.1,0.2-0.3,0.3-0.3c0.2-0.1,0.4-0.3,0.5-0.5c0.1-0.1,0.2-0.2,0.3-0.2c0.2-0.1,0.4-0.2,0.5-0.4
			c0,0,0.1-0.1,0.1-0.1c0.2-0.1,0.4-0.3,0.6-0.4C37.8,16,38,15.8,38.1,15.6z"/>
		<path id="XMLID_415_" class="st24" d="M29,15.7C29,15.7,29.1,15.8,29,15.7c-0.1,0.3-0.2,0.6-0.3,1c0,0.2-0.1,0.4-0.1,0.6
			c0,0.1,0,0.2-0.1,0.2c-0.1,0-0.2-0.1-0.2-0.1c0-0.1,0-0.1,0-0.2c0-0.1,0-0.2-0.2-0.2C28,17,28,16.9,28,16.8
			c0.1-0.4-0.2-0.8-0.2-1.2c0-0.1-0.1-0.2-0.2-0.3c-0.1-0.2-0.2-0.4-0.2-0.6c-0.1,0.2-0.2,0.4-0.1,0.5c0.1,0.4-0.1,0.8-0.1,1.2
			c0,0.2-0.1,0.3,0,0.5c0,0.1,0,0.2-0.1,0.3c-0.2,0.1-0.2,0.3-0.2,0.5c0.1,0.4-0.1,0.7-0.2,1c0,0-0.1,0.1-0.1,0.1
			c-0.1,0-0.1-0.1-0.1-0.1c0,0,0-0.1,0-0.1c0-0.3-0.1-0.6,0-1c0-0.1,0-0.2,0-0.3c-0.1-0.3-0.1-0.6,0.2-0.8c0,0,0,0,0,0l0,0
			c-0.2,0.2-0.2,0.5-0.1,0.8c0,0.1,0.1,0.2,0,0.3c-0.1,0.3,0,0.6,0,1c0,0,0,0.1,0,0.1c0,0,0,0,0,0c0.1-0.3,0.3-0.6,0.2-1
			c0-0.1,0-0.2,0-0.3c0.2-0.2,0.3-0.5,0.2-0.8c0,0,0-0.1,0-0.1c0-0.3,0.2-0.6,0.1-1c0-0.3,0-0.5,0.1-0.7c0-0.1,0-0.2,0.1-0.2
			c0.1,0,0.1,0.1,0.1,0.2c0,0,0,0.1,0,0.1c0,0.1,0,0.2,0.1,0.3c0.1,0.2,0.3,0.4,0.3,0.6c0,0.1,0,0.1,0.1,0.2
			c0.1,0.2,0.1,0.4,0.1,0.7c0,0.1,0,0.2,0.2,0.2c0.1,0,0.1,0.1,0.1,0.2c0,0.1,0,0.1,0,0.2c0,0.1,0,0.1,0.1,0.1
			c0.1,0,0.1-0.1,0.1-0.2c0-0.2,0-0.3,0.1-0.5c0.1-0.1,0.1-0.3,0.1-0.4c0-0.2,0-0.3,0.2-0.4C28.9,15.9,29,15.8,29,15.7z"/>
		<path id="XMLID_412_" class="st25" d="M32.4,15.2c0.1,0,0.1-0.1,0.1-0.1c0.1-0.2,0.2-0.3,0.5-0.2c0,0,0.1,0,0.2,0
			c0.1,0,0.2,0.1,0.2,0.2c0,0.1,0,0.2,0.1,0.3c0.2,0.3,0.1,0.5-0.2,0.6c-0.1,0-0.2,0.1-0.3,0.2c-0.1,0-0.1,0.1,0,0.1
			c0.2,0.1,0.2,0.3,0.3,0.5c0.1,0.3,0.2,0.6,0.2,0.9c0,0.1,0.1,0.2,0.1,0.3c0,0.1,0,0.2-0.1,0.2c-0.1,0-0.2,0-0.2-0.1
			c-0.1-0.1-0.1-0.3-0.1-0.4c0-0.3-0.2-0.5-0.4-0.7c0-0.1-0.1-0.1-0.2-0.1c0,0.3-0.1,0.5-0.1,0.7c0,0.1-0.1,0.2-0.2,0.2
			c-0.1,0-0.1-0.1-0.1-0.2c0-0.3,0-0.5,0-0.8c0-0.2-0.1-0.4-0.1-0.6c0-0.3,0-0.6,0.1-0.9c0-0.1,0-0.1,0-0.2c0-0.1,0-0.2,0.1-0.2
			c0.1,0,0.1,0.1,0.2,0.1C32.4,14.9,32.4,15.1,32.4,15.2z M32.5,16.7c0-0.1,0-0.1,0-0.2c0-0.1,0-0.2,0.1-0.2c0.1,0,0.1,0.1,0.1,0.2
			c0,0.1,0,0.2,0.1,0.3c0.2,0.2,0.4,0.4,0.4,0.8c0,0.1,0.1,0.3,0.1,0.4c0,0.1,0.1,0.1,0.1,0.1c0.1,0,0.1-0.1,0-0.2
			c-0.1-0.2-0.1-0.4-0.1-0.6c0-0.1,0-0.2-0.1-0.3c0-0.1-0.1-0.1-0.1-0.2c0-0.2-0.1-0.4-0.3-0.5c-0.1-0.1-0.1-0.1,0-0.2
			c0.1-0.1,0.2-0.1,0.4-0.2c0.3-0.1,0.3-0.3,0.2-0.5c-0.1-0.1-0.2-0.2-0.1-0.3c0.1-0.2,0-0.2-0.2-0.2c0,0-0.1,0-0.1,0
			c-0.2-0.1-0.3,0-0.4,0.1c0,0.1-0.1,0.1-0.1,0.2c0,0,0,0.1-0.1,0.1c0,0,0-0.1,0-0.1c0-0.1,0-0.3,0-0.4c0,0,0-0.1-0.1-0.1
			c0,0,0,0.1,0,0.1c-0.1,0.4,0,0.7-0.1,1.1c0,0.1,0,0.1,0.1,0.2c0.1,0.1,0.1,0.2,0.1,0.3c-0.1,0.1-0.1,0.2,0,0.3c0,0.1,0,0.1,0,0.2
			c-0.1,0.2,0,0.4,0,0.5c0,0,0,0.1,0.1,0.1c0,0,0.1,0,0.1-0.1C32.3,17.2,32.5,17,32.5,16.7z"/>
		<path id="XMLID_409_" class="st24" d="M34.4,16.7c-0.1,0.2,0,0.5-0.1,0.7c-0.1,0.1,0,0.3-0.1,0.4c0,0.2-0.1,0.4-0.1,0.7
			c0,0,0,0.1-0.1,0.1c-0.1,0-0.1,0-0.1-0.1c-0.1-0.2,0-0.3,0-0.5c0-0.2,0-0.4,0-0.5c0-0.3-0.1-0.6,0-0.9c0-0.1,0-0.1-0.1-0.1
			c-0.1,0-0.2-0.1-0.3-0.1c-0.1,0-0.1,0-0.1-0.1c0-0.1,0-0.1,0.1-0.1c0.4,0,0.4-0.3,0.5-0.6c0-0.2,0.1-0.4,0.1-0.6
			c0-0.2,0.2-0.4,0.3-0.6c0-0.1,0.1-0.1,0.2-0.1c0.1,0.1,0.1,0.1,0,0.2c0,0.1-0.1,0.1-0.1,0.2c-0.1,0.1-0.1,0.2,0,0.3
			c0.1,0.1,0,0.2,0,0.2c-0.1,0.2-0.1,0.5-0.2,0.7c0,0.1,0,0.1,0.1,0.1c0.3,0,0.6,0.2,0.8,0.3c0.1,0,0.1,0.1,0.1,0.2
			c-0.1,0.1-0.1,0.3-0.3,0.2c-0.2-0.1-0.4-0.1-0.6-0.1C34.3,16.4,34.4,16.5,34.4,16.7z M34,18.5c0.2-0.5,0.2-0.9,0.3-1.4
			c0-0.2,0.1-0.4,0-0.6c0-0.1,0.1-0.2,0.2-0.1c0.2,0.2,0.4,0,0.6,0.2c0.1,0.1,0.1-0.1,0.2-0.2c0,0-0.1-0.1-0.1-0.1
			c-0.2,0-0.3-0.2-0.5-0.1c0,0,0,0,0,0c0-0.1-0.1-0.1-0.2-0.1c-0.1,0-0.2-0.1-0.1-0.2c0.1-0.2,0.1-0.5,0.2-0.8c0-0.1,0-0.2,0-0.2
			c-0.1-0.1-0.1-0.2,0-0.2c0-0.1,0.1-0.1,0.1-0.2c0-0.1,0.1-0.1,0-0.2c-0.1,0-0.1,0-0.1,0.1c-0.1,0.2-0.2,0.4-0.3,0.6
			c0,0.3-0.1,0.6-0.2,0.9c0,0.1-0.1,0.1-0.2,0.1c-0.1,0-0.2,0.1-0.3,0.2c0.2,0,0.3,0.1,0.4,0.1c0.1,0,0.1,0.1,0.1,0.2
			c-0.1,0.3-0.1,0.6-0.1,0.9c0,0.2,0,0.4,0,0.6C33.9,18.1,33.9,18.3,34,18.5z"/>
		<path id="XMLID_408_" class="st26" d="M35.6,16.5c0,0.2-0.1,0.3-0.1,0.5c0,0.1-0.1,0.1-0.1,0.1c-0.2,0.1-0.4,0.1-0.4,0.3
			c0,0-0.1,0.1-0.1,0.1c-0.1,0.1-0.2,0.2-0.2,0.4c0,0.1,0,0.1-0.1,0.1c-0.1,0.1-0.2,0.2-0.3,0.2c0.2-0.3,0.1-0.7,0.2-1.1
			c0.1-0.1,0-0.2,0-0.4c0-0.2,0.1-0.3,0.3-0.2C35.1,16.9,35.4,16.9,35.6,16.5C35.5,16.5,35.5,16.5,35.6,16.5
			C35.6,16.5,35.6,16.5,35.6,16.5z"/>
		<path id="XMLID_405_" class="st27" d="M30.3,16.9c0.1-0.2,0-0.3-0.1-0.5c0,0,0-0.1,0-0.1c0.1-0.2,0.1-0.6,0.4-0.7
			c0.1-0.1,0.1-0.2,0.2-0.2c0.1-0.1,0.3-0.3,0.5-0.2c0.2,0.1,0.4,0.2,0.5,0.4c0.1,0.2,0.1,0.5,0,0.7c-0.1,0.1,0,0.2,0.1,0.2
			c0.2,0.3,0.2,0.4,0,0.6c-0.1,0.1-0.2,0.2-0.3,0.3c-0.2,0.1-0.4,0.1-0.6,0.2c0,0-0.1,0-0.1-0.1c-0.1-0.1-0.2-0.2-0.3-0.2
			C30.3,17.2,30.3,17.1,30.3,16.9z M30.4,16.8c0,0.3,0,0.3,0.2,0.4c0.1,0,0.1,0.1,0.2,0.1c0.2,0.2,0.5,0.1,0.7-0.1
			c0.1-0.1,0.1-0.2,0.2-0.2c0.2-0.2,0.2-0.3,0-0.5c-0.1-0.1-0.1-0.2-0.1-0.3c0.1-0.2,0.1-0.5,0-0.7c-0.1-0.3-0.5-0.3-0.7-0.1
			c-0.1,0.1-0.1,0.2-0.2,0.3c-0.3,0.1-0.2,0.5-0.4,0.7c0,0,0,0.1,0,0.1C30.4,16.5,30.4,16.6,30.4,16.8z"/>
		<path id="XMLID_404_" class="st28" d="M33.7,18c-0.1-0.2-0.2-0.4-0.1-0.6c0,0,0-0.1,0-0.1c-0.2-0.2-0.1-0.6-0.3-0.8
			c0,0-0.1-0.1,0-0.1c0.1,0,0.1,0,0.1,0.1c0.1,0.1,0.2,0.2,0.3,0.2c0.2,0,0.2,0.1,0.2,0.2c-0.1,0.3,0,0.5,0,0.8
			C33.8,17.7,33.8,17.8,33.7,18z"/>
		<path id="XMLID_403_" class="st20" d="M32,16.5c-0.1-0.1-0.3-0.2-0.1-0.4C31.9,16.2,32.1,16.3,32,16.5z"/>
		<path id="XMLID_402_" class="st24" d="M26.6,16.4C26.6,16.4,26.7,16.4,26.6,16.4c0,0,0,0.1,0,0.1c0,0,0,0,0,0
			C26.6,16.5,26.6,16.5,26.6,16.4L26.6,16.4z"/>
		<path id="XMLID_401_" class="st22" d="M26.6,16.5C26.6,16.5,26.6,16.5,26.6,16.5C26.6,16.5,26.6,16.5,26.6,16.5
			C26.6,16.5,26.6,16.5,26.6,16.5z"/>
		<path id="XMLID_400_" class="st17" d="M32,16.9C32,16.9,32,16.9,32,16.9C32,16.9,32,16.9,32,16.9C32,16.9,32,16.9,32,16.9z"/>
		<path id="XMLID_397_" class="st25" d="M15.1,16.3c0.2,0,0.2,0.2,0.3,0.2c0.1,0.1,0.2,0.3,0.4,0.3c0.2,0,0.3,0.1,0.3,0.3
			c0,0.1,0.1,0.2,0.2,0.3c0,0,0.1,0,0.1,0.1c0,0.3,0.2,0.5,0.4,0.6c0.3,0.2,0.4,0.5,0.5,0.7c0.2,0.2,0.3,0.5,0.3,0.8
			c0,0,0,0.1-0.1,0.1c0,0-0.1,0-0.1,0c-0.1-0.2-0.4-0.3-0.5-0.6c-0.1-0.1-0.1-0.2-0.1-0.3c0-0.1-0.1-0.1-0.2-0.2
			c-0.2-0.3-0.5-0.4-0.7-0.7c0-0.1-0.1-0.1-0.2-0.1c-0.1,0.1-0.2,0-0.2-0.1c0-0.2-0.2-0.3-0.4-0.4c0,0,0,0,0,0
			c-0.2,0.1-0.3-0.1-0.4-0.2c0,0,0-0.1-0.1-0.1c-0.2,0-0.3-0.1-0.5-0.2c-0.1-0.1-0.1,0.1-0.1,0.1c0.1,0.2,0,0.4,0.1,0.6
			c0,0.1,0,0.1,0,0.2c-0.1,0.2,0,0.3,0,0.4c0.1,0.3,0.1,0.6,0,0.8c0,0.1-0.1,0.2-0.1,0.3c0,0.1,0,0.2-0.1,0.2
			c-0.1,0-0.2-0.1-0.2-0.1c0-0.3-0.2-0.5-0.2-0.7c0-0.1-0.1-0.3-0.2-0.4c-0.1-0.1-0.1-0.3,0-0.4c0.1-0.2,0-0.3-0.1-0.4
			c-0.1-0.1-0.1-0.2,0-0.3c0.1-0.1,0-0.2,0-0.4c0-0.2-0.1-0.3-0.1-0.5c0,0,0,0,0-0.1c-0.2-0.3-0.2-0.7-0.2-1c0-0.1,0-0.2-0.1-0.3
			c-0.2-0.2-0.2-0.4-0.2-0.6c0.1-0.1,0-0.3-0.1-0.4c-0.2-0.2-0.1-0.4,0.1-0.4c0,0,0.1,0,0.1-0.1c0.1-0.1,0.3-0.2,0.5-0.1
			c0.1,0,0.2,0,0.2-0.1c0.1-0.1,0.2-0.1,0.3-0.2c0.2-0.1,0.4-0.2,0.6,0c0.1,0.1,0.3,0.2,0.4,0.2c0.1,0,0.1,0.1,0.2,0
			c0.1,0,0.2,0,0.2,0.2c0,0.1,0.1,0.1,0.1,0.1c0.2,0,0.4,0.1,0.4,0.3c0,0.1,0,0.3,0.1,0.4c0,0,0,0,0,0c0,0.3,0.1,0.6-0.1,0.9
			c0,0.1-0.1,0.2-0.1,0.2c-0.1,0.2-0.1,0.5-0.3,0.7c0,0-0.1,0-0.1,0.1c-0.1,0.1-0.2,0-0.3,0.1C15.3,16.2,15.3,16.3,15.1,16.3z
			 M17.6,19.6c0-0.3-0.1-0.5-0.3-0.7c-0.2-0.2-0.2-0.6-0.6-0.7c0,0,0-0.1,0-0.1c-0.2-0.1-0.3-0.3-0.4-0.5c0,0,0-0.1-0.1-0.1
			c-0.1-0.1-0.2-0.2-0.2-0.3c-0.1-0.1-0.1-0.3-0.3-0.2c-0.1,0-0.1,0-0.1-0.1c0,0,0-0.1-0.1-0.1c-0.1,0-0.2-0.1-0.2-0.1
			c-0.1-0.1-0.1-0.2-0.2-0.2c-0.1,0-0.1-0.1,0-0.2c0.2-0.1,0.3-0.3,0.5-0.3c0,0,0,0,0.1,0c0.1-0.2,0.2-0.4,0.3-0.6
			c0-0.1,0.1-0.2,0.1-0.3c0.1-0.3,0-0.5,0.1-0.8c0,0,0,0,0,0C16,14,16,13.9,16,13.7c0-0.2-0.1-0.3-0.3-0.2c-0.1,0-0.2,0-0.2-0.1
			c0-0.2-0.1-0.2-0.2-0.2c-0.1,0-0.1,0-0.2-0.1C15,13.1,14.9,13,14.7,13c-0.2-0.1-0.4-0.1-0.5,0.1c-0.1,0.1-0.2,0.2-0.4,0.3
			c-0.3,0-0.5,0-0.8,0.2c0,0-0.2,0-0.2,0.1c0,0.1,0,0.2,0.1,0.2c0.1,0.1,0.2,0.3,0.1,0.4c0,0.1-0.1,0.2,0,0.3
			c0.2,0.2,0.3,0.5,0.3,0.8c0,0.2,0,0.5,0.2,0.7c0,0,0,0,0,0c0,0.2,0.1,0.4,0.1,0.6c0,0.1,0,0.3,0,0.4c0,0.1,0,0.2,0,0.3
			c0.1,0.1,0.1,0.3,0.1,0.4c-0.1,0.1,0,0.2,0,0.4c0.1,0.1,0.2,0.3,0.2,0.4c0,0.3,0.2,0.5,0.2,0.7c0,0,0,0.1,0.1,0.1c0,0,0-0.1,0-0.1
			c0-0.1,0-0.2,0-0.3c0.2-0.3,0-0.6,0.1-0.8c0,0,0,0,0,0c-0.1-0.1-0.1-0.3,0-0.5c0,0,0.1-0.1,0-0.2c-0.1-0.2,0-0.4-0.1-0.6
			c0-0.1,0-0.2,0.1-0.2c0.1-0.1,0.1,0,0.2,0.1c0.1,0.1,0.1,0.1,0.2,0.1c0.1,0,0.2,0.1,0.3,0.1c0.1,0.1,0.1,0.3,0.3,0.2
			c0,0,0,0,0.1,0c0.2,0.1,0.4,0.2,0.4,0.4c0,0.1,0.1,0.1,0.1,0.1c0.1-0.1,0.2,0,0.3,0.1c0,0.1,0.1,0.2,0.2,0.3
			c0.2,0,0.2,0.2,0.4,0.3c0.2,0.2,0.4,0.4,0.5,0.7C17.2,19.3,17.5,19.4,17.6,19.6z"/>
		<path id="XMLID_394_" class="st29" d="M19.5,16c-0.1,0-0.2,0.2-0.3,0.1c-0.1-0.1,0-0.2,0-0.3c0.1-0.5,0.4-1,0.3-1.6
			c0-0.1,0-0.2,0.2-0.2c0,0,0,0,0.1,0c0.3-0.1,0.3,0,0.3,0.2c-0.1,0.3-0.1,0.5,0,0.8c0,0.1,0,0.2,0,0.2c0,0.1-0.1,0.1,0,0.2
			c0.1,0,0.1,0,0.2,0c0.3-0.2,0.6-0.3,0.8-0.5c0.1-0.1,0.3-0.2,0.4-0.3c0.1,0,0.2-0.1,0.2,0c0.1,0.1,0,0.1-0.1,0.2
			c-0.2,0.2-0.3,0.4-0.6,0.6c0,0-0.1,0.1-0.1,0.1c-0.1,0.3-0.2,0.4-0.5,0.4c-0.2,0.1-0.2,0.1-0.1,0.3c0.1,0.1,0.2,0.3,0.3,0.4
			c0,0,0.1,0.1,0.1,0.1c0.4,0.1,0.4,0.5,0.5,0.7c0.1,0.2,0.1,0.5,0.2,0.8c0,0.1,0.1,0.2,0,0.3c-0.1,0.1-0.1,0.1-0.2,0.2
			c-0.1,0.1-0.2,0-0.2-0.1c0-0.4-0.3-0.8-0.5-1.1c0,0-0.1-0.1-0.1-0.2c0-0.2-0.2-0.4-0.3-0.5c0,0,0,0-0.1,0c-0.1,0.1-0.2,0-0.2,0.2
			c0,0.3-0.1,0.5-0.2,0.8c0,0.1-0.1,0.3-0.2,0.2c-0.1,0-0.2-0.2-0.1-0.3c0.1-0.2,0.1-0.5,0.1-0.7C19.4,16.7,19.5,16.4,19.5,16z
			 M19.4,17.9c0.1,0,0.1-0.1,0.1-0.2c0.1-0.3,0.2-0.6,0.2-0.8c0-0.1,0.3-0.3,0.3-0.2c0.1,0.2,0.3,0.3,0.3,0.6c0,0.1,0,0.1,0.1,0.2
			c0.2,0.3,0.4,0.6,0.5,0.9c0,0.1,0,0.2,0.1,0.2c0.1-0.1,0-0.2,0.1-0.3c0.1,0,0.1,0.1,0.2,0.1c0,0,0-0.1,0-0.1
			c-0.1-0.3-0.2-0.5-0.2-0.8c-0.1-0.3-0.1-0.7-0.5-0.8c0,0,0,0-0.1-0.1c-0.1-0.1-0.2-0.3-0.3-0.4C20,16,20,16,20.3,15.9
			c0.2-0.1,0.3-0.2,0.4-0.4c0-0.1,0.1-0.2,0.2-0.2c0.3-0.1,0.4-0.4,0.6-0.6c-0.5,0.3-1,0.7-1.5,0.9c0,0,0,0,0-0.1
			c-0.1-0.2,0.1-0.3,0-0.5c-0.1-0.3-0.1-0.5,0-0.8c0.1-0.2,0-0.2-0.2-0.1c0,0-0.1,0-0.1,0c-0.1-0.1-0.1,0-0.1,0.1
			c0.1,0.6-0.1,1.1-0.3,1.6c0,0.1-0.1,0.2,0,0.2c0.1,0,0.1-0.1,0.2-0.1c0,0,0.1-0.1,0.1-0.1c0.1,0,0,0.1,0,0.1
			c0,0.3-0.1,0.6-0.1,0.9c0,0.2-0.1,0.5-0.1,0.7C19.3,17.7,19.3,17.8,19.4,17.9z"/>
		<path id="XMLID_393_" class="st30" d="M16.6,17.3c-0.1-0.1-0.2-0.2-0.3-0.3c-0.1-0.2-0.2-0.3-0.4-0.4c-0.1-0.1-0.3-0.2-0.4-0.3
			c-0.1-0.1-0.1-0.2,0.1-0.2c0.2,0,0.3-0.1,0.3-0.3c0.1-0.2,0.2-0.4,0.3-0.7c0-0.1,0.1-0.2,0.2-0.3c0-0.1,0.1,0,0.1,0
			c0,0,0.1,0.1,0.1,0.1c-0.2,0.2-0.1,0.5-0.1,0.8c0,0,0,0,0,0.1c-0.2,0.4,0.1,0.8,0.1,1.1C16.5,17.1,16.6,17.2,16.6,17.3z"/>
		<path id="XMLID_390_" class="st27" d="M17.4,17c0-0.1,0-0.2-0.1-0.2c-0.1-0.1,0-0.2,0-0.2c0.2-0.2,0.2-0.5,0.3-0.7
			c0,0,0-0.1,0-0.1c0.2-0.1,0.4-0.4,0.6-0.5c0.1-0.1,0.2-0.1,0.3,0c0.1,0.1,0.2,0,0.2,0c0.1,0,0.2,0,0.2,0.1c0,0.1-0.1,0.2-0.1,0.2
			c-0.3,0-0.4,0.2-0.6,0.4c0,0.1-0.1,0.1-0.2,0.1c-0.1,0.1-0.2,0.2,0,0.3c0.1,0.1,0.1,0.1,0,0.2c0,0.1-0.1,0.1-0.1,0.2
			c0,0,0,0.1,0,0.1c0,0,0.1,0,0.1,0c0.2-0.1,0.4-0.1,0.6,0c0.1,0,0.1,0,0.2,0c0,0,0.1,0,0.1,0c0,0,0.1,0.1,0,0.2
			c-0.1,0.1-0.1,0.2-0.3,0.2c-0.3,0-0.6,0.1-0.7,0.4c0,0.1-0.1,0.2-0.2,0.1c-0.1,0-0.1-0.1-0.1-0.2c0-0.2-0.2-0.2-0.1-0.4
			c0,0-0.1,0-0.1,0C17.5,17.2,17.4,17.1,17.4,17z M17.5,16.7c0.1,0,0.1-0.1,0.1,0c0,0.1,0,0.1,0,0.2c0,0,0,0,0,0.1
			c0,0.1-0.1,0.2,0.1,0.2c0.1,0,0.2,0.1,0.2,0.2c0,0.2,0.1,0.3,0.2,0.5c0,0,0.1-0.1,0.1-0.1c0.1-0.4,0.5-0.5,0.8-0.5
			c0.1,0,0.2-0.1,0.2-0.3c-0.1,0.1-0.2,0.1-0.3,0.1c-0.2-0.1-0.4-0.1-0.6,0c-0.1,0-0.1,0.1-0.2,0c-0.1-0.1-0.1-0.1,0-0.2
			c0-0.1,0.1-0.1,0.1-0.2c0.1-0.1,0.1-0.2,0-0.3c-0.1-0.1,0-0.2,0-0.3c0.1-0.1,0.2-0.2,0.3-0.3c0,0,0.1-0.1,0.1-0.1
			c-0.1-0.2,0.1-0.2,0.2-0.2c0.1,0,0.2,0,0.3,0c0.1,0,0.1-0.1,0.1-0.1c0-0.1-0.1-0.1-0.1,0c-0.1,0-0.2,0.1-0.3,0
			c-0.1-0.1-0.2-0.1-0.3,0c-0.2,0.1-0.3,0.3-0.5,0.4c0,0,0,0.1,0,0.1c-0.1,0.2-0.1,0.5-0.3,0.7C17.5,16.6,17.4,16.6,17.5,16.7z"/>
		<path id="XMLID_389_" class="st31" d="M19.1,15.7c0,0.1-0.1,0.2-0.1,0.3c0,0.1,0,0.3,0.2,0.3c0.2,0.1,0,0.2,0,0.3
			c0,0.1-0.1,0-0.1,0c-0.2,0.1-0.4,0-0.7,0c-0.1,0-0.2,0-0.1-0.1c0,0,0-0.1,0-0.1c-0.1-0.2,0-0.3,0.1-0.4
			C18.6,15.8,18.9,15.7,19.1,15.7C19.1,15.6,19.1,15.6,19.1,15.7z"/>
		<path id="XMLID_386_" class="st23" d="M16.8,17.4c0-0.1,0-0.2-0.1-0.4c0-0.2,0-0.4,0-0.5c-0.1-0.2-0.1-0.4,0-0.7
			c-0.2-0.2,0-0.3-0.1-0.5c0-0.1,0.1-0.2,0.3-0.2c0.1,0,0.1,0.1,0.1,0.2c0,0.2,0,0.4,0,0.6c0,0.1,0,0.2,0.1,0.3
			c0.1,0.1,0.1,0.2,0,0.3c-0.1,0.1-0.1,0.2,0,0.3c0,0.1,0,0.2,0,0.3c-0.1,0.2-0.1,0.3-0.1,0.5c0,0.1,0,0.3-0.1,0.3
			c-0.1,0-0.2-0.1-0.2-0.3C16.8,17.5,16.8,17.5,16.8,17.4z M16.9,17.4c0,0.1,0,0.1,0,0.2c0,0,0,0.1,0.1,0.1c0.1,0,0.1-0.1,0.1-0.1
			c0-0.2,0-0.4,0.1-0.6c0-0.1,0-0.1,0-0.2c-0.1-0.1-0.1-0.3,0-0.4c0.1-0.1,0-0.1,0-0.2C16.9,16.1,17,16,17,15.8c0-0.1,0-0.2,0-0.2
			c0-0.1,0-0.3-0.1-0.4c0-0.1-0.1,0.1-0.2,0c-0.1,0-0.1,0-0.1,0.1c0.1,0.2-0.1,0.3,0.1,0.5c-0.1,0.3,0,0.5,0,0.8
			c0,0.2,0,0.3,0.1,0.5C16.8,17.2,16.9,17.3,16.9,17.4z"/>
		<path id="XMLID_383_" class="st32" d="M16.4,14.5c0,0,0-0.1,0.1-0.1c0-0.1,0.1-0.1,0-0.2c0-0.1,0-0.2,0.1-0.2c0.1,0,0.2,0,0.2,0.2
			c0,0,0,0.1,0,0.1c0.1,0,0.2,0.1,0.1,0.2c0,0.2-0.1,0.3-0.1,0.5c0,0.1-0.1,0.1-0.2,0.1C16.7,14.9,16.4,14.7,16.4,14.5z M17,14.3
			C17,14.3,17,14.3,17,14.3c-0.2-0.1-0.2-0.1-0.2-0.2c0-0.1,0-0.2-0.1-0.1c-0.1,0-0.1,0.1-0.1,0.2c0,0.1,0,0.2,0,0.2
			c0,0.1-0.1,0.2,0,0.2c0.1,0.1,0.1,0.2,0.2,0.1c0.1,0,0.1-0.2,0.1-0.3C16.9,14.5,16.9,14.4,17,14.3z"/>
		<path id="XMLID_382_" class="st31" d="M19.1,15.6C19.1,15.6,19.1,15.6,19.1,15.6C19.1,15.6,19.1,15.6,19.1,15.6
			C19.1,15.6,19.1,15.6,19.1,15.6z"/>
		<path id="XMLID_377_" class="st23" d="M23.6,16.7c0,0.1,0,0.2,0,0.2c0,0.1,0,0.2-0.1,0.3c-0.1,0.1-0.1-0.1-0.2-0.1
			c-0.1,0.1,0,0.1,0,0.2c0,0.1,0,0.1-0.1,0.2c-0.1,0-0.1,0-0.2-0.1c-0.1-0.2-0.1-0.3-0.2-0.5c0-0.1-0.1-0.2-0.1-0.2
			c-0.1,0-0.1,0.1-0.1,0.2c-0.1,0.2-0.1,0.4-0.2,0.6c0,0,0,0.1-0.1,0.1c-0.1,0-0.1-0.1-0.1-0.1c-0.1-0.2-0.1-0.5,0.1-0.7
			c0.1-0.1,0.1-0.3,0.1-0.5c0-0.1,0.1-0.4,0.2-0.5c0.1,0,0.1-0.1,0.1-0.1c0-0.1,0-0.1,0-0.1c0-0.1,0.1-0.2,0.2-0.2
			c0.1,0,0.1,0.1,0.1,0.2c0,0.3,0.1,0.6,0.2,0.9c0,0,0,0.1,0.1,0.1c0.1-0.1,0.1-0.2,0.1-0.3c0-0.1,0-0.3,0-0.4c0-0.1,0-0.1,0.1-0.1
			c0.1,0,0.1,0,0.2,0.1c0,0,0,0,0,0c0,0.2,0.1,0.3,0.3,0.4c0.1-0.2,0.1-0.3,0.2-0.5c0-0.1,0.1-0.1,0.2-0.1c0.1,0,0.1,0.1,0.1,0.2
			c0,0.2-0.1,0.5-0.1,0.7c0,0.1,0,0.1,0,0.2c0.1-0.2,0.3-0.3,0.4-0.4c0.1-0.1,0.1-0.3,0.2-0.5c0.1-0.2,0.1-0.4,0.1-0.5
			c0.1-0.1,0.1-0.2,0.2-0.1c0.1,0,0.1,0.2,0.1,0.2c-0.1,0.2-0.1,0.3,0,0.5c0,0.1,0,0.1,0,0.2c-0.1,0.4-0.1,0.8,0,1.2c0,0,0,0,0,0
			c0,0.1,0.1,0.3-0.1,0.4c-0.2,0.1-0.2-0.1-0.3-0.3c-0.3,0.2-0.5,0.1-0.7-0.1c0,0,0,0.1-0.1,0.1c-0.1,0-0.1-0.1-0.1-0.1
			C23.8,17,23.8,16.8,23.6,16.7C23.6,16.7,23.6,16.7,23.6,16.7C23.6,16.7,23.6,16.7,23.6,16.7z M24.3,17c0,0.2,0.1,0.2,0.3,0.3
			c0.1,0,0.2,0,0.3-0.1c0,0,0-0.1,0.1-0.1c0.1,0,0.1,0.1,0.1,0.1c0,0.1,0,0.3,0.2,0.2c0.1,0,0-0.2,0-0.3c0,0,0,0,0,0
			c-0.2-0.4-0.2-0.8,0-1.2c0-0.1,0.1-0.1,0-0.2c-0.1-0.2,0-0.3,0-0.5c0-0.1,0.1-0.1,0-0.2c-0.1,0-0.1,0-0.1,0.1
			c-0.1,0.2-0.1,0.3-0.1,0.5c-0.1,0.3-0.1,0.5-0.4,0.7C24.3,16.6,24.3,16.8,24.3,17z M22.3,17.4c0.1,0,0.1-0.1,0.1-0.2
			c0-0.2,0.1-0.3,0.1-0.4c0-0.1,0.1-0.2,0.2-0.2c0.1,0,0.2,0.1,0.2,0.2c0,0.1,0,0.2,0.1,0.2c0,0.1,0.1,0.2,0.1,0.3c0,0,0,0,0.1,0
			c0,0,0.1,0,0-0.1c0-0.2,0-0.5-0.1-0.7c-0.1-0.3-0.2-0.7-0.2-1.1c0-0.1,0-0.1-0.1-0.1c-0.1,0-0.1,0.1-0.1,0.1c0,0.1,0,0.2-0.1,0.3
			c-0.2,0.1-0.2,0.3-0.2,0.4c0,0.2,0,0.4-0.1,0.5C22.1,17,22.2,17.2,22.3,17.4z M24.1,17.2c0-0.5,0.2-1,0.2-1.5
			c-0.2,0.2-0.3,0.5-0.3,0.8c-0.1-0.2-0.4-0.3-0.4-0.6c0,0,0-0.1-0.1-0.1c-0.1,0,0,0.1,0,0.1c0,0.3,0.1,0.5-0.1,0.8c0,0,0,0.1,0,0.1
			c0,0.1,0.1,0.2,0.1,0.3c0,0,0,0.1,0.1,0.1c0,0,0.1,0,0.1-0.1c0-0.1,0-0.2,0-0.3c0-0.1-0.1-0.2,0-0.3
			C23.8,16.7,23.9,16.9,24.1,17.2z"/>
		<path id="XMLID_376_" class="st17" d="M24.5,16.2C24.5,16.2,24.5,16.2,24.5,16.2C24.4,16.2,24.4,16.2,24.5,16.2
			C24.5,16.2,24.5,16.2,24.5,16.2z"/>
		<path id="XMLID_375_" class="st33" d="M26.6,16.6c0,0,0-0.1,0.1-0.1c0.1-0.2,0.1-0.4,0.1-0.5c-0.1-0.3,0-0.6,0.1-1
			c0.1-0.2,0.2-0.5,0.2-0.8c0-0.1,0-0.2,0.1-0.2c0.1,0,0,0.3,0.2,0.1c0,0,0,0,0.1,0c0.1,0.2,0.1,0,0.2,0c0.1-0.2,0.2-0.5,0.3-0.7
			c0,0,0.1-0.1,0.1-0.1c0,0,0-0.1,0.1-0.1c0,0,0,0.1,0,0.1c0,0.1-0.1,0.2-0.1,0.3c0,0.2-0.2,0.4,0.1,0.6c0,0,0,0.1,0,0.1
			c-0.1,0.2,0,0.5,0.1,0.7c0.2,0.4,0,0.9,0.2,1.3c0,0,0,0.1,0.1,0.1c0.1,0,0.1-0.1,0.1-0.1c0.1-0.2,0.1-0.4,0.1-0.5
			c0-0.2,0-0.4,0.1-0.6c0-0.1,0-0.1,0.1-0.2c0.2-0.2,0.3-0.5,0.3-0.8c0.1-0.2,0.1-0.5,0.3-0.7c0.1-0.1,0.1-0.2,0.1-0.2
			c0-0.3,0.2-0.5,0.3-0.7c0,0,0-0.1,0.1-0.1c0.1,0,0,0.1,0,0.1c-0.1,0.3-0.3,0.5-0.3,0.8c0,0.2,0,0.4,0,0.6c0.1,0.2,0.1,0.4,0.1,0.6
			c0,0.3,0.1,0.5,0.1,0.8c0,0.3,0.1,0.6,0.1,0.9c0,0.1,0,0.2-0.1,0.3c0,0.1-0.1,0.1-0.1,0.2c0.1,0.3,0.1,0.6,0.2,0.9
			c0,0.1,0.1,0.2,0,0.3c0,0.2,0,0.3,0.1,0.5c0.1,0.1,0.1,0.3,0.1,0.5c-0.1-0.1-0.2-0.1-0.2-0.3c-0.1-0.2-0.2-0.3-0.3-0.5
			c-0.1-0.1-0.1-0.2-0.1-0.4c0-0.2,0-0.3-0.1-0.4c-0.1-0.1-0.2-0.3-0.2-0.5c0-0.2,0-0.4-0.1-0.5c-0.1-0.2,0-0.5,0.1-0.7
			c0-0.1,0-0.2-0.1-0.3c-0.1-0.1-0.1-0.2-0.1-0.4c0,0,0-0.1,0-0.1c-0.1,0-0.1,0-0.1,0.1C29.1,15,29,15.2,29,15.4c0,0.1,0,0.2,0,0.3
			c0,0.1-0.1,0.2-0.1,0.2c-0.1,0.1-0.2,0.3-0.2,0.4c0,0.2,0,0.3-0.1,0.4c-0.1,0.2-0.1,0.3-0.1,0.5c0,0.1,0,0.1-0.1,0.2
			c-0.1,0-0.1-0.1-0.1-0.1c0-0.1,0-0.1,0-0.2c0-0.1,0-0.2-0.1-0.2c-0.1,0-0.2-0.1-0.2-0.2c0-0.2,0-0.5-0.1-0.7
			c0-0.1-0.1-0.1-0.1-0.2c0-0.3-0.1-0.4-0.3-0.6c-0.1-0.1-0.1-0.2-0.1-0.3c0,0,0-0.1,0-0.1c0-0.1,0-0.2-0.1-0.2
			c-0.1,0-0.1,0.1-0.1,0.2c-0.1,0.2-0.1,0.5-0.1,0.7c0.1,0.3-0.1,0.6-0.1,1c0,0.1,0,0.1,0,0.1c0,0.3,0,0.6-0.2,0.8
			c-0.1,0.1-0.1,0.2,0,0.3c0.1,0.4-0.1,0.7-0.2,1c0,0,0,0,0,0c-0.1,0,0-0.1,0-0.1c0-0.3-0.1-0.6,0-1c0-0.1,0-0.2,0-0.3
			C26.4,17.1,26.4,16.8,26.6,16.6z"/>
		<path id="XMLID_374_" class="st34" d="M38.1,15.6c-0.1,0.2-0.3,0.3-0.5,0.4c-0.2,0.1-0.4,0.3-0.6,0.4c0,0-0.1,0.1-0.1,0.1
			c-0.1,0.2-0.3,0.3-0.5,0.4c-0.1,0-0.2,0.1-0.3,0.2c-0.1,0.2-0.3,0.3-0.5,0.5c-0.1,0.1-0.2,0.2-0.3,0.3c-0.2,0.3-0.3,0.5-0.6,0.7
			c-0.1,0.1-0.1,0.1-0.2,0.2c-0.1,0.2-0.3,0.3-0.5,0.3c-0.2,0-0.3,0.1-0.4,0.2c0,0.1-0.1,0.1-0.2,0.1c0,0-0.1,0.1-0.2,0.1
			c-0.1-0.1,0-0.1,0.1-0.2c0.1-0.1,0.3-0.3,0.4-0.4c0.3-0.1,0.4-0.4,0.6-0.5c0.1-0.1,0.2-0.2,0.3-0.3c0.1-0.1,0.3-0.2,0.1-0.4
			c0-0.1,0-0.1,0.1-0.2c0.1-0.1,0.2-0.1,0.3-0.2c0,0,0.1,0,0.1-0.1c-0.1-0.2,0-0.1,0.1-0.2c0.1,0,0.2-0.1,0.2-0.1
			c0.1,0,0.1-0.1,0.1-0.1c0-0.2,0.1-0.4,0.1-0.6c0-0.1,0.1-0.2-0.1-0.3c0,0,0,0,0-0.1c-0.1-0.4-0.2-0.9-0.2-1.4c0-0.1,0-0.2,0.1-0.2
			c0.1-0.1,0.1-0.2,0-0.4c0-0.1,0-0.1,0-0.2c0.1,0.2,0.2,0.4,0.2,0.6c0.1,0.2,0.1,0.5,0.3,0.6c0.1,0.1,0.1,0.2,0.1,0.3
			c0,0.3,0,0.5,0.2,0.7c0.1,0.1,0,0.2,0,0.3c0,0,0,0.1,0,0.1c0,0,0.1,0,0.1,0c0.2-0.3,0.4-0.2,0.7-0.4c0.2-0.1,0.4-0.2,0.5-0.3
			C37.8,15.8,37.9,15.7,38.1,15.6z"/>
		<path id="XMLID_371_" class="st35" d="M32.5,16.7c0.1,0.3-0.1,0.5-0.1,0.7c0,0,0,0.1-0.1,0.1c0,0-0.1,0-0.1-0.1
			c0.1-0.2-0.1-0.4,0-0.5c0-0.1,0-0.1,0-0.2c-0.1-0.1,0-0.2,0-0.3c0.1-0.1,0-0.2-0.1-0.3c-0.1,0-0.1-0.1-0.1-0.2
			c0.1-0.4,0-0.7,0.1-1.1c0,0,0-0.1,0-0.1c0.1,0,0.1,0,0.1,0.1c0,0.1,0,0.3,0,0.4c0,0,0,0.1,0,0.1c0,0,0.1,0,0.1-0.1
			c0-0.1,0.1-0.1,0.1-0.2c0.1-0.1,0.2-0.3,0.4-0.1c0,0,0.1,0,0.1,0c0.1,0,0.2,0,0.2,0.2c0,0.1,0.1,0.2,0.1,0.3
			c0.2,0.2,0.1,0.4-0.2,0.5c-0.1,0.1-0.2,0.1-0.4,0.2c-0.1,0.1-0.1,0.1,0,0.2c0.2,0.1,0.3,0.2,0.3,0.5c0,0.1,0,0.1,0.1,0.2
			c0.1,0.1,0.1,0.2,0.1,0.3c0,0.2,0,0.4,0.1,0.6c0,0.1,0.1,0.1,0,0.2c-0.1,0-0.1,0-0.1-0.1c0-0.1-0.1-0.3-0.1-0.4
			c0-0.3-0.2-0.5-0.4-0.8c-0.1-0.1-0.1-0.2-0.1-0.3c0-0.1,0-0.2-0.1-0.2c-0.1,0-0.1,0.1-0.1,0.2C32.5,16.6,32.5,16.6,32.5,16.7z
			 M32.5,15.8L32.5,15.8c0,0.1,0.1,0.1,0.1,0.2c0.1,0.2,0.2,0.2,0.3,0c0.1-0.1,0.1-0.2,0.1-0.3c0-0.1,0-0.1,0.1-0.2
			c0,0,0.1-0.1,0.1-0.1c0-0.1-0.1-0.1-0.2-0.1c-0.1,0-0.2,0-0.3,0.1c0,0.1-0.1,0.2-0.2,0.2C32.4,15.7,32.5,15.7,32.5,15.8z"/>
		<path id="XMLID_370_" class="st36" d="M34,18.5c-0.1-0.2-0.1-0.3,0-0.5c0-0.2,0-0.4,0-0.6c0-0.3-0.1-0.6,0.1-0.9
			c0-0.1,0.1-0.2-0.1-0.2c-0.1,0-0.3-0.1-0.4-0.1c0.1-0.1,0.2-0.1,0.3-0.2c0.1,0,0.1-0.1,0.2-0.1c0-0.3,0.1-0.6,0.2-0.9
			c0-0.2,0.2-0.4,0.3-0.6c0-0.1,0.1-0.1,0.1-0.1c0.1,0,0,0.1,0,0.2c0,0.1-0.1,0.1-0.1,0.2c-0.1,0.1-0.1,0.2,0,0.2
			c0.1,0.1,0.1,0.1,0,0.2c-0.1,0.2-0.1,0.5-0.2,0.8c-0.1,0.1,0,0.2,0.1,0.2c0.1,0,0.2,0,0.2,0.1c0,0,0,0,0,0
			c0.2-0.1,0.3,0.1,0.5,0.1c0.1,0,0.1,0.1,0.1,0.1c-0.1,0.1-0.1,0.3-0.2,0.2c-0.2-0.1-0.4,0-0.6-0.2c-0.1-0.1-0.2,0-0.2,0.1
			c0,0.2,0,0.4,0,0.6C34.1,17.6,34.2,18,34,18.5z"/>
		<path id="XMLID_367_" class="st33" d="M30.4,16.8c0-0.2,0-0.3-0.1-0.4c0,0-0.1-0.1,0-0.1c0.2-0.2,0.1-0.5,0.4-0.7
			c0.1,0,0.1-0.2,0.2-0.3c0.2-0.2,0.6-0.2,0.7,0.1c0.1,0.2,0.2,0.5,0,0.7c-0.1,0.1,0,0.2,0.1,0.3c0.2,0.2,0.2,0.3,0,0.5
			c-0.1,0.1-0.1,0.2-0.2,0.2c-0.2,0.2-0.4,0.2-0.7,0.1c-0.1,0-0.1-0.1-0.2-0.1C30.3,17.1,30.3,17.1,30.4,16.8z M30.6,16.4
			c0,0.1,0,0.3,0.2,0.3c0,0,0.1,0.1,0.1,0.1c0,0.2,0.2,0.1,0.3,0.1c0.1,0,0.1-0.2,0-0.2c0-0.1,0-0.2,0-0.3c0.1-0.1,0-0.2-0.1-0.3
			C31,16,31,15.9,31,15.8c0-0.1,0.1-0.1,0-0.2c-0.1,0-0.2,0-0.2,0.1C30.8,15.9,30.7,16.1,30.6,16.4C30.6,16.3,30.6,16.3,30.6,16.4z"
			/>
		<path id="XMLID_364_" class="st37" d="M17.6,19.6c-0.2-0.2-0.4-0.3-0.5-0.5c-0.1-0.3-0.2-0.5-0.5-0.7c-0.1-0.1-0.2-0.3-0.4-0.3
			c-0.1,0-0.1-0.2-0.2-0.3c-0.1-0.1-0.1-0.2-0.3-0.1c-0.1,0-0.1,0-0.1-0.1c0-0.2-0.2-0.3-0.4-0.4c0,0,0,0-0.1,0
			C15.1,17.3,15,17.1,15,17c-0.1-0.1-0.1-0.2-0.3-0.1c-0.1,0-0.2-0.1-0.2-0.1c-0.1,0-0.1-0.1-0.2-0.1c-0.1,0.1-0.1,0.1-0.1,0.2
			c0.1,0.2,0,0.4,0.1,0.6c0,0,0,0.1,0,0.2c-0.1,0.2-0.1,0.3,0,0.5c0,0,0,0,0,0c-0.1,0.3,0.2,0.6-0.1,0.8c-0.1,0.1,0,0.2,0,0.3
			c0,0,0,0.1,0,0.1c0,0-0.1,0-0.1-0.1c0-0.3-0.2-0.5-0.2-0.7c0-0.1-0.1-0.3-0.2-0.4c-0.1-0.1-0.1-0.2,0-0.4c0.1-0.2,0-0.3-0.1-0.4
			c-0.1-0.1-0.1-0.2,0-0.3c0.1-0.1,0-0.3,0-0.4c0-0.2-0.2-0.4-0.1-0.6c0,0,0,0,0,0c-0.2-0.2-0.2-0.5-0.2-0.7c0-0.3-0.1-0.6-0.3-0.8
			c-0.1-0.1,0-0.2,0-0.3c0-0.2,0-0.3-0.1-0.4c-0.1-0.1-0.1-0.1-0.1-0.2c0-0.1,0.1-0.1,0.2-0.1c0.2-0.2,0.5-0.2,0.8-0.2
			c0.1,0,0.3-0.2,0.4-0.3c0.2-0.1,0.4-0.1,0.5-0.1c0.1,0.1,0.3,0.1,0.4,0.2c0.1,0,0.1,0.1,0.2,0.1c0.1,0,0.2,0,0.2,0.2
			c0,0.1,0.1,0.1,0.2,0.1c0.2,0,0.3,0,0.3,0.2c0,0.1,0,0.3,0.1,0.4c0,0,0,0,0,0c0,0.3,0.1,0.5-0.1,0.8c-0.1,0.1-0.1,0.2-0.1,0.3
			c-0.1,0.2-0.1,0.4-0.3,0.6c0,0,0,0-0.1,0c-0.2,0-0.3,0.2-0.5,0.3c-0.1,0.1-0.1,0.2,0,0.2c0.1,0,0.2,0.1,0.2,0.2
			c0,0.1,0.1,0.2,0.2,0.1c0,0,0.1,0.1,0.1,0.1c0,0.1,0.1,0.1,0.1,0.1c0.2,0,0.3,0.1,0.3,0.2c0.1,0.1,0.1,0.2,0.2,0.3
			c0,0,0.1,0,0.1,0.1c0.1,0.2,0.2,0.4,0.4,0.5c0,0,0,0.1,0,0.1c0.3,0.1,0.4,0.5,0.6,0.7C17.6,19,17.6,19.3,17.6,19.6z M13.9,14
			c-0.2,0-0.3,0.1-0.2,0.2c0.1,0.1,0.1,0.3,0.1,0.4c0,0.1,0,0.1,0.1,0.1c0.1,0.2,0.1,0.4,0.2,0.7c0,0.1,0,0.2,0.1,0.2
			c0.1,0,0,0.1,0,0.2c0,0.1-0.1,0.1,0,0.2c0.1,0,0.1,0,0.2,0c0,0,0.1,0,0.1,0c0.2,0.2,0.3,0,0.4-0.1c0.1,0,0.1-0.1,0.2-0.1
			c0.2,0,0.2-0.1,0.3-0.3c0-0.1,0-0.2,0.1-0.3c0.1-0.1,0.3-0.3,0.1-0.5c0,0,0,0,0-0.1c0.1-0.1,0-0.2-0.1-0.3
			c-0.1-0.1-0.1-0.1-0.1-0.2c0-0.1-0.1-0.2-0.2-0.2c-0.1,0-0.2,0-0.3-0.1c0,0,0-0.1-0.1-0.1c-0.2,0-0.4-0.1-0.6,0.1
			C14.1,14,14,14,13.9,14z"/>
		<path id="XMLID_363_" class="st36" d="M19.4,17.9c-0.1-0.1-0.1-0.2,0-0.3c0.1-0.2,0.1-0.5,0.1-0.7c0-0.3,0.1-0.6,0.1-0.9
			c0,0,0-0.1,0-0.1c-0.1,0-0.1,0-0.1,0.1c-0.1,0-0.1,0.2-0.2,0.1c-0.1,0,0-0.1,0-0.2c0.1-0.5,0.3-1,0.3-1.6c0-0.1,0-0.2,0.1-0.1
			c0,0,0.1,0,0.1,0c0.2-0.1,0.2,0,0.2,0.1c-0.1,0.3-0.1,0.5,0,0.8c0,0.2-0.1,0.3,0,0.5c0,0,0,0,0,0.1c0.6-0.2,1-0.7,1.5-0.9
			c-0.2,0.2-0.3,0.5-0.6,0.6c-0.1,0-0.2,0.1-0.2,0.2c-0.1,0.2-0.2,0.3-0.4,0.4C20,16,20,16,20.1,16.3c0.1,0.1,0.2,0.3,0.3,0.4
			c0,0,0,0.1,0.1,0.1c0.4,0.1,0.4,0.5,0.5,0.8c0.1,0.3,0.2,0.5,0.2,0.8c0,0,0,0.1,0,0.1c-0.1,0-0.1-0.1-0.2-0.1
			c-0.1,0.1,0,0.2-0.1,0.3c-0.1-0.1,0-0.2-0.1-0.2c-0.1-0.3-0.2-0.7-0.5-0.9c0-0.1-0.1-0.1-0.1-0.2c0-0.2-0.2-0.4-0.3-0.6
			c-0.1-0.1-0.3,0.1-0.3,0.2c-0.1,0.3-0.1,0.6-0.2,0.8C19.5,17.8,19.5,17.9,19.4,17.9z"/>
		<path id="XMLID_362_" class="st36" d="M17.5,16.7c0,0,0-0.1,0-0.1c0.2-0.2,0.2-0.5,0.3-0.7c0,0,0-0.1,0-0.1
			c0.2-0.1,0.3-0.3,0.5-0.4c0.1-0.1,0.2-0.1,0.3,0c0.1,0.1,0.2,0,0.3,0c0.1,0,0.1,0,0.1,0c0,0.1-0.1,0.1-0.1,0.1c-0.1,0-0.2,0-0.3,0
			c-0.1,0-0.3,0-0.2,0.2c0,0-0.1,0.1-0.1,0.1c-0.1,0.1-0.2,0.2-0.3,0.3c-0.1,0.1-0.1,0.2,0,0.3c0.1,0.1,0.1,0.2,0,0.3
			c0,0.1-0.1,0.1-0.1,0.2c0,0.1,0,0.1,0,0.2c0.1,0.1,0.1,0,0.2,0c0.2-0.1,0.4-0.1,0.6,0c0.1,0.1,0.2,0,0.3-0.1c0,0.2,0,0.2-0.2,0.3
			c-0.4,0-0.7,0.1-0.8,0.5c0,0,0,0-0.1,0.1c0-0.2-0.1-0.3-0.2-0.5c0-0.1-0.1-0.2-0.2-0.2c-0.2,0-0.1-0.1-0.1-0.2c0,0,0,0,0-0.1
			c0-0.1,0.1-0.1,0-0.2C17.6,16.6,17.5,16.7,17.5,16.7z"/>
		<path id="XMLID_361_" class="st35" d="M16.9,17.4c0-0.1,0-0.2,0-0.3c0-0.2-0.1-0.3-0.1-0.5c0-0.3-0.2-0.5,0-0.8
			c-0.2-0.1,0-0.3-0.1-0.5c0,0,0-0.1,0.1-0.1c0.1,0,0.2-0.1,0.2,0c0.1,0.1,0.1,0.3,0.1,0.4c0,0.1,0,0.1,0,0.2c0,0.1,0,0.3,0.1,0.4
			c0.1,0.1,0.1,0.1,0,0.2c-0.1,0.1-0.1,0.2,0,0.4c0,0.1,0,0.1,0,0.2c-0.1,0.2-0.1,0.4-0.1,0.6c0,0,0,0.1-0.1,0.1
			c-0.1,0-0.1-0.1-0.1-0.1C16.8,17.5,16.9,17.5,16.9,17.4z"/>
		<path id="XMLID_360_" class="st38" d="M17,14.3c0,0.1,0,0.1,0,0.2c0,0.1,0,0.2-0.1,0.3c-0.1,0-0.2-0.1-0.2-0.1
			c-0.1-0.1,0-0.2,0-0.2c0-0.1,0.1-0.1,0-0.2c0-0.1,0-0.2,0.1-0.2c0.1,0,0.1,0.1,0.1,0.1C16.8,14.2,16.8,14.3,17,14.3
			C17,14.3,17,14.3,17,14.3z"/>
		<path id="XMLID_357_" class="st35" d="M24.3,17c0-0.2,0.1-0.4,0.3-0.5c0.3-0.2,0.3-0.5,0.4-0.7c0.1-0.2,0.1-0.4,0.1-0.5
			c0-0.1,0-0.1,0.1-0.1c0.1,0,0,0.1,0,0.2c-0.1,0.2-0.1,0.3,0,0.5c0,0,0,0.1,0,0.2c-0.1,0.4-0.1,0.8,0,1.2c0,0,0,0,0,0
			c0,0.1,0.1,0.2,0,0.3c-0.1,0-0.1-0.1-0.2-0.2c0-0.1,0-0.1-0.1-0.1c-0.1,0-0.1,0.1-0.1,0.1c-0.1,0.1-0.1,0.1-0.3,0.1
			C24.3,17.3,24.3,17.2,24.3,17z M24.9,16.8c0-0.2-0.1-0.3-0.1-0.2c-0.1,0-0.3,0.3-0.3,0.4c0,0.1,0.1,0.2,0.2,0.2
			C24.8,17,24.9,16.9,24.9,16.8z"/>
		<path id="XMLID_354_" class="st39" d="M22.3,17.4c-0.1-0.2-0.1-0.4,0-0.7c0.1-0.2,0.1-0.3,0.1-0.5c0-0.2,0-0.4,0.2-0.4
			c0.1,0,0.1-0.2,0.1-0.3c0-0.1,0-0.1,0.1-0.1c0.1,0,0.1,0.1,0.1,0.1c0.1,0.4,0.1,0.7,0.2,1.1c0.1,0.2,0,0.5,0.1,0.7
			c0,0,0,0.1,0,0.1c0,0,0,0-0.1,0c0-0.1-0.1-0.2-0.1-0.3c0-0.1,0-0.2-0.1-0.2c0-0.1-0.1-0.2-0.2-0.2c-0.1,0-0.1,0.1-0.2,0.2
			c0,0.1-0.1,0.3-0.1,0.4C22.4,17.3,22.3,17.4,22.3,17.4z M22.9,16.3c-0.1-0.1,0-0.2,0-0.3c0-0.1,0-0.1-0.1-0.1c0,0-0.1,0-0.1,0
			c0,0.1-0.1,0.2-0.1,0.4c0,0.2,0.2,0.1,0.2,0.1C22.9,16.5,22.9,16.4,22.9,16.3z"/>
		<path id="XMLID_353_" class="st38" d="M24.1,17.2c-0.1-0.3-0.3-0.5-0.5-0.7c-0.1,0.1,0,0.2,0,0.3c0,0.1,0,0.2,0,0.3
			c0,0,0,0.1-0.1,0.1c0,0-0.1,0-0.1-0.1c0-0.1,0-0.2-0.1-0.3c0,0,0-0.1,0-0.1c0.2-0.2,0.1-0.5,0.1-0.8c0,0,0-0.1,0-0.1
			c0.1,0,0.1,0,0.1,0.1c0,0.3,0.3,0.3,0.4,0.6c0.1-0.3,0.2-0.5,0.3-0.8C24.2,16.2,24.1,16.7,24.1,17.2z"/>
		<path id="XMLID_352_" class="st18" d="M23.6,16.7C23.6,16.7,23.6,16.7,23.6,16.7C23.6,16.7,23.6,16.7,23.6,16.7
			C23.6,16.7,23.6,16.7,23.6,16.7z"/>
		<path id="XMLID_351_" class="st23" d="M32.5,15.8c-0.1-0.1-0.1-0.1,0-0.1c0.1-0.1,0.1-0.1,0.2-0.2c0.1-0.1,0.2-0.1,0.3-0.1
			c0.1,0,0.1,0,0.2,0.1c0,0.1,0,0.1-0.1,0.1C33,15.5,33,15.6,33,15.7c0,0.1,0,0.2-0.1,0.3c-0.1,0.2-0.2,0.2-0.3,0
			C32.6,15.9,32.5,15.8,32.5,15.8c0.1,0,0.1,0.1,0.1,0.1c0.1,0.1,0.2,0.1,0.2,0c0,0,0-0.1,0-0.1c0-0.1,0-0.3,0.1-0.4
			C32.7,15.3,32.7,15.6,32.5,15.8z"/>
		<path id="XMLID_348_" class="st24" d="M30.6,16.4C30.6,16.3,30.6,16.3,30.6,16.4c0.1-0.3,0.2-0.5,0.2-0.7c0-0.1,0.1-0.1,0.2-0.1
			c0.1,0,0,0.1,0,0.2C31,15.9,31,16,31.1,16c0.1,0.1,0.1,0.2,0.1,0.3c-0.1,0.1,0,0.2,0,0.3c0,0.1,0.1,0.2,0,0.2
			c-0.1,0-0.2,0.1-0.3-0.1c0,0-0.1-0.1-0.1-0.1C30.6,16.6,30.6,16.5,30.6,16.4z M31,15.7c-0.1,0-0.1,0.1-0.1,0.1
			c0,0.2-0.1,0.3-0.2,0.4c-0.1,0.1-0.1,0.3,0,0.3c0.1,0.1,0.2,0.1,0.2,0.2c0,0.1,0.1,0.1,0.2,0c0.1,0,0-0.1,0-0.1
			c-0.1-0.1-0.1-0.3,0-0.4c0,0,0-0.1,0-0.1C30.9,16,30.9,15.9,31,15.7z"/>
		<path id="XMLID_345_" class="st22" d="M13.9,14c0.1,0,0.2,0,0.3-0.1c0.2-0.2,0.4-0.1,0.6-0.1c0,0,0.1,0,0.1,0.1
			c0.1,0.1,0.1,0.2,0.3,0.1c0.1,0,0.2,0.1,0.2,0.2c0,0.1,0,0.1,0.1,0.2c0.1,0.1,0.2,0.2,0.1,0.3c0,0,0,0,0,0.1
			c0.2,0.2,0,0.4-0.1,0.5c-0.1,0.1-0.1,0.2-0.1,0.3c0,0.1-0.1,0.2-0.3,0.3c-0.1,0-0.1,0-0.2,0.1c-0.1,0.1-0.2,0.2-0.4,0.1
			c0,0-0.1,0-0.1,0c-0.1,0-0.1,0.1-0.2,0c-0.1-0.1,0-0.1,0-0.2c0-0.1,0-0.1,0-0.2c-0.1-0.1,0-0.1-0.1-0.2c-0.1-0.2-0.1-0.5-0.2-0.7
			c0,0-0.1-0.1-0.1-0.1c0-0.1,0-0.3-0.1-0.4C13.6,14.1,13.7,14,13.9,14z M14.1,15.9c0.1,0,0.2-0.1,0.2,0c0.2,0.1,0.3,0,0.4-0.1
			c0.1,0,0.1,0,0.2-0.1c0.1,0,0.2-0.1,0.2-0.2c0-0.2,0.1-0.3,0.2-0.5c0.1-0.1,0.1-0.1,0-0.2c-0.1-0.2,0-0.4-0.2-0.5c0,0,0-0.1,0-0.1
			c0-0.1,0-0.1-0.1-0.1c-0.1,0-0.2,0-0.2-0.1c0-0.1-0.1-0.1-0.2-0.1c-0.2,0-0.3,0-0.4,0.1c-0.1,0.1-0.2,0.1-0.3,0.1
			c-0.2,0-0.2,0.1-0.1,0.2c0.1,0.1,0.1,0.2,0.1,0.3c0,0.1,0,0.1,0,0.2c0.2,0.2,0.1,0.5,0.3,0.6c0,0,0,0.2,0,0.2
			C14.2,15.7,14.2,15.8,14.1,15.9z"/>
		<path id="XMLID_342_" class="st24" d="M24.9,16.8c0,0.1-0.1,0.2-0.2,0.3c-0.1,0.1-0.2,0-0.2-0.2c0-0.1,0.2-0.4,0.3-0.4
			C24.9,16.6,24.9,16.6,24.9,16.8z M24.7,17c0.1-0.1,0.2-0.2,0.2-0.3c0,0,0-0.1-0.1-0.1c-0.1,0-0.2,0.2-0.2,0.3
			C24.6,17,24.6,17,24.7,17z"/>
		<path id="XMLID_339_" class="st23" d="M22.9,16.3c0,0.1,0,0.2-0.1,0.1c-0.1,0-0.2,0.1-0.2-0.1c0-0.1,0.1-0.2,0.1-0.4
			c0,0,0,0,0.1,0c0.1,0,0.1,0.1,0.1,0.1C22.8,16.1,22.8,16.2,22.9,16.3z M22.8,16c-0.2,0.3-0.2,0.3,0,0.4
			C22.8,16.2,22.8,16.1,22.8,16z"/>
		<path id="XMLID_338_" class="st40" d="M32.5,15.8c0.2-0.1,0.2-0.4,0.5-0.4c-0.1,0.1-0.2,0.2-0.1,0.4c0,0,0,0.1,0,0.1
			c-0.1,0.1-0.1,0.1-0.2,0C32.6,15.8,32.6,15.8,32.5,15.8C32.5,15.8,32.5,15.8,32.5,15.8z"/>
		<path id="XMLID_335_" class="st41" d="M31,15.7c-0.1,0.2,0,0.4,0.2,0.5c0.1,0,0,0.1,0,0.1c-0.1,0.1-0.1,0.3,0,0.4
			c0,0,0.1,0.1,0,0.1c-0.1,0-0.1,0-0.2,0c-0.1-0.1-0.1-0.2-0.2-0.2c-0.1-0.1-0.1-0.3,0-0.3c0.1-0.1,0.2-0.2,0.2-0.4
			C30.9,15.7,30.9,15.7,31,15.7z M30.9,16.5c0.1-0.1,0.1-0.1,0.1-0.2c0,0,0-0.1-0.1-0.1c-0.1,0-0.1,0.1-0.1,0.2
			C30.8,16.4,30.8,16.5,30.9,16.5z"/>
		<path id="XMLID_332_" class="st19" d="M14.1,15.9c0.1-0.1,0.1-0.2,0-0.4c0,0,0-0.2,0-0.2c-0.2-0.2,0-0.5-0.3-0.6c0,0,0-0.1,0-0.2
			c0-0.1,0-0.2-0.1-0.3c-0.1-0.1,0-0.2,0.1-0.2c0.1,0,0.2,0,0.3-0.1c0.1-0.1,0.3-0.2,0.4-0.1c0.1,0,0.2,0,0.2,0.1
			c0,0.1,0.1,0.1,0.2,0.1c0.1,0,0.2,0,0.1,0.1c0,0,0,0.1,0,0.1c0.2,0.1,0.1,0.4,0.2,0.5c0,0.1,0,0.2,0,0.2c-0.1,0.1-0.2,0.3-0.2,0.5
			c0,0.1-0.1,0.1-0.2,0.2c-0.1,0-0.1,0-0.2,0.1c-0.1,0.1-0.3,0.2-0.4,0.1C14.3,15.9,14.2,15.9,14.1,15.9z M14,14.4
			c-0.1,0.1,0,0.2,0.1,0.3c0,0,0,0.1,0.1,0.1c0,0.3,0.1,0.5,0.2,0.7c0,0.1,0.1,0.1,0.2,0.1c0.2-0.1,0.4-0.2,0.4-0.5c0,0,0,0,0,0
			c0.1-0.1,0.2-0.3,0.1-0.5c-0.1-0.2-0.1-0.4-0.3-0.5c0,0-0.1,0-0.1-0.1c-0.2-0.2-0.2-0.2-0.4,0c0,0-0.1,0.1-0.1,0.1
			C14,14.3,13.9,14.3,14,14.4z"/>
		<path id="XMLID_331_" class="st41" d="M24.7,17c-0.1,0-0.1,0-0.1-0.1c0-0.1,0.2-0.3,0.2-0.3c0.1,0,0.1,0.1,0.1,0.1
			C24.8,16.9,24.7,17,24.7,17z"/>
		<path id="XMLID_330_" class="st42" d="M22.8,16c0,0.1,0,0.2,0,0.4C22.6,16.3,22.6,16.3,22.8,16z"/>
		<path id="XMLID_329_" class="st28" d="M30.9,16.5c-0.1,0-0.1-0.1-0.1-0.1c0-0.1,0-0.1,0.1-0.2c0,0,0.1,0,0.1,0.1
			C31,16.3,31,16.4,30.9,16.5z"/>
		<path id="XMLID_328_" class="st43" d="M14,14.4c-0.1-0.1,0-0.2,0.1-0.2c0,0,0.1,0,0.1-0.1c0.2-0.1,0.3-0.1,0.4,0
			c0,0,0.1,0.1,0.1,0.1c0.2,0.1,0.3,0.3,0.3,0.5c0.1,0.2,0,0.3-0.1,0.5c0,0,0,0,0,0c0,0.3-0.2,0.4-0.4,0.5c-0.1,0.1-0.2,0.1-0.2-0.1
			c-0.1-0.2-0.2-0.5-0.2-0.7c0,0,0-0.1-0.1-0.1C14,14.7,13.9,14.6,14,14.4z"/>
	</g>
</g>
</svg>
