<?xml version="1.0" encoding="utf-8"?>
<!-- Generator: Adobe Illustrator 19.0.0, SVG Export Plug-In . SVG Version: 6.00 Build 0)  -->
<svg version="1.1" id="Layer_1" xmlns="http://www.w3.org/2000/svg" xmlns:xlink="http://www.w3.org/1999/xlink" x="0px" y="0px"
	 viewBox="0 0 50 50" style="enable-background:new 0 0 50 50;" xml:space="preserve">
<style type="text/css">
	.st0{display:none;fill:#FFFFFF;}
	.st1{fill:#0D0D0D;}
	.st2{fill:#0E0D0D;}
	.st3{fill:#111010;}
	.st4{fill:#111111;}
	.st5{fill:#21201F;}
	.st6{fill:none;}
	.st7{fill:#F7E62D;}
	.st8{fill:#66491D;}
	.st9{fill:#F5E705;}
	.st10{fill:#FDF8C6;}
	.st11{fill:#FDF8C7;}
	.st12{fill:#F5CEAE;}
	.st13{fill:#955526;}
	.st14{fill:#201C13;}
	.st15{fill:#F5E711;}
	.st16{fill:#F5E713;}
	.st17{fill:#F3E61F;}
	.st18{fill:#2F301C;}
	.st19{fill:#2B3029;}
	.st20{fill:#F5E714;}
	.st21{fill:#B9C676;}
	.st22{fill:#343424;}
	.st23{fill:#2C2B1A;}
	.st24{fill:#F3E721;}
	.st25{fill:#585437;}
	.st26{fill:#DBDD44;}
	.st27{fill:#454334;}
	.st28{fill:#293622;}
	.st29{fill:#3C3B2F;}
	.st30{fill:#FCF8CA;}
	.st31{fill:#374424;}
	.st32{fill:#2E2C29;}
	.st33{fill:#F5E71F;}
	.st34{fill:#F4E729;}
	.st35{fill:#3B3929;}
	.st36{fill:#424240;}
	.st37{fill:#4D4C3F;}
	.st38{fill:#383A24;}
	.st39{fill:#3F3D22;}
	.st40{fill:#F5E822;}
	.st41{fill:#F5EB63;}
	.st42{fill:#393828;}
	.st43{fill:#3E3E20;}
	.st44{fill:#444234;}
	.st45{fill:#F4EA63;}
	.st46{fill:#363225;}
	.st47{fill:#DED434;}
	.st48{fill:#F1E856;}
	.st49{fill:#BDC967;}
	.st50{fill:#45443A;}
	.st51{fill:#CBCA5E;}
	.st52{fill:#F5E72F;}
	.st53{fill:#EFE863;}
	.st54{fill:#4A4A3A;}
	.st55{fill:#D5D64E;}
	.st56{fill:#F2EA5F;}
	.st57{fill:#C7CD5E;}
	.st58{fill:#4C4D31;}
	.st59{fill:#4C4940;}
	.st60{fill:#F1EA6A;}
	.st61{fill:#F3EA5B;}
	.st62{fill:#F2E964;}
	.st63{fill:#4B472F;}
	.st64{fill:#45452C;}
	.st65{fill:#EEDFAE;}
	.st66{fill:#E8DA73;}
	.st67{fill:#CAD077;}
	.st68{fill:#ECE438;}
	.st69{fill:#F4EB65;}
	.st70{fill:#E5E4E3;}
	.st71{fill:#EFE482;}
	.st72{fill:#3E402C;}
	.st73{fill:#575339;}
	.st74{fill:#595846;}
	.st75{fill:#3E3D33;}
	.st76{fill:#6E6A44;}
	.st77{fill:#373625;}
	.st78{fill:#F3EA66;}
	.st79{fill:#4E4D2F;}
	.st80{fill:#E8E146;}
	.st81{fill:#565540;}
	.st82{fill:#BAB083;}
	.st83{fill:#57573B;}
	.st84{fill:#C4C46E;}
	.st85{fill:#F6ED78;}
	.st86{fill:#4A4B37;}
	.st87{fill:#47472E;}
	.st88{fill:#D9D240;}
	.st89{fill:#E8D3AC;}
	.st90{fill:#28281B;}
	.st91{fill:#ACA96E;}
	.st92{fill:#B4B2B1;}
	.st93{fill:#8E8D36;}
	.st94{fill:#6A6A37;}
	.st95{fill:#A6A373;}
	.st96{fill:#F2EA6A;}
	.st97{fill:#57523D;}
	.st98{fill:#6D6A49;}
	.st99{fill:#8A865C;}
	.st100{fill:#D5D246;}
	.st101{fill:#877B6E;}
	.st102{fill:#494827;}
	.st103{fill:#BCB273;}
	.st104{fill:#49453C;}
	.st105{fill:#868451;}
	.st106{fill:#EFE873;}
	.st107{fill:#A8A26D;}
	.st108{fill:#524E3B;}
	.st109{fill:#B4B1B1;}
	.st110{fill:#404241;}
	.st111{fill:#353322;}
	.st112{fill:#DEDCDC;}
	.st113{fill:#595547;}
	.st114{fill:#A1986C;}
	.st115{fill:#DAD8D7;}
	.st116{fill:#C5C3C3;}
	.st117{fill:#7E7A7A;}
	.st118{fill:#4D513F;}
	.st119{fill:#70694C;}
	.st120{fill:#999595;}
	.st121{fill:#BECF43;}
	.st122{fill:#F4E712;}
	.st123{fill:#353426;}
	.st124{fill:#474722;}
	.st125{fill:#DBD227;}
	.st126{fill:#D8CF27;}
	.st127{fill:#C9BF2C;}
	.st128{fill:#BCB431;}
	.st129{fill:#BCB230;}
	.st130{fill:#E4DC27;}
	.st131{fill:#FCF8C7;}
	.st132{fill:#FDF8CC;}
	.st133{fill:#FBF8C9;}
	.st134{fill:#FCF8CC;}
	.st135{fill:#F7E82E;}
	.st136{fill:#FCF7C7;}
	.st137{fill:#FBF7C2;}
	.st138{fill:#FBF7C7;}
	.st139{fill:#F3F4D9;}
	.st140{fill:#EFE331;}
	.st141{fill:#FEF9D8;}
	.st142{fill:#FDF9DA;}
	.st143{fill:#F7F07D;}
	.st144{fill:#FCF8CD;}
	.st145{fill:#B4BF6D;}
	.st146{fill:#EBD7A2;}
	.st147{fill:#ECDE38;}
	.st148{fill:#F8CDBF;}
	.st149{fill:#F6CCC0;}
	.st150{fill:#FDD5C2;}
	.st151{fill:#ECD0A1;}
	.st152{fill:#BCB533;}
	.st153{fill:#FAD1C0;}
	.st154{fill:#FDE952;}
	.st155{fill:#DFDA2C;}
	.st156{fill:#E4D649;}
	.st157{fill:#F6CEAE;}
	.st158{fill:#D6D390;}
	.st159{fill:#FEFEFD;}
	.st160{fill:#F0D0B4;}
	.st161{fill:#33302D;}
	.st162{fill:#E1D835;}
	.st163{fill:#D6D391;}
	.st164{fill:#5A5831;}
	.st165{fill:#DFD346;}
	.st166{fill:#183C67;}
	.st167{fill:#105962;}
	.st168{fill:#24396A;}
	.st169{fill:#C9C62D;}
	.st170{fill:#E8DB3D;}
	.st171{fill:#D2D135;}
	.st172{fill:#E5D83F;}
	.st173{fill:#DAD23F;}
	.st174{fill:#F7D0AF;}
	.st175{fill:#C4CD8E;}
	.st176{fill:#075961;}
	.st177{fill:#E9EAEB;}
	.st178{fill:#165567;}
	.st179{fill:#E5E6D4;}
	.st180{fill:#A1A438;}
	.st181{fill:#8F9837;}
	.st182{fill:#AAAB36;}
	.st183{fill:#8E8D38;}
	.st184{fill:#E6D49C;}
	.st185{fill:#D0D447;}
	.st186{fill:#FFFFFF;}
	.st187{fill:#F5E62E;}
	.st188{fill:#F6CEAF;}
	.st189{fill:#52542F;}
	.st190{fill:#DCD82F;}
	.st191{fill:#E1D355;}
	.st192{fill:#F9D4BA;}
	.st193{fill:#DED95A;}
	.st194{fill:#4C4938;}
	.st195{fill:#E8DD38;}
	.st196{fill:#D6CF2E;}
	.st197{fill:#D4C742;}
	.st198{fill:#E3E6E9;}
	.st199{fill:#CDC949;}
	.st200{fill:#CAC42D;}
	.st201{fill:#E6E348;}
	.st202{fill:#B0B034;}
	.st203{fill:#034E6C;}
	.st204{fill:#879137;}
	.st205{fill:#B6B935;}
	.st206{fill:#B1B542;}
	.st207{fill:#F2D3B4;}
	.st208{fill:#D1C245;}
	.st209{fill:#D9BD81;}
	.st210{fill:#D6CD3A;}
	.st211{fill:#8F923B;}
	.st212{fill:#C0C231;}
	.st213{fill:#989A38;}
	.st214{fill:#C3BE31;}
	.st215{fill:#C6B06B;}
	.st216{fill:#DBD241;}
	.st217{fill:#504C2A;}
	.st218{fill:#A7B339;}
	.st219{fill:#CECF93;}
	.st220{fill:#B1B735;}
	.st221{fill:#C3C62F;}
	.st222{fill:#B7BD35;}
	.st223{fill:#9B9C37;}
	.st224{fill:#456559;}
	.st225{fill:#BAAE3C;}
	.st226{fill:#DDD648;}
	.st227{fill:#D6D393;}
	.st228{fill:#FFE1A0;}
	.st229{fill:#2C311D;}
	.st230{fill:#DDD62C;}
	.st231{fill:#D6D426;}
	.st232{fill:#FCF8CB;}
	.st233{fill:#DFE04F;}
	.st234{fill:#F0E761;}
	.st235{fill:#FEFDED;}
	.st236{fill:#B0A743;}
	.st237{fill:#F6ED68;}
	.st238{fill:#F9EE72;}
	.st239{fill:#EBE350;}
	.st240{fill:#F1E52A;}
	.st241{fill:#F0E865;}
	.st242{fill:#777471;}
	.st243{fill:#3A3839;}
	.st244{fill:#3E4238;}
	.st245{fill:#514E38;}
	.st246{fill:#231815;}
	.st247{fill:#343128;}
	.st248{fill:#F0D2B2;}
	.st249{fill:#3D3931;}
	.st250{fill:#424030;}
	.st251{fill:#F4D5B6;}
	.st252{fill:#443F30;}
	.st253{fill:#F1D6B5;}
	.st254{fill:#DDD059;}
	.st255{fill:#F9D1BF;}
	.st256{fill:#D8D591;}
	.st257{fill:#333424;}
	.st258{fill:#D3D196;}
	.st259{fill:#595A5A;}
	.st260{fill:#223B69;}
	.st261{fill:#23336B;}
	.st262{fill:#105067;}
	.st263{fill:#0A5267;}
	.st264{fill:#464630;}
	.st265{fill:#605D46;}
	.st266{fill:#5F5D4A;}
	.st267{fill:#743531;}
	.st268{fill:#D73048;}
	.st269{fill:#FEFEFE;}
	.st270{fill:#33322F;}
	.st271{fill:#D7CE39;}
	.st272{fill:#E5DC46;}
	.st273{fill:#424242;}
</style>
<g id="XMLID_1_">
	<path id="XMLID_907_" class="st0" d="M0,25C0,16.7,0,8.4,0,0.2C0,0,0,0,0.2,0c16.6,0,33.1,0,49.7,0C50,0,50,0,50,0.2
		c0,16.6,0,33.1,0,49.7c0,0.1,0,0.2-0.2,0.2c-16.6,0-33.1,0-49.7,0C0,50,0,50,0,49.8C0,41.5,0,33.3,0,25z"/>
	<path id="XMLID_906_" class="st1" d="M49.8,26.8c0,0.6-0.1,1.2-0.2,1.9c-0.2,1.7-0.6,3.3-1.2,4.9c-2.7,7.1-7.6,12-14.7,14.8
		c-1.6,0.6-3.3,1-5,1.3c-1.8,0.3-3.6,0.4-5.4,0.2c-4.8-0.3-9.2-1.9-13.1-4.8c-0.7-0.5-1.4-1.1-2.1-1.7c0,0,0,0-0.1-0.1
		c0,0,0-0.1,0-0.1c0.2,0.1,0.3,0.2,0.4,0.3c1.3,1.1,2.6,2.1,4.1,3c1.4,0.8,2.9,1.5,4.4,2c1.5,0.5,3,0.9,4.5,1.1
		c0.8,0.1,1.6,0.2,2.3,0.2c0.6,0,1.2,0,1.8,0c1.6-0.1,3.1-0.2,4.6-0.6c1.6-0.3,3.1-0.8,4.6-1.5c1.5-0.7,2.9-1.4,4.3-2.4
		c1-0.7,2-1.5,2.9-2.4c1.8-1.7,3.2-3.5,4.4-5.6c0.8-1.4,1.5-2.9,2-4.5c0.6-1.7,0.9-3.4,1.1-5.1c0-0.4,0-0.7,0.1-1.1
		c0-0.1,0-0.1,0.1-0.2C49.9,26.6,49.9,26.7,49.8,26.8z"/>
	<path id="XMLID_905_" class="st2" d="M8.1,6.7c0.4-0.3,0.8-0.7,1.2-1c3.1-2.5,6.5-4.2,10.4-5c2.1-0.5,4.2-0.7,6.3-0.6
		c5.6,0.2,10.5,2.1,14.9,5.6c0.9,0.7,1.8,1.6,2.6,2.4c0.1,0.1,0.2,0.2,0.3,0.3c0,0,0,0.1,0,0.1c-0.1,0-0.1-0.1-0.2-0.1
		c-0.3-0.3-0.6-0.7-0.9-1c-1.7-1.6-3.5-3-5.5-4.2c-1.3-0.7-2.7-1.3-4.1-1.8c-1.5-0.5-3.1-0.9-4.7-1.1c-0.7-0.1-1.4-0.1-2.1-0.2
		c-0.6,0-1.1,0-1.7,0c-0.8,0-1.6,0.1-2.4,0.2c-1.2,0.1-2.3,0.4-3.4,0.7c-1.5,0.4-2.9,0.9-4.2,1.6c-1.8,0.9-3.5,2-5.1,3.2
		c-0.3,0.3-0.7,0.6-1,0.9C8.2,6.7,8.2,6.8,8.1,6.7C8,6.8,8,6.7,8.1,6.7z"/>
	<path id="XMLID_904_" class="st3" d="M43.6,8.5C43.6,8.5,43.6,8.5,43.6,8.5c0.6,0.6,1.2,1.3,1.7,2c2,2.9,3.4,6,4.1,9.4
		c0.4,2.1,0.6,4.2,0.5,6.4c0,0.2,0,0.3,0,0.5c0-0.1,0-0.2,0-0.3c-0.1-0.1-0.1-0.3,0-0.5c0-0.7,0-1.3,0-2c0-0.3,0-0.6,0-0.8
		c-0.1-1.1-0.2-2.2-0.5-3.2c-0.2-1-0.5-1.9-0.8-2.9c-0.3-1-0.7-1.9-1.2-2.9c-0.9-1.9-2-3.6-3.4-5.2C43.8,8.8,43.6,8.7,43.6,8.5z"/>
	<path id="XMLID_903_" class="st3" d="M0.1,26.4c-0.1-1.1-0.1-2.2,0-3.3c0.1-1.6,0.4-3.2,0.8-4.8c0.9-3.3,2.5-6.3,4.7-9
		C5.9,9,6.1,8.7,6.3,8.5c0,0,0.1,0.1,0.1,0.1C6.3,8.8,6.1,8.9,6,9c-1.1,1.3-2,2.6-2.8,4c-0.6,1.1-1.1,2.2-1.6,3.4
		c-0.6,1.5-0.9,3.1-1.2,4.7c-0.1,0.7-0.2,1.3-0.2,2C0.2,24.1,0.2,25,0.2,26c0,0.1,0,0.2,0,0.3C0.2,26.3,0.2,26.4,0.1,26.4z"/>
	<path id="XMLID_902_" class="st4" d="M8.1,43.3C8.1,43.3,8.1,43.3,8.1,43.3c-0.9-0.8-1.8-1.7-2.5-2.6c-2.3-2.9-3.9-6.1-4.8-9.7
		c-0.3-1.2-0.5-2.4-0.6-3.6c0-0.1,0-0.2,0-0.4c0-0.1,0-0.2,0-0.3c0.1,0,0.1,0.1,0.1,0.1c0.1,0.9,0.2,1.7,0.3,2.5
		c0.2,1,0.4,1.9,0.7,2.9c0.4,1.3,0.9,2.5,1.5,3.7c0.8,1.7,1.8,3.3,3,4.8c0.6,0.7,1.2,1.4,1.8,2c0.1,0.1,0.3,0.2,0.4,0.4
		C8.1,43.1,8.1,43.2,8.1,43.3z"/>
	<path id="XMLID_901_" class="st5" d="M6.4,8.6C6.3,8.5,6.3,8.5,6.4,8.6c0.5-0.7,1.1-1.3,1.7-1.9c0,0,0,0.1,0,0.1
		c0,0.2-0.2,0.2-0.3,0.3C7.4,7.5,7,8,6.6,8.4C6.5,8.5,6.5,8.6,6.4,8.6z"/>
	<path id="XMLID_900_" class="st4" d="M0.1,26.4c0.1-0.2,0-0.3,0-0.5c0.1,0.1,0.1,0.2,0.1,0.3c0,0.1,0,0.1,0,0.2
		c0,0.1,0,0.2-0.1,0.3C0.1,26.7,0.1,26.5,0.1,26.4z"/>
	<path id="XMLID_899_" class="st3" d="M0.1,26.8c0-0.1,0-0.2,0-0.3c0.1,0.1,0.1,0.1,0,0.2c0,0.1,0,0.2,0,0.3
		C0.2,26.9,0.2,26.9,0.1,26.8z"/>
	<path id="XMLID_898_" class="st6" d="M0.2,26.7c0-0.1,0-0.1,0-0.2c0-0.2,0-0.3,0-0.5c0-0.7,0-1.4,0-2.1c0.1-2.1,0.4-4.1,1-6
		c1-3.4,2.7-6.4,5-9.1c0.1-0.1,0.1-0.1,0.2-0.2C6.9,8,7.5,7.4,8.1,6.8c0.8-0.7,1.6-1.4,2.4-2c2.9-2.1,6.1-3.5,9.5-4.2
		c2.1-0.4,4.3-0.6,6.4-0.4c5.4,0.3,10.2,2.2,14.3,5.7c1,0.8,1.8,1.6,2.7,2.6c0,0,0.1,0.1,0.1,0.1c0.7,0.8,1.4,1.7,2,2.6
		c1.8,2.7,3.1,5.6,3.7,8.8c0.4,2.1,0.6,4.2,0.5,6.3c0,0.1,0,0.2,0,0.3c-0.1,1.2-0.2,2.3-0.5,3.5c-0.8,3.7-2.3,7.1-4.6,10.1
		c-2.8,3.7-6.4,6.3-10.6,8c-1.8,0.7-3.6,1.2-5.5,1.5c-1.7,0.2-3.4,0.3-5.1,0.2c-5.2-0.3-9.9-2.1-14-5.4C9,44,8.6,43.6,8.1,43.3
		c-0.6-0.6-1.2-1.2-1.7-1.8c-2.8-3.1-4.6-6.7-5.6-10.8c-0.3-1.3-0.5-2.6-0.6-3.9C0.2,26.8,0.2,26.7,0.2,26.7z"/>
	<path id="XMLID_897_" class="st7" d="M26,15.9C26,16,26,16,26,15.9c0,0.2,0,0.4,0.1,0.6c0,0.2,0,0.4,0.1,0.6c0,0.1,0,0.2,0,0.3
		c0,0.2,0,0.4,0,0.6c0,0.1,0,0.1,0,0.2c0,0.1-0.1,0.3-0.1,0.4c0,0,0,0,0,0.1c-0.1,0.2-0.3,0.3-0.3,0.5c0,0.1-0.1,0.1-0.1,0.1
		c-0.1,0-0.2,0-0.2,0c-0.1,0.1-0.1,0-0.2-0.1c0.1-0.5,0.1-1.1,0.1-1.6c0-0.2,0-0.5,0.1-0.7c0.1-0.6,0-1.1-0.4-1.6
		c0-0.1-0.1-0.1-0.1-0.2c0-0.2,0.2-0.4,0.3-0.5c0,0,0.1,0,0.1,0c0.2,0.2,0.3,0.3,0.4,0.6c0,0.1,0,0.1,0.1,0.2c0,0,0,0,0,0.1
		c0,0.1,0.1,0.1,0.1,0.2c0,0.1,0.1,0.1,0,0.2C26,15.8,26,15.9,26,15.9z"/>
	<path id="XMLID_896_" class="st8" d="M21,14.5c-0.1-0.4-0.1-0.9-0.1-1.3c0-0.1,0-0.1,0.1-0.2c0.2-0.1,0.4-0.1,0.6,0.1
		c0,0.1,0,0.1,0,0.2c0,0.5,0.1,1.1,0.4,1.5c0.2,0.3,0.4,0.4,0.7,0.5c0.1,0,0.2,0,0.3,0.1c0.1,0,0.3,0.1,0.3,0.2
		c0,0.1,0.1,0.1,0.2,0.2c0,0,0,0,0,0.1c-0.2,0.1-0.5,0.1-0.7,0.1c-0.2,0-0.3-0.1-0.5-0.1c-0.1,0-0.2-0.1-0.3-0.1
		c-0.2,0-0.3-0.2-0.5-0.3c0,0-0.1,0-0.1-0.1c0-0.1,0-0.1-0.1-0.1C21.2,15,21.1,14.7,21,14.5z"/>
	<path id="XMLID_895_" class="st9" d="M23,20.1c0-0.1,0-0.1,0-0.1c-0.1-0.2-0.2-0.1-0.4-0.1c-0.1,0-0.1,0-0.2-0.1
		c-0.2,0-0.3-0.1-0.3-0.3c0,0,0-0.1,0-0.1c0-0.1,0-0.1,0-0.2c0,0,0,0,0.1-0.1c0.1,0,0.2-0.1,0.3-0.1c0.2-0.1,0.4,0,0.4,0.2
		c0,0,0,0.1,0,0.1c0,0.1,0.1,0.2,0.2,0.2c0.1,0,0.2,0,0.3-0.2c0.1-0.2,0.3-0.2,0.4,0c0.1,0.3,0.2,0.3,0.5,0.1c0.1,0,0.2-0.1,0.3,0
		c0,0.1,0.1,0.1,0.2,0.1c0.1,0.1,0.2,0.2,0.4,0.2c0.1,0,0.2,0,0.2-0.1c0-0.1-0.1-0.1-0.1-0.2c0,0,0,0,0-0.1c0.1,0,0.1,0,0.2,0
		c0.1,0,0.1,0.1,0.2,0.2c0,0.1,0.1,0.1,0.1,0.1c0.1,0.1,0.2,0,0.2-0.1c0-0.1,0-0.2,0.2-0.2c0,0,0.1,0.1,0.1,0.1
		c0.1-0.1,0-0.2,0.1-0.3c0.1,0,0.1,0,0.1,0.1c0,0,0,0.1,0,0.1c0,0,0,0.1,0,0.1c0,0.1,0,0.1-0.1,0.1c-0.1,0.1-0.1,0.1-0.1,0.2
		c0,0.1,0,0.2-0.2,0.2c-0.2,0.2-0.4,0-0.6,0c-0.1,0-0.1,0-0.2-0.1c-0.1-0.3-0.2-0.4-0.5-0.3c0,0-0.1,0-0.1,0.1c0,0-0.1,0-0.1,0l0,0
		l0,0c0,0,0,0,0-0.1c0-0.2,0-0.2-0.2-0.1c0,0-0.1,0.1-0.1,0c0,0-0.1-0.1-0.1-0.1c-0.1,0,0,0.1,0,0.1c0,0.1,0,0.1-0.1,0.1
		c-0.1,0-0.1,0.1-0.1,0.2c0.1,0.1,0,0.2,0,0.2c-0.1,0.1-0.2,0.2-0.3,0.1c0.1-0.2,0-0.4-0.2-0.4C23.1,20.2,23.1,20.2,23,20.1
		C23,20.2,23,20.2,23,20.1z"/>
	<path id="XMLID_894_" class="st10" d="M26,19.7c-0.2-0.1-0.2,0-0.2,0.1c-0.1,0,0-0.1-0.1-0.1c0,0,0,0,0,0.1c0,0.1,0.1,0.2-0.1,0.2
		c-0.1,0-0.2,0-0.2-0.1c0-0.1-0.1-0.2-0.1-0.2c0,0,0,0,0,0c0,0,0,0,0-0.1c0,0,0,0,0-0.1c0.1-0.2,0.1-0.2,0.3-0.1c0,0,0-0.1,0-0.1
		c0.2,0.1,0.2,0.1,0.3-0.1c0-0.1,0.1-0.1,0.1-0.1c0.1,0,0.2,0,0.2-0.1c0-0.1-0.1-0.1-0.2-0.1c0,0,0,0-0.1,0c-0.1,0-0.1,0-0.1-0.1
		c0-0.1,0.1-0.1,0.1-0.1c0.2-0.1,0.2-0.2,0.1-0.4c0-0.3,0.1-0.6,0-0.9c0-0.1,0-0.1,0-0.2c0,0,0-0.1,0-0.1c0,0,0.1,0,0.1,0
		c0.1,0,0.2,0.1,0.2,0.2c0,0,0.1,0.1,0.2,0.1c0.2,0,0.3,0.1,0.2,0.4c-0.2,0.1-0.3,0.2-0.3,0.4c0,0,0,0,0,0c0,0,0,0,0,0
		c0.3,0,0.3,0,0.3,0.3c0,0,0,0.1,0,0.1c0,0-0.1,0-0.1,0c-0.1,0-0.2,0.1-0.1,0.2c0,0,0,0.1,0,0.1c0,0.1,0,0,0.1,0
		c0.1,0.1,0.1,0.1,0.1,0.2c-0.1,0.3-0.2,0.4-0.5,0.3c-0.1,0-0.2,0-0.2,0.1C26.1,19.8,26.1,19.8,26,19.7z"/>
	<path id="XMLID_893_" class="st11" d="M25.2,20.4c0.1,0.1,0.1,0,0.2,0c0.1,0,0.3,0,0.4,0.1c0.1-0.1,0.1-0.3,0.3-0.1
		c0,0,0.1-0.1,0.1-0.2c0-0.1,0-0.2,0.2-0.3c0.1,0,0.2,0.1,0.2,0.1c0,0.2-0.1,0.3-0.2,0.4c0,0.1-0.1,0.1-0.1,0.2
		c0.1,0.1,0.1,0.2-0.1,0.3c-0.1,0.1-0.2,0-0.3-0.1c-0.2-0.1-0.3,0-0.3,0.2c-0.1,0.1-0.1,0-0.2,0c-0.1,0-0.1-0.1-0.2-0.1
		c-0.2-0.1-0.2,0.1-0.2,0.2c-0.1,0-0.3,0-0.4,0.1c-0.2,0.1-0.4,0-0.6-0.1c0,0-0.1-0.1-0.1-0.1c0-0.1-0.1-0.2,0-0.3
		c0.1-0.1,0.2-0.1,0.3,0c0.1,0,0.3,0.1,0.4-0.1c0-0.1,0.1-0.1,0.2,0c0.1,0,0.1,0,0.1-0.1c0-0.1-0.1-0.2,0.1-0.3
		C25.1,20.1,25.2,20.1,25.2,20.4C25.2,20.3,25.2,20.4,25.2,20.4z"/>
	<path id="XMLID_892_" class="st12" d="M25,10.6c0,0.1,0.1,0.1,0.1,0.1c-0.2,0.2-0.2,0.4-0.2,0.6c0,0.2,0,0.4,0,0.6c0,0,0,0,0,0
		c0-0.2,0-0.4,0-0.6c0-0.1-0.1-0.2,0.1-0.2c0,0.3,0,0.6,0,1c-0.1,0.1-0.2,0.1-0.2,0c-0.1-0.3-0.1-0.6-0.1-0.9c0-0.1,0-0.2,0-0.2
		c0-0.3,0-0.5,0-0.8c0,0,0,0,0,0c0.1,0.1,0,0.2,0,0.4c0-0.1,0-0.3,0-0.4c0,0,0-0.1,0-0.1c0,0,0,0,0-0.1c0,0,0,0,0.1,0
		c0-0.2,0-0.3,0-0.5c0,0,0-0.1,0-0.1c0-0.1,0-0.1,0-0.2c0.1-0.1,0.1,0.1,0.1,0.1c0-0.1,0-0.1-0.1-0.2c0,0-0.1-0.1-0.1-0.1
		c-0.1-0.1-0.1-0.1-0.1-0.2c0-0.1,0.2-0.1,0.1-0.2c0-0.1-0.1-0.1-0.1-0.2c0,0,0-0.1,0.1-0.1c0.1,0,0.1,0.2,0.2,0.2
		c0.1-0.1,0.1-0.2,0.1-0.3c0,0,0-0.1,0.1,0c0.1,0.1,0,0.2,0,0.4c0,0.3,0,0.5,0,0.8c0,0.3,0,0.6,0,1C24.9,10.3,24.9,10.5,25,10.6z"/>
	<path id="XMLID_891_" class="st13" d="M21.6,13.1C21.4,13,21.2,13,21,13c0-0.1,0.1-0.3,0.1-0.4c0.1-0.3,0.4-0.5,0.7-0.6
		c0.1-0.1,0.2,0,0.4,0.1c0,0.1-0.1,0.2-0.1,0.2c-0.2,0.2-0.3,0.4-0.4,0.7C21.7,13,21.7,13.1,21.6,13.1z"/>
	<path id="XMLID_890_" class="st14" d="M21.6,13.1C21.6,13.1,21.6,13,21.6,13.1c0.1-0.5,0.4-0.8,0.6-1.1c0.3-0.2,0.5-0.3,0.8-0.4
		c0,0,0,0,0,0c0,0,0,0.1,0,0.1c-0.1,0.1-0.1,0.2-0.2,0.3c0,0-0.1,0-0.1,0c-0.1,0-0.2,0.1-0.2,0.2c0,0.1-0.1,0.3-0.2,0.3
		c0,0-0.1,0.1-0.2,0c0-0.1,0.1-0.2,0.1-0.3c-0.2,0-0.2,0.2-0.3,0.3c-0.2,0.3-0.3,0.6-0.3,1c0,0.1,0,0.2,0,0.3
		c0.1,0.4,0.1,0.8,0.4,1.1c0.1,0.1,0.1,0.1,0.2,0.2c0.2,0.2,0.5,0.2,0.8,0.3c0,0,0.1,0,0.1,0c0.1,0,0.2,0,0.2,0.1
		c0,0.1,0.1,0.2,0.2,0.3c0,0,0,0,0,0c-0.1,0-0.2,0-0.2-0.1c-0.1-0.2-0.3-0.3-0.5-0.3c-0.6-0.1-1-0.5-1.1-1.1
		C21.6,13.9,21.5,13.5,21.6,13.1z"/>
	<path id="XMLID_889_" class="st15" d="M24.8,20.5c-0.1,0-0.2-0.1-0.3,0.1c0,0.1-0.2,0-0.3,0c-0.1,0-0.3-0.1-0.4,0c0,0-0.1,0,0-0.1
		c0.1-0.2,0.3-0.2,0.5-0.2c0.2,0,0.2-0.1,0.1-0.2c0,0,0.1,0,0.1,0c0.2,0,0.3,0.1,0.3,0.2C24.9,20.5,24.9,20.5,24.8,20.5z"/>
	<path id="XMLID_888_" class="st16" d="M22.6,19.8c0.1,0,0.3-0.1,0.4,0.2c0,0,0,0-0.1-0.1C22.8,19.9,22.6,19.8,22.6,19.8
		c-0.1,0.2,0,0.3,0,0.4c0,0,0.1,0.1,0.1,0.1c0.1,0.1,0.2,0.3,0.1,0.4c-0.1,0.2-0.3,0.2-0.4,0.2c0,0-0.1,0-0.1,0c0,0,0,0,0,0
		c0.1-0.1,0.2-0.1,0.1-0.3c0,0,0-0.1,0-0.1c0.2-0.1,0.1-0.2,0-0.2C22.3,20,22.4,19.9,22.6,19.8z"/>
	<path id="XMLID_887_" class="st17" d="M26.8,19.2c0-0.1,0-0.2-0.1-0.2c0,0-0.1-0.1-0.1-0.2c0-0.1-0.1-0.1-0.1-0.2
		c0.1-0.1,0.2-0.1,0.3-0.1c0.1,0,0.1,0.1,0.2,0c0,0,0,0,0,0c0,0,0,0.1,0,0.1c0,0.1-0.1,0.1-0.1,0.2c-0.1,0.1-0.1,0.2,0,0.2
		c0,0,0,0,0,0c0,0,0,0,0.1,0.1c0,0,0.1,0,0,0.1c0,0.3-0.1,0.4-0.4,0.4c-0.1,0-0.2,0-0.3,0.1c0,0,0-0.1,0-0.1c0,0,0.1-0.1,0.2-0.1
		C26.8,19.5,26.8,19.5,26.8,19.2z"/>
	<path id="XMLID_886_" class="st11" d="M23,20.2c0.2,0,0.3,0,0.4,0.1c0.2,0.1,0.2,0.2,0,0.4c-0.2,0.1-0.3,0-0.5-0.1c0,0,0-0.1,0-0.1
		C22.9,20.3,22.9,20.3,23,20.2z"/>
	<path id="XMLID_885_" class="st18" d="M23.5,15.7C23.5,15.7,23.5,15.7,23.5,15.7C23.5,15.7,23.6,15.7,23.5,15.7
		c0.4,0,0.5-0.2,0.7-0.4c0.1-0.1,0.3-0.1,0.5-0.2c0.1,0,0.1-0.1,0.2-0.1c0.1-0.1,0.2-0.2,0.2-0.3c0.1-0.1,0.2-0.3,0.2-0.5
		c0-0.1,0-0.2,0.1-0.3c0.1,0,0,0.1,0,0.2c0,0.1,0,0.3-0.1,0.4c0,0.1,0,0.1,0,0.2c0,0,0,0,0,0c-0.1,0-0.1,0-0.1,0
		c-0.1,0.2-0.2,0.3-0.3,0.4c-0.1,0.1-0.2,0.2-0.3,0.2c-0.1,0.1-0.3,0.2-0.4,0.3c-0.1,0.1-0.2,0.2-0.4,0.3c-0.1,0-0.2,0.1-0.3,0.1
		c-0.1,0-0.1,0.1-0.2,0.1c0,0,0,0,0,0c0,0,0-0.1,0-0.1C23.3,15.8,23.4,15.8,23.5,15.7C23.5,15.7,23.5,15.7,23.5,15.7z"/>
	<path id="XMLID_884_" class="st19" d="M28.3,21.5c0.1-0.2-0.1-0.1-0.1-0.2c0,0,0,0,0,0c0,0,0,0,0,0c0,0,0,0,0.1,0c0,0,0,0,0.1,0
		c0,0,0.1,0,0.2,0c0.1,0,0.1,0,0.2-0.1c0.1-0.1,0-0.2,0-0.3c0-0.1,0-0.3,0-0.4c0-0.2,0-0.5,0-0.7c0,0,0-0.1,0.1-0.1
		c0,0.1,0,0.2,0,0.4c0,0.2,0,0.5,0,0.7c0,0.2,0.1,0.4,0,0.6c0,0.1,0,0.2,0.1,0.2c0,0.1,0,0.1,0,0.1c-0.1,0.1-0.2,0.1-0.3,0.1
		c-0.1,0-0.1-0.1-0.1-0.1C28.3,21.6,28.3,21.5,28.3,21.5z"/>
	<path id="XMLID_883_" class="st20" d="M22.1,19.2C22.1,19.3,22.1,19.3,22.1,19.2C22.1,19.3,22,19.3,22.1,19.2
		c-0.2-0.1-0.3-0.1-0.5-0.1c-0.2,0-0.2-0.1-0.2-0.2c0-0.1,0-0.2,0.1-0.3c0,0,0.1,0,0.1,0c0.1,0.1,0.2,0.2,0.3,0.3
		C22.1,19,22.1,19,22.1,19.2z"/>
	<path id="XMLID_882_" class="st21" d="M25,10.6C24.9,10.6,24.9,10.6,25,10.6c-0.1-0.2-0.1-0.3-0.1-0.4c0.1-0.5,0-1.1,0-1.6
		c0-0.1,0-0.1,0-0.2c0.1,0,0.1,0,0.1,0.1c0,0,0,0,0,0c0,0,0.1,0,0.1,0c0,0.1-0.1,0.1,0,0.2c0,0,0,0.1,0,0.1c0,0,0,0,0,0
		C25,9.1,25,9.3,25,9.5c0,0.2,0,0.3,0,0.5C25,10.1,25,10.3,25,10.6C25,10.5,25,10.5,25,10.6C25,10.6,25,10.6,25,10.6z"/>
	<path id="XMLID_881_" class="st22" d="M22.5,17c0-0.1,0-0.2,0-0.2c0.2-0.3,0.4-0.5,0.6-0.7c0,0,0,0,0.1,0.1c0,0.1-0.1,0.1-0.1,0.2
		c-0.2,0.2-0.4,0.4-0.5,0.6c0,0.1,0.1,0.2,0.2,0.2c0.1,0.1,0.2,0.1,0.4,0.1c0,0,0,0,0,0.1c0,0.1-0.1,0.1-0.1,0.1
		c-0.2-0.1-0.3,0.1-0.4,0.2c0,0,0,0-0.1,0.1c0,0-0.1,0-0.1,0c0-0.1,0.1-0.1,0.1-0.2c0,0,0-0.1,0-0.1c0,0-0.1-0.1-0.1-0.1
		C22.5,17.1,22.5,17.1,22.5,17C22.5,17.1,22.5,17.1,22.5,17z"/>
	<path id="XMLID_880_" class="st23" d="M24.7,12c0.1,0,0.1,0.1,0.2,0c0.3,0.1,0.3,0.1,0.3,0.4c0,0.1,0,0.2,0,0.3c0,0,0,0.1,0,0.1
		c-0.1-0.1-0.1-0.2-0.2-0.4c0-0.1-0.1-0.1-0.1-0.2C24.8,12.2,24.7,12.1,24.7,12C24.6,12,24.7,12,24.7,12C24.7,12,24.7,12,24.7,12z"
		/>
	<path id="XMLID_879_" class="st24" d="M26.5,17.4c-0.1,0.1-0.1,0-0.1-0.1c0-0.1,0-0.2-0.2-0.2c0,0-0.1,0-0.1,0
		c-0.1-0.1,0-0.1,0-0.1c0,0,0.1,0,0.1,0c0.3-0.1,0.5,0,0.5,0.4C26.7,17.4,26.6,17.4,26.5,17.4z"/>
	<path id="XMLID_878_" class="st25" d="M24.6,10.1c0,0.3,0,0.5,0,0.8c0,0.1,0,0.3-0.1,0.4c-0.1,0,0-0.1-0.1-0.2c0-0.5,0-1,0.1-1.5
		c0.1,0.1,0,0.2,0.1,0.3c0,0,0,0,0,0.1C24.6,9.9,24.7,10,24.6,10.1z"/>
	<path id="XMLID_877_" class="st26" d="M21.6,19.1c0.2-0.1,0.3-0.1,0.5,0.1c0,0.1-0.1,0.2-0.1,0.3c-0.1,0-0.2,0.1-0.3,0.1
		c0.1-0.1,0.1-0.2,0.1-0.3C21.7,19.2,21.7,19.1,21.6,19.1z"/>
	<path id="XMLID_876_" class="st27" d="M29.8,22.1c0.2,0.1,0.2,0.2-0.1,0.3c-0.2,0-0.4,0.1-0.6,0.1c-0.2,0-0.5,0-0.7-0.1
		c0,0,0-0.1,0.1-0.1c0.1,0,0.2,0,0.3,0c0.2,0,0.4,0,0.6,0c0.1,0,0.1,0,0.2,0C29.8,22.3,29.8,22.2,29.8,22.1
		C29.8,22.2,29.8,22.2,29.8,22.1C29.8,22.1,29.8,22.1,29.8,22.1z"/>
	<path id="XMLID_875_" class="st28" d="M27,19.2C27,19.2,27,19.2,27,19.2c0-0.2,0.3-0.3,0.4-0.4c0.2-0.1,0.4-0.3,0.7-0.4
		c0.1,0,0.1,0,0.1,0.1c0,0.1-0.1,0.1-0.2,0.1c0,0.1-0.1-0.1,0,0c0,0.1,0,0.1,0,0.1c0,0,0,0-0.1,0c0-0.1,0-0.2-0.2-0.1
		C27.5,19,27.3,19.1,27,19.2z"/>
	<path id="XMLID_874_" class="st29" d="M28.1,21c0-0.5-0.1-0.9-0.1-1.4c0-0.1-0.1-0.3,0-0.4c0.1,0.1,0,0.2,0.1,0.3
		c0,0.4,0.1,0.8,0.1,1.2c0,0.1,0,0.2,0,0.3C28.2,21.1,28.2,21.1,28.1,21C28.2,21.1,28.1,21.1,28.1,21z"/>
	<path id="XMLID_873_" class="st30" d="M26.7,20.8c0,0.2-0.1,0.3-0.1,0.4c-0.1,0.1-0.2,0.1-0.2,0c0-0.1,0-0.2,0.1-0.3
		C26.5,20.7,26.6,20.7,26.7,20.8z"/>
	<path id="XMLID_872_" class="st31" d="M23.3,15.9c0,0,0,0.1,0,0.1c0,0,0,0-0.1,0c-0.1-0.1-0.1,0-0.2,0c-0.3,0-0.6,0-0.9-0.2
		c0,0,0,0,0-0.1c0.1,0,0.1,0,0.2,0c0.1,0,0.3,0.1,0.4,0.1c0.2,0,0.3,0,0.5,0C23.2,15.8,23.3,15.8,23.3,15.9z"/>
	<path id="XMLID_871_" class="st32" d="M23.3,11.5c0.2,0,0.3,0,0.4,0.1c0.1,0.1,0.3,0.1,0.4,0.1c0,0.1-0.1,0.1-0.1,0.1
		c0,0,0,0,0,0.1c0,0.1,0,0.1,0,0.2c0,0,0,0.1,0,0.1c0,0.1-0.1,0.2-0.2,0.3c0,0-0.1,0-0.1-0.1c0,0,0-0.1,0-0.1c0.2-0.2,0.1-0.4,0-0.6
		c-0.1-0.1-0.2-0.1-0.3-0.2C23.4,11.6,23.3,11.6,23.3,11.5z"/>
	<path id="XMLID_870_" class="st33" d="M25.6,21c0-0.2,0.1-0.3,0.4-0.2c0,0.1,0,0.2-0.1,0.2C25.8,21,25.8,21.1,25.6,21
		C25.6,21.1,25.6,21,25.6,21z"/>
	<path id="XMLID_869_" class="st34" d="M21.7,20.3c-0.1,0-0.2,0-0.2-0.1c0-0.2-0.1-0.3,0.1-0.5c0,0,0,0,0,0c0,0.2,0.1,0.4,0.2,0.5
		C21.8,20.3,21.7,20.2,21.7,20.3z"/>
	<path id="XMLID_868_" class="st35" d="M24.8,8.4c-0.1,0-0.1,0-0.1,0c0-0.1-0.1-0.1-0.1-0.2c0,0-0.1-0.1-0.1-0.1
		c0-0.1-0.1-0.1-0.1-0.2c0,0,0,0,0-0.1c0.1-0.1,0.1-0.1,0.2,0c0.1,0.2,0.2,0.3,0.3,0.5C24.8,8.3,24.8,8.3,24.8,8.4z"/>
	<path id="XMLID_867_" class="st36" d="M29.8,22.1C29.8,22.1,29.8,22.1,29.8,22.1c-0.2,0.1-0.2,0-0.3-0.1c-0.2-0.2-0.5-0.3-0.8-0.4
		c0,0,0-0.1,0.1-0.1C29.2,21.7,29.5,21.8,29.8,22.1z"/>
	<path id="XMLID_866_" class="st37" d="M28.6,22.3C28.5,22.3,28.5,22.3,28.6,22.3c-0.3,0-0.4,0-0.4-0.3c0-0.2,0-0.4,0.1-0.5
		c0,0,0,0.1,0.1,0.1c0,0,0,0.1,0,0.1c0,0.1-0.1,0.3,0,0.4C28.4,22.2,28.5,22.2,28.6,22.3C28.6,22.3,28.6,22.3,28.6,22.3z"/>
	<path id="XMLID_865_" class="st38" d="M28.7,18.4c0,0.3,0,0.5,0,0.8c0,0.1,0.1,0.3,0,0.4c-0.1-0.1-0.1-0.1-0.1-0.2
		c0-0.1,0-0.3,0-0.4c0-0.2,0-0.3,0-0.5c0-0.1,0-0.3,0-0.4c0,0,0,0,0.1,0c0,0,0,0.1,0,0.1C28.7,18.3,28.7,18.3,28.7,18.4z"/>
	<path id="XMLID_864_" class="st39" d="M24.5,8.3c0,0.1,0,0.1,0.1,0.2c0.1,0.1,0.1,0.1,0,0.2c-0.1,0-0.1,0-0.2-0.1
		c0-0.1,0-0.1,0-0.2c0-0.1,0-0.2,0-0.3c0,0,0-0.1,0-0.1c0.1,0,0.1,0.1,0.1,0.1C24.5,8.1,24.5,8.2,24.5,8.3z"/>
	<path id="XMLID_863_" class="st40" d="M26.5,17.4c0-0.1,0.1,0,0.2,0c0,0,0.1,0,0.1,0c0.1,0,0.2,0.1,0.2,0.2c0,0.1-0.2,0-0.2,0.1
		C26.8,17.4,26.8,17.4,26.5,17.4z"/>
	<path id="XMLID_862_" class="st41" d="M24,21.1c0.1,0,0.2,0.1,0.3,0.1c0.1,0,0.2,0,0.3-0.1C24.7,21,24.8,21,25,21c0,0,0.1,0,0.1,0
		c-0.3,0-0.6,0.3-0.9,0.1C24.1,21.2,24,21.1,24,21.1z"/>
	<path id="XMLID_861_" class="st42" d="M24.5,11c0.1,0.1,0,0.1,0,0.2c0.1,0.1,0.1,0.2,0,0.3c0,0.2,0,0.3,0.1,0.4c0,0,0,0-0.1,0
		c0,0-0.1,0-0.1,0c-0.1,0-0.1-0.1-0.1-0.2C24.4,11.5,24.4,11.3,24.5,11z"/>
	<path id="XMLID_860_" class="st43" d="M25.3,14.6C25.3,14.6,25.3,14.6,25.3,14.6c0.3,0.2,0.4,0.4,0.5,0.7c0,0-0.1,0-0.1,0
		C25.6,15,25.4,14.8,25.3,14.6z"/>
	<path id="XMLID_859_" class="st44" d="M22.1,15.7C22.1,15.7,22.1,15.7,22.1,15.7c-0.3,0-0.6-0.2-0.8-0.5c0,0,0,0,0-0.1
		c0,0,0,0,0.1,0c0,0,0.1,0.1,0.1,0.1c0,0,0.1,0,0.1,0.1c0.2,0,0.3,0.2,0.5,0.3C22,15.7,22.1,15.6,22.1,15.7z"/>
	<path id="XMLID_858_" class="st45" d="M25.9,21c0.1,0,0.1-0.1,0.1-0.2c0,0,0,0.1,0,0.1c0,0.1,0.1,0.1,0.2,0.1
		c0.1,0,0.1-0.1,0.1-0.2c-0.1-0.1,0-0.2,0.1-0.3c0,0,0,0,0,0c0,0,0,0,0,0.1c-0.1,0.1-0.2,0.1-0.1,0.3c0.1,0.1,0,0.2,0,0.2
		c0,0.1-0.1,0.1-0.2,0C26,21,26,20.9,25.9,21z"/>
	<path id="XMLID_857_" class="st46" d="M24.5,8.7c0.1,0.1,0.1,0.1,0.2,0.2c0,0,0,0.1-0.1,0c-0.2-0.1-0.4-0.2-0.5-0.5c0,0,0,0,0,0
		c0,0,0.1,0,0.1,0.1C24.3,8.5,24.4,8.6,24.5,8.7z"/>
	<path id="XMLID_856_" class="st47" d="M21.4,15.2C21.4,15.2,21.3,15.2,21.4,15.2c-0.3-0.2-0.3-0.5-0.4-0.7
		C21.1,14.7,21.3,14.9,21.4,15.2C21.4,15.2,21.4,15.2,21.4,15.2z"/>
	<path id="XMLID_855_" class="st48" d="M26.4,20.5C26.4,20.5,26.4,20.4,26.4,20.5c0-0.1,0.2-0.2,0.1-0.4c-0.1-0.1-0.1-0.2-0.2-0.2
		c0,0,0.1-0.1,0.1-0.1c0,0,0.1,0.1,0.1,0.1C26.7,20.2,26.7,20.3,26.4,20.5z"/>
	<path id="XMLID_854_" class="st49" d="M24.9,9.9c0-0.2,0-0.3,0-0.5c0,0,0.1,0,0.1,0c0,0.3,0,0.7,0,1c0,0,0,0,0,0
		C24.9,10.3,25,10.1,24.9,9.9z"/>
	<path id="XMLID_853_" class="st50" d="M21.7,18.4c0-0.3,0-0.6,0.3-0.8c0,0.1,0,0.2-0.1,0.2c-0.1,0.1-0.1,0.2-0.1,0.4
		C21.9,18.3,21.9,18.4,21.7,18.4C21.8,18.4,21.8,18.5,21.7,18.4C21.8,18.5,21.7,18.4,21.7,18.4z"/>
	<path id="XMLID_852_" class="st51" d="M25,8.7c-0.1-0.1,0.1-0.2,0.1-0.2c0-0.1,0.1-0.2,0.2-0.3c0,0,0.1,0,0.1,0c0,0,0,0,0,0.1
		C25.3,8.4,25.2,8.5,25,8.7C25.1,8.7,25.1,8.7,25,8.7C25.1,8.8,25.1,8.8,25,8.7z"/>
	<path id="XMLID_851_" class="st52" d="M25,21.1C25,21.1,25,21.1,25,21.1c-0.1-0.1-0.2-0.2-0.1-0.2c0.1,0,0.1-0.1,0.2,0
		c0,0,0,0.1,0,0.1C25.1,21,25.1,21,25,21.1z"/>
	<path id="XMLID_850_" class="st53" d="M21.7,20.3c0,0,0.1,0,0.1-0.1c0.2,0,0.2,0.1,0.2,0.2c0,0.1,0,0.2,0.1,0.4c0,0,0,0.1-0.1,0
		c-0.1-0.1-0.1-0.2-0.1-0.3C21.9,20.3,21.8,20.2,21.7,20.3z"/>
	<path id="XMLID_849_" class="st54" d="M28.7,18.1C28.7,18.1,28.7,18.1,28.7,18.1c-0.1,0-0.1-0.1-0.2-0.1c0-0.1-0.1-0.1-0.1-0.1
		c-0.1,0-0.1,0-0.2,0c0,0,0,0,0,0c0,0,0,0,0,0C28.5,17.6,28.7,17.7,28.7,18.1z"/>
	<path id="XMLID_848_" class="st55" d="M25,9.5C25,9.5,24.9,9.5,25,9.5C24.9,9.3,24.9,9,25,8.8c0,0,0.1,0,0.1,0
		C25.1,8.9,25,8.9,25,9C25,9.2,25,9.3,25,9.5z"/>
	<path id="XMLID_847_" class="st56" d="M26.9,20.1c-0.1,0.1-0.1,0.2,0,0.2c0,0,0.1,0.1,0,0.1c0,0,0,0.1-0.1,0
		c-0.1,0-0.1-0.1-0.1-0.1C26.7,20.2,26.7,20.1,26.9,20.1C26.9,20,26.9,20,26.9,20.1z"/>
	<path id="XMLID_846_" class="st57" d="M24.9,8.5c-0.1,0,0-0.1-0.1-0.1c0-0.1,0.1-0.2,0.1-0.3c0-0.1,0-0.1,0.1-0.1
		C25.1,8,25.1,8,25,8C25,8.2,25,8.3,24.9,8.5C25,8.5,25,8.5,24.9,8.5z"/>
	<path id="XMLID_845_" class="st58" d="M27.3,18.2c0.2-0.1,0.4-0.2,0.6-0.3c0,0,0.1,0,0.1,0c0,0.1-0.1,0.1-0.1,0.1
		c-0.1,0.1-0.2,0.1-0.3,0.1C27.5,18.2,27.4,18.3,27.3,18.2C27.3,18.2,27.3,18.2,27.3,18.2z"/>
	<path id="XMLID_844_" class="st59" d="M28,19.3c-0.1,0.1,0,0.2,0,0.4c0-0.2-0.1-0.5-0.1-0.7c0,0,0,0,0,0c0,0,0,0,0.1,0
		C28.1,19,28.1,19.1,28,19.3z"/>
	<path id="XMLID_843_" class="st60" d="M23,20.2c-0.1,0.1-0.2,0.2,0,0.3c0,0,0.1,0.1,0,0.1C22.8,20.4,22.8,20.3,23,20.2
		C23,20.2,23,20.2,23,20.2z"/>
	<path id="XMLID_842_" class="st61" d="M25.1,20.9C25.1,20.9,25.1,20.9,25.1,20.9c0.1,0,0.2,0,0.3,0.1c0.1,0,0.1,0.1,0.2,0
		c0,0,0.1,0.1,0.1,0.1c-0.1,0.1-0.2,0-0.3,0C25.2,21,25.2,20.9,25.1,20.9z"/>
	<path id="XMLID_841_" class="st62" d="M26.7,20.8c-0.1-0.1-0.2,0-0.3,0.1c0,0.1,0,0.2-0.1,0.2c0-0.1,0-0.3,0.1-0.4
		C26.5,20.7,26.6,20.7,26.7,20.8z"/>
	<path id="XMLID_840_" class="st63" d="M26.1,17c0,0-0.1,0.1,0,0.1c0,0,0,0.1,0,0.1c-0.1-0.1,0-0.3,0-0.4c0-0.1,0-0.2,0-0.3
		c0-0.1,0-0.2,0-0.3c0.1,0.2,0,0.4,0,0.5C26.1,16.9,26.1,16.9,26.1,17z"/>
	<path id="XMLID_839_" class="st64" d="M25.3,12.8c0.1,0.2,0.1,0.4,0.1,0.6c0,0,0,0-0.1,0c0,0,0-0.1-0.1-0.1
		C25.3,13.1,25.2,13,25.3,12.8C25.3,12.8,25.3,12.8,25.3,12.8z"/>
	<path id="XMLID_838_" class="st65" d="M25,7.9c0,0-0.1,0.1-0.1,0.1c0,0,0,0.1,0,0.1c0,0,0,0,0,0c0-0.1,0-0.2,0-0.2
		C25,7.9,25,7.8,25,7.7c0-0.1,0.1-0.1,0.1-0.1c0.1,0,0,0.1,0,0.1C25.1,7.8,25.1,7.9,25,7.9z"/>
	<path id="XMLID_837_" class="st66" d="M25,11c0,0.1,0,0.2,0,0.2c0,0,0,0,0,0c0-0.1,0-0.3,0-0.4c0-0.1,0.1-0.1,0.2-0.1
		C25.1,10.8,24.9,10.9,25,11z"/>
	<path id="XMLID_836_" class="st67" d="M25,8.7C25.1,8.7,25.1,8.7,25,8.7c0.2,0,0.3,0,0.4,0c0.1,0.1,0,0.1-0.1,0.1
		C25.3,8.8,25.2,8.9,25,8.7C25.1,8.8,25.1,8.8,25,8.7z"/>
	<path id="XMLID_835_" class="st68" d="M21.6,19.7C21.6,19.7,21.6,19.7,21.6,19.7c0-0.1,0-0.1,0-0.1c0.1,0,0.2,0,0.3-0.1
		c0-0.1,0.1-0.1,0.2,0c0,0,0,0.1,0,0.1C21.9,19.6,21.8,19.7,21.6,19.7z"/>
	<path id="XMLID_834_" class="st69" d="M24.1,20C24.1,20,24.1,20,24.1,20c0.1,0,0.3,0,0.4,0.1c0,0,0,0,0,0.1
		C24.3,20.2,24.2,20.2,24.1,20z"/>
	<path id="XMLID_833_" class="st70" d="M43.7,32c0,0.2-0.1,0.3-0.2,0.4C43.5,32.3,43.6,32.2,43.7,32z"/>
	<path id="XMLID_832_" class="st71" d="M25.4,8.2C25.4,8.3,25.4,8.3,25.4,8.2c-0.1,0-0.1,0-0.1,0c0,0,0,0,0,0c0,0,0,0,0.1-0.1
		c0.1,0,0.1-0.1,0.2-0.1l0,0c0,0,0.1,0,0.1,0l0,0C25.6,8.1,25.5,8.2,25.4,8.2z"/>
	<path id="XMLID_831_" class="st72" d="M28.8,20.7c-0.1-0.2,0-0.5,0-0.7C28.8,20.2,28.8,20.5,28.8,20.7z"/>
	<path id="XMLID_830_" class="st73" d="M27.9,17.9C27.9,17.9,27.8,17.9,27.9,17.9c0.1-0.1,0.2-0.2,0.3-0.2c0,0,0,0,0,0
		c0,0.1-0.1,0.1-0.2,0.2C28,18,27.9,18,27.9,17.9z"/>
	<path id="XMLID_829_" class="st74" d="M25.4,13.4C25.4,13.4,25.4,13.4,25.4,13.4c0,0.2,0.1,0.4,0,0.6c0-0.1,0-0.1,0-0.2
		c0,0,0-0.1,0-0.1C25.4,13.6,25.3,13.5,25.4,13.4z"/>
	<path id="XMLID_828_" class="st72" d="M28.7,19.6c0.1-0.1,0-0.3,0-0.4C28.8,19.3,28.8,19.5,28.7,19.6c0,0.1,0,0.1,0,0.1
		c0,0,0,0,0,0C28.7,19.7,28.7,19.7,28.7,19.6C28.7,19.6,28.7,19.6,28.7,19.6z"/>
	<path id="XMLID_827_" class="st75" d="M24.1,8.2c0.1-0.1,0.2,0,0.2,0.1c0,0,0,0,0,0.1c-0.1,0-0.1,0-0.2-0.1
		C24.1,8.3,24.1,8.2,24.1,8.2z"/>
	<path id="XMLID_826_" class="st76" d="M24.5,11.8c0.1,0.1,0,0.2,0.1,0.2c-0.1,0.1-0.2,0-0.3-0.1c0,0,0-0.1,0-0.1
		C24.4,11.8,24.5,11.9,24.5,11.8z"/>
	<path id="XMLID_825_" class="st77" d="M23.3,11.5c0,0.1,0.1,0,0.2,0.1c-0.1,0.1-0.3,0.1-0.4,0.1c0,0,0,0,0,0
		C23.1,11.5,23.2,11.5,23.3,11.5z"/>
	<path id="XMLID_824_" class="st78" d="M21.7,18.4C21.8,18.4,21.8,18.4,21.7,18.4C21.8,18.5,21.8,18.5,21.7,18.4
		c0,0.2-0.1,0.2-0.2,0.2c0,0,0,0,0,0C21.6,18.5,21.7,18.5,21.7,18.4z"/>
	<path id="XMLID_823_" class="st79" d="M24.3,11.8C24.3,11.9,24.3,11.9,24.3,11.8C24.3,11.9,24.3,11.9,24.3,11.8c-0.1,0-0.2,0-0.3,0
		c-0.1,0-0.1,0-0.2,0c0-0.1,0.1,0,0.2-0.1C24.2,11.8,24.3,11.8,24.3,11.8z"/>
	<path id="XMLID_822_" class="st80" d="M27,18.6c0-0.1-0.2-0.2,0-0.3c0,0,0.1,0,0.1,0.1c0,0,0,0,0,0.1C27.1,18.5,27.1,18.6,27,18.6
		L27,18.6z"/>
	<path id="XMLID_821_" class="st81" d="M22,17.6c0-0.1,0.1-0.2,0.2-0.2c0,0,0,0,0.1,0C22.2,17.5,22.2,17.5,22,17.6
		C22.1,17.6,22,17.6,22,17.6z"/>
	<path id="XMLID_820_" class="st82" d="M25.3,8.2C25.3,8.2,25.3,8.2,25.3,8.2c-0.1,0.1-0.1,0.3-0.3,0.3c0,0,0,0,0,0
		C25.1,8.3,25.2,8.2,25.3,8.2z"/>
	<path id="XMLID_819_" class="st83" d="M26,16.3c0,0.1,0,0.2,0,0.3c0-0.2,0-0.3,0-0.5C26.1,16.1,26,16.2,26,16.3z"/>
	<path id="XMLID_818_" class="st84" d="M25,7.9c0-0.1,0-0.1,0.1-0.2c0,0,0,0,0,0c0,0.1,0,0.2-0.1,0.3C25,8,25,8,25,7.9z"/>
	<path id="XMLID_817_" class="st85" d="M23.8,20.6C23.9,20.7,23.9,20.7,23.8,20.6c0,0.1,0,0.2,0,0.3C23.7,20.8,23.8,20.7,23.8,20.6z
		"/>
	<path id="XMLID_816_" class="st86" d="M22.2,17.4C22.2,17.4,22.2,17.3,22.2,17.4c0-0.1,0-0.2,0.1-0.2c0,0,0,0,0.1,0
		c0,0,0,0.1,0,0.1C22.3,17.3,22.3,17.4,22.2,17.4z"/>
	<path id="XMLID_815_" class="st87" d="M27.1,18.4C27.1,18.4,27,18.3,27.1,18.4c0-0.1,0.1-0.1,0.2-0.2c0,0,0,0,0.1,0
		C27.3,18.3,27.2,18.4,27.1,18.4z"/>
	<path id="XMLID_814_" class="st88" d="M22,17.6C22,17.6,22.1,17.6,22,17.6C22.1,17.6,22.1,17.6,22,17.6c0.1,0.1,0,0.2-0.1,0.2
		c0,0,0,0-0.1,0C21.9,17.7,22,17.7,22,17.6C22,17.6,22,17.6,22,17.6z"/>
	<path id="XMLID_813_" class="st89" d="M24.8,8.1C24.9,8.1,24.9,8.1,24.8,8.1c0,0.1,0,0.2-0.1,0.3c0,0,0-0.1,0-0.1
		C24.8,8.3,24.8,8.2,24.8,8.1z"/>
	<path id="XMLID_812_" class="st90" d="M24.6,9.9c-0.1-0.1,0-0.2,0-0.4c0,0,0,0,0-0.1c0.1,0,0.1,0.1,0.1,0.1
		C24.7,9.6,24.7,9.8,24.6,9.9z"/>
	<path id="XMLID_811_" class="st91" d="M25.4,8.2c0.1-0.1,0.1-0.1,0.2-0.2C25.6,8.2,25.5,8.2,25.4,8.2C25.4,8.3,25.4,8.3,25.4,8.2z"
		/>
	<path id="XMLID_810_" class="st92" d="M36.5,40.8c0.1-0.1,0.1-0.1,0.2-0.1C36.7,40.8,36.6,40.8,36.5,40.8
		C36.5,40.8,36.5,40.8,36.5,40.8z"/>
	<path id="XMLID_809_" class="st93" d="M24.6,9.5C24.6,9.5,24.6,9.5,24.6,9.5c0-0.1,0-0.2,0-0.2c0,0,0,0,0.1,0
		C24.7,9.3,24.7,9.4,24.6,9.5C24.7,9.5,24.7,9.5,24.6,9.5C24.7,9.5,24.6,9.5,24.6,9.5z"/>
	<path id="XMLID_808_" class="st94" d="M24.6,9.3C24.6,9.3,24.6,9.3,24.6,9.3c0-0.1,0-0.2,0-0.3c0,0,0,0,0,0
		C24.7,9.1,24.7,9.1,24.6,9.3C24.7,9.2,24.7,9.3,24.6,9.3z"/>
	<path id="XMLID_807_" class="st95" d="M25.4,8.7c-0.1,0-0.2,0-0.3,0c0,0,0-0.1,0-0.1C25.2,8.7,25.3,8.7,25.4,8.7z"/>
	<path id="XMLID_806_" class="st96" d="M22,20.8C22,20.8,22.1,20.7,22,20.8c0.1-0.1,0.2,0,0.2,0.1c0,0,0,0,0,0
		C22.1,20.9,22.1,20.8,22,20.8z"/>
	<path id="XMLID_805_" class="st97" d="M24.3,7.9C24.3,8,24.3,8,24.3,7.9c-0.1,0-0.1-0.1,0-0.2c0,0,0,0,0,0
		C24.4,7.9,24.4,7.9,24.3,7.9z"/>
	<path id="XMLID_804_" class="st98" d="M25.9,15.6c0-0.1-0.1-0.1-0.1-0.2C25.9,15.4,25.9,15.5,25.9,15.6
		C25.9,15.5,25.9,15.6,25.9,15.6z"/>
	<path id="XMLID_803_" class="st99" d="M22.4,17.2C22.4,17.2,22.4,17.2,22.4,17.2c0-0.1,0.1-0.1,0.1-0.1c0,0,0,0,0,0
		C22.5,17.1,22.5,17.2,22.4,17.2z"/>
	<path id="XMLID_802_" class="st100" d="M25.1,8.8c0.1,0,0.2,0,0.3,0C25.3,8.9,25.2,8.9,25.1,8.8C25.1,8.9,25.1,8.8,25.1,8.8
		C25.1,8.8,25.1,8.8,25.1,8.8z"/>
	<path id="XMLID_801_" class="st101" d="M24.1,8.2C24.1,8.2,24.1,8.3,24.1,8.2c0,0.1,0.1,0.1,0,0.2c0,0,0,0,0,0
		C24.1,8.3,24.1,8.3,24.1,8.2z"/>
	<path id="XMLID_800_" class="st102" d="M25.3,12.8C25.3,12.8,25.3,12.9,25.3,12.8c-0.1,0-0.1,0-0.1-0.1c0,0,0-0.1,0-0.1
		C25.3,12.7,25.3,12.8,25.3,12.8z"/>
	<path id="XMLID_799_" class="st103" d="M25,7.7c0,0.1,0,0.2-0.1,0.2C24.9,7.8,24.9,7.8,25,7.7z"/>
	<path id="XMLID_798_" class="st104" d="M25.9,15.6C25.9,15.5,25.9,15.5,25.9,15.6c0.1,0,0.1,0.1,0.1,0.2c0,0,0,0,0,0
		C25.9,15.7,25.9,15.6,25.9,15.6z"/>
	<path id="XMLID_797_" class="st105" d="M25.1,7.7C25.1,7.7,25.1,7.7,25.1,7.7c0-0.1,0-0.1,0-0.2c0.1-0.1,0.1,0,0.1,0
		C25.2,7.7,25.1,7.7,25.1,7.7z"/>
	<path id="XMLID_796_" class="st106" d="M26.9,20.1C26.9,20.1,26.9,20,26.9,20.1C26.9,20,27,20,26.9,20.1
		C27,20.1,26.9,20.1,26.9,20.1z"/>
	<path id="XMLID_795_" class="st107" d="M25.6,8.1C25.6,8,25.6,8,25.6,8.1C25.6,8,25.6,7.9,25.6,8.1C25.7,8,25.7,8,25.6,8.1z"/>
	<path id="XMLID_794_" class="st108" d="M24.7,9L24.7,9C24.6,9,24.6,9,24.7,9c0,0-0.1-0.1-0.1-0.1c0,0,0,0,0.1,0
		C24.6,8.9,24.7,8.9,24.7,9C24.7,9,24.7,9,24.7,9C24.7,9,24.7,9,24.7,9z"/>
	<path id="XMLID_793_" class="st109" d="M24.3,8.4C24.3,8.3,24.3,8.3,24.3,8.4C24.3,8.3,24.3,8.3,24.3,8.4c0.1,0,0.1,0.1,0.1,0.1
		C24.3,8.5,24.3,8.4,24.3,8.4C24.3,8.4,24.3,8.4,24.3,8.4z"/>
	<path id="XMLID_792_" class="st110" d="M28.1,21C28.1,21,28.1,21.1,28.1,21c0.1,0.1,0.1,0.2,0,0.2C28.1,21.2,28.1,21.1,28.1,21z"/>
	<path id="XMLID_791_" class="st111" d="M28.2,21.3c0-0.1,0-0.1,0-0.2c0,0,0,0,0,0C28.3,21.1,28.2,21.2,28.2,21.3
		C28.2,21.3,28.2,21.3,28.2,21.3C28.2,21.3,28.2,21.3,28.2,21.3z"/>
	<path id="XMLID_790_" class="st112" d="M6.2,30.1C6.3,30.1,6.3,30.2,6.2,30.1C6.3,30.2,6.2,30.2,6.2,30.1
		C6.2,30.2,6.2,30.2,6.2,30.1C6.2,30.1,6.2,30.1,6.2,30.1z"/>
	<path id="XMLID_789_" class="st113" d="M25.9,15.8C25.9,15.8,26,15.8,25.9,15.8c0.1,0.1,0.1,0.1,0.1,0.2
		C25.9,15.9,26,15.8,25.9,15.8z"/>
	<path id="XMLID_788_" class="st114" d="M25.5,8c0,0.1-0.1,0.1-0.2,0.1C25.4,8.1,25.4,8,25.5,8z"/>
	<path id="XMLID_787_" class="st115" d="M36.3,41c0,0-0.1,0.1-0.1,0.1C36.2,41,36.2,41,36.3,41C36.3,41,36.3,41,36.3,41z"/>
	<path id="XMLID_786_" class="st116" d="M6.2,30.1C6.2,30.1,6.2,30.1,6.2,30.1c-0.1,0-0.1-0.1,0-0.1C6.3,30,6.2,30.1,6.2,30.1z"/>
	<path id="XMLID_785_" class="st117" d="M36.5,40.8C36.5,40.8,36.5,40.8,36.5,40.8c0,0.1-0.1,0.1-0.1,0.1c0,0,0,0,0-0.1
		C36.4,40.8,36.4,40.8,36.5,40.8z"/>
	<path id="XMLID_784_" class="st118" d="M28.7,18.4c-0.1-0.1,0-0.1,0-0.2C28.7,18.3,28.7,18.3,28.7,18.4z"/>
	<path id="XMLID_783_" class="st119" d="M25,8.4C25,8.4,25,8.5,25,8.4c0,0.1-0.1,0.1-0.1,0.1c0,0,0,0,0,0C24.9,8.5,24.9,8.4,25,8.4
		C25,8.4,25,8.4,25,8.4z"/>
	<path id="XMLID_782_" class="st18" d="M23.2,16C23.2,16,23.3,16,23.2,16C23.3,16,23.3,16,23.2,16c0.1,0.1,0,0.1,0,0.1
		C23.2,16.1,23.2,16.1,23.2,16C23.2,16,23.2,16,23.2,16z"/>
	<path id="XMLID_781_" class="st120" d="M36.4,40.9C36.4,40.9,36.4,40.9,36.4,40.9c0,0.1-0.1,0.1-0.1,0.1c0,0,0,0,0,0
		C36.3,40.9,36.3,40.9,36.4,40.9z"/>
	<path id="XMLID_780_" class="st121" d="M22.8,17.2c-0.1,0-0.2-0.1-0.3-0.2c0.2-0.2,0.3-0.4,0.5-0.6c0.1-0.1,0.2-0.3,0.4-0.4
		c0.1-0.1,0.2-0.1,0.3-0.1c0.2,0,0.3-0.1,0.4-0.2c0.1-0.2,0.2-0.2,0.4-0.3c0.1,0,0.2-0.1,0.3-0.2c0.3,0.4,0.5,0.9,0.6,1.4
		c0,0,0,0.1,0,0.1c-0.1,0.6-0.1,1.2-0.1,1.8c0,0.3,0,0.6-0.1,0.9c0,0-0.1,0-0.1,0c-0.2-0.1-0.3,0-0.3,0.1c0,0.1,0.1,0.3,0.2,0.3
		c0.1,0,0.1,0,0.2,0.1c0,0.1,0,0.2-0.1,0.2c-0.2,0-0.3-0.1-0.4-0.2c-0.1-0.1-0.1-0.2-0.2-0.3c0-0.1-0.1-0.1-0.2-0.2
		c-0.2,0-0.3-0.3-0.3-0.5c0.1-0.4,0.1-0.8,0.1-1.1c0-0.1,0-0.3,0-0.4c0-0.3,0-0.7,0-1c0-0.2,0.1-0.2,0.2-0.3c0,0,0,0,0,0
		c0,0,0,0,0,0c-0.3,0.2-0.5,0.4-0.7,0.6C23.2,16.8,23.1,17,22.8,17.2z"/>
	<path id="XMLID_779_" class="st122" d="M25.1,19.7c-0.2,0-0.3,0-0.4-0.2c0-0.1-0.1-0.2,0-0.3c0.1-0.1,0.2-0.1,0.3-0.1
		c0,0,0.1,0,0.2,0.1c0,0,0.1,0,0.1,0c0.1-0.2,0.2-0.1,0.4,0c0-0.3,0.1-0.5,0.3-0.6c0,0,0,0,0,0c0,0,0,0,0,0c0,0-0.1,0-0.1,0.1
		c0,0.1,0.1,0.1,0.1,0.1c0.1,0,0.2,0,0.2,0c0.1,0,0.1,0,0.1,0.1c0,0.1,0,0.1-0.1,0.1c-0.1,0-0.1,0-0.2,0c-0.1,0-0.1,0-0.1,0.1
		c0.1,0.2-0.1,0.2-0.2,0.2c-0.1,0.1-0.1-0.1-0.2-0.1c-0.1,0-0.2,0-0.3,0.1c-0.1,0.1-0.1,0-0.2,0c-0.1-0.1-0.1-0.1-0.2-0.1
		c-0.1,0.1,0,0.2,0.1,0.2C25,19.6,25.1,19.6,25.1,19.7C25.1,19.7,25.1,19.7,25.1,19.7C25.2,19.7,25.1,19.7,25.1,19.7z"/>
	<path id="XMLID_778_" class="st123" d="M26,18.7C26,18.7,26,18.7,26,18.7C26,18.6,26,18.6,26,18.7c0-0.2,0-0.3,0-0.4
		c0-0.1,0-0.2,0-0.2c0-0.2,0-0.4,0-0.6c0.1,0.2,0,0.3,0.1,0.5c0,0.1,0,0.3,0,0.4c0,0,0,0,0,0c0,0.1,0,0.2,0,0.2
		C26.1,18.6,26.1,18.7,26,18.7z"/>
	<path id="XMLID_777_" class="st122" d="M26,18.3c0,0.1,0,0.2-0.1,0.3c-0.1,0-0.1-0.1,0-0.2C26,18.4,26,18.3,26,18.3
		C26,18.2,26,18.2,26,18.3z"/>
	<path id="XMLID_776_" class="st124" d="M26,18.3C26,18.2,26,18.2,26,18.3c0-0.1,0-0.2,0-0.2C26,18.1,26.1,18.2,26,18.3z"/>
	<path id="XMLID_775_" class="st125" d="M23.3,15.9c-0.2,0-0.4,0-0.6,0c0-0.1,0,0,0.1,0c0.3,0,0.5,0,0.8-0.1
		C23.5,15.9,23.4,15.8,23.3,15.9z"/>
	<path id="XMLID_774_" class="st126" d="M22,15.6c-0.2,0-0.3-0.2-0.5-0.3c0.1-0.1,0.1,0,0.1,0C21.8,15.5,21.9,15.6,22,15.6
		C22,15.6,22,15.7,22,15.6z"/>
	<path id="XMLID_773_" class="st127" d="M22.7,15.8C22.7,15.8,22.7,15.9,22.7,15.8c-0.2,0-0.3,0-0.5-0.1c0,0,0,0,0,0c0,0,0,0,0,0
		C22.4,15.7,22.6,15.8,22.7,15.8z"/>
	<path id="XMLID_772_" class="st128" d="M22.3,15.7C22.3,15.7,22.3,15.7,22.3,15.7c-0.1,0-0.1,0-0.2,0c0,0-0.1,0-0.1-0.1
		c0,0,0,0,0,0C22.1,15.6,22.2,15.7,22.3,15.7z"/>
	<path id="XMLID_771_" class="st129" d="M21.4,15.2C21.4,15.2,21.4,15.2,21.4,15.2C21.4,15.2,21.5,15.2,21.4,15.2
		C21.4,15.3,21.4,15.2,21.4,15.2z"/>
	<path id="XMLID_770_" class="st10" d="M21.5,18.7c0.1-0.1,0.1-0.1,0.2-0.2c0,0,0,0,0,0c0,0,0,0.1,0.1,0.1c0,0,0,0,0.1,0
		c0.1,0,0.1,0,0.2,0c0,0,0.1,0,0.1,0c0,0,0-0.1,0.1-0.1c0,0,0,0,0,0c0,0,0,0,0,0c0,0.1,0.1,0.1,0.2,0.1c0,0,0,0,0.1,0
		c0.1,0,0.2,0.1,0.3,0.2c0,0,0,0,0,0c0.1,0,0.1-0.1,0.1-0.1c0.1,0,0.1-0.1,0.2,0c0.1,0,0.2,0.1,0.3,0.2c0,0.1,0.1,0.2,0.3,0.1
		c0.1,0,0.1,0,0.2,0c0,0,0.1,0,0.1,0.1c0.1,0.2,0.2,0.3,0.4,0.4c0.1,0,0.2,0.2,0.2,0.4c0,0,0,0-0.1,0c-0.1-0.1-0.2-0.1-0.3,0
		c0,0-0.1,0-0.1,0c-0.2,0.1-0.3,0.1-0.4-0.1c0-0.1,0,0,0,0c0-0.1,0-0.2-0.1-0.2c-0.1,0-0.2,0.1-0.2,0.1c0,0.1-0.1,0.2-0.3,0.2
		c-0.2,0-0.3-0.1-0.3-0.3c0,0,0-0.1,0-0.2c0-0.1,0-0.2-0.1-0.2c-0.1,0-0.2,0-0.3,0c-0.1,0.1-0.2,0.1-0.3,0.1c0-0.2-0.1-0.3-0.4-0.4
		C21.6,18.9,21.6,18.8,21.5,18.7z"/>
	<path id="XMLID_769_" class="st10" d="M22.2,20.8c-0.1,0-0.1-0.1-0.2-0.1C22,20.7,22,20.6,22,20.4c0-0.1,0-0.2-0.2-0.3
		c-0.2-0.1-0.3-0.3-0.2-0.5c0.1-0.1,0.3-0.1,0.5-0.2c0.1,0.2,0.2,0.2,0.3,0.2c0.1,0,0.1,0,0.2,0.1c-0.2,0.2-0.2,0.2-0.1,0.4
		c0,0,0,0.1,0,0.1c0,0.1,0.1,0.1,0,0.2c-0.1,0.1-0.1-0.1-0.1,0C22.4,20.8,22.4,20.8,22.2,20.8z"/>
	<path id="XMLID_768_" class="st130" d="M24.5,19.7c0-0.1-0.1-0.4-0.2-0.4c-0.2,0-0.3-0.1-0.3-0.3c0,0-0.1-0.1-0.1-0.1c0,0,0,0,0,0
		c0,0,0-0.1,0-0.2c0-0.1,0-0.2,0-0.4c0-0.2,0-0.3,0-0.5c0-0.1,0-0.1,0-0.2c0,0,0,0,0.1,0c0,0.4,0,0.8-0.1,1.2c0,0.1,0.1,0.4,0.3,0.4
		c0.1,0,0.1,0.1,0.2,0.1c0.1,0.1,0.1,0.2,0.2,0.4C24.6,19.8,24.6,19.8,24.5,19.7z"/>
	<path id="XMLID_767_" class="st131" d="M24.8,20.5c0.1-0.2,0.1-0.3-0.2-0.3c0,0,0,0-0.1,0c0.1-0.1,0.3-0.1,0.5-0.1
		c0.2,0,0.2,0.1,0.2,0.3c-0.1,0-0.1,0-0.1-0.1c0-0.1-0.1-0.2-0.2-0.1c-0.1,0-0.1,0.1,0,0.2C25,20.5,25,20.6,24.8,20.5z"/>
	<path id="XMLID_766_" class="st132" d="M26.8,19.2c0.1,0.2,0,0.3-0.2,0.3c-0.1,0-0.1,0-0.2,0c-0.1-0.1-0.1,0-0.2,0.1
		c0,0.1,0,0.2,0,0.2c-0.1,0-0.1-0.1-0.1-0.2c0.1,0,0.1,0,0.1-0.1c0-0.1,0.1-0.1,0.2-0.1C26.6,19.5,26.7,19.5,26.8,19.2z"/>
	<path id="XMLID_765_" class="st133" d="M25.3,19.6c0.1,0,0.1,0,0.1,0.1c0,0,0,0.1,0,0.1c0,0.1,0.1,0.2,0.2,0.2c0.1,0,0-0.1,0.1-0.2
		c0,0,0,0.1,0.1,0.1c0,0.1,0,0.2-0.1,0.2c-0.1,0-0.3,0-0.3-0.1C25.4,19.8,25.4,19.7,25.3,19.6C25.3,19.6,25.3,19.6,25.3,19.6
		C25.3,19.6,25.3,19.6,25.3,19.6z"/>
	<path id="XMLID_764_" class="st134" d="M24.5,20.1c-0.1,0-0.3,0.1-0.3-0.2c0.1,0,0.2-0.1,0.3,0C24.5,20,24.6,20,24.5,20.1z"/>
	<path id="XMLID_763_" class="st135" d="M25.1,19.7C25.1,19.7,25.1,19.7,25.1,19.7c0.1,0,0.3,0,0.2,0.1c0,0.1-0.2,0.1-0.3,0.1
		C25.1,19.9,25.1,19.8,25.1,19.7z"/>
	<path id="XMLID_762_" class="st133" d="M22.4,19.4c0.1,0,0.2,0,0.2,0.1c0,0.1-0.1,0.1-0.1,0.1c-0.1,0-0.2-0.1-0.2-0.2
		C22.3,19.4,22.3,19.4,22.4,19.4z"/>
	<path id="XMLID_761_" class="st136" d="M23.7,19.6c0-0.1,0-0.1,0.1-0.1C23.8,19.5,23.7,19.5,23.7,19.6c0.1,0.1,0.2,0.2,0.3,0.1
		c0.1,0,0.1-0.1,0.2,0C24,19.9,23.8,19.8,23.7,19.6z"/>
	<path id="XMLID_760_" class="st137" d="M23.8,20C23.8,20,23.8,20.1,23.8,20c-0.1,0.1-0.2,0-0.2-0.1c0,0,0-0.1,0.1-0.1
		C23.7,19.8,23.7,19.9,23.8,20z"/>
	<path id="XMLID_759_" class="st138" d="M25.5,20.2c0,0-0.1,0-0.1-0.1c0-0.1,0.1-0.1,0.1-0.1c0,0,0.1,0,0.1,0.1
		C25.6,20.2,25.6,20.2,25.5,20.2z"/>
	<path id="XMLID_758_" class="st139" d="M22.1,19.5c-0.1,0-0.1,0-0.2,0c0-0.1,0.1-0.2,0.2-0.2c0,0,0,0,0,0
		C22.1,19.4,22.1,19.4,22.1,19.5z"/>
	<path id="XMLID_757_" class="st10" d="M25.3,19.6C25.3,19.6,25.3,19.6,25.3,19.6c-0.1,0-0.1,0-0.2,0c-0.1,0-0.1,0-0.2,0
		C25,19.5,25.2,19.5,25.3,19.6z"/>
	<path id="XMLID_756_" class="st131" d="M25.3,19.6c-0.1,0-0.3,0-0.4,0c-0.1-0.1-0.2-0.2-0.1-0.3c0.1-0.1,0.2-0.1,0.3,0
		c0.1,0.1,0.1,0.1,0.2,0c0.1-0.1,0.2-0.1,0.3,0c0,0,0,0.1,0,0.1C25.5,19.3,25.4,19.3,25.3,19.6c-0.2-0.1-0.3-0.2-0.4-0.2
		C25.1,19.5,25.1,19.5,25.3,19.6C25.3,19.6,25.3,19.6,25.3,19.6z"/>
	<path id="XMLID_755_" class="st140" d="M26,18.7c0.1,0,0.1-0.1,0.1-0.1c0-0.1,0-0.2,0-0.2c0,0,0,0,0,0C26.2,18.5,26.2,18.7,26,18.7
		C26,18.7,26,18.7,26,18.7z"/>
	<path id="XMLID_754_" class="st141" d="M26.2,17.1c0.2,0,0.2,0.1,0.2,0.2C26.3,17.3,26.3,17.1,26.2,17.1z"/>
	<path id="XMLID_753_" class="st142" d="M26.6,18.8c0.1,0,0.1,0.1,0.1,0.2c0,0,0,0,0,0.1C26.7,19,26.6,18.9,26.6,18.8z"/>
	<path id="XMLID_752_" class="st143" d="M26.5,18.1C26.5,18.1,26.5,18.1,26.5,18.1C26.5,18,26.5,18.1,26.5,18.1
		C26.5,18.1,26.5,18.1,26.5,18.1z"/>
	<path id="XMLID_751_" class="st144" d="M26.5,20.1c0.1,0.2-0.1,0.2-0.2,0.3c0,0,0,0,0,0c0,0,0,0,0,0C26.4,20.3,26.5,20.2,26.5,20.1
		z"/>
	<path id="XMLID_750_" class="st145" d="M24.7,12c-0.1,0-0.2-0.1-0.2-0.2c0-0.2,0-0.3,0-0.5c0-0.1,0-0.2,0.1-0.4
		c0.1,0,0.1,0.1,0.1,0.1C24.6,11.3,24.7,11.6,24.7,12C24.7,12,24.7,12,24.7,12z"/>
	<path id="XMLID_749_" class="st146" d="M24.3,8.4C24.3,8.4,24.3,8.5,24.3,8.4c0.1,0.1,0.1,0.1,0.1,0.1c0,0,0.1,0.1,0.1,0.1
		c0,0,0-0.1,0-0.1c0.1,0.1,0.1,0.2-0.1,0.2C24.4,8.6,24.3,8.5,24.3,8.4C24.2,8.4,24.3,8.4,24.3,8.4z"/>
	<path id="XMLID_748_" class="st147" d="M24.9,11.3C24.9,11.2,24.9,11.3,24.9,11.3c0,0.2,0,0.4,0,0.6C24.9,11.7,24.9,11.5,24.9,11.3
		z"/>
	<path id="XMLID_747_" class="st148" d="M24.7,9.4c0.1,0.2,0,0.3,0,0.5c0,0,0,0-0.1,0c0,0,0-0.1,0-0.1c0-0.1,0-0.2,0-0.3
		C24.7,9.4,24.7,9.4,24.7,9.4z"/>
	<path id="XMLID_746_" class="st149" d="M24.7,9C24.7,8.9,24.7,8.9,24.7,9C24.7,8.9,24.8,8.8,24.7,9c0.1,0.1,0.1,0.2,0.1,0.3
		C24.7,9.2,24.8,9.1,24.7,9C24.7,9,24.7,9,24.7,9z"/>
	<path id="XMLID_745_" class="st150" d="M24.7,10c0.1,0.1,0,0.3,0,0.5C24.6,10.3,24.6,10.2,24.7,10C24.6,10,24.6,10,24.7,10z"/>
	<path id="XMLID_744_" class="st151" d="M24.5,8.3c0-0.1-0.1-0.1-0.1-0.2c0,0,0-0.1,0-0.1C24.5,8.1,24.5,8.1,24.5,8.3
		C24.5,8.2,24.5,8.2,24.5,8.3z"/>
	<path id="XMLID_743_" class="st152" d="M24.7,9.7C24.7,9.8,24.7,9.8,24.7,9.7c0,0.1,0,0.1,0,0.1c0,0,0,0,0,0c0,0,0,0,0,0
		c0-0.1,0-0.2,0-0.3c0,0,0,0,0,0C24.7,9.6,24.7,9.7,24.7,9.7z"/>
	<path id="XMLID_742_" class="st153" d="M24.7,10.6c0,0.1,0,0.2,0,0.2C24.6,10.7,24.6,10.7,24.7,10.6z"/>
	<path id="XMLID_741_" class="st154" d="M24.7,9.4c0,0,0,0.1,0,0.1c0,0,0,0,0,0C24.7,9.4,24.7,9.3,24.7,9.4c0-0.1,0-0.1,0-0.2
		c0,0,0,0,0,0C24.7,9.3,24.7,9.3,24.7,9.4z"/>
	<path id="XMLID_740_" class="st155" d="M24.7,9.2C24.7,9.2,24.7,9.2,24.7,9.2c0-0.1,0-0.1,0-0.2c0,0,0,0,0,0c0,0,0,0,0,0.1
		C24.7,9.1,24.7,9.1,24.7,9.2z"/>
	<path id="XMLID_739_" class="st156" d="M24.6,9.9C24.6,9.9,24.6,9.9,24.6,9.9c0,0,0,0.1,0,0.1c0,0,0,0,0,0.1c0,0,0,0,0,0
		C24.6,10,24.6,9.9,24.6,9.9z"/>
	<path id="XMLID_738_" class="st157" d="M22.2,12.4c0.1,0.1,0.1,0,0.1,0c0.1-0.1,0.1-0.2,0.1-0.3c0-0.2,0.1-0.2,0.3-0.2
		c0,0.3,0,0.6,0.3,0.7c0.1,0.1,0.3,0.1,0.4,0.1c0.1,0,0.2,0,0.1,0.1c0,0,0.1,0,0.1,0c0,0,0,0,0,0c0.2,0,0.2,0.1,0.2,0.2
		c0,0,0.1,0,0.1,0.1c0,0.2,0,0.4,0,0.7c0,0,0,0,0,0c0,0,0,0,0,0c0.1,0.1,0.1,0.2,0.2,0.3c0.2,0.3,0.4,0.4,0.7,0.2
		c0.1,0,0.1-0.1,0.1-0.1c0-0.1,0-0.1,0-0.2c0-0.1,0-0.2,0.1-0.4c0-0.1,0.1-0.1,0.2-0.1c0,0.1,0,0.1,0,0.2c0,0.1,0,0.2,0,0.2
		c0,0.1,0,0.1,0,0.2c0,0.2-0.1,0.4-0.2,0.5c-0.1,0.1-0.2,0.3-0.3,0.3c-0.3-0.2-0.6-0.2-1-0.3c-0.1,0-0.2,0-0.2-0.1
		c0-0.1,0-0.1,0-0.1c0,0,0.1-0.1,0.1-0.2c0,0,0-0.1,0-0.1c0-0.1,0-0.1,0.1-0.1c0.1-0.2,0.1-0.6-0.2-0.8c-0.2-0.1-0.7-0.2-0.8,0.1
		c-0.1,0.1-0.1,0.2-0.3,0.3c-0.2-0.1-0.5,0-0.8-0.1c-0.1,0-0.1-0.1,0-0.2c0.1-0.3,0.1-0.6,0.3-0.8C22,12.4,22.1,12.3,22.2,12.4z"/>
	<path id="XMLID_737_" class="st158" d="M21.7,13.4c0.3,0,0.5,0,0.8,0.1c0,0.2,0,0.4,0.1,0.6c0,0.1,0.1,0.2,0.1,0.4c0,0,0,0,0.1,0
		c0.2,0.1,0.4,0.1,0.7,0c0,0,0,0,0.1,0c0.2,0.1,0.5,0.1,0.7,0.1c0.2,0.1,0.4,0.1,0.6,0.2c0,0,0.1,0,0.1,0c0,0.1-0.1,0.1-0.1,0.1
		c-0.1,0.1-0.3,0.1-0.4,0.2c0,0,0,0.1-0.1,0.1c-0.2,0.2-0.3,0.3-0.6,0.3c-0.1,0-0.2-0.1-0.3-0.2c0-0.1,0-0.2-0.1-0.1
		c0,0-0.1,0-0.1,0c0,0,0.1,0,0,0c-0.3,0-0.6-0.1-0.8-0.3c-0.2-0.1-0.3-0.3-0.3-0.5C21.7,14.1,21.7,13.8,21.7,13.4
		C21.7,13.5,21.7,13.5,21.7,13.4z"/>
	<path id="XMLID_736_" class="st159" d="M23.8,11.8c0.2,0.2,0.1,0.5,0,0.7c-0.1,0.2-0.3,0.2-0.5,0.2c-0.2-0.1-0.4-0.2-0.4-0.4
		c0-0.1,0-0.2,0-0.3c0.1-0.1,0.1-0.2,0.2-0.3C23.3,11.6,23.5,11.6,23.8,11.8z"/>
	<path id="XMLID_735_" class="st160" d="M21.7,13.4C21.7,13.5,21.7,13.5,21.7,13.4C21.7,13.5,21.7,13.5,21.7,13.4
		C21.6,13.5,21.6,13.5,21.7,13.4c0-0.4,0.1-0.7,0.3-1c0.1-0.1,0.2-0.2,0.3-0.3c0,0,0.1-0.1,0.1-0.1c0,0.1-0.1,0.2-0.2,0.3
		c-0.2,0-0.3,0.2-0.3,0.3C21.8,12.9,21.7,13.2,21.7,13.4z"/>
	<path id="XMLID_734_" class="st158" d="M21.7,13.5C21.7,13.5,21.7,13.5,21.7,13.5c0.1,0.4,0.1,0.7,0.3,1c0.1,0.2,0.2,0.3,0.3,0.4
		c0,0,0,0,0,0c-0.2-0.1-0.3-0.4-0.4-0.6c-0.1-0.2-0.1-0.4-0.1-0.7C21.6,13.6,21.6,13.6,21.7,13.5z"/>
	<path id="XMLID_733_" class="st161" d="M22.8,12c0,0.2,0,0.4,0.2,0.6c0.2,0.1,0.5,0.1,0.7-0.1c0,0,0,0,0,0c0,0.1,0,0.1-0.1,0.1
		c-0.2,0.1-0.4,0.1-0.6,0C22.7,12.5,22.7,12.3,22.8,12C22.8,11.9,22.8,12,22.8,12z"/>
	<path id="XMLID_732_" class="st162" d="M23.3,15.4c0.1,0.1,0.2,0.1,0.3,0.2c0.3,0,0.4-0.1,0.6-0.3c0,0,0,0,0.1-0.1c0,0,0,0,0,0
		c-0.1,0.3-0.3,0.5-0.7,0.4C23.4,15.6,23.3,15.5,23.3,15.4z"/>
	<path id="XMLID_731_" class="st163" d="M22.2,15C22.2,15,22.2,15,22.2,15c0.3,0.1,0.6,0.2,1,0.3c-0.1,0.1-0.1,0-0.2,0
		C22.7,15.3,22.4,15.2,22.2,15z"/>
	<path id="XMLID_730_" class="st164" d="M23.8,11.8c-0.2-0.2-0.5-0.2-0.8-0.1c0,0,0-0.1,0-0.1c0.1,0,0.3,0,0.4-0.1
		C23.6,11.6,23.7,11.6,23.8,11.8z"/>
	<path id="XMLID_729_" class="st165" d="M22.3,12.1c-0.2,0.1-0.2,0.3-0.4,0.3c0.1-0.1,0.2-0.2,0.3-0.3C22.3,12.1,22.3,12,22.3,12.1z
		"/>
	<path id="XMLID_728_" class="st158" d="M21.7,13.5c0,0.1,0,0.2,0,0.2C21.6,13.6,21.6,13.5,21.7,13.5C21.6,13.5,21.6,13.5,21.7,13.5
		z"/>
	<path id="XMLID_727_" class="st166" d="M28.2,18.6C28.2,18.5,28.2,18.5,28.2,18.6c-0.1,0-0.2,0-0.2,0c-0.3,0.1-0.6,0.3-0.9,0.5
		c-0.1,0-0.1,0.1-0.2,0.1c-0.2-0.1-0.1-0.2,0-0.3c0-0.1,0.1-0.1,0.2-0.1c0.3-0.2,0.7-0.4,1-0.6c0.1,0,0.1-0.1,0.1-0.2
		c0.1,0,0.2-0.1,0.3-0.1c0,0,0,0,0,0c0.1,0.2,0.1,0.4,0.1,0.6c0,0.2,0,0.4,0,0.6c0,0,0,0.1,0,0.1c0,0,0,0,0,0.1c0,0.1,0,0.2,0,0.3
		c0,0,0,0.1,0,0.1c0,0,0,0.1,0,0.1c0,0,0,0,0,0c0,0,0,0,0,0c0,0,0.1,0,0,0.1c0,0.3,0,0.6,0,0.9c0,0.1,0,0.3,0,0.4c0,0,0,0.1,0,0.1
		c-0.1,0.1-0.2,0.1-0.2,0.1c-0.1-0.1-0.1-0.3-0.1-0.4c-0.1-0.7-0.2-1.4-0.2-2.2C28.2,18.7,28.2,18.6,28.2,18.6z"/>
	<path id="XMLID_726_" class="st167" d="M28.2,17.9c0.1,0.1,0,0.1,0,0.1c-0.1,0.1-0.3,0.2-0.4,0.2c-0.2,0.1-0.4,0.2-0.6,0.4
		c0,0-0.1,0-0.1,0c0,0,0,0,0-0.1c0,0,0-0.1,0-0.1c0.1-0.1,0.3-0.2,0.4-0.2c0.2,0,0.4-0.2,0.6-0.3C28.1,17.9,28.1,17.8,28.2,17.9z"/>
	<path id="XMLID_725_" class="st168" d="M26.9,19.1c0,0,0.1-0.1,0.1-0.1c0.3-0.2,0.5-0.3,0.8-0.5c0.1,0,0.1,0,0.2,0
		c0,0.1-0.2,0.1-0.3,0.2c-0.1,0.1-0.2,0.1-0.2,0.1C27.3,18.9,27.1,19.1,26.9,19.1C26.9,19.1,26.9,19.1,26.9,19.1z"/>
	<path id="XMLID_724_" class="st169" d="M26.9,19.1c0.1-0.1,0.3-0.2,0.5-0.3c0,0,0,0,0,0C27.3,19,27.1,19.1,26.9,19.1
		C27,19.2,26.9,19.1,26.9,19.1z"/>
	<path id="XMLID_723_" class="st170" d="M25,14.6c0.1-0.2,0.2-0.3,0.2-0.5c0.1,0,0,0.1,0,0.1C25.2,14.4,25.2,14.5,25,14.6
		C25,14.7,25,14.6,25,14.6z"/>
	<path id="XMLID_722_" class="st171" d="M23.5,15.9c-0.1,0.2-0.3,0.3-0.4,0.4c0,0,0-0.1,0-0.1c0-0.1,0.1-0.1,0.1-0.2
		c0,0,0.1-0.1,0.1-0.1C23.3,16,23.4,15.9,23.5,15.9z"/>
	<path id="XMLID_721_" class="st172" d="M25.3,14.2c0,0,0-0.1,0-0.1c0-0.1,0-0.1,0-0.1c0-0.1,0-0.2,0-0.2c0-0.1,0-0.2,0-0.2
		c0,0,0-0.1,0-0.1c0,0,0,0,0,0c0,0.1,0,0.2,0,0.4c0,0,0,0,0,0.1C25.3,13.9,25.3,14.1,25.3,14.2z"/>
	<path id="XMLID_720_" class="st173" d="M24.2,15.3C24.2,15.3,24.2,15.3,24.2,15.3c0.1-0.2,0.3-0.2,0.5-0.2
		C24.5,15.2,24.3,15.2,24.2,15.3z"/>
	<path id="XMLID_719_" class="st174" d="M25,14.6C25,14.6,25,14.7,25,14.6c0,0.2-0.2,0.2-0.2,0.3c0,0-0.1,0-0.1,0
		C24.9,14.8,24.9,14.7,25,14.6z"/>
	<path id="XMLID_718_" class="st175" d="M28.3,21.7C28.3,21.6,28.3,21.6,28.3,21.7c0.1,0,0.1,0,0.2,0.1c0,0,0.1,0,0.1,0.1
		c0.3,0.1,0.6,0.3,0.9,0.4c0,0,0.1,0,0,0.1c0,0-0.1,0-0.1,0c-0.1,0-0.3,0-0.4,0c-0.2,0-0.3-0.1-0.5-0.1c-0.1,0-0.2,0-0.3-0.1
		C28.3,22,28.3,21.8,28.3,21.7z"/>
	<path id="XMLID_717_" class="st176" d="M28.2,18.6C28.2,18.6,28.2,18.6,28.2,18.6c0,0.5,0.1,0.9,0.1,1.3c0,0.5,0.1,0.9,0.1,1.4
		c-0.1,0-0.1,0-0.1,0c-0.1-0.2-0.1-0.5-0.1-0.7c0-0.3-0.1-0.6-0.1-0.9c0-0.2,0-0.5-0.1-0.7c0-0.1,0-0.1,0-0.2
		C28.1,18.6,28.1,18.6,28.2,18.6z"/>
	<path id="XMLID_716_" class="st177" d="M28.6,21.8c-0.1,0-0.1,0-0.1-0.1c0.1,0,0.3,0,0.3-0.1c0.4,0.1,0.7,0.3,1,0.5c0,0,0,0,0,0
		c0,0,0,0,0,0c-0.1,0-0.1,0-0.2,0c-0.2-0.1-0.3-0.2-0.5-0.3c-0.1-0.1-0.2-0.1-0.4-0.1C28.7,21.8,28.6,21.8,28.6,21.8z"/>
	<path id="XMLID_715_" class="st178" d="M28.2,19.6c0.1,0.2,0.1,0.4,0.1,0.7c0,0.3,0.1,0.7,0.1,1c0,0,0,0-0.1,0
		c-0.1-0.2-0.1-0.4-0.1-0.6c0-0.1,0-0.2,0-0.3c0-0.2,0-0.3-0.1-0.5C28.1,19.8,28.1,19.7,28.2,19.6C28.1,19.6,28.2,19.6,28.2,19.6z"
		/>
	<path id="XMLID_714_" class="st179" d="M28.7,21.5c0,0.1,0,0.1-0.1,0.2c-0.1,0-0.1-0.1-0.1-0.2c0-0.2,0.1-0.1,0.2-0.1
		C28.8,21.4,28.7,21.5,28.7,21.5z"/>
	<path id="XMLID_713_" class="st180" d="M28.7,20.7c0-0.3-0.1-0.6,0-0.9c0,0,0,0,0,0c0,0,0,0,0,0c0,0,0,0,0,0c0,0.3,0,0.5,0,0.8
		C28.7,20.5,28.7,20.6,28.7,20.7z"/>
	<path id="XMLID_712_" class="st181" d="M28.2,20.6c0,0.2,0,0.4,0,0.6c0,0,0,0-0.1,0c0-0.1,0-0.1,0-0.2c0-0.1,0-0.2,0-0.3
		C28.2,20.7,28.2,20.7,28.2,20.6C28.2,20.6,28.2,20.6,28.2,20.6z"/>
	<path id="XMLID_711_" class="st182" d="M28.7,20.7c0-0.1,0-0.1,0-0.2c0,0.2,0,0.3,0,0.5c0,0.1,0.1,0.1,0,0.2
		C28.7,21,28.7,20.8,28.7,20.7z"/>
	<path id="XMLID_710_" class="st183" d="M28.7,21.1c0.1,0,0-0.1,0-0.2c0,0.1,0.1,0.2,0,0.3C28.7,21.2,28.7,21.1,28.7,21.1z"/>
	<path id="XMLID_709_" class="st184" d="M24.9,8.5c0,0,0.1,0,0.1,0c0.1-0.1,0.2-0.2,0.3-0.2c0,0,0,0,0,0c-0.1,0.1-0.2,0.2-0.2,0.2
		C25.1,8.5,25,8.7,24.9,8.5z"/>
	<path id="XMLID_708_" class="st185" d="M24.9,9.9c0.1,0.2,0,0.4,0,0.6C24.9,10.3,24.9,10.1,24.9,9.9z"/>
	<path id="XMLID_707_" class="st186" d="M22.3,18.5C22.3,18.5,22.3,18.5,22.3,18.5c-0.1-0.1-0.1-0.2-0.1-0.3
		c0.1-0.3,0.2-0.5,0.4-0.6c0,0,0.1-0.1,0.1-0.1c0.1-0.1,0.2-0.2,0.3-0.1c0,0,0.1,0,0.1-0.1c0,0,0-0.1,0-0.1c0-0.1,0.1-0.1,0.1-0.2
		c0.1-0.1,0.2-0.2,0.2-0.3c0,0,0,0,0,0c0.1,0,0.1-0.1,0.1-0.2c0,0,0,0,0,0c0.2,0,0.2,0.1,0.2,0.3c0,0.4,0.1,0.8,0,1.2
		c0,0.1,0,0.2,0,0.3c0,0.2,0,0.3,0,0.5c0,0.1,0,0.1-0.1,0.2c-0.1,0-0.2,0-0.3,0c-0.1,0-0.2-0.1-0.2-0.2c-0.1-0.1-0.1-0.1-0.2-0.2
		c0-0.1,0-0.1,0-0.2c-0.2,0-0.2,0-0.2,0.2c0,0.1,0,0.2-0.1,0.2c0,0,0,0,0,0c-0.1-0.2-0.2-0.3-0.4-0.2C22.4,18.6,22.3,18.6,22.3,18.5
		z"/>
	<path id="XMLID_706_" class="st187" d="M23.8,16.5L23.8,16.5c-0.1,0-0.1,0.1-0.1,0.2l0,0c-0.1,0.1-0.2,0.2-0.3,0.3
		c0,0.1-0.1,0.1-0.1,0.2c0,0-0.1,0.1-0.1,0.1c-0.2,0.1-0.3,0-0.4-0.1c0-0.1,0.1-0.1,0.2-0.2c0.3-0.3,0.6-0.6,0.9-0.9
		c0.1,0,0.1-0.1,0.2-0.1c0,0.2-0.2,0.3-0.3,0.4C23.9,16.4,23.8,16.4,23.8,16.5z"/>
	<path id="XMLID_705_" class="st188" d="M22.2,18.6c0,0-0.1,0-0.1,0c-0.1-0.3-0.1-0.6,0-0.8c0.1-0.1,0.1-0.2,0.2-0.4
		c0,0,0-0.1,0.1-0.1c0.1-0.1,0.1-0.2,0.2-0.2c0.1,0,0.1,0.1,0.2,0.1c0,0.2-0.2,0.2-0.3,0.4c0,0.1,0,0.1-0.1,0.2
		c0,0.1-0.1,0.2-0.2,0.3C22.2,18.3,22.2,18.5,22.2,18.6z"/>
	<path id="XMLID_704_" class="st189" d="M22.2,18c0.1-0.1,0.1-0.2,0.2-0.2c0.1-0.1,0.1-0.2,0.2-0.3c0,0,0,0,0,0
		c-0.1,0.2-0.3,0.4-0.4,0.6c0,0,0,0,0,0C22.2,18.2,22.2,18.1,22.2,18z"/>
	<path id="XMLID_703_" class="st190" d="M23.1,16.3C23.1,16.3,23.1,16.3,23.1,16.3c-0.2,0.3-0.3,0.5-0.5,0.7
		C22.7,16.7,22.9,16.5,23.1,16.3z"/>
	<path id="XMLID_702_" class="st191" d="M22.6,17.6c-0.1,0.1-0.2,0.2-0.2,0.3c0-0.1,0.1-0.1,0.1-0.2c0.1-0.1,0.2-0.2,0.3-0.3
		C22.7,17.5,22.6,17.5,22.6,17.6z"/>
	<path id="XMLID_701_" class="st192" d="M22.7,17.4c-0.1,0.1-0.2,0.2-0.3,0.3c-0.1,0,0-0.1,0-0.1c0.1-0.1,0.2-0.2,0.3-0.3
		C22.8,17.3,22.8,17.3,22.7,17.4z"/>
	<path id="XMLID_700_" class="st193" d="M22.6,17.1c-0.1,0.1-0.1,0.1-0.2,0.2c0,0,0,0,0,0c0,0,0-0.1,0-0.1
		C22.4,17.1,22.5,17.1,22.6,17.1C22.5,17.1,22.6,17.1,22.6,17.1z"/>
	<path id="XMLID_699_" class="st194" d="M23.2,17.3c0,0,0-0.1,0.1-0.1c0,0,0.1,0,0,0C23.3,17.2,23.3,17.3,23.2,17.3
		C23.2,17.3,23.2,17.3,23.2,17.3z"/>
	<path id="XMLID_698_" class="st157" d="M24.3,11.9C24.3,11.9,24.3,11.9,24.3,11.9c0.1,0,0.2,0.1,0.3,0.1c0,0,0,0,0.1,0
		c0.1,0.1,0.1,0.1,0.2,0.2c0,0.1,0.1,0.1,0.1,0.2c0.1,0.2,0.2,0.4,0.3,0.6c0,0,0,0-0.1,0.1c-0.1,0-0.1-0.1-0.1-0.1
		c-0.2-0.3-0.4-0.3-0.7-0.2c0,0-0.1,0.1-0.1,0.1c-0.1,0-0.2,0-0.2-0.1c0-0.1-0.1-0.1-0.2-0.1c-0.1,0-0.1-0.1-0.1-0.1
		c0.1-0.1,0.1-0.1,0.1-0.2c0,0,0-0.1,0-0.1c0-0.1,0-0.2,0-0.3c0-0.1,0.1,0,0.2-0.1C24.2,11.8,24.2,11.9,24.3,11.9z"/>
	<path id="XMLID_697_" class="st195" d="M25.3,13c0-0.2-0.2-0.4-0.3-0.7c0,0,0,0,0,0c0.1,0.1,0.2,0.2,0.2,0.4c0,0,0,0.1,0.1,0.1
		c0,0.1,0,0.3,0.1,0.4c0,0,0,0.1,0,0.1l0,0C25.2,13.3,25.2,13.1,25.3,13z"/>
	<path id="XMLID_696_" class="st196" d="M25,12.1c0.2,0,0.2,0.1,0.2,0.3C25.1,12.3,25,12.2,25,12.1z"/>
	<path id="XMLID_695_" class="st197" d="M25,12.4L25,12.4C25,12.4,25,12.4,25,12.4c-0.1,0-0.1-0.1-0.2-0.2
		C24.9,12.2,25,12.3,25,12.4z"/>
	<path id="XMLID_694_" class="st198" d="M28.6,21.8C28.6,21.8,28.6,21.8,28.6,21.8c0.4-0.2,0.6,0.1,0.8,0.2c0.1,0.1,0.2,0.2,0.4,0.2
		c0,0,0.1,0.1,0,0.1c-0.1,0-0.1,0-0.2,0C29.3,22.1,28.9,21.9,28.6,21.8z"/>
	<path id="XMLID_693_" class="st199" d="M28.5,22.3c0.2-0.1,0.3,0.1,0.5,0.1c0,0-0.1,0-0.1,0C28.8,22.3,28.7,22.3,28.5,22.3
		C28.5,22.3,28.5,22.3,28.5,22.3z"/>
	<path id="XMLID_692_" class="st200" d="M28.9,22.3c0,0,0.1,0,0.1,0c0.2,0,0.3,0,0.5,0c0,0,0.1,0,0.1,0
		C29.3,22.4,29.1,22.4,28.9,22.3z"/>
	<path id="XMLID_691_" class="st201" d="M29.6,22.3C29.5,22.3,29.5,22.3,29.6,22.3C29.5,22.3,29.6,22.3,29.6,22.3c0.1,0,0.2,0,0.2,0
		C29.7,22.4,29.6,22.4,29.6,22.3z"/>
	<path id="XMLID_690_" class="st202" d="M27.5,18.9C27.5,18.9,27.4,18.8,27.5,18.9c0.1-0.1,0.3-0.3,0.5-0.4c0,0,0.1,0,0.1,0
		C27.9,18.6,27.7,18.8,27.5,18.9z"/>
	<path id="XMLID_689_" class="st203" d="M28,18.6c0.1,0.1,0,0.1,0,0.2c0,0,0,0,0,0c0,0,0,0,0,0C28,18.8,28,18.7,28,18.6
		C28,18.6,28,18.7,28,18.6z"/>
	<path id="XMLID_688_" class="st204" d="M28,18.7c0.1,0,0,0.1,0,0.2c0,0,0,0,0,0c0,0,0,0,0,0C28,18.8,28,18.7,28,18.7z"/>
	<path id="XMLID_687_" class="st205" d="M28.2,20.6c0,0.1,0,0.1,0,0.2c0-0.4-0.1-0.8-0.1-1.2c0,0,0,0,0.1,0c0,0,0,0.1,0,0.1
		c0,0.1,0,0.2,0,0.2c0,0.2,0,0.3,0,0.5C28.2,20.4,28.2,20.5,28.2,20.6z"/>
	<path id="XMLID_686_" class="st206" d="M28.1,19.5L28.1,19.5C28.1,19.5,28.1,19.5,28.1,19.5c0-0.1,0-0.2-0.1-0.3c0-0.1,0-0.3,0-0.4
		c0,0,0,0,0,0c0,0,0,0,0,0C28.1,19.1,28.2,19.3,28.1,19.5z"/>
	<path id="XMLID_685_" class="st207" d="M23.9,12.3c0.1,0.2-0.1,0.2-0.1,0.3c0.2,0,0.3,0,0.4,0.2c0,0.1,0.1,0,0.1,0l-0.2,0.9
		c0,0.1,0,0.1,0,0c-0.1-0.2,0-0.4,0-0.5c0-0.1,0-0.1,0-0.2c0-0.1,0-0.1,0-0.2c0-0.1-0.1-0.2-0.2-0.1c-0.1,0-0.1,0.1-0.2,0.1
		c0,0-0.1,0-0.1,0c0,0,0.1-0.1,0.1-0.1c-0.1,0.1-0.3,0-0.4,0c-0.1,0-0.1,0-0.1-0.1c0.2,0,0.5,0.1,0.7-0.2
		C23.8,12.5,23.9,12.4,23.9,12.3z"/>
	<path id="XMLID_684_" class="st77" d="M23.9,11.9c0,0.1,0,0.2,0,0.3C23.9,12.1,23.9,12,23.9,11.9L23.9,11.9z"/>
	<path id="XMLID_683_" class="st208" d="M23.9,11.9C23.9,11.9,23.9,11.9,23.9,11.9C23.9,11.9,23.9,11.9,23.9,11.9
		c0-0.1,0.1-0.1,0.2-0.1c0,0,0,0,0,0c0,0,0,0,0,0C24.1,11.9,24,11.9,23.9,11.9z"/>
	<path id="XMLID_682_" class="st209" d="M24.5,8C24.4,8,24.4,8.1,24.5,8c-0.1,0-0.1,0-0.1-0.1c0,0,0-0.1,0-0.1
		C24.4,7.9,24.4,7.9,24.5,8z"/>
	<path id="XMLID_681_" class="st210" d="M28.3,21.7c0,0.2,0,0.3,0,0.5C28.2,22,28.2,21.8,28.3,21.7z"/>
	<path id="XMLID_680_" class="st211" d="M28.5,17.9c0.1,0,0.1,0.1,0.1,0.2c0,0.1,0,0.3,0,0.4c0,0,0,0-0.1,0
		C28.5,18.3,28.6,18.1,28.5,17.9C28.5,17.9,28.5,17.9,28.5,17.9z"/>
	<path id="XMLID_679_" class="st212" d="M28.6,18.5C28.6,18.5,28.6,18.5,28.6,18.5c0,0.2,0,0.3,0,0.5c0,0.1,0.1,0.1,0,0.2
		c0,0,0-0.1,0-0.1C28.6,18.9,28.6,18.7,28.6,18.5z"/>
	<path id="XMLID_678_" class="st213" d="M28.6,19.1c0-0.1,0-0.1,0-0.2c0.1,0.1,0,0.3,0,0.4c0,0,0,0-0.1,0c0,0,0,0,0,0
		C28.6,19.3,28.6,19.2,28.6,19.1L28.6,19.1z"/>
	<path id="XMLID_677_" class="st214" d="M28.7,19.4C28.7,19.4,28.7,19.4,28.7,19.4c0,0.1,0,0.2,0.1,0.2c0,0,0,0.1,0,0.1
		C28.6,19.6,28.6,19.5,28.7,19.4z"/>
	<path id="XMLID_676_" class="st215" d="M24.3,8.4C24.3,8.4,24.2,8.4,24.3,8.4c-0.1,0-0.1,0-0.1,0c0,0-0.1-0.1,0-0.1
		C24.2,8.3,24.2,8.4,24.3,8.4C24.3,8.4,24.3,8.4,24.3,8.4z"/>
	<path id="XMLID_675_" class="st216" d="M21.9,18.7C21.9,18.7,21.8,18.7,21.9,18.7C21.8,18.6,21.8,18.6,21.9,18.7
		c-0.1-0.1-0.1-0.2-0.1-0.2c0-0.2-0.1-0.5,0.1-0.6c0,0,0,0,0,0C21.9,18.1,22,18.4,21.9,18.7z"/>
	<path id="XMLID_674_" class="st217" d="M21.8,18.4c0,0,0,0.1,0,0.2C21.7,18.6,21.8,18.5,21.8,18.4C21.8,18.5,21.8,18.5,21.8,18.4
		C21.8,18.5,21.8,18.5,21.8,18.4C21.8,18.4,21.8,18.4,21.8,18.4z"/>
	<path id="XMLID_673_" class="st218" d="M28.2,17.9C28.1,17.9,28.1,17.9,28.2,17.9C28.1,18,28,18,28,18c0,0,0,0,0-0.1
		c0.1,0,0.2-0.1,0.2-0.1c0.1,0,0.1,0,0.2,0c0,0,0,0,0,0.1C28.3,17.8,28.3,17.9,28.2,17.9z"/>
	<path id="XMLID_672_" class="st219" d="M28.4,17.8C28.4,17.8,28.4,17.8,28.4,17.8c0.1,0,0.1,0,0.1,0.1c0,0,0,0,0,0
		C28.5,17.9,28.5,17.9,28.4,17.8C28.4,17.8,28.4,17.8,28.4,17.8z"/>
	<path id="XMLID_671_" class="st220" d="M27.5,18.2c-0.1,0.1-0.3,0.1-0.4,0.2c0,0,0,0,0,0c0.1-0.1,0.2-0.1,0.2-0.2
		C27.4,18.2,27.4,18.2,27.5,18.2C27.5,18.2,27.5,18.2,27.5,18.2C27.5,18.2,27.5,18.2,27.5,18.2z"/>
	<path id="XMLID_670_" class="st221" d="M27.5,18.2C27.5,18.2,27.5,18.2,27.5,18.2c0-0.1,0.1-0.1,0.2-0.2c0,0,0,0,0,0
		C27.7,18.1,27.7,18.2,27.5,18.2z"/>
	<path id="XMLID_669_" class="st222" d="M27.8,18.1C27.8,18,27.8,18,27.8,18.1c0-0.1,0-0.1,0.1-0.1c0,0,0.1,0,0.1,0c0,0,0,0,0,0
		C28,18,27.9,18.1,27.8,18.1z"/>
	<path id="XMLID_668_" class="st223" d="M25.3,13.4C25.3,13.3,25.3,13.3,25.3,13.4C25.4,13.3,25.4,13.4,25.3,13.4
		c0,0.2,0.1,0.3,0,0.4C25.3,13.6,25.3,13.5,25.3,13.4z"/>
	<path id="XMLID_667_" class="st224" d="M28.7,19.4c0,0.1,0,0.2,0,0.3c0,0,0,0,0,0c0,0,0,0,0,0c0,0,0,0-0.1,0c0-0.1,0-0.1,0-0.2
		c0,0,0-0.1,0-0.1C28.6,19.5,28.6,19.4,28.7,19.4C28.6,19.4,28.6,19.4,28.7,19.4z"/>
	<path id="XMLID_666_" class="st225" d="M24.1,11.9C24.1,11.9,24.1,11.8,24.1,11.9c0.1,0,0.1-0.1,0.2,0
		C24.2,11.9,24.2,11.9,24.1,11.9z"/>
	<path id="XMLID_665_" class="st226" d="M22.3,17.3C22.3,17.3,22.3,17.3,22.3,17.3c0,0.1,0,0.1,0,0.1c-0.1,0.1-0.1,0.2-0.2,0.2
		c0,0,0-0.1,0-0.1c0.1-0.1,0.1-0.1,0.2-0.2C22.3,17.3,22.3,17.3,22.3,17.3z"/>
	<path id="XMLID_664_" class="st227" d="M22.1,17.6c0.1-0.1,0.1-0.2,0.2-0.2c0,0,0,0.1,0,0.1c-0.3,0.3-0.3,0.7-0.2,1.1
		c-0.1,0-0.1,0-0.2,0c0-0.2,0-0.3,0-0.5c0-0.2,0-0.3,0.1-0.4C22,17.8,22,17.7,22.1,17.6z"/>
	<path id="XMLID_663_" class="st228" d="M24.7,9.5C24.7,9.5,24.7,9.5,24.7,9.5c0,0.1,0.1,0.2,0,0.3C24.7,9.7,24.7,9.6,24.7,9.5
		C24.7,9.5,24.7,9.5,24.7,9.5z"/>
	<path id="XMLID_662_" class="st229" d="M23.8,16.5c0-0.2,0.1-0.2,0.2-0.4c0-0.1,0.1-0.1,0.1-0.2c0,0,0.1-0.1,0.1-0.1
		c0,0.2-0.2,0.3-0.3,0.4c0.1,0.3,0.1,0.7,0.1,1.1c0,0.1,0,0.3,0,0.4c0,0.1,0,0.1,0,0.2c0,0,0,0-0.1,0c0-0.4,0-0.8,0-1.2
		c0-0.1,0-0.1,0-0.2C23.9,16.4,23.9,16.4,23.8,16.5z"/>
	<path id="XMLID_661_" class="st230" d="M24.1,17.3c0-0.3-0.1-0.7-0.1-1c0.1,0.1,0.1,0.2,0.1,0.3C24.1,16.8,24.1,17.1,24.1,17.3
		C24.1,17.3,24.1,17.3,24.1,17.3z"/>
	<path id="XMLID_660_" class="st231" d="M24.1,17.3C24.1,17.3,24.1,17.3,24.1,17.3c0,0.1,0,0.3,0,0.4c0,0,0,0,0,0
		C24.1,17.6,24.1,17.4,24.1,17.3z"/>
	<path id="XMLID_659_" class="st232" d="M25.8,19.3c-0.1-0.1-0.1-0.3,0-0.4c0,0,0.1,0,0.1,0.1C26,19.1,25.9,19.2,25.8,19.3z"/>
	<path id="XMLID_658_" class="st124" d="M26.1,18.3c0,0.1,0,0.2,0,0.2C26,18.5,26,18.4,26.1,18.3z"/>
	<path id="XMLID_657_" class="st233" d="M22.9,18.8c0.1-0.1,0.1-0.1,0.1-0.2c0-0.1,0.1-0.2,0.2-0.2c0,0,0.1,0,0.1,0.1
		c0,0.1,0,0.1,0,0.1c0,0,0,0,0,0.1c0,0,0,0,0,0c-0.1,0-0.2,0-0.2,0.1C23,18.8,23,18.8,22.9,18.8C22.9,18.8,22.9,18.7,22.9,18.8z"/>
	<path id="XMLID_656_" class="st234" d="M22.9,18.8C22.9,18.8,22.9,18.8,22.9,18.8C22.9,18.8,22.9,18.8,22.9,18.8
		c-0.2,0-0.2-0.2-0.4-0.1c0,0,0,0,0,0c0,0-0.1,0,0,0c0.1-0.1,0.2-0.1,0.3-0.1c0.1,0,0.1,0,0.1,0.1C22.9,18.6,22.9,18.7,22.9,18.8z"
		/>
	<path id="XMLID_655_" class="st235" d="M22.5,18.6c0.1-0.1,0.2-0.1,0.3,0.1c0,0,0,0.1,0.1,0.1C22.7,18.8,22.6,18.7,22.5,18.6z"/>
	<path id="XMLID_654_" class="st236" d="M22.2,18c0,0.1,0,0.1,0,0.2c0,0.1,0,0.2,0,0.3c0,0,0,0.1,0,0.1C22.2,18.4,22.2,18.2,22.2,18
		z"/>
	<path id="XMLID_653_" class="st237" d="M23.2,18.6c0.1,0,0.2,0,0.2,0.2c0,0,0,0,0,0C23.4,18.7,23.3,18.6,23.2,18.6
		C23.2,18.6,23.2,18.6,23.2,18.6C23.2,18.6,23.2,18.6,23.2,18.6C23.2,18.6,23.2,18.6,23.2,18.6z"/>
	<path id="XMLID_652_" class="st238" d="M23.5,18.8C23.5,18.7,23.5,18.7,23.5,18.8c0.1,0,0.1,0.1,0.2,0.1c0,0,0.1,0,0.1,0
		C23.6,19,23.5,19,23.5,18.8z"/>
	<path id="XMLID_651_" class="st239" d="M23.7,18.9c0,0-0.1,0-0.1,0c0.1,0,0.2,0,0.3,0c0,0,0,0,0,0c0,0,0,0,0,0
		C23.9,18.9,23.8,18.9,23.7,18.9z"/>
	<path id="XMLID_650_" class="st240" d="M23.2,18.6C23.2,18.6,23.2,18.6,23.2,18.6c-0.1,0-0.1,0.1-0.2,0.1
		C23,18.5,23.1,18.5,23.2,18.6z"/>
	<path id="XMLID_649_" class="st241" d="M22.5,18.6C22.5,18.6,22.5,18.6,22.5,18.6c-0.1,0.1-0.1,0.1-0.2,0
		C22.4,18.5,22.4,18.6,22.5,18.6z"/>
	<path id="XMLID_648_" class="st242" d="M22.2,18.5c0-0.1,0-0.2,0-0.3c0,0,0,0,0,0C22.3,18.3,22.3,18.4,22.2,18.5
		C22.2,18.5,22.2,18.5,22.2,18.5z"/>
	<path id="XMLID_647_" class="st50" d="M21.8,18.5c0,0,0,0.1,0.1,0.1c0,0,0,0,0,0C21.7,18.6,21.8,18.5,21.8,18.5z"/>
	<path id="XMLID_646_" class="st243" d="M24,17.9C24,17.9,24,17.9,24,17.9c0.1,0.2,0,0.4,0,0.5c-0.1-0.1,0-0.1,0-0.2
		C24,18.1,24,18,24,17.9z"/>
	<path id="XMLID_645_" class="st244" d="M24,18.2c0,0.1,0,0.1,0,0.2c0,0.1,0,0.3,0,0.4c-0.1,0,0,0,0-0.1C24,18.5,23.9,18.4,24,18.2z
		"/>
	<path id="XMLID_644_" class="st245" d="M24,18.7C24,18.7,24,18.8,24,18.7c0,0.1,0,0.2,0,0.2c0,0,0,0,0,0
		C23.9,18.8,23.9,18.8,24,18.7z"/>
	<path id="XMLID_643_" class="st10" d="M25.3,19.5c-0.2,0.1-0.3,0-0.4,0c0,0,0-0.1,0-0.1c0,0,0.1-0.1,0.1,0
		C25.1,19.4,25.2,19.5,25.3,19.5z"/>
	<path id="XMLID_642_" class="st246" d="M24.1,13.8c0-0.3,0-0.7,0.2-0.9c0.4-0.4,0.7-0.3,1,0.2c0.1,0.1,0.1,0.3,0,0.4
		c-0.1,0.2-0.1,0.3-0.1,0.5c0,0,0,0.1,0,0.1c0,0.1,0,0.2-0.1,0.2c-0.3,0.2-0.5,0.1-0.7-0.2C24.2,14,24.2,13.9,24.1,13.8z"/>
	<path id="XMLID_641_" class="st247" d="M22.6,14.1c-0.1-0.2-0.2-0.4-0.1-0.6c0.1-0.1,0.1-0.2,0.2-0.3c0.3-0.3,0.7-0.2,0.9,0.1
		c0,0,0,0.1,0,0.1c-0.1,0-0.2-0.1-0.2-0.1c-0.2-0.1-0.4-0.1-0.6,0.1C22.5,13.6,22.6,13.8,22.6,14.1C22.6,14.1,22.6,14.1,22.6,14.1
		C22.6,14.2,22.6,14.2,22.6,14.1z"/>
	<path id="XMLID_640_" class="st248" d="M23.6,13.3c-0.2-0.3-0.5-0.3-0.9-0.1c0-0.2,0.2-0.2,0.3-0.2c0.5-0.1,0.8,0.2,0.9,0.7
		c0,0.1,0,0.2-0.1,0.2c0,0,0,0,0,0c0,0,0,0,0,0C23.7,13.8,23.7,13.5,23.6,13.3z"/>
	<path id="XMLID_639_" class="st249" d="M23.6,13.3c0.2,0.2,0.2,0.4,0.1,0.7c0,0-0.1,0.1-0.1,0.1c0,0.1-0.1,0.1-0.2,0.1
		c0,0,0,0,0-0.1c0,0,0-0.1,0-0.1c0.2-0.2,0.2-0.4,0.1-0.6C23.6,13.5,23.5,13.4,23.6,13.3C23.6,13.4,23.6,13.3,23.6,13.3z"/>
	<path id="XMLID_638_" class="st250" d="M23.5,14.5c-0.3,0.2-0.5,0.1-0.8,0c-0.1-0.1-0.1-0.1,0-0.1c0.1,0,0.1,0,0.1,0
		c0.2,0.1,0.3,0.1,0.5,0c0.1,0,0.2-0.1,0.3-0.2c0.1,0,0.1,0,0,0.1C23.6,14.4,23.6,14.5,23.5,14.5z"/>
	<path id="XMLID_637_" class="st251" d="M25.1,14c0-0.1,0-0.3,0.1-0.4c0.1-0.2,0.1-0.3,0.1-0.5c0,0,0,0,0,0c0,0.1,0,0.2,0.1,0.3
		c0,0,0,0.1,0,0.1C25.1,13.6,25.2,13.8,25.1,14C25.1,14,25.1,14,25.1,14z"/>
	<path id="XMLID_636_" class="st252" d="M23.6,12.9C23.6,12.9,23.6,12.9,23.6,12.9c0.1-0.1,0.2-0.2,0.4-0.2c0.2,0.1,0.1,0.2,0,0.4
		c0,0,0,0.1-0.1,0c0,0,0-0.1,0-0.1c0,0,0,0,0,0c0,0,0,0,0,0c0-0.1,0.1-0.1,0-0.2c-0.1-0.1-0.1,0-0.2,0C23.7,12.9,23.6,13,23.6,12.9z
		"/>
	<path id="XMLID_635_" class="st253" d="M23.6,14.3c0,0.1-0.1,0.2-0.2,0.2c-0.1,0-0.1-0.1-0.1-0.1c0-0.1,0.1-0.1,0.2-0.1
		c0.1,0,0.1-0.1,0.2-0.1C23.7,14.2,23.6,14.2,23.6,14.3z"/>
	<path id="XMLID_634_" class="st254" d="M23.7,12.9c0.1-0.1,0.2-0.2,0.3-0.1c0.1,0.1,0.1,0.2,0,0.3c0,0,0,0,0,0
		C24,12.8,23.9,12.8,23.7,12.9C23.8,12.9,23.7,12.9,23.7,12.9z"/>
	<path id="XMLID_633_" class="st255" d="M23.8,12.9c0,0,0.1-0.1,0.2,0c0.1,0.1,0,0.1,0,0.2c0,0,0,0,0,0c0,0,0,0,0,0
		C23.9,12.9,23.9,12.9,23.8,12.9z"/>
	<path id="XMLID_632_" class="st251" d="M25,14.3c0-0.1,0-0.2,0.1-0.2c0.1,0,0.1,0,0,0.1C25.1,14.2,25.1,14.3,25,14.3z"/>
	<path id="XMLID_631_" class="st174" d="M25.1,14.1C25.1,14.1,25.1,14.1,25.1,14.1c0-0.1,0-0.1,0-0.2c0,0,0,0,0.1,0
		C25.2,14,25.2,14.1,25.1,14.1z"/>
	<path id="XMLID_630_" class="st174" d="M25.3,13.7c0,0.1,0,0.2,0,0.2C25.3,13.8,25.2,13.7,25.3,13.7z"/>
	<path id="XMLID_629_" class="st256" d="M23.3,14.3c0,0,0,0.1,0,0.1c-0.2,0.1-0.4,0.1-0.6,0c-0.1,0-0.1,0-0.1,0c0,0-0.1,0-0.1,0
		c0-0.1-0.1-0.3-0.1-0.4c0,0,0,0,0,0C22.8,14.3,23.1,14.3,23.3,14.3z"/>
	<path id="XMLID_628_" class="st257" d="M22.3,14.3c0-0.3-0.2-0.4-0.3-0.7C22.2,13.7,22.4,14.1,22.3,14.3z"/>
	<path id="XMLID_627_" class="st258" d="M24.1,15.3c-0.1,0.2-0.4,0.4-0.6,0.3C23.8,15.6,24,15.5,24.1,15.3
		C24.1,15.3,24.1,15.3,24.1,15.3z"/>
	<path id="XMLID_626_" class="st259" d="M23.4,12.4C23.4,12.4,23.4,12.5,23.4,12.4c-0.1,0.1-0.1,0-0.1,0
		C23.3,12.3,23.3,12.3,23.4,12.4C23.4,12.3,23.4,12.4,23.4,12.4z"/>
	<path id="XMLID_625_" class="st260" d="M28.4,17.8c0,0,0.1,0.1,0.1,0.1c0.1,0.2,0,0.4,0.1,0.5c0,0.2,0,0.4,0,0.6
		c-0.1,0-0.1-0.1-0.1-0.2c0-0.3,0-0.5,0-0.8C28.5,18,28.4,17.9,28.4,17.8z"/>
	<path id="XMLID_624_" class="st261" d="M28.6,19.4c0,0.1,0,0.1,0,0.2c-0.1-0.1-0.1-0.3,0-0.4C28.6,19.2,28.6,19.3,28.6,19.4z"/>
	<path id="XMLID_623_" class="st261" d="M28.6,19.6c0,0.1,0,0.1,0,0.2c0,0,0,0.1,0,0C28.6,19.7,28.6,19.7,28.6,19.6z"/>
	<path id="XMLID_622_" class="st262" d="M27.8,18.1c0.1,0,0.1-0.1,0.2-0.1c0,0,0.1,0,0.1,0c-0.2,0.1-0.3,0.3-0.6,0.3c0,0,0,0,0,0
		C27.6,18.2,27.7,18.1,27.8,18.1z"/>
	<path id="XMLID_621_" class="st263" d="M28.1,19.5c0-0.2,0-0.5,0-0.7c0,0,0,0,0,0C28.2,19.1,28.2,19.3,28.1,19.5L28.1,19.5
		C28.1,19.6,28.1,19.6,28.1,19.5C28.1,19.6,28.1,19.5,28.1,19.5z"/>
	<path id="XMLID_620_" class="st176" d="M28.2,20.6c0-0.1,0-0.2,0-0.3C28.3,20.4,28.2,20.5,28.2,20.6C28.2,20.6,28.2,20.6,28.2,20.6
		z"/>
	<path id="XMLID_619_" class="st176" d="M28.1,19.6C28.1,19.6,28.1,19.6,28.1,19.6c0,0.1,0,0.2,0,0.2C28.1,19.8,28.1,19.7,28.1,19.6
		z"/>
	<path id="XMLID_618_" class="st264" d="M23.4,17c0.1-0.1,0.1-0.3,0.3-0.3C23.6,16.8,23.5,16.9,23.4,17C23.4,17,23.4,17,23.4,17z"/>
	<path id="XMLID_617_" class="st265" d="M23.4,17C23.4,17,23.4,17,23.4,17c0,0.1,0,0.1-0.1,0.2c0,0,0,0,0,0
		C23.3,17.1,23.3,17,23.4,17z"/>
	<path id="XMLID_616_" class="st266" d="M23.7,16.6c0-0.1,0-0.2,0.1-0.2C23.8,16.5,23.8,16.6,23.7,16.6z"/>
	<path id="XMLID_615_" class="st267" d="M25.2,13.3c0,0.2-0.1,0.3-0.2,0.6c0,0,0,0,0,0c-0.2,0-0.2,0.2-0.2,0.3
		c0,0.2-0.1,0.1-0.2,0.1c-0.2-0.1-0.4-0.3-0.4-0.6c0-0.2,0-0.4,0.1-0.7c0.1-0.2,0.3-0.4,0.5-0.3C25,12.7,25.2,13,25.2,13.3z"/>
	<path id="XMLID_614_" class="st268" d="M24.8,14.2c0-0.1,0-0.2,0.1-0.2C25,14,25,14,25,14.1c0,0.1,0,0.2-0.1,0.2
		C24.8,14.3,24.8,14.2,24.8,14.2z"/>
	<path id="XMLID_613_" class="st269" d="M23.6,13.5c0.1,0.3,0.1,0.5-0.2,0.7c-0.2,0.2-0.7,0.2-0.8-0.1c-0.1-0.3-0.1-0.5,0.1-0.8
		c0.2-0.1,0.3-0.1,0.5-0.1C23.4,13.3,23.5,13.3,23.6,13.5z"/>
	<path id="XMLID_612_" class="st270" d="M22.6,14.1c0.2,0.3,0.5,0.3,0.8,0.1c0,0,0,0,0,0c-0.1,0-0.1,0.1-0.2,0.1
		C23.1,14.4,22.8,14.4,22.6,14.1C22.6,14.1,22.6,14.1,22.6,14.1z"/>
	<path id="XMLID_611_" class="st271" d="M23.3,13.3c-0.2,0-0.4,0-0.5,0.1c0.2-0.2,0.4-0.2,0.6-0.1C23.4,13.3,23.3,13.3,23.3,13.3z"
		/>
	<path id="XMLID_610_" class="st272" d="M23.3,13.3c0,0,0.1,0,0.1,0c0.1,0,0.1,0.1,0.2,0.1c0,0,0,0.1,0,0.1
		C23.5,13.4,23.4,13.3,23.3,13.3z"/>
	<path id="XMLID_609_" class="st273" d="M23.2,14.1C23.2,14.1,23.1,14.2,23.2,14.1c-0.1,0.1-0.1,0-0.1,0C23,14,23.1,14,23.2,14.1
		C23.2,14,23.2,14,23.2,14.1z"/>
</g>
</svg>
