<?xml version="1.0" encoding="utf-8"?>
<!-- Generator: Adobe Illustrator 19.0.0, SVG Export Plug-In . SVG Version: 6.00 Build 0)  -->
<svg version="1.1" id="Layer_2" xmlns="http://www.w3.org/2000/svg" xmlns:xlink="http://www.w3.org/1999/xlink" x="0px" y="0px"
	 viewBox="0 0 50 50" style="enable-background:new 0 0 50 50;" xml:space="preserve">
<style type="text/css">
	.st0{fill:#0D0D0D;}
	.st1{fill:#0E0D0D;}
	.st2{fill:#111010;}
	.st3{fill:#111111;}
	.st4{fill:#21201F;}
	.st5{fill:#E6E4E4;}
	.st6{fill:#BEBCBC;}
	.st7{fill:none;}
	.st8{fill:#389545;}
	.st9{fill:#8CBC40;}
	.st10{fill:#8DBC40;}
	.st11{fill:#3B9645;}
	.st12{fill:#449B46;}
	.st13{fill:#F4F9EB;}
	.st14{fill:#459B46;}
	.st15{fill:#479B46;}
	.st16{fill:#DFDCDC;}
	.st17{fill:#8FBD42;}
	.st18{fill:#78A141;}
	.st19{fill:#8BBC41;}
	.st20{fill:#9BC256;}
	.st21{fill:#90BD3F;}
	.st22{fill:#9EC459;}
	.st23{fill:#D9DAD3;}
	.st24{fill:#EFEEED;}
	.st25{fill:#DADAD4;}
	.st26{fill:#D6E4B5;}
	.st27{fill:#A4C75E;}
	.st28{fill:#C7DA9D;}
	.st29{fill:#E3ECCD;}
	.st30{fill:#E9EFDA;}
	.st31{fill:#DBE6C3;}
	.st32{fill:#E0DEDE;}
	.st33{fill:#C3D994;}
	.st34{fill:#D9D8D6;}
	.st35{fill:#DCDAD9;}
	.st36{fill:#A4C75F;}
	.st37{fill:#DFDEDE;}
	.st38{fill:#CDCBCA;}
	.st39{fill:#D4E2B6;}
	.st40{fill:#A1C558;}
	.st41{fill:#ACCB73;}
	.st42{fill:#176C37;}
	.st43{fill:#197039;}
	.st44{fill:#197139;}
	.st45{fill:#419946;}
	.st46{fill:#1C733A;}
	.st47{fill:#F4F8EB;}
	.st48{fill:#1B753B;}
	.st49{fill:#E6F1D4;}
	.st50{fill:#F3F8EA;}
	.st51{fill:#F3F8EB;}
	.st52{fill:#379645;}
	.st53{fill:#3A9645;}
	.st54{fill:#F4F8EA;}
	.st55{fill:#F0F5E7;}
	.st56{fill:#399545;}
	.st57{fill:#EFF6E5;}
	.st58{fill:#389445;}
	.st59{fill:#78B243;}
	.st60{fill:#267F3F;}
	.st61{fill:#599F44;}
</style>
<g id="XMLID_1_">
	<path id="XMLID_471_" class="st0" d="M49.9,26.8c0,0.6-0.1,1.2-0.2,1.9c-0.2,1.7-0.6,3.3-1.2,4.9c-2.7,7.1-7.6,12-14.7,14.8
		c-1.6,0.6-3.3,1-5,1.3C27,50,25.2,50,23.4,49.9c-4.8-0.3-9.2-1.9-13.1-4.8c-0.7-0.5-1.4-1.1-2.1-1.7c0,0,0,0-0.1-0.1
		c0,0,0-0.1,0-0.1c0.2,0.1,0.3,0.2,0.4,0.3c1.3,1.1,2.6,2.1,4.1,3c1.4,0.8,2.9,1.5,4.5,2c1.5,0.5,3,0.9,4.5,1.1
		c0.8,0.1,1.6,0.2,2.3,0.2c0.6,0,1.2,0,1.8,0c1.6-0.1,3.1-0.2,4.6-0.6c1.6-0.3,3.1-0.8,4.6-1.5c1.5-0.7,2.9-1.4,4.3-2.4
		c1-0.7,2-1.5,2.9-2.4c1.8-1.7,3.2-3.5,4.4-5.6c0.8-1.4,1.5-2.9,2-4.5c0.6-1.7,0.9-3.4,1.1-5.1c0-0.4,0-0.7,0.1-1.1
		c0-0.1,0-0.1,0.1-0.2C49.9,26.6,49.9,26.7,49.9,26.8z"/>
	<path id="XMLID_470_" class="st1" d="M8.1,6.7c0.4-0.3,0.8-0.7,1.2-1c3.1-2.5,6.5-4.2,10.4-5c2.1-0.5,4.2-0.7,6.3-0.6
		c5.6,0.2,10.5,2.1,14.9,5.6c0.9,0.7,1.8,1.6,2.6,2.4c0.1,0.1,0.2,0.2,0.3,0.3c0,0,0,0.1,0,0.1c-0.1,0-0.1-0.1-0.2-0.1
		c-0.3-0.3-0.6-0.7-0.9-1c-1.7-1.6-3.5-3-5.5-4.2c-1.3-0.7-2.7-1.3-4.1-1.8c-1.5-0.5-3.1-0.9-4.7-1.1c-0.7-0.1-1.4-0.1-2.1-0.2
		c-0.6,0-1.1,0-1.7,0c-0.8,0-1.6,0.1-2.4,0.2c-1.2,0.1-2.3,0.4-3.4,0.7c-1.5,0.4-2.9,0.9-4.2,1.6c-1.8,0.9-3.5,2-5.1,3.2
		C9,6.2,8.6,6.5,8.3,6.7C8.2,6.8,8.2,6.8,8.1,6.7C8.1,6.8,8.1,6.8,8.1,6.7z"/>
	<path id="XMLID_469_" class="st2" d="M43.6,8.6C43.7,8.5,43.7,8.5,43.6,8.6c0.6,0.6,1.2,1.3,1.7,2c2,2.9,3.4,6,4.1,9.4
		c0.4,2.1,0.6,4.2,0.5,6.4c0,0.2,0,0.3,0,0.5c0-0.1,0-0.2,0-0.3c-0.1-0.1-0.1-0.3,0-0.5c0-0.7,0-1.3,0-2c0-0.3,0-0.6,0-0.8
		c-0.1-1.1-0.2-2.2-0.5-3.2c-0.2-1-0.5-1.9-0.8-2.9c-0.3-1-0.7-1.9-1.2-2.9c-0.9-1.9-2-3.6-3.4-5.2C43.8,8.9,43.7,8.8,43.6,8.6z"/>
	<path id="XMLID_468_" class="st2" d="M0.2,26.5c-0.1-1.1-0.1-2.2,0-3.3c0.1-1.6,0.4-3.2,0.8-4.8C2,15,3.5,12,5.7,9.3
		C5.9,9,6.1,8.8,6.4,8.5c0,0,0.1,0.1,0.1,0.1C6.3,8.8,6.2,8.9,6.1,9.1c-1.1,1.3-2,2.6-2.8,4c-0.6,1.1-1.1,2.2-1.6,3.4
		c-0.6,1.5-0.9,3.1-1.2,4.7c-0.1,0.7-0.2,1.3-0.2,2c-0.1,0.9-0.1,1.9-0.1,2.8c0,0.1,0,0.2,0,0.3C0.2,26.4,0.2,26.4,0.2,26.5z"/>
	<path id="XMLID_467_" class="st3" d="M8.2,43.3C8.2,43.3,8.1,43.3,8.2,43.3c-0.9-0.8-1.8-1.7-2.5-2.6c-2.3-2.9-3.9-6.1-4.8-9.7
		c-0.3-1.2-0.5-2.4-0.6-3.6c0-0.1,0-0.2,0-0.4c0-0.1,0-0.2,0-0.3c0.1,0,0.1,0.1,0.1,0.1c0.1,0.9,0.2,1.7,0.3,2.5
		c0.2,1,0.4,1.9,0.7,2.9c0.4,1.3,0.9,2.5,1.5,3.7c0.8,1.7,1.8,3.3,3,4.8c0.6,0.7,1.2,1.4,1.8,2c0.1,0.1,0.3,0.2,0.4,0.4
		C8.1,43.2,8.2,43.2,8.2,43.3z"/>
	<path id="XMLID_466_" class="st4" d="M6.4,8.6C6.4,8.6,6.4,8.5,6.4,8.6c0.5-0.7,1.1-1.3,1.7-1.9c0,0,0,0.1,0,0.1
		C8.1,7,8,7.1,7.9,7.2C7.4,7.5,7,8,6.6,8.4C6.5,8.5,6.5,8.6,6.4,8.6z"/>
	<path id="XMLID_465_" class="st3" d="M0.2,26.5c0.1-0.2,0-0.3,0-0.5c0.1,0.1,0.1,0.2,0.1,0.3c0,0.1,0,0.1,0,0.2
		c0,0.1,0,0.2-0.1,0.3C0.1,26.7,0.2,26.6,0.2,26.5z"/>
	<path id="XMLID_464_" class="st5" d="M45.4,7.5c0-0.1,0-0.2,0-0.4C45.5,7.3,45.4,7.4,45.4,7.5z"/>
	<path id="XMLID_463_" class="st2" d="M0.2,26.8c0-0.1,0-0.2,0-0.3c0.1,0.1,0.1,0.1,0,0.2c0,0.1,0,0.2,0,0.3
		C0.2,27,0.2,26.9,0.2,26.8z"/>
	<path id="XMLID_462_" class="st6" d="M47.1,40.9c0,0.1,0,0.1,0,0.2C47,41,47,40.9,47.1,40.9z"/>
	<path id="XMLID_461_" class="st7" d="M0.2,26.7c0-0.1,0-0.1,0-0.2c0-0.2,0-0.3,0-0.5c0-0.7,0-1.4,0-2.1c0.1-2.1,0.4-4.1,1-6
		c1-3.4,2.7-6.4,5-9.1c0.1-0.1,0.1-0.1,0.2-0.2C7,8,7.5,7.4,8.1,6.8c0.8-0.7,1.6-1.4,2.4-2c2.9-2.1,6.1-3.5,9.5-4.2
		c2.1-0.4,4.3-0.6,6.4-0.4c5.4,0.3,10.2,2.2,14.3,5.7c1,0.8,1.8,1.6,2.7,2.6c0,0,0.1,0.1,0.1,0.1c0.7,0.8,1.4,1.7,2,2.6
		c1.8,2.7,3.1,5.6,3.7,8.8c0.4,2.1,0.6,4.2,0.5,6.3c0,0.1,0,0.2,0,0.3c-0.1,1.2-0.2,2.3-0.5,3.5c-0.8,3.7-2.3,7.1-4.6,10.1
		c-2.8,3.7-6.4,6.3-10.6,8c-1.8,0.7-3.6,1.2-5.5,1.5c-1.7,0.2-3.4,0.3-5.1,0.2c-5.2-0.3-9.9-2.1-14-5.4c-0.5-0.4-0.9-0.8-1.3-1.1
		c-0.6-0.6-1.2-1.2-1.7-1.8c-2.8-3.1-4.6-6.7-5.6-10.8c-0.3-1.3-0.5-2.6-0.6-3.9C0.3,26.8,0.2,26.8,0.2,26.7z"/>
	<path id="XMLID_460_" class="st8" d="M38.8,20.7c0.1,0.2,0.3,0.2,0.5,0.2c0.1,0,0.2-0.1,0.2,0.1c0.1,0.2,0,0.3,0,0.5
		c0,0.5,0,1,0.4,1.4c0.1,0.1,0.2,0.3,0.2,0.5c0,0.3,0,0.7,0,1c0,0.1,0,0.2,0.1,0.3c0.2,0.5,0.1,1-0.1,1.5c-0.1,0.2-0.3,0.4-0.6,0.5
		c-0.3,0.1-0.4,0.1-0.3,0.5c0.1,0.5,0,0.9-0.1,1.3c-0.1,0.4-0.2,0.7-0.4,1.1c0,0,0,0.1-0.1,0.1c-0.1,0.1-0.2,0.2-0.4,0.1
		c-0.1-0.1,0-0.2,0-0.4c0.2-0.4,0.2-0.9,0.1-1.3c-0.3,0.7-0.9,1.3-1.3,2c-0.1,0.1-0.3,0.3-0.4,0.4c-0.4,0.3-0.6,0.6-0.9,1
		c-0.1,0.1-0.1,0.1-0.2,0.2c-0.1,0.1-0.2,0.1-0.3,0.1c-0.2,0.1-0.3,0.2-0.4,0.3c-0.2,0.5-0.5,0.8-0.8,1.2c-0.2,0.2-0.5,0.3-0.8,0.4
		c-0.5,0.1-0.9,0.3-1.4,0.4c-0.1,0-0.3,0.1-0.5,0.1c-0.1,0-0.2,0-0.2-0.1c0-0.1,0.1-0.1,0.1-0.1c0.1,0,0.1-0.1,0.2-0.1
		c0.1-0.1,0.1-0.2,0-0.3c0-0.1-0.1-0.1-0.2-0.1c-0.1,0-0.2,0-0.2,0c0-0.1,0.1-0.1,0.1-0.2c0.1-0.1,0.3-0.1,0.5-0.1
		c1.1-0.2,2-0.7,2.7-1.6c0-0.1,0.1-0.1,0.1-0.2c0.2-0.7,0.6-1.3,0.9-1.9c0.1-0.3,0.2-0.5,0.3-0.8c0.5-1,0.6-2,0.6-3
		c0-0.7-0.3-1.4-0.5-2.1c-0.1-0.3-0.2-0.5-0.2-0.8c0,0,0-0.1-0.1-0.1c-0.1,0-0.1,0.1-0.1,0.1c0,0.1,0,0.3,0.1,0.4
		c0.2,0.6,0.4,1.1,0.5,1.7c0.1,0.4,0.1,0.7,0,1.1c0,0.1,0,0.2-0.1,0.2c-0.1,0-0.2,0-0.2-0.1c-0.1-0.1-0.1-0.2-0.1-0.2
		c-0.1-0.6-0.4-1.2-0.6-1.8c-0.2-0.6-0.4-1.1-0.5-1.7c0-0.2,0-0.4,0-0.6c0-0.3-0.1-0.5-0.3-0.7c-0.2-0.2-0.3-0.4-0.4-0.6
		c-0.1-0.2-0.2-0.5-0.3-0.7c-0.1-0.1-0.1-0.3,0.1-0.4c0,0,0,0,0.1-0.1c0.4-0.2,0.3-0.4,0.2-0.7c-0.1-0.2-0.2-0.4-0.4-0.6
		c-0.1-0.1-0.2-0.3-0.1-0.4c0.1-0.1,0.3-0.1,0.4-0.2c0.4-0.5,0.4-0.9-0.1-1.3c-0.2-0.2-0.4-0.2-0.7,0c-0.1,0-0.1,0.1-0.2,0.1
		c0,0,0,0-0.1,0c-0.6-0.5-1.2-0.9-1.9-1.2c-0.5-0.2-1-0.4-1.5-0.4c-0.2-0.1-0.4-0.2-0.6-0.2c-0.2,0-0.4-0.1-0.5-0.2
		c-0.2-0.1-0.3-0.2-0.4-0.5c0-0.1,0.1-0.2,0.1-0.3c0.2-0.3,0.1-0.5-0.2-0.6c-0.2-0.1-0.4-0.1-0.5-0.1c-0.2,0.1-0.3,0.2-0.3,0.4
		c0,0.1,0.1,0.2,0.1,0.3c0,0.1-0.1,0.1-0.2,0.1c-0.1,0-0.2-0.1-0.3-0.2c-0.4-0.5-1-0.7-1.6-0.6c-0.1,0-0.2,0-0.3-0.1
		c-0.1-0.1,0-0.2,0-0.3c0-0.1,0.1-0.1,0.1-0.2c0-0.1,0-0.2-0.1-0.2c0,0-0.1,0-0.1,0c-0.8,0-1.6,0-2.4,0.4c-0.3,0.2-0.6,0.2-0.9,0.4
		c-0.1,0.1-0.2,0.1-0.3,0.3c0.1,0,0.2,0,0.2-0.1c0.6-0.3,1.2-0.4,1.9-0.6c0.1,0,0.2,0,0.2,0c0.2,0,0.4,0,0.4,0.2
		c0.1,0.3,0.3,0.4,0.6,0.5c0.1,0,0.2,0,0.2,0.2c-0.3,0.1-0.5,0-0.8,0c-0.3-0.1-0.7-0.1-1,0c0,0,0,0,0,0c0,0,0,0,0,0
		c0.2,0,0.4,0,0.7,0.1c0.2,0.1,0.3,0.3,0.2,0.5c0,0.1-0.1,0-0.1,0c-0.5-0.4-1.1-0.5-1.6-0.2c-0.3,0.2-0.5,0.4-0.8,0.6
		c-0.1,0.1-0.2,0.2-0.3,0.2c-0.1-0.1-0.2-0.1-0.3,0c-0.3,0.2-0.6,0.4-1,0.4c0.1,0,0.2,0.1,0.2,0.2c-0.1,0.1-0.2,0.1-0.2,0.1
		c-0.3,0.1-0.6,0.2-0.8,0.6c0,0,0,0,0,0c0-0.1,0-0.1-0.1,0c-0.4,0.3-0.8,0.6-1.2,0.9c0,0-0.1,0-0.1,0.1c-0.1,0-0.1,0.1-0.1,0.2
		c0,0.1,0.1,0.1,0.2,0.1c0.1,0,0.1,0,0.2,0c0,0.1-0.1,0.2-0.2,0.2c-0.1,0.1-0.2,0.1-0.3-0.1c-0.1-0.1-0.1-0.2-0.1-0.3
		c-0.1-0.1-0.2-0.2-0.3-0.1c-0.1,0.1-0.2,0.1-0.3,0.2c-0.4,0.3-0.8,0.4-1.3,0.4c-0.2-0.1-0.3-0.2-0.3-0.4c0-0.2-0.1-0.3-0.1-0.5
		c0-0.1,0.1-0.2,0.2-0.2c0.2-0.1,0.3-0.2,0.5-0.2c0,0.1,0,0.1,0,0.2c0,0.1,0,0.2,0.1,0.2c0.1,0,0.2,0,0.2-0.1
		c0.1-0.1,0.1-0.2,0.1-0.4c0-0.1,0-0.1,0-0.2c0-0.2,0.2-0.3,0.3-0.4c0.3-0.2,0.6-0.3,0.8-0.5c-0.2,0.1-0.4,0.2-0.6,0.2
		c-0.8,0.3-1.6,0.6-2.5,0.9c-0.1,0-0.1,0-0.2,0c0,0,0,0,0,0c-0.4-0.2-0.5-0.1-0.7,0.3c0,0.1-0.1,0.2-0.1,0.3
		c-0.1,0.3-0.2,0.5-0.2,0.8c0,0.2-0.1,0.4-0.3,0.6c-0.1,0.2-0.2,0.2-0.4,0c-0.1-0.1-0.3-0.2-0.5-0.3c-0.1,0-0.2-0.1-0.1-0.2
		c0.1-0.3,0.2-0.6,0.4-0.9c0-0.1,0.1-0.1,0.1-0.1c0.1,0,0.1,0.1,0.1,0.1c0,0.1,0.1,0,0.1,0c0.4,0,0.6-0.3,0.6-0.6
		c0.1-0.2,0.3-0.4,0.5-0.6c0.4-0.6,0.9-1.1,1.3-1.6l0,0c0,0,0.1-0.1,0.1-0.1c0.1,0,0.1,0.1,0.1,0.2c0.1,0.2,0.3,0.2,0.4,0
		c0-0.1,0.1-0.1,0.1-0.2c0,0,0.1,0,0.1,0c0.3,0,0.5-0.1,0.7-0.3c0.2-0.2,0.4-0.3,0.7-0.4c0.1-0.1,0.2-0.1,0.3-0.2
		c0.1-0.1,0.2-0.3,0.2-0.5c0-0.1,0-0.1,0-0.2c0.3-0.2,0.7-0.4,1.1-0.5c0.1,0,0.2-0.1,0.3,0c0.1,0.2,0,0.4,0,0.5
		c0,0.3,0.1,0.4,0.4,0.3c0.4-0.1,0.6-0.5,0.3-0.8c0-0.1-0.1-0.1-0.2-0.2c-0.1-0.2,0-0.3,0.1-0.4c0.1-0.1,0.1-0.1,0.2-0.2
		c0.1-0.1,0.2-0.3,0.3-0.4c0.3-0.4,0.6-0.6,1.1-0.5c0.2,0,0.3,0,0.4-0.1c0.5-0.3,1-0.3,1.5-0.2c0.3,0,0.6,0.1,0.9,0
		c0.1,0,0.2,0,0.2,0.2c0,0.3,0.2,0.6,0.5,0.6c0.1,0,0.3,0,0.4,0c0.4,0,0.7,0.1,0.9,0.4c0.3,0.5,0.5,0.5,1,0.3c0.1,0,0.1,0,0.2-0.1
		c0.5-0.2,0.7-0.1,1,0.2c0.2,0.2,0.4,0.2,0.6,0.3c0.2,0,0.5,0.1,0.7,0.2c0.1,0,0.2,0.1,0.2,0.2c0,0,0,0.1,0,0.1c0,0.2,0,0.3,0.1,0.4
		c0.2,0.1,0.3,0,0.4-0.1c0.2-0.1,0.3-0.1,0.5,0c0.1,0.1,0.3,0.2,0.4,0.3c0.2,0.1,0.3,0.1,0.4-0.1c0.1-0.2,0.2-0.3,0.4-0.2
		c0.7,0.1,1.3,0.4,1.8,0.7c0,0,0.1,0,0.1,0.1c0,0,0.1,0.1,0.1,0.1c0,0.1-0.1,0.1-0.1,0.1c-0.1,0-0.1,0-0.2,0c-0.1,0-0.2,0-0.2,0.1
		c0,0.1,0,0.2,0.1,0.2c0.1,0,0.1,0,0.2,0c0.7,0.1,1.3,0.4,1.8,0.7c0.3,0.2,0.6,0.5,0.8,0.8c0.1,0.1,0.1,0.2,0.2,0.2
		c0.1,0.1,0.1,0.1,0.2,0.1c0.1,0,0.1-0.1,0.1-0.2c0-0.1-0.1-0.2-0.1-0.4c0-0.1-0.1-0.3,0.1-0.4c0,0,0.1,0,0.1,0
		c0.1,0,0.1,0.1,0.2,0.1c0.1,0.1,0.3,0.2,0.5,0.2c0,0,0.1,0,0.1,0c0.1,0,0.2,0.1,0.2,0.2c0,0.1-0.1,0.2-0.2,0.2
		c-0.2,0.1-0.2,0.2-0.1,0.4c0.3,0.4,0.6,0.8,0.8,1.2c0.1,0.1,0.1,0.2,0.2,0.4c0.1,0.1,0.1,0.3,0.3,0.4C38,17.8,38,17.9,38,18.1
		c-0.1,0.1-0.2,0-0.3-0.1c-0.2-0.1-0.4-0.1-0.6,0c-0.2,0.1-0.3,0.3-0.2,0.5c0.1,0.6,0.4,1.1,0.8,1.5c0.1,0.1,0.2,0.1,0.3,0.1
		c0.1,0,0.1-0.1,0.2-0.1c0,0,0.1,0.1,0.1,0.1c0.1,0.1,0.2,0.2,0.4,0.1c0.1,0,0.1,0,0.2,0C38.8,20.4,38.8,20.5,38.8,20.7z"/>
	<path id="XMLID_459_" class="st9" d="M38.6,29.6c0.1-0.5,0.3-1,0.4-1.4c0.1-0.4,0.1-0.7,0-1.1c0-0.2,0.1-0.4,0.3-0.4
		c0.3-0.1,0.5-0.2,0.6-0.5c0.2-0.5,0.3-1,0.1-1.5c0-0.1-0.1-0.3-0.1-0.4c0-0.3,0-0.7,0-1c0-0.1-0.1-0.2-0.1-0.3
		c-0.4-0.4-0.5-0.9-0.4-1.4c0-0.2,0-0.3,0.1-0.5c0,0,0,0,0,0c0.3,0,0.3,0,0.4,0.3c0.2,0.6,0.5,1.2,0.7,1.8c0.1,0.4,0.2,0.8,0.2,1.3
		c0,0.2,0,0.4,0.2,0.5c0,0,0,0.1,0,0.1c0,0.4,0,0.8-0.1,1.1c-0.3,0.9-0.6,1.8-1,2.7c-0.1,0.4-0.3,0.8-0.4,1.3
		c-0.1,0.4-0.3,0.7-0.6,0.9c-0.1,0.1-0.2,0.1-0.2,0.2c-0.3,0.3-0.3,0.5,0,0.8c0.4,0.4,0.4,0.7,0.1,1.2c0,0.1-0.1,0.2,0,0.3
		c0,0,0,0.1,0,0.1c-0.1,0-0.1,0-0.1,0c-0.1,0-0.1-0.1-0.1-0.2c-0.1-0.2-0.2-0.2-0.4-0.2c-0.2,0-0.4,0.2-0.5,0.4c0,0.2,0,0.3,0.2,0.4
		c0.1,0,0.2,0.1,0.3,0.1c0.2,0.1,0.2,0.2,0.2,0.4c0,0.1-0.1,0.2-0.2,0.3c-0.4,0.4-0.7,0.7-1.1,1.1c0,0-0.1,0.1-0.1,0.1
		c0,0.2,0,0.2-0.2,0c-0.3-0.2-0.7-0.2-1,0c-0.2,0.1-0.2,0.2,0,0.4c0,0,0,0,0.1,0c0.1,0.1,0.2,0.1,0.2,0.2c0,0.1-0.1,0.2-0.2,0.2
		c-0.2,0-0.4,0.1-0.6,0.2c-0.3,0.1-0.4,0.3-0.3,0.6c0.2,0.4,0.1,0.6-0.2,0.9c-0.1,0.2-0.3,0.3-0.5,0.4c0,0.1-0.1,0.1-0.2,0.1
		c-0.2,0-0.4,0-0.6,0c-0.3,0.1-0.4,0.3-0.4,0.6c0,0.2-0.1,0.3-0.2,0.4c-0.2,0.1-0.3,0.2-0.5,0c-0.1-0.1-0.3,0-0.3,0.1
		c-0.2,0.2-0.4,0.3-0.7,0.4c0,0-0.1,0-0.1,0l0,0l0,0c-0.1,0-0.3,0.1-0.4,0.1c-0.1,0-0.1,0-0.2,0c-0.2,0-0.3,0.1-0.5,0.1
		c-0.6,0-1.2,0-1.8-0.1c-0.2,0-0.4,0-0.6,0c-0.1,0-0.1,0-0.2,0c-0.2,0-0.4,0-0.6,0c0.1,0.1,0.2,0.2,0.3,0.2c0.1,0,0.2,0.1,0.2,0.2
		c-0.1,0.1-0.1,0-0.2,0c-0.6,0-1.1,0-1.7,0c0,0-0.1,0-0.1,0c-0.1,0.1-0.2,0-0.3,0c-0.1,0-0.2,0-0.3,0c-0.1,0-0.2,0-0.2,0.2
		c0,0.1,0.1,0.1,0.2,0.2c0,0,0,0,0,0.1c-0.6-0.1-1.2-0.2-1.9-0.3c0,0,0,0,0,0c-0.1,0-0.2,0-0.2-0.1c0-0.1,0.1-0.1,0.2-0.1
		c0.3-0.2,0.3-0.3,0.1-0.6c0-0.1-0.1-0.1-0.1-0.2c0,0,0.1,0,0.2-0.1c0.2-0.1,0.2-0.2,0.1-0.4c-0.2-0.2-0.3-0.5-0.2-0.8
		c0-0.2,0-0.2-0.2-0.1c-0.3,0.2-0.7,0.1-1,0c-0.1,0-0.2-0.1-0.3,0c-0.1-0.2-0.2-0.4-0.4-0.5c-0.1-0.2-0.2-0.4-0.4-0.5
		c-0.1,0-0.2-0.1-0.2-0.2c0,0,0.1,0,0.1,0c0.3,0,0.3,0,0.4-0.2c0.1-0.1,0.2,0,0.3,0c0.9,0.4,1.8,0.2,2.6-0.2
		c0.3-0.1,0.6-0.3,0.9-0.4c0.1,0,0.2-0.1,0.3,0c0.1,0.1,0.1,0.2,0.1,0.3c0,0.1,0,0.1,0,0.2c-0.3,0.4-0.5,0.9-0.8,1.3
		c-0.1,0-0.2,0-0.3-0.1c-0.1-0.1-0.3-0.1-0.5,0c-0.2,0-0.3,0.2-0.3,0.4c0,0.2,0.1,0.3,0.2,0.3c0.3,0,0.7,0,0.8-0.3
		c0,0,0-0.1,0.1-0.1c0.3-0.2,0.7-0.2,1-0.3c0.5-0.1,1-0.1,1.5-0.2c0.1,0,0.1,0.1,0.2,0.1c0.3,0.2,0.5,0.2,0.7-0.1
		c0-0.1,0-0.1,0.1-0.2c0.3,0,0.6-0.1,0.9-0.1c0.1,0,0.1,0,0.2,0c0.2,0,0.3,0.1,0.3,0.3c0,0.1-0.1,0.3-0.2,0.3
		c-0.2,0.1-0.3,0.2-0.4,0.3c0,0.1-0.1,0.1-0.2,0.2c-0.2-0.1-0.4-0.1-0.7,0c-0.4,0-0.5,0.2-0.6,0.5c0,0.1,0,0.2,0,0.2
		c0,0.1-0.1,0-0.1,0c0,0-0.1-0.1-0.1-0.2c-0.1-0.2-0.3-0.2-0.4,0c-0.1,0.2-0.3,0.2-0.5,0.1c-0.4-0.1-0.8,0-1.2,0.3
		c-0.1,0-0.1,0.1-0.2,0.1c0,0,0,0-0.1-0.1c-0.1-0.4-0.4-0.5-0.8-0.5c-0.2,0-0.3,0.1-0.3,0.4c0.1,0.2,0.4,0.4,0.7,0.4
		c0.1,0,0.3-0.1,0.4-0.1c0.2,0.2,0.5,0.2,0.7,0.1c0.2-0.1,0.4,0,0.6,0c0.1,0,0.1,0.1,0.2,0.1c0.2,0,0.3-0.1,0.2-0.3
		c-0.1-0.2,0-0.3,0.1-0.3c0.1,0,0.1,0.1,0.2,0.1c0.1,0.3,0.1,0.3,0.4,0.1c0,0,0.1,0,0.1-0.1c0.2,0,0.3,0,0.5,0
		c0.3,0.1,0.6,0.1,0.8,0c0.5-0.1,0.9-0.3,1.4-0.4c0.2,0,0.3-0.2,0.4-0.3c0.1,0.1,0.1,0.1,0,0.2c0,0.2,0.1,0.3,0.3,0.3
		c0.2-0.1,0.4-0.3,0.5-0.6c0-0.1,0-0.1,0-0.2c0.2-0.3,0.5-0.4,0.8-0.6c-0.1,0-0.3,0-0.4-0.1c0.1-0.3,0-0.5,0-0.8
		c0-0.1,0.1-0.1,0.1-0.1c0.5-0.2,0.9-0.5,1.2-0.9c0.2-0.2,0.3-0.4,0.4-0.7c0-0.1,0.1-0.2,0-0.2c-0.1-0.1-0.2,0-0.3,0
		c-0.2,0.1-0.4,0.2-0.6,0.3c-0.2,0.1-0.4,0.2-0.5,0.4c0,0-0.1,0.1-0.1,0.1c-0.2-0.1-0.3-0.3-0.5-0.4c-0.1-0.1-0.1-0.2-0.2-0.2
		c-0.2-0.1-0.3,0-0.3,0.1c0,0.2,0,0.3,0,0.5c0,0.1,0.1,0.3,0.2,0.3c0.1,0,0.1,0,0.1,0.1c-0.1,0.1-0.3,0.2-0.4,0.2
		c-0.4,0-0.8-0.1-1.1-0.3c-0.2-0.1-0.3-0.3-0.2-0.6c0.1-0.4,0.1-0.4-0.3-0.6c-0.3-0.1-0.4-0.1-0.5,0.2C28.5,35.9,28.3,36,28,36
		c-0.8-0.1-1.5-0.2-2.3-0.2c-0.1,0-0.3,0-0.4-0.2c0-0.2,0.1-0.3,0.3-0.3c0.6-0.1,1.2-0.2,1.8-0.2c0.3,0,0.6,0,0.9-0.2
		c0.1-0.1,0.2-0.1,0-0.2c-0.1-0.1-0.2-0.2-0.1-0.4c0.1-0.1,0.2-0.2,0.4-0.1c0.3,0.1,0.6,0.1,1,0.1c0.2,0,0.4,0,0.6,0.1
		c0.1,0,0.2,0.1,0.2,0.1c0.3,0.1,0.4,0,0.6-0.2c0.1-0.1,0.1-0.2,0.2-0.2c0.2,0.1,0.4,0,0.5,0c0.5-0.1,1-0.3,1.5-0.4
		c0.8-0.2,1.2-0.8,1.6-1.5c0,0,0,0,0-0.1c0.1,0,0.1,0.1,0.1,0.2c0.1,0.4,0.2,0.7,0.4,1c0.1,0.1,0.1,0.2,0.1,0.3
		c-0.2,0-0.4,0.2-0.7,0.3c0,0,0-0.1,0-0.2c0-0.2-0.1-0.2-0.2-0.2c-0.1,0-0.2,0.1-0.3,0.2c-0.1,0.2,0,0.3,0.2,0.4c0,0,0.1,0,0.1,0
		c0.1,0.1,0,0.2,0,0.4c0,0.1-0.1,0.2,0,0.3c0.1,0.1,0.2,0,0.3,0c0.2-0.1,0.3-0.2,0.5,0c0.1,0.2,0,0.3-0.1,0.4
		c-0.3,0.4-0.5,0.9-0.8,1.3c0,0.1-0.1,0.1-0.2,0.2c-0.1,0-0.1,0-0.2,0c-0.3-0.1-0.8,0.1-0.9,0.4c-0.1,0.2-0.1,0.4,0,0.5
		c0.2,0.2,0.4,0.2,0.6,0.1c0.3-0.1,0.4-0.4,0.4-0.7c0-0.1,0-0.2,0-0.3c0.3-0.2,0.6-0.4,0.7-0.7c0,0,0,0,0.1,0c0.1,0,0.1,0.1,0.1,0.2
		c0,0.2,0.1,0.2,0.2,0.2c0.2,0,0.3-0.1,0.3-0.3c0-0.1-0.1-0.2-0.1-0.4c0-0.1,0.1-0.1,0.1-0.1c0.4-0.1,0.8-0.4,1-0.8
		c0.2-0.3,0.5-0.7,0.6-1.1c0.1-0.1,0-0.2,0.1-0.3c0.1-0.1,0.2-0.2,0.1-0.3c0-0.1,0-0.2,0-0.4c0-0.2,0-0.5,0.1-0.7
		c0.1-0.1,0-0.2-0.1-0.2c-0.2,0-0.4,0.1-0.5,0.2c-0.2,0.2-0.4,0.3-0.6,0.4c-0.1,0-0.1,0.1,0,0.2c0,0.1,0,0.3-0.1,0.3
		c-0.1-0.2-0.2-0.3-0.4-0.5c-0.1-0.1-0.1-0.2-0.1-0.3c0.1-0.2,0-0.3-0.2-0.4c0,0,0,0,0-0.1c0.2-0.3,0.5-0.6,0.7-0.9
		c0.1-0.1,0.2-0.2,0.3-0.3c0.1,0.1,0,0.2,0,0.2c0,0.1,0,0.3,0.1,0.4c0.1,0.2,0.3,0.1,0.4,0c0.2-0.3,0.2-0.6-0.1-0.9c0,0,0,0-0.1-0.1
		c0.2-0.4,0.5-0.8,0.8-1.2c0.2-0.3,0.4-0.6,0.5-1c0.1,0.5,0.2,0.9,0,1.3c0,0.1-0.1,0.2-0.1,0.3c0,0.1,0,0.1,0,0.2
		c0.1,0.1,0.1,0,0.2,0C38.5,29.6,38.5,29.6,38.6,29.6c0,0.1,0,0.2,0,0.3c0,0.1,0,0.2,0,0.4c0,0.2,0.1,0.3,0.2,0.4
		c0.2,0.1,0.3,0,0.4-0.1c0.1-0.2,0.1-0.3,0.1-0.5c0-0.2-0.2-0.3-0.3-0.5c-0.1-0.1-0.1-0.1-0.2,0C38.8,29.5,38.7,29.6,38.6,29.6z"/>
	<path id="XMLID_458_" class="st9" d="M15.2,16c-0.2,0.1-0.5,0.2-0.7,0.4c0,0,0,0-0.1,0c-0.2-0.1-0.2-0.1-0.4,0.2c0,0,0,0.1-0.1,0.1
		c-0.2,0.2-0.3,0.4-0.2,0.7c0,0.1-0.1,0.1-0.2,0.1c-0.1,0-0.2,0-0.2,0.1c-0.1,0.2-0.1,0.3-0.2,0.5c0,0.1,0,0.3,0.1,0.3
		c0.1,0.1,0.3,0,0.4-0.1c0.1-0.1,0.1-0.2,0.1-0.3c0-0.1,0-0.2,0.2-0.2c0.1,0,0,0.1,0.1,0.2c0,0.1,0.1,0.2,0.2,0.3
		c0.1,0,0.2,0,0.3-0.1c0.1,0,0.1-0.1,0.1-0.1c0.2-0.2,0.2-0.3,0.1-0.5c0-0.1-0.1-0.1,0-0.2c0.6,0,1.1-0.1,1.5-0.5
		c0.2-0.2,0.4-0.2,0.5,0.1c0,0,0,0.1,0,0.1c0.1,0.2,0.2,0.2,0.3,0.1c0,0,0.1-0.1,0.1-0.1c0-0.1,0.1-0.2,0.2-0.3
		c0.1-0.1,0.3-0.2,0.4-0.3c0.2-0.1,0.3-0.3,0.5-0.5c0.1-0.4,0.4-0.5,0.8-0.6c0.1,0,0.2-0.1,0.3-0.1c0.1,0,0.2,0,0.2,0.1
		c0.3,0.1,0.4,0.1,0.6-0.2c0.1-0.1,0.2-0.3,0.3-0.4c0.4-0.2,0.6-0.5,1-0.7c0.4-0.3,0.9-0.4,1.4-0.2c0.2,0.1,0.3,0.2,0.4,0.4
		c0.2,0.1,0.4,0.1,0.6,0c0.1,0,0.1-0.1,0.2-0.1c0.4-0.1,0.6,0,0.7,0.3c0.1,0.3,0.3,0.4,0.6,0.5c0.6,0.2,1.2,0.2,1.9,0.2
		c0.1,0,0.2,0,0.2-0.1c0-0.1,0-0.2-0.1-0.2c0,0,0,0,0,0c-0.9-0.4-1.7-0.9-2.6-1.1c-0.1,0-0.3,0-0.4-0.1c-0.1-0.1-0.2-0.1-0.3-0.1
		c-0.2-0.1-0.4-0.2-0.5-0.4c-0.1-0.2-0.3-0.2-0.5-0.2c-0.7,0.2-1.4,0.3-2.1,0.6c-0.1,0-0.2,0.1-0.3,0.1c0.1-0.3,0.3-0.4,0.6-0.5
		c0.5-0.2,1-0.5,1.5-0.6c0.5-0.1,1.1-0.1,1.6-0.1c0.2,0,0.3,0.1,0.2,0.3c0,0,0,0.1-0.1,0.1c-0.1,0.1-0.1,0.2,0,0.2
		c0.1,0.1,0.2,0.1,0.2,0c0.7-0.1,1.2,0.1,1.7,0.7c0.1,0.1,0.2,0.1,0.2,0.1c0.1,0,0.1,0,0.1-0.1c0.2,0.1,0.5,0.2,0.7,0.2
		c0,0,0.1,0,0.1,0c0.2,0.4,0.5,0.5,0.9,0.6c0.2,0,0.4,0,0.6,0.2c0,0.4,0.4,0.5,0.7,0.7c0,0,0.1,0,0.1,0.1c0.3,0.1,0.3,0.2,0.1,0.5
		c-0.1,0.1-0.1,0.2,0.1,0.3c0.1,0,0.2,0.1,0.3,0.1c0.5,0.1,0.9,0.4,1.2,0.8c0.2,0.3,0.5,0.5,0.7,0.8c0.3,0.4,0.5,1,0.5,1.5
		c0,0.3,0,0.7,0,1c0,0.1,0,0.2-0.1,0.2c-0.2-0.4-0.4-0.8-0.3-1.3c0.1-0.2,0-0.3-0.1-0.4c-0.3-0.3-0.6-0.8-0.9-1.1
		c-0.2-0.2-0.4-0.5-0.7-0.6c-0.2-0.1-0.4-0.2-0.6-0.2c-0.6,0-1.1-0.2-1.6-0.5c-0.5-0.2-1-0.5-1.6-0.7c-0.3-0.1-0.5-0.1-0.8-0.1
		c-0.2,0-0.3,0-0.4-0.2c-0.3-0.3-0.6-0.3-1-0.2c-0.4,0.1-0.7,0.2-1,0.4c-0.2,0.1-0.4,0.2-0.5,0.3c-0.3,0.1-0.5,0.1-0.7-0.1
		c-0.4-0.4-0.9-0.4-1.4-0.2c-0.1,0.1-0.3,0.1-0.4,0.2c-0.4,0.2-0.8,0.4-1.2,0.7c-0.4,0.4-0.8,0.6-1.3,0.7c-0.3,0.1-0.6,0.2-0.6,0.6
		c0,0.2-0.2,0.3-0.3,0.4c-0.2,0.1-0.3,0.1-0.5,0.2c-0.3,0-0.6,0-0.9,0c-0.3,0-0.6,0.2-0.9,0.4c-0.6,0.5-1.1,1-1.7,1.4
		c-0.1,0.1-0.2,0.1-0.2,0.3c0,0.5-0.2,1-0.4,1.4c-0.2,0.5-0.4,1-0.6,1.5c-0.1,0.3-0.2,0.7-0.1,1c0.1,0.4,0,0.8-0.1,1.2
		c-0.1,0.3-0.2,0.7-0.3,1c-0.2,0.7-0.2,1.5,0.1,2.2c0.1,0.3,0.2,0.5,0.3,0.8c0,0.1,0.1,0.1,0.1,0.2C12.1,29.7,12,29.8,12,30
		c0,0.1,0,0.2,0,0.2c0,0-0.1,0-0.2,0c-0.1-0.2-0.1-0.4-0.2-0.6c0-0.2-0.1-0.4-0.2-0.5c-0.3-0.3-0.5-0.5-0.6-0.9
		c-0.1-0.2-0.1-0.5-0.1-0.7c0-0.3,0-0.6-0.2-0.9c-0.1-0.3-0.1-0.6,0.2-0.9c0.1,0,0.1,0.1,0.2,0.1c0.1,0.1,0.2,0.3,0.2,0.4
		c0.1,0.1,0.1,0.1,0.2,0c0.1-0.1,0.2-0.3,0.1-0.5c0-0.2-0.1-0.4-0.1-0.7c0-0.2,0.1-0.3,0.2-0.5c0.1-0.3,0-0.5-0.3-0.6
		c-0.1,0-0.1,0-0.2-0.1c-0.2-0.1-0.3-0.2-0.3-0.4c0-0.6,0-1.2,0.4-1.7c0-0.1,0.1-0.1,0.1-0.2c0.2-0.5,0.2-0.9-0.2-1.2
		c-0.1-0.1-0.1-0.1-0.2,0c0,0-0.1,0.1-0.1,0.2c-0.1,0.2-0.3,0.2-0.4,0c0.1-0.5,0-1,0.2-1.6c0.1-0.5,0.3-1.1,0.6-1.5
		c0,0.1,0.1,0.1,0.2,0.2c0.2,0.1,0.4,0.2,0.6,0.3c0.1,0.1,0.2,0,0.2-0.1c0.2-0.2,0.3-0.5,0.3-0.9c0-0.2,0.1-0.4,0.2-0.6
		c0.1,0,0.1,0.1,0.1,0.1c0.1,0.3,0.3,0.4,0.6,0.2c0.2-0.1,0.4-0.4,0.3-0.7c0-0.1-0.1-0.2,0-0.3c0.2,0,0.3-0.1,0.5-0.1
		c0.9-0.3,1.8-0.6,2.8-1c0.1,0,0.1,0,0.2-0.1c-0.1,0.1-0.2,0.2-0.3,0.3c-0.2,0.1-0.3,0.2-0.5,0.3c-0.2,0.1-0.3,0.2-0.4,0.4
		c-0.1,0-0.3,0.1-0.4,0.2C15.3,16,15.2,16.1,15.2,16z"/>
	<path id="XMLID_457_" class="st9" d="M18.2,11.8c-0.2,0-0.3,0-0.5,0.1c-0.3,0.1-0.6,0.3-0.9,0.4c-0.2,0-0.4-0.1-0.6-0.1
		c0,0-0.1,0,0-0.1c0.2-0.2,0.4-0.5,0.6-0.8c0.3-0.4,0.8-0.8,1.2-1c0.4-0.2,0.8-0.5,1.2-0.7c0.2-0.1,0.4-0.2,0.6-0.2c0,0,0,0,0,0
		c0,0,0,0.1,0,0.1c0.1,0.3,0.1,0.3,0.4,0.2c0.7-0.2,1.4-0.4,2-0.9c0.1-0.1,0.3-0.1,0.5-0.1c0.3,0.1,0.7,0.1,1,0
		c0.4,0,0.8-0.2,1.2-0.3c0.1-0.1,0.3,0,0.4-0.1c0.5,0,1,0,1.5,0c0,0,0,0,0,0c0,0,0,0,0,0c-0.1,0,0,0,0,0c0.3,0.1,0.6,0.1,0.9,0.2
		c0.5,0.1,0.9,0.1,1.3,0.3c0.1,0.1,0.2,0.1,0.3,0.2c0.1,0.1,0,0.1-0.1,0.1c-0.2,0-0.3,0-0.5,0c0.4,0.2,0.7,0.5,1.1,0.7
		c0.1,0.1,0.1,0.2,0.1,0.3c-0.2,0.2-0.2,0.3,0,0.4c0.1,0.1,0.2,0.1,0.3,0.1c0.1,0,0.1,0,0.2,0.1c0,0.1,0,0.1,0.1,0.2
		c0.1,0.2,0.3,0.3,0.5,0.3c0.1,0,0.1-0.1,0.1-0.1c0-0.1,0-0.1,0.1-0.2c0.1,0,0.1,0,0.2,0.1c0.2,0.2,0.5,0.4,0.7,0.5
		c0.3,0.1,0.6,0.4,0.9,0.7c0.2,0.2,0.4,0.4,0.8,0.3c0.1,0,0.2,0.1,0.4,0.2c0.1,0,0.2,0.1,0.3,0.1c0.3,0,0.3-0.1,0.3-0.3
		c0-0.5-0.3-0.8-0.7-0.8c-0.2,0-0.3,0.1-0.4,0.3c0,0.1,0,0.1-0.1,0.2c-0.1-0.2-0.2-0.3-0.4-0.4c-0.1-0.1-0.2-0.2-0.3-0.3
		c-0.1-0.2,0-0.3,0.1-0.5c-0.1,0-0.2,0-0.3,0c-0.1,0-0.2,0-0.2-0.2c1.2,0.1,2.3,0.3,3.2,1.1c0.1,0.1,0.1,0.1,0.2,0.2
		c-0.1,0-0.2,0.1-0.2,0.1c-0.2,0.1-0.3,0.3-0.3,0.5c0,0.2,0.1,0.4,0.3,0.4c0.2,0.1,0.4,0,0.7-0.1c0.1,0,0.1,0.2,0.1,0.3
		c0.1,0.2,0.2,0.4,0.4,0.4c0.1,0,0.2,0,0.3,0.1c0.2,0.3,0.4,0.6,0.5,0.9c0.1,0.2,0.1,0.4-0.1,0.5c-0.1,0.1-0.1,0.1-0.1,0.3
		c0.3,0.4,0.5,0.8,0.8,1.2c0.1-0.2,0.1-0.3,0-0.5c0-0.1-0.1,0-0.2-0.1c-0.1-0.1-0.1-0.2-0.2-0.4c0.3,0.1,0.4,0.2,0.6,0.4
		c0.3,0.5,0.3,1,0.2,1.5c0,0.1-0.1,0.1-0.1,0.1c-0.1,0-0.3,0-0.4,0c0.1-0.2,0.1-0.3,0-0.5c-0.1-0.1-0.1-0.1-0.2,0
		c0,0-0.1,0.1-0.1,0.1c0-0.1,0-0.2,0-0.3c0-0.1-0.1-0.2-0.2-0.2c-0.1,0-0.2,0-0.2,0.2c0,0.1,0,0.2-0.1,0.2c-0.1-0.2-0.3-0.5-0.4-0.7
		c-0.2-0.3-0.4-0.6-0.6-0.9c-0.1-0.2-0.1-0.3,0.1-0.4c0,0,0.1,0,0.1-0.1c0.2-0.1,0.2-0.2,0-0.3c-0.1,0-0.1-0.1-0.2-0.1
		c0,0,0-0.1,0-0.1c0.2-0.3,0.1-0.7,0-1c-0.1-0.2-0.3-0.3-0.5-0.1C36,13.8,35.9,14,36,14.3c0,0.1,0.1,0.2,0.1,0.3
		c-0.2,0.1-0.2,0.2-0.1,0.4c0,0.1,0.1,0.2,0.1,0.4c0,0.1,0,0.3-0.1,0.4c-0.2,0.1-0.3,0-0.3-0.1c-0.3-0.4-0.6-0.8-1.1-1.1
		c-0.5-0.3-1.1-0.5-1.7-0.6c0,0,0,0,0,0c-0.1,0-0.3,0-0.3-0.3c0-0.2,0.2-0.2,0.4-0.2c0.1,0,0.1,0,0.2,0c-0.1-0.1-0.2-0.2-0.3-0.3
		c-0.5-0.3-1.1-0.5-1.7-0.6c-0.2,0-0.3,0-0.3,0.2c-0.1,0.3-0.2,0.4-0.5,0.2c-0.1-0.1-0.2-0.2-0.3-0.3c-0.1-0.1-0.3-0.2-0.5,0
		c0,0,0,0,0-0.1c-0.1-0.3-0.2-0.3-0.5-0.3c0,0,0,0-0.1,0c-0.1-0.2-0.3-0.3-0.6-0.3c-0.2,0-0.4-0.1-0.6-0.1c-0.1,0-0.2-0.1-0.3-0.2
		c-0.3-0.3-0.6-0.4-1-0.2c-0.1-0.3-0.2-0.6-0.3-0.9c-0.1-0.3-0.3-0.5-0.5-0.6c-0.1,0-0.2-0.1-0.3-0.1c-0.2,0-0.3,0.2-0.2,0.4
		c0.1,0.2,0.2,0.3,0.4,0.3c0.1,0,0.1,0,0.2,0.1c0.1,0,0.1,0.1,0,0.2c-0.1,0.1-0.2,0.3-0.5,0.3c-0.1,0-0.1-0.1-0.1-0.1
		c-0.2-0.2-0.4-0.3-0.7-0.3c-0.1,0-0.3,0-0.4,0c-0.4,0-0.6-0.3-0.6-0.7c0-0.1,0-0.1-0.1-0.1c-0.4,0.1-0.8,0-1.2-0.1
		c-0.3,0-0.6,0-0.9,0.1c-0.3,0.1-0.6,0.3-1,0.2c-0.4,0-0.7,0.2-0.9,0.5c-0.1-0.1-0.1-0.2-0.1-0.3c0-0.2-0.1-0.2-0.2-0.2
		c-0.2,0.1-0.4,0.2-0.5,0.4c0,0.1-0.1,0.2-0.1,0.3c0,0.2,0.1,0.2,0.3,0.2c0.1,0,0.2-0.1,0.3,0c0,0.1-0.1,0.2-0.2,0.2
		c-0.1,0.1-0.2,0.2-0.1,0.3C18.7,11.7,18.4,11.7,18.2,11.8z"/>
	<path id="XMLID_456_" class="st9" d="M23.2,40.9c-0.1,0.1-0.1,0-0.2,0c0,0.1,0.1,0,0.2,0.1c-0.9-0.1-1.7-0.3-2.5-0.6
		c-0.2-0.1-0.5-0.2-0.7-0.3c0-0.1-0.1,0-0.2,0c-0.8-0.1-1.6,0-2.4-0.3c-0.9-0.3-1.8-0.7-2.6-1.3c-0.2-0.2-0.5-0.3-0.7-0.5
		c-0.1-0.1-0.2-0.1-0.3-0.2c-0.1-0.2-0.1-0.2,0.1-0.3c0.2-0.1,0.4-0.2,0.5-0.5c0-0.1,0-0.1,0-0.2c-0.2-0.3-0.7-0.4-0.9-0.2
		c-0.1,0-0.2,0.1,0,0.2c0,0,0,0.1,0,0.1c0,0-0.1,0-0.1,0c-0.2-0.1-0.3-0.2-0.4-0.4c-0.4-0.7-0.9-1.3-1.2-1.9c-0.2-0.3-0.3-0.6-0.4-1
		c-0.1-0.2,0-0.4,0-0.5c0.1-0.4,0.1-0.7,0-1.1c0-0.1,0-0.1,0.1-0.2c0.3-0.1,0.4-0.3,0.3-0.7c0,0,0-0.1,0-0.1c0.1,0,0.1-0.2,0.2-0.3
		c0,0,0-0.2,0.1-0.1c0.1,0.1,0,0.3,0,0.5c0,0.2,0,0.3,0.1,0.4c0.1,0.2,0.4,0.3,0.6,0.2c0.2-0.1,0.3-0.2,0.4-0.5c0-0.1,0-0.2,0-0.2
		c0.1,0,0.1,0,0.2,0c0.4,0.3,0.6,0.6,0.7,1.1c0,0.3,0,0.6-0.1,0.9c-0.1,0.2,0,0.5,0.1,0.7c0.4,0.4,0.6,0.9,0.7,1.5
		c0,0.1,0.1,0.2,0.2,0.3c0.1,0,0.1,0.1,0.1,0.2c0,0-0.1,0.1-0.1,0.1c-0.2,0-0.3,0.1-0.4,0.3c-0.2-0.1-0.2-0.3-0.3-0.4
		c-0.3-0.5-0.6-1-0.7-1.5c-0.1-0.4-0.4-0.7-0.7-0.9c-0.1-0.1-0.3,0-0.4,0.2c0,0.1,0,0.3,0,0.4c0.1,0.2,0.2,0.3,0.3,0.5
		c0.2,0.2,0.2,0.5,0.3,0.8c0,0.1,0,0.2,0,0.4c0,0.3,0,0.5,0.2,0.7c0.2,0.2,0.4,0.1,0.5-0.2c0.1-0.1,0.1-0.3,0.1-0.4
		c0.1,0,0.1,0,0.1,0.1c0.1,0.1,0.1,0.3,0.1,0.4c0,0.1,0.1,0.1,0.1,0.2c0.1,0.2,0.2,0.1,0.3,0c0.1,0,0.2,0,0.3,0.1
		c0.3,0.1,0.4,0.1,0.4-0.2c0,0,0-0.1,0-0.1c0.1-0.2,0.1-0.4,0-0.6c-0.1-0.2-0.1-0.3-0.2-0.5c0-0.1-0.1-0.1,0-0.2
		c0.1,0,0.1,0,0.2,0.1c0.2,0.2,0.3,0.4,0.5,0.6c0.5,0.5,1,1,1.6,1.4c0.7,0.5,1.4,0.9,2.2,1.2c0,0,0.1,0,0.1,0.1
		c0.1,0.1,0.1,0.1,0,0.2c-0.1,0.1-0.2,0.1-0.3,0.1c-0.1,0-0.3,0-0.3,0.1c-0.1,0-0.2-0.1-0.3-0.1c-0.2-0.1-0.3,0-0.3,0.2
		c0,0.1,0,0.2,0,0.2c-0.2,0-0.3-0.1-0.3-0.2c-0.3-0.5-0.7-0.8-1.3-0.9c-0.3-0.1-0.5-0.1-0.8-0.2c-0.1-0.1-0.2-0.3-0.4-0.4
		c-0.2-0.2-0.4-0.2-0.6-0.1c-0.1,0.1-0.2,0.2-0.2,0.4c0.1,0.3,0.2,0.5,0.4,0.6c0.1,0.1,0.2,0.1,0.4,0.1c0.1,0,0.3-0.1,0.4-0.1
		c0.1,0,0.3,0.1,0.4,0.2c0.5,0.4,1,0.8,1.7,1c0.2,0.1,0.4,0.1,0.6,0.1c0.1,0,0.1,0.1,0.2,0.2c0.2,0.2,0.4,0.3,0.7,0.3
		c0.2,0,0.2-0.1,0.2-0.2c0-0.2-0.2-0.3-0.4-0.3c-0.2,0-0.5,0-0.7,0c-0.1-0.1-0.1-0.2-0.1-0.3c0.1,0,0.1,0,0.2,0
		c0.2,0,0.4-0.1,0.5-0.3c0,0,0,0,0.1,0c0.5,0.3,1,0.5,1.6,0.7c0.5,0.2,1,0.5,1.5,0.9c0,0.1,0,0.1,0,0.2c0,0.3,0.2,0.4,0.5,0.4
		C23,40.9,23.1,40.8,23.2,40.9z"/>
	<path id="XMLID_455_" class="st8" d="M10.8,25.7c-0.2,0.3-0.3,0.7,0,1c0.1,0.1,0.1,0.3,0.1,0.4c0,0.3,0,0.6,0,0.9
		c0.1,0.4,0.2,0.7,0.5,0.9c0.1,0.1,0.3,0.2,0.3,0.4c0,0.1,0.1,0.2,0,0.3c-0.2,0-0.3-0.1-0.5,0c0,0-0.1,0-0.1,0
		C11,29.5,11,29.4,11,29.2c0-0.1-0.1-0.2-0.2-0.3c-0.3-0.1-0.4-0.3-0.4-0.6c0-0.2,0-0.3,0-0.5c0-0.1,0-0.1-0.1-0.1
		c-0.1,0-0.1,0.1-0.1,0.1c0,0.1-0.1,0.1-0.1,0.1c-0.1,0-0.1-0.1-0.1-0.2c-0.1-0.5-0.1-1.1-0.1-1.6c0.1-1,0.2-1.9,0.3-2.9
		c0-0.4,0.1-0.7,0.3-1c0,0,0-0.1,0-0.1c0-0.1,0-0.1,0-0.1c0,0-0.1,0-0.1,0c0,0-0.1,0-0.1,0l0,0c-0.1-0.3-0.1-0.7,0-1
		c0-0.1,0-0.2,0-0.2c0.3,0.2,0.3,0.2,0.5-0.1c0.1-0.2,0.2-0.2,0.3-0.1c0.1,0.1,0.1,0.1,0.2,0.2c0.4,0.4,0.3,0.9,0,1.2
		c-0.4,0.5-0.4,1.1-0.4,1.7c0,0.2,0.1,0.3,0.3,0.3c0.5,0.1,0.6,0.4,0.5,0.8c0,0.1-0.1,0.3-0.1,0.4c-0.1,0-0.2,0-0.2,0
		c-0.2-0.1-0.3,0-0.4,0.2C10.8,25.5,10.9,25.6,10.8,25.7z"/>
	<path id="XMLID_454_" class="st10" d="M10.2,22C10.3,22,10.3,22,10.2,22c0.1-0.1,0.2-0.2,0.3-0.1c0.1,0.1,0.1,0.2,0,0.3
		c-0.3,0.6-0.3,1.3-0.4,2c0,0.5-0.1,1.1-0.2,1.6c-0.1,0.7-0.1,1.4,0.1,2.1c0,0,0,0,0,0.1c0.1-0.1,0.1-0.2,0.1-0.3
		c0-0.1,0.1-0.1,0.1,0c0.1,0.1,0.1,0.2,0.1,0.3c0,0.1,0,0.3,0,0.4c0,0.3,0.1,0.5,0.4,0.6c0,0,0,0,0,0c-0.3,0.1-0.3,0.1-0.3,0.4
		c0,0.2,0.2,0.3,0.4,0.2c0,0,0.1,0,0.1,0c0,0,0.1,0,0.1,0c0,0,0,0.1,0,0.1c0,0.3,0.1,0.6,0.3,0.8c0,0.1,0.1,0.2,0,0.4
		c-0.1,0-0.1-0.1-0.2-0.1c-0.2,0-0.3-0.1-0.4-0.3c-0.4-0.6-0.7-1.3-1-2.1c-0.1-0.2-0.1-0.4-0.2-0.5c-0.1-0.1-0.1-0.3-0.1-0.4
		c0,0,0,0,0,0c0-0.3,0-0.5,0-0.8c0-0.6,0-1.2,0-1.8c0,0,0,0,0,0c0,0,0-0.1,0.1-0.2c0.2-0.4,0.3-0.8,0.4-1.2c0.1-0.4,0-0.8,0.2-1.2
		C10.3,22.1,10.2,22.1,10.2,22z"/>
	<path id="XMLID_453_" class="st11" d="M33.9,12.6c-0.1,0.1-0.3,0.1-0.4,0c-0.2-0.1-0.3-0.2-0.4-0.3c-0.2-0.3-0.5-0.5-0.8-0.6
		c-0.3-0.1-0.6-0.3-0.8-0.5c0,0-0.1-0.1-0.1-0.1c-0.1-0.1-0.3-0.2-0.4-0.4c-0.1-0.1,0-0.1,0.1-0.1c0.2-0.2,0.5-0.1,0.8-0.1
		c0.3,0,0.6,0.1,0.9,0.2c0.1,0.1,0.2,0.1,0.3,0.1c0.1,0,0.2,0,0.1,0.2c-0.1,0.2-0.1,0.3,0.1,0.5c0.1,0.1,0.3,0.2,0.4,0.3
		c0.1,0.1,0.1,0.2,0.1,0.3C33.9,12.3,34,12.5,33.9,12.6z"/>
	<path id="XMLID_452_" class="st10" d="M16.4,13.2c-0.2,0-0.4,0.2-0.6,0.3c-0.3,0.2-0.6,0.4-0.9,0.4c-0.1,0-0.1-0.1-0.1-0.1
		c0-0.1,0-0.2-0.2-0.2c-0.1,0-0.2,0-0.3,0.1c-0.1,0.1-0.1,0.2-0.2,0.2c0,0-0.1,0-0.1,0c0-0.2-0.2-0.4-0.3-0.6
		c0.4-0.1,0.6-0.3,0.8-0.6c0.2-0.3,0.5-0.5,0.9-0.4c0.2,0,0.3-0.1,0.5-0.1c0,0.1-0.1,0.1-0.1,0.2c-0.1,0.1-0.1,0.2-0.1,0.3
		c0,0.2,0.1,0.4,0.3,0.4C16.2,13.2,16.3,13.1,16.4,13.2z"/>
	<path id="XMLID_451_" class="st12" d="M38.3,17.5c0.1-0.1,0.1-0.2,0.2-0.2c0.1,0,0.1,0.2,0.2,0.3c0.1,0.1,0,0.3-0.1,0.4
		c-0.3,0.2-0.3,0.6-0.2,0.8C38.6,19,38.7,19,39,19c0.1,0,0.2,0,0.2,0.1c0.1,0.2,0.1,0.3,0.1,0.5c0,0.1,0,0.1,0,0.2
		c0,0.3,0,0.3-0.3,0.3c-0.1,0-0.1,0.1-0.1,0.1c0,0.2,0,0.3,0,0.5c-0.1-0.1,0-0.2-0.1-0.2c0-0.1,0-0.2-0.1-0.3c0-0.1,0-0.3,0-0.4
		c0-0.2-0.1-0.4-0.3-0.3c-0.2,0-0.3,0.2-0.3,0.4c0,0.1,0,0.1,0,0.2c-0.1,0-0.1,0.1-0.2,0.1c-0.1-0.2-0.1-0.4-0.1-0.6
		c0-0.4,0.1-0.8,0.1-1.3c0-0.1,0-0.1,0.1-0.2c0-0.1,0-0.2,0-0.3c0-0.1,0-0.2,0.1-0.2c0,0,0,0,0,0c0,0,0,0,0,0
		C38.1,17.5,38.2,17.5,38.3,17.5z"/>
	<path id="XMLID_450_" class="st10" d="M14.1,13.9c-0.1,0.3-0.3,0.5-0.5,0.7c-0.4,0.5-0.8,1-1.2,1.4c0,0-0.1,0.1-0.1,0.1
		c-0.1-0.1-0.1-0.1-0.2-0.2c-0.2-0.1-0.2-0.2-0.1-0.3c0.1-0.2,0.2-0.4,0.3-0.6c0,0,0-0.1,0-0.1c-0.1-0.2,0.1-0.3,0.2-0.4
		c0.2-0.2,0.4-0.4,0.5-0.6c0,0,0-0.1,0.1,0C13.4,14.3,13.8,14.2,14.1,13.9C14.1,13.9,14.1,13.9,14.1,13.9z"/>
	<path id="XMLID_449_" class="st13" d="M16.4,13.2c-0.1,0-0.2,0-0.3,0c-0.2,0-0.3,0-0.4-0.2c-0.1-0.2-0.1-0.4,0.1-0.5
		c0.1-0.1,0.2-0.1,0.2-0.2c0.1,0,0.1-0.1,0.2-0.1c0.1-0.1,0.1-0.1,0.2-0.1c0.2,0,0.4,0,0.6,0.2C17,12.8,16.7,13,16.4,13.2z"/>
	<path id="XMLID_448_" class="st14" d="M11.5,30.9c0-0.1,0-0.2-0.1-0.4c0.1-0.1,0.2-0.2,0.4-0.3c0.1,0,0.1,0,0.2,0
		c0.2,0.1,0.2,0.4,0,0.5c-0.1,0.1-0.1,0.3-0.2,0.4c0,0.1-0.1,0.1-0.1,0C11.6,31.1,11.6,30.9,11.5,30.9z"/>
	<path id="XMLID_447_" class="st15" d="M31.1,10.7c0,0-0.1,0,0,0.1c-0.2,0.1-0.3,0.2-0.4,0.3C30.4,11,30.2,11,30,10.8
		c-0.2-0.2-0.2-0.3,0.1-0.4c0.1,0.2,0.3,0.3,0.5,0.3C30.8,10.7,30.9,10.7,31.1,10.7z"/>
	<path id="XMLID_446_" class="st16" d="M29.4,41.6c-2.2,0-4.4,0-6.5,0c0,0,0,0,0,0C25,41.6,27.2,41.6,29.4,41.6
		C29.4,41.6,29.4,41.6,29.4,41.6C29.4,41.6,29.4,41.6,29.4,41.6z"/>
	<path id="XMLID_445_" class="st17" d="M37.1,13c0.1,0.3,0.3,0.5,0.5,0.8c0,0.1,0.1,0.1,0,0.1c-0.1,0-0.2,0-0.3,0
		c-0.2-0.1-0.2-0.2-0.3-0.3c0-0.1-0.1-0.3,0-0.4C36.9,13,36.9,12.9,37.1,13z"/>
	<path id="XMLID_444_" class="st18" d="M9.6,24.8c0,0,0,0.1,0,0.1c0,0.8,0,1.6,0,2.3c0,0.1,0,0.1,0,0.1C9.6,26.6,9.6,25.7,9.6,24.8z
		"/>
	<path id="XMLID_443_" class="st19" d="M10.2,20.9c0,0.3,0,0.7,0,1C10,21.6,10.1,21.3,10.2,20.9z"/>
	<path id="XMLID_442_" class="st20" d="M25.7,41c0-0.1,0.1,0,0.2,0c0.6,0,1.2,0,1.9,0c0,0,0,0,0,0c-0.1,0-0.1,0-0.2,0
		c-0.5,0-1.1,0-1.6,0c-0.1,0-0.1,0-0.2,0C25.8,41,25.7,41,25.7,41z"/>
	<path id="XMLID_441_" class="st21" d="M25.8,41c0.6,0,1.3,0,1.9,0c0.1,0,0.1,0,0.2,0c-0.1,0-0.1,0-0.2,0c-0.6,0-1.1,0-1.7,0
		C26,41,25.9,41.1,25.8,41z"/>
	<path id="XMLID_440_" class="st22" d="M37.1,13c-0.1,0.1-0.1,0.2-0.1,0.4c0,0.1,0,0.1,0,0.2c-0.1,0-0.1-0.1-0.1-0.2
		c0-0.1,0-0.2-0.1-0.2c0-0.1,0-0.1,0-0.1c0.1-0.1,0.1-0.2,0.1-0.3C37,12.8,37,12.9,37.1,13z"/>
	<path id="XMLID_439_" class="st23" d="M25.4,8.4c-0.1,0-0.3,0-0.4,0.1c0-0.1-0.1-0.1-0.2-0.1c-0.2,0-0.5,0-0.7,0
		C24.5,8.4,25,8.4,25.4,8.4z"/>
	<path id="XMLID_438_" class="st24" d="M4.3,14.8c0.1,0.2,0,0.3,0,0.5C4.3,15.1,4.3,14.9,4.3,14.8z"/>
	<path id="XMLID_437_" class="st25" d="M9.7,24.6c0,0.1,0,0.1-0.1,0.2c0-0.3,0-0.6,0-0.9C9.7,24.1,9.6,24.4,9.7,24.6z"/>
	<path id="XMLID_436_" class="st26" d="M31,40.5c0.1,0,0.3-0.1,0.4,0C31.4,40.5,31.3,40.5,31,40.5c0,0.1-0.1,0.1-0.2,0.1
		C30.9,40.4,31,40.5,31,40.5z"/>
	<path id="XMLID_435_" class="st27" d="M9.6,27.5c0,0.1,0.1,0.3,0.1,0.4c-0.1,0,0,0,0,0.1c-0.1,0,0-0.1-0.1-0.1
		C9.6,27.7,9.6,27.6,9.6,27.5z"/>
	<path id="XMLID_434_" class="st28" d="M37.2,13.8c0.1,0,0.2,0,0.3,0.1c0,0,0,0,0,0C37.4,13.8,37.3,13.9,37.2,13.8
		C37.2,13.8,37.2,13.8,37.2,13.8z"/>
	<path id="XMLID_433_" class="st29" d="M34.3,38.8c0-0.1,0.1-0.1,0.2-0.1C34.5,38.9,34.4,38.8,34.3,38.8z"/>
	<path id="XMLID_432_" class="st30" d="M9.6,27.8c0,0,0,0.1,0.1,0.1c0,0.1,0,0.2,0,0.3C9.7,28.1,9.6,27.9,9.6,27.8z"/>
	<path id="XMLID_431_" class="st31" d="M36.8,13c0,0,0,0.1,0,0.1c0,0,0,0,0,0c0,0,0-0.1,0-0.1c0-0.1,0.1-0.1,0.1-0.2
		C36.8,12.9,36.8,13,36.8,13z"/>
	<path id="XMLID_430_" class="st22" d="M36.7,13.1C36.7,13.1,36.7,13.1,36.7,13.1c0.1,0.2,0.1,0.3,0,0.3
		C36.7,13.3,36.8,13.2,36.7,13.1C36.7,13.1,36.7,13.1,36.7,13.1z"/>
	<path id="XMLID_429_" class="st32" d="M27.4,8.4c0.1,0,0.2,0,0.3,0c0,0,0,0,0,0C27.6,8.4,27.5,8.4,27.4,8.4
		C27.4,8.4,27.4,8.4,27.4,8.4z"/>
	<path id="XMLID_428_" class="st33" d="M27.8,40.5c0-0.1,0.1-0.1,0.2,0C27.9,40.5,27.8,40.5,27.8,40.5z"/>
	<path id="XMLID_427_" class="st34" d="M26.9,8.4C26.9,8.4,26.9,8.4,26.9,8.4c0.1,0,0.2,0,0.3,0c0,0,0,0,0,0
		C27.1,8.4,27,8.4,26.9,8.4z"/>
	<path id="XMLID_426_" class="st35" d="M41.3,8.6c-0.1-0.1-0.1-0.1-0.1-0.2C41.3,8.5,41.3,8.5,41.3,8.6z"/>
	<path id="XMLID_425_" class="st36" d="M16.3,12.1c-0.1,0-0.1,0.1-0.2,0.1C16.1,12.1,16.2,12.1,16.3,12.1
		C16.3,12.1,16.3,12.1,16.3,12.1z"/>
	<path id="XMLID_424_" class="st37" d="M9.7,28.7c0-0.1,0-0.1,0-0.2C9.7,28.6,9.7,28.7,9.7,28.7z"/>
	<path id="XMLID_423_" class="st26" d="M31.5,40.4c0,0,0.1,0,0.1,0C31.6,40.4,31.6,40.5,31.5,40.4C31.5,40.5,31.5,40.4,31.5,40.4z"
		/>
	<path id="XMLID_422_" class="st38" d="M29.4,41.6C29.4,41.6,29.4,41.6,29.4,41.6c0.1,0,0.2,0,0.2,0c0,0,0,0,0,0
		C29.5,41.6,29.4,41.6,29.4,41.6z"/>
	<path id="XMLID_421_" class="st39" d="M31,40.5c0,0-0.1,0-0.2,0.1c0,0,0,0,0,0C30.9,40.4,31,40.5,31,40.5z"/>
	<path id="XMLID_420_" class="st40" d="M19.7,40.1c0.1,0,0.1-0.1,0.2,0C19.8,40.2,19.8,40.2,19.7,40.1z"/>
	<path id="XMLID_419_" class="st41" d="M19.9,9.4C19.9,9.4,19.9,9.3,19.9,9.4C19.9,9.3,20,9.3,19.9,9.4C20,9.4,20,9.4,19.9,9.4z"/>
	<path id="XMLID_418_" class="st42" d="M16.9,18.3c0.1-0.1,0.3-0.1,0.4-0.2c0.2-0.1,0.3-0.2,0.4-0.4c0-0.3,0.3-0.5,0.6-0.6
		c0.6-0.1,1.1-0.4,1.5-0.8c0.3-0.3,0.7-0.5,1.1-0.6c0.2-0.1,0.4-0.2,0.5-0.2c0.5-0.2,0.8-0.2,1.2,0.2c0.3,0.3,0.5,0.3,0.8,0.1
		c0.5-0.2,1-0.5,1.5-0.6c0.4-0.1,0.7-0.1,1,0.2c0.2,0.2,0.4,0.1,0.6,0.2c0.5,0.1,1,0.2,1.5,0.5c0.6,0.3,1.1,0.6,1.7,0.7
		c0.2,0.1,0.5,0.1,0.7,0.1c0.5,0.1,0.9,0.4,1.2,0.8c0.4,0.4,0.6,0.9,1,1.3c0.1,0,0.1,0.1,0.1,0.2c-0.2,0.3-0.1,0.7,0.1,1
		c0.1,0.1,0.1,0.2,0.2,0.4c0-0.6,0.1-1.2-0.1-1.8c-0.1-0.5-0.4-0.8-0.6-1.2c-0.3-0.4-0.6-0.8-1.1-1c-0.2-0.1-0.4-0.2-0.6-0.2
		c-0.1,0-0.2,0-0.3-0.1c-0.2-0.1-0.2-0.2,0-0.3c0.2-0.2,0.2-0.3-0.1-0.4c-0.2-0.1-0.4-0.2-0.6-0.4c-0.1-0.1-0.2-0.3-0.1-0.4
		c0.2-0.1,0.4-0.1,0.7,0c1,0.3,1.9,0.8,2.7,1.5c0,0,0,0,0,0.1c0,0.1-0.2,0.1-0.3,0.1c-0.1,0-0.2,0-0.3,0c-0.1,0-0.1,0.1-0.1,0.2
		c0.2,0.2,0.3,0.5,0.6,0.7c0.1,0.1,0.3,0.2,0.5,0.2c0,0,0.1,0,0.1,0c0,0.2,0.1,0.4,0.2,0.6c0.1,0.2,0.2,0.4,0.3,0.6
		c0.1,0.2,0.1,0.4-0.1,0.5c-0.1,0-0.1,0.1-0.2,0.1c-0.1,0.1-0.2,0.3-0.1,0.4c0.2,0.2,0.3,0.4,0.3,0.7c0.1,0.2,0.2,0.5,0.4,0.6
		c0.2,0.1,0.3,0.4,0.3,0.6c0,0.8,0.2,1.6,0.5,2.4c0.2,0.6,0.4,1.2,0.6,1.8c0,0.1,0,0.1,0.1,0.2c0.1,0.1,0.1,0.1,0.2,0.1
		c0.1,0,0.1-0.1,0.1-0.2c0.1-1-0.1-1.9-0.5-2.8c-0.1-0.2-0.1-0.4,0-0.6c0,0,0.1-0.1,0.1-0.1c0.1,0,0.1,0.1,0.1,0.1
		c0,0.7,0.4,1.3,0.5,2c0.2,0.7,0.3,1.5,0.1,2.2c-0.1,0.7-0.2,1.3-0.6,1.9c-0.1,0-0.1-0.1-0.1-0.1c0-0.1,0-0.1,0-0.2
		c0-0.1,0-0.3-0.2-0.1c0,0-0.1,0-0.1,0c0-0.2-0.1-0.4-0.2-0.6c-0.1-0.4-0.1-0.7-0.1-1.1c-0.1-0.6-0.3-1.2-0.7-1.7
		c0.2,0.7,0.3,1.4,0.4,2.2c0,0.2,0,0.5,0.1,0.7c0.1,0.8-0.3,1.4-0.9,2c-0.2,0.2-0.4,0.3-0.6,0.5c-0.1,0.1-0.2,0.3-0.3,0.5
		c-0.1,0.3-0.3,0.5-0.6,0.5c-0.3,0-0.6,0.2-0.9,0.4c-0.2,0.1-0.3,0.3-0.5,0.4c-0.5,0.3-1,0.6-1.5,0.6c-0.6,0.1-1.1,0.3-1.4,0.8
		c-0.1,0.1-0.2,0.2-0.3,0.2c-0.5,0.1-1,0.3-1.5,0.4c-0.1,0-0.2,0.1-0.3,0.1c0.2,0,0.5,0,0.7,0c0.5,0,0.9,0,1.4-0.1
		c0.5,0,1-0.2,1.3-0.6c0.4-0.4,0.9-0.6,1.4-0.7c0.2,0,0.4-0.1,0.7-0.1c0.1,0,0.2,0.1,0.2,0.1c0,0.1-0.1,0.2-0.2,0.2
		C31.4,33,31.2,33,31,33.1c0,0-0.1,0-0.1,0.1c0,0,0,0,0,0.1c0,0,0,0,0.1,0.1c0.1,0,0.1,0,0.2,0c0.1,0,0.2,0,0.2,0
		c0.1,0,0.2,0,0.3,0.1c0.1,0.1,0.1,0.3,0,0.4c-0.1,0.1-0.2,0.1-0.3,0.2c-0.1,0-0.1,0.1-0.1,0.2c-0.2,0.3-0.4,0.4-0.8,0.3
		c-0.4-0.2-0.8-0.2-1.2-0.2c-0.2,0-0.4,0-0.5-0.1c-0.1,0-0.2,0-0.3,0c-0.2,0.1-0.2,0.2-0.1,0.3c0,0.1,0.1,0.1,0.2,0.2
		c0.1,0.1,0.1,0.1,0,0.2c-0.3,0.2-0.6,0.3-1,0.3c-0.6,0-1.3,0.1-1.9,0.2c-0.1,0-0.2,0.1-0.2,0.2c-0.2,0.1-0.4,0.2-0.6,0.3
		c-0.1,0-0.2,0-0.3,0c-0.4-0.2-0.9-0.3-1.4-0.3c-0.6-0.1-1.1-0.2-1.5-0.6c-0.1-0.1-0.2-0.2-0.4-0.2c-0.2-0.1-0.4,0-0.6,0.1
		c-0.2,0.1-0.3,0.1-0.4-0.1c-0.2-0.4-0.5-0.7-0.8-1.1c-0.3-0.3-0.5-0.6-0.6-1c-0.1-0.3-0.2-0.6-0.4-0.9c-0.1,0.7-0.1,1.4,0.2,2.1
		c0.1,0.2,0.2,0.4,0.2,0.6c-0.2,0.1-0.3,0.1-0.4,0c-0.1-0.1-0.2-0.2-0.3-0.3c-0.2-0.2-0.3-0.3-0.6-0.3c-0.1,0-0.1,0-0.1-0.1
		c0.1-0.4-0.1-0.7-0.2-1c0-0.4-0.2-0.7-0.4-1c-0.2-0.3-0.3-0.6-0.3-0.9c0-0.3-0.2-0.5-0.4-0.7c-0.7-0.6-1-1.4-1.1-2.2
		c-0.1-0.6,0-1.3,0.2-1.9c0-0.1,0.1-0.2,0-0.3c0,0,0-0.1-0.1-0.1c-0.1,0-0.1,0-0.1,0.1c-0.2,0.3-0.3,0.5-0.4,0.8
		c-0.2,0.4-0.3,0.9-0.4,1.3c0,0,0,0.1,0,0.1c0,0,0,0.1-0.1,0.1c-0.1,0-0.1,0-0.1-0.1c-0.1-0.3-0.3-0.6-0.5-1
		c-0.2-0.4-0.2-0.8-0.1-1.2c0.1-0.3,0.2-0.7,0.3-1c0.1-0.4,0.2-0.7,0.3-1.1c0-0.1,0.1-0.2,0.2-0.3c0.4-0.3,0.7-0.8,0.9-1.2
		c0.1-0.2,0.3-0.4,0.5-0.6c0,0,0.1-0.1,0.1-0.1c0-0.1,0-0.1,0-0.1c0,0-0.1,0-0.1,0c-0.1,0-0.1,0-0.2,0.1c-0.1,0-0.1,0.1-0.2,0.1
		c-0.2,0-0.4,0.1-0.5-0.1c-0.1-0.2,0-0.3,0.1-0.5c0.2-0.3,0.4-0.7,0.4-1c0.1-0.3,0.2-0.6,0.3-0.8c0.1-0.2,0.3-0.4,0.5-0.4
		C16.1,18.3,16.5,18.3,16.9,18.3z"/>
	<path id="XMLID_417_" class="st43" d="M24.6,13.3c0.6,0,1.2,0.2,1.7,0.5c0.4,0.2,0.8,0.4,1.3,0.6c0.1,0.1,0.2,0.1,0.2,0.2
		c0,0.1,0,0.2-0.2,0.2c-0.7,0-1.4,0-2.1-0.3c-0.2-0.1-0.3-0.2-0.4-0.4c-0.1-0.4-0.4-0.5-0.8-0.4c-0.1,0-0.1,0.1-0.2,0.1
		c-0.2,0.1-0.3,0.1-0.4-0.1c0-0.4-0.1-0.5-0.5-0.5c-0.1,0-0.3,0-0.5-0.1c0.3-0.1,0.6-0.1,0.9,0C23.9,13.3,24.2,13.4,24.6,13.3z"/>
	<path id="XMLID_416_" class="st44" d="M35.4,28.2c0.1,0,0-0.2,0.1-0.1c0.1,0.1,0.2,0.2,0.1,0.3c0,0.1-0.1,0.2,0,0.2
		c-0.1,0.6-0.4,1-0.7,1.5c-0.2,0.3-0.3,0.6-0.4,1c0,0.1,0,0.2-0.1,0.2c-0.6,0.3-1.1,0.8-1.7,1.1c-0.3,0.1-0.5,0.2-0.8,0.3
		c-0.1,0-0.1,0-0.2,0c-0.1-0.1-0.2,0-0.2-0.1c0-0.1,0.1-0.1,0.1-0.1c0.4-0.2,0.8-0.5,1.3-0.7c0.1,0,0.2-0.2,0.3-0.3
		c0.4-0.4,0.8-0.9,1.2-1.3c0.4-0.5,0.8-1.1,0.9-1.8C35.4,28.2,35.4,28.2,35.4,28.2z"/>
	<path id="XMLID_415_" class="st10" d="M22.6,10.7c0,0.1,0.1,0.1,0.2,0.1c0.5,0,1,0.1,1.5,0.4c0,0,0.1,0,0.2,0.1
		c-0.4,0.1-0.8,0.1-1.2,0.1c-0.2,0-0.4,0-0.6,0.1c0,0-0.1,0-0.1,0c-0.4-0.1-0.5-0.1-0.8,0.3c0,0,0,0-0.1,0.1c-0.3-0.1-0.6,0-0.9,0.1
		c-0.3,0.1-0.5,0.2-0.8,0.3c-0.1,0-0.1,0.1-0.2,0c0.3-0.3,0.5-0.6,0.8-0.9c0.2-0.2,0.5-0.4,0.7-0.5c0.1,0.1,0.3,0.2,0.5,0.3
		c0.3,0,0.5-0.1,0.6-0.2C22.6,10.8,22.6,10.7,22.6,10.7z"/>
	<path id="XMLID_414_" class="st13" d="M37.9,18.1c0.1,0.4,0,0.8,0,1.2c0,0.3,0,0.6,0,0.8c-0.2,0.1-0.4-0.1-0.5-0.2
		c-0.3-0.4-0.5-0.8-0.7-1.3c-0.1-0.2-0.1-0.5,0.1-0.6c0.2-0.2,0.5-0.2,0.8-0.1C37.7,18,37.8,18.1,37.9,18.1z"/>
	<path id="XMLID_413_" class="st13" d="M35.6,31.6c0.3,0.1,0.3,0.2,0.2,0.5c0,0.2,0.1,0.3,0.2,0.4c0.1,0.1,0.2,0.2,0.2,0.4
		c-0.1,0.2-0.2,0.4-0.3,0.6c-0.1,0.2-0.3,0.2-0.5,0c-0.2-0.4-0.5-0.7-0.5-1.2c0-0.1,0-0.2,0-0.2C35,31.7,35.3,31.6,35.6,31.6z"/>
	<path id="XMLID_412_" class="st13" d="M14.9,17.2c0.3,0.5,0.1,0.6-0.3,1c-0.2,0.2-0.4,0-0.5-0.2c0-0.1,0-0.2,0-0.3c0,0,0,0,0,0
		c0-0.2-0.1-0.3-0.2-0.3c-0.2-0.2-0.2-0.3,0-0.5c0.1-0.1,0.2-0.2,0.2-0.4c0-0.1,0.1-0.1,0.2-0.1c0.1,0,0.2,0.1,0.3,0.1
		c0.1,0.1,0.1,0.3,0.1,0.4C14.7,17,14.8,17.1,14.9,17.2z"/>
	<path id="XMLID_411_" class="st13" d="M25.3,11.1c0.1-0.1,0.2-0.2,0.4-0.3c0,0,0.1-0.1,0.1-0.1c0-0.1-0.1-0.1-0.1-0.1
		c-0.2,0-0.4-0.1-0.5-0.3c-0.1-0.1-0.1-0.2,0-0.4c0.1-0.1,0.3-0.2,0.4-0.1c0.2,0.1,0.5,0.2,0.6,0.5c0.1,0.4,0.3,0.7,0.3,1.1
		c-0.2,0.1-0.4,0.2-0.5,0.2C25.6,11.5,25.4,11.4,25.3,11.1z"/>
	<path id="XMLID_410_" class="st13" d="M32.8,16.1c0.3-0.3,0.5-0.3,0.8-0.2c0.3,0.2,0.5,0.6,0.4,1c0,0.2-0.1,0.3-0.3,0.5
		c-0.3,0.1-0.7,0-0.9-0.3C32.7,16.9,32.6,16.3,32.8,16.1z"/>
	<path id="XMLID_409_" class="st10" d="M31.8,32.6c0.8-0.1,1.4-0.5,2-1c0.2-0.2,0.4-0.3,0.6-0.3c0,0.2-0.2,0.3-0.3,0.4
		c-0.7,0.8-1.6,1.2-2.7,1.4c-0.2,0-0.3,0.1-0.5,0.2c-0.1,0-0.3,0.1-0.3-0.1c0-0.1,0.2-0.1,0.3-0.2C31.3,32.9,31.6,32.9,31.8,32.6z"
		/>
	<path id="XMLID_408_" class="st13" d="M27.8,13.7c-0.3,0.1-0.5-0.1-0.7-0.1c-0.1,0,0-0.1-0.1-0.1c0-0.1-0.1-0.2-0.1-0.3
		c-0.1-0.3,0-0.5,0.3-0.5c0.3-0.1,0.6,0,0.8,0.3c0.1,0.1,0.1,0.3,0,0.4C28,13.5,27.8,13.6,27.8,13.7z"/>
	<path id="XMLID_407_" class="st13" d="M36.1,14.6c-0.1-0.2-0.2-0.4-0.2-0.6c0-0.2,0.1-0.3,0.3-0.4c0.2-0.1,0.4-0.1,0.5,0.2
		c0.2,0.4,0.2,0.7,0,1.1C36.4,14.9,36.3,14.7,36.1,14.6z"/>
	<path id="XMLID_406_" class="st13" d="M13.4,16c0,0.1,0,0.2,0.1,0.2c0.1,0.2,0,0.4-0.1,0.6c-0.1,0.2-0.3,0.2-0.6,0.2
		c-0.1,0-0.2-0.1-0.3-0.2c0-0.1,0-0.1-0.1-0.2c0.1-0.2,0.2-0.4,0.3-0.6C12.9,15.8,13.1,15.8,13.4,16z"/>
	<path id="XMLID_405_" class="st13" d="M22.6,10.7c-0.1,0.3-0.4,0.4-0.6,0.4c-0.3,0-0.5-0.1-0.6-0.3c0.1-0.5,0.3-0.7,0.7-0.7
		C22.5,10.1,22.7,10.3,22.6,10.7C22.6,10.6,22.6,10.7,22.6,10.7z"/>
	<path id="XMLID_404_" class="st13" d="M18.2,11.8c0.2-0.2,0.4-0.2,0.7-0.2c0.3,0.2,0.4,0.5,0.3,0.8c-0.1,0.2-0.3,0.4-0.6,0.4
		c-0.2,0-0.3-0.1-0.3-0.3C18.2,12.2,18.2,12,18.2,11.8z"/>
	<path id="XMLID_403_" class="st13" d="M38.6,29.6C38.7,29.6,38.7,29.5,38.6,29.6c0.3-0.3,0.3-0.3,0.5-0.1c0.2,0.3,0.3,0.6,0.2,0.9
		c-0.1,0.3-0.4,0.3-0.6,0.1c-0.2-0.2-0.2-0.4-0.1-0.6C38.6,29.8,38.6,29.7,38.6,29.6C38.6,29.6,38.6,29.6,38.6,29.6z"/>
	<path id="XMLID_402_" class="st13" d="M18.5,13.2c0.3,0,0.3,0.1,0.4,0.3c0,0.1,0,0.3,0.1,0.4c0.1,0.1,0,0.2-0.1,0.3
		c-0.1,0.1-0.2,0.1-0.3,0c-0.2-0.2-0.4-0.4-0.6-0.6c-0.1-0.1,0-0.2,0-0.2C18.2,13.3,18.4,13.2,18.5,13.2z"/>
	<path id="XMLID_401_" class="st45" d="M32.8,16.1c0,0.2,0,0.4,0,0.6c0,0.3,0.2,0.5,0.5,0.5c0.1,0,0.3,0.1,0.5,0.1
		c-0.1,0.1-0.3,0.1-0.4,0.1c-0.4,0-0.6-0.2-0.8-0.5c-0.1-0.2-0.2-0.3-0.4-0.5c-0.1-0.1-0.1-0.2,0.1-0.3c0.1-0.1,0.2-0.1,0.3,0
		C32.5,16.2,32.6,16.2,32.8,16.1C32.7,16.1,32.7,16.1,32.8,16.1z"/>
	<path id="XMLID_400_" class="st13" d="M39,24.3c0,0.2,0,0.4-0.2,0.4c-0.2,0-0.4-0.1-0.4-0.4c0-0.2,0-0.3,0-0.5
		c0-0.2,0.1-0.3,0.2-0.4c0.2,0,0.4,0.1,0.4,0.3c0,0.1,0,0.2,0,0.3C39,24.1,39,24.2,39,24.3z"/>
	<path id="XMLID_399_" class="st13" d="M37,30c0.4,0.2,0.5,0.8,0.1,1.1c-0.1,0.1-0.2,0.1-0.3,0c-0.1-0.1-0.2-0.2-0.2-0.3
		c0-0.1,0-0.3,0-0.4C36.8,30.3,36.9,30.1,37,30z"/>
	<path id="XMLID_398_" class="st13" d="M19.2,11.1c-0.1,0-0.2,0.1-0.3,0.1c-0.2,0-0.3,0-0.3-0.2c0-0.2,0-0.4,0.2-0.5
		c0.1-0.1,0.2-0.1,0.3-0.2c0.4-0.2,0.4-0.1,0.5,0.3c0,0.1,0,0.1,0,0.1C19.4,10.8,19.3,10.9,19.2,11.1z"/>
	<path id="XMLID_397_" class="st46" d="M20.8,14.4c-0.1,0.2-0.2,0.3-0.3,0.4c-0.2,0.2-0.4,0.3-0.7,0.2c-0.1,0-0.1-0.1-0.2-0.1
		c-0.1-0.1-0.2-0.1-0.3-0.2c0.4,0,0.8-0.2,1.1-0.4C20.6,14.2,20.7,14.2,20.8,14.4z"/>
	<path id="XMLID_396_" class="st47" d="M34.5,17.5c0-0.2,0-0.3,0-0.5c0-0.1,0.1-0.2,0.2-0.2c0.3,0,0.5,0.2,0.4,0.5
		c0,0.1,0,0.2-0.1,0.3c0,0.1-0.1,0.2-0.3,0.2c-0.2,0-0.3,0-0.3-0.2C34.5,17.6,34.5,17.5,34.5,17.5C34.5,17.5,34.5,17.5,34.5,17.5z"
		/>
	<path id="XMLID_395_" class="st48" d="M18.6,15.6c-0.1,0.2-0.3,0.4-0.5,0.6c-0.3,0.2-0.5,0.4-0.7,0.6c0,0-0.1,0-0.1,0
		c-0.1,0-0.2,0-0.2-0.1c0-0.1,0-0.2,0.1-0.2c0.2-0.2,0.5-0.3,0.7-0.5C18.1,15.9,18.3,15.7,18.6,15.6C18.6,15.5,18.6,15.6,18.6,15.6z
		"/>
	<path id="XMLID_394_" class="st47" d="M31.6,14c-0.3,0-0.6-0.3-0.6-0.5c0-0.2,0-0.3,0.2-0.3c0.3,0,0.7,0.3,0.7,0.6
		C31.8,14,31.7,14,31.6,14z"/>
	<path id="XMLID_393_" class="st49" d="M38.1,20c0-0.1,0-0.1,0-0.2c0-0.2,0.1-0.4,0.3-0.4c0.2,0,0.3,0.1,0.3,0.3
		c0,0.2,0.1,0.3,0,0.5C38.4,20.3,38.4,20.3,38.1,20z"/>
	<path id="XMLID_392_" class="st47" d="M21.8,11.8c0.1-0.4,0.5-0.5,0.9-0.3c0,0.1-0.1,0.2-0.2,0.3c-0.1,0.2-0.3,0.3-0.5,0.1
		C22,11.9,21.9,11.8,21.8,11.8z"/>
	<path id="XMLID_391_" class="st47" d="M14.2,13.9c0-0.1,0.1-0.1,0.1-0.2c0.1-0.2,0.2-0.2,0.4-0.2c0.2,0,0.2,0.2,0.2,0.3
		c0,0,0,0.1,0,0.1C14.6,14.3,14.5,14.3,14.2,13.9z"/>
	<path id="XMLID_390_" class="st50" d="M38.3,17.5c-0.1,0.1-0.2,0.1-0.3,0.2c-0.2,0-0.2-0.2-0.3-0.4c0,0,0-0.1,0-0.1
		c0-0.1,0-0.3,0.2-0.3c0.2,0,0.3,0.1,0.4,0.3C38.3,17.2,38.3,17.3,38.3,17.5z"/>
	<path id="XMLID_389_" class="st51" d="M33.4,15.1c-0.2,0-0.6-0.4-0.5-0.6c0-0.1,0.1-0.1,0.1-0.1c0.3,0.1,0.5,0.3,0.7,0.5
		c0.1,0.1,0,0.1,0,0.1C33.7,15,33.5,15.1,33.4,15.1z"/>
	<path id="XMLID_388_" class="st51" d="M15.2,16c0.1-0.1,0.2-0.1,0.2-0.2c0.1-0.1,0.2-0.1,0.3-0.1c0,0.2,0,0.3,0,0.5
		c-0.1,0.1-0.2,0.3-0.3,0.2c-0.2,0-0.2-0.2-0.2-0.3C15.2,16.1,15.2,16.1,15.2,16z"/>
	<path id="XMLID_387_" class="st50" d="M28.9,12.2c0.3-0.1,0.5,0,0.6,0.4c-0.2,0.2-0.3,0.2-0.5,0.1C28.8,12.5,28.8,12.4,28.9,12.2z"
		/>
	<path id="XMLID_386_" class="st8" d="M17.2,33.7c0.1,0.1,0.3,0,0.5,0.2c0.2,0.1,0.3,0.3,0.5,0.4c0.1,0.2,0.3,0.2,0.4,0.1
		c0,0,0.1,0,0.1,0.1c0.1,0.2,0.2,0.3,0.5,0.4c0.3,0.1,0.5,0.2,0.7,0.5c0.2,0.2,0.3,0.4,0.5,0.6c0.3,0.3,0.7,0.4,1.1,0.3
		c0.2-0.1,0.3-0.1,0.5,0.1c0,0,0,0,0,0.1c0,0.5,0.2,0.7,0.7,0.7c0.2,0,0.4-0.1,0.5-0.5c0-0.2,0.1-0.3,0.3-0.4
		c0.2-0.1,0.3-0.1,0.5-0.1c0.3,0,0.5-0.1,0.6-0.4c0.1,0.1,0.2,0,0.4,0c0.2-0.1,0.3-0.2,0.6-0.2c0.1,0.1,0.2,0.1,0.3,0.2
		c0.7,0,1.3,0.1,1.9,0.2c0.1,0,0.3,0,0.4,0c0.2,0,0.4,0,0.5-0.2c0,0,0-0.1,0.1-0.1c0.1-0.2,0.3-0.3,0.5-0.2c0.1,0,0.2,0.1,0.3,0.1
		c0.1,0.1,0.2,0.1,0.2,0.3c0,0.1,0,0.2-0.1,0.2c-0.1,0.2,0,0.5,0.2,0.5c0.4,0.1,0.7,0.3,1.1,0.3c0.2,0,0.3,0,0.5-0.2
		c0,0,0.1-0.1,0.1-0.1c0.3,0,0.5-0.2,0.6-0.4c0.1-0.3,0.4-0.4,0.6-0.5c0.2-0.1,0.4-0.2,0.6-0.3c0.1-0.1,0.2,0,0.3,0
		c0.1,0.1,0.1,0.1,0,0.2c-0.4,0.7-0.9,1.4-1.7,1.7c0,0-0.1,0-0.1,0c-0.1,0-0.1-0.1-0.2-0.1c-0.1-0.1-0.3-0.1-0.4,0
		c-0.1,0.1-0.2,0.2-0.3,0.3c-0.1,0.1-0.2,0.2-0.3,0.3c-0.1,0-0.2,0.1-0.1,0.2c0,0.1,0.1,0.1,0.3,0.1c0.1,0,0.2-0.1,0.3,0
		c0.2,0.1,0.3,0.1,0.5,0.1c0.1,0,0.2-0.1,0.3-0.1c0.2,0,0.4,0,0.5,0c-0.3,0.2-0.6,0.4-0.9,0.7c0,0,0,0-0.1,0c-0.2-0.1-0.4,0-0.6,0.1
		c-0.1,0.1-0.1,0.2-0.2,0.2c-0.1,0.2-0.3,0.3-0.5,0.4c-0.4,0.1-0.7,0.2-1.1,0.3c-0.3,0.1-0.6,0.2-0.9,0.1c-0.1,0-0.1,0-0.1-0.1
		c0,0,0-0.1,0.1-0.1c0.3-0.2,0.5-0.4,0.6-0.7c0,0,0-0.1,0.1-0.1c0.1,0,0.1-0.1,0.2-0.1c0.1-0.3,0.3-0.4,0.5-0.5
		c0.1,0,0.2-0.1,0.1-0.2c0-0.1-0.1-0.2-0.3-0.2c-0.2,0-0.4,0-0.6,0.1c-0.2,0-0.3,0.1-0.5,0c-0.1,0-0.1,0-0.2,0
		c-0.2-0.1-0.5-0.1-0.6,0.1c0,0-0.1,0.1-0.1,0.1c-0.4,0.1-0.8,0.2-1.1,0.2c-0.5,0.1-0.9,0.1-1.4,0.3c-0.1,0-0.1-0.1-0.1-0.2
		c0.2-0.4,0.4-0.7,0.6-1c0.1-0.1,0.2-0.2,0.2-0.4c0-0.1,0-0.2-0.1-0.3c-0.1-0.1-0.2,0-0.2,0c-0.6,0.3-1.2,0.6-1.8,0.7
		c-0.5,0.1-1,0.1-1.5-0.1c-0.2-0.1-0.3-0.1-0.5-0.1c-0.1,0-0.2-0.1-0.2-0.1c-0.1,0-0.1-0.1-0.2-0.1c-0.1,0-0.1,0-0.2,0.1
		c-0.1,0.1,0,0.1,0,0.2c0,0.1,0.1,0.1,0.1,0.2c0.1,0.1,0.2,0.2,0.4,0.2c0.2,0.1,0.3,0.2,0.3,0.4c-0.1,0.1-0.2,0.1-0.3,0
		c-0.1,0-0.2-0.1-0.3,0c-0.1,0.1-0.1,0.2,0,0.3c0.1,0.3,0.5,0.5,0.8,0.4c0.1-0.1,0.1-0.2,0.2-0.3c0-0.1,0.1-0.1,0.2-0.1
		c0.1,0,0.2,0.1,0.3,0.1c0.3,0.1,0.5,0.1,0.7-0.1c0.1-0.1,0.1-0.1,0.2,0c0.1,0.1,0.1,0.1,0,0.2c-0.1,0.3,0,0.5,0.1,0.7
		c0.1,0.1,0.2,0.2,0.1,0.4c-0.1,0.2-0.2,0.2-0.4,0.2c0,0-0.1,0-0.1,0c-0.2,0-0.4,0-0.6,0.1c0,0-0.1,0-0.1,0c-0.5-0.5-1.1-0.8-1.8-1
		c-0.3-0.1-0.7-0.3-1-0.5c0,0-0.1-0.1-0.1-0.1c-0.1,0-0.2-0.1-0.1-0.2c0-0.1,0.1-0.2,0.2-0.1c0.1,0,0.2,0,0.2,0c0.1,0,0.2,0,0.2-0.1
		c0-0.1-0.1-0.1-0.2-0.1c-1-0.4-1.9-0.9-2.8-1.6c-0.6-0.5-1.1-1-1.6-1.6c0,0,0-0.1-0.1-0.1c0.1,0.3,0.2,0.5,0.3,0.8
		c0,0.2,0,0.3-0.1,0.4c-0.1,0-0.2,0-0.3-0.1c-0.3-0.2-0.4-0.4-0.5-0.7c-0.1-0.4-0.3-0.8-0.6-1.1c-0.2-0.2-0.3-0.5-0.2-0.8
		c0.1-0.3,0.1-0.7,0.1-1c-0.1-0.4-0.4-0.8-0.8-1c-0.1-0.3-0.4-0.5-0.5-0.9c0-0.4,0.1-0.8,0-1.2c-0.1-0.3-0.2-0.6-0.3-0.8
		c0,0.4,0,0.8,0,1.1c0,0,0,0.1,0,0.1c0,0-0.1,0-0.1,0c-0.2-0.3-0.3-0.6-0.5-1c-0.3-0.8-0.3-1.6,0-2.4c0.2-0.6,0.4-1.2,0.3-1.8
		c0-0.3-0.1-0.5,0-0.8c0.1-0.4,0.3-0.8,0.4-1.2c0.2-0.6,0.4-1.1,0.6-1.7c0-0.1,0-0.3,0-0.4c0-0.1,0-0.3,0.2-0.3
		c0.6-0.3,1-0.7,1.5-1.2c0.5-0.5,1.1-0.7,1.7-0.6c0.1,0,0.2,0,0.3,0c-0.3,0.1-0.6,0.1-0.9,0.2c-0.5,0.1-0.7,0.3-0.9,0.8
		c0,0.1-0.1,0.3-0.1,0.4c-0.1,0.4-0.2,0.8-0.5,1.2c-0.1,0.1-0.1,0.2-0.1,0.4c0.1,0.1,0.2,0.2,0.3,0.1c0.1,0,0.2,0,0.3-0.1
		c0.1,0,0.2-0.1,0.2-0.1c0.1,0,0.1-0.1,0.2,0c0.1,0.1,0.1,0.1,0,0.2c0,0.1-0.1,0.2-0.2,0.3c-0.3,0.4-0.5,0.9-0.8,1.3
		c-0.1,0.1-0.1,0.2-0.2,0.2c-0.2,0.2-0.4,0.4-0.4,0.8c-0.1,0.5-0.3,1-0.5,1.5c-0.1,0.2-0.1,0.5-0.2,0.7c0,0.3,0.1,0.6,0.2,0.9
		c0.2,0.3,0.3,0.6,0.5,1c0.1-0.3,0.1-0.5,0.2-0.8c0.2-0.6,0.3-1.2,0.7-1.7c0-0.1,0.1-0.2,0.2-0.1c0.1,0,0.1,0.1,0.1,0.2
		c0,0.2-0.1,0.4-0.1,0.6c-0.3,1-0.2,2.1,0.2,3c0.2,0.3,0.4,0.5,0.7,0.8c0.2,0.2,0.4,0.5,0.5,0.8c0,0.4,0.3,0.7,0.5,1
		c0.1,0.2,0.2,0.5,0.3,0.8c-0.1,0-0.2-0.1-0.3-0.1c-0.3-0.2-0.6-0.1-0.7,0.3c-0.1,0.3,0,0.7,0.3,0.9c0.2,0.2,0.4,0.1,0.7,0
		C17,33.7,17.1,33.7,17.2,33.7z"/>
	<path id="XMLID_385_" class="st52" d="M35.4,33.4c0.3,0.1,0.4,0,0.6-0.3c0.1-0.1,0.1-0.3,0.2-0.4c0.1-0.1,0.1-0.2,0.1-0.4
		c0-0.1-0.1-0.1,0.1-0.1c0.2,0,0.4-0.1,0.6-0.3c0.2-0.2,0.4-0.3,0.7-0.2c0.1,0,0.2,0.1,0.1,0.2c-0.1,0.3-0.1,0.5-0.1,0.8
		c0,0.1,0,0.3,0,0.4c0,0.1-0.1,0.2-0.2,0.2c-0.1,0-0.1-0.1-0.1-0.2c0-0.3-0.1-0.4-0.4-0.4c-0.4,0.1-0.6,0.6-0.4,1
		c0.2,0.2,0.3,0.2,0.5,0c0.1-0.1,0.1-0.2,0.3-0.1c0,0,0,0,0,0.1c-0.3,0.5-0.5,1-0.9,1.4c-0.3,0.3-0.6,0.4-0.9,0.5
		c-0.2,0-0.4,0.1-0.6,0.3c-0.1,0.4-0.4,0.7-0.8,0.8l0,0c0.3-0.5,0.7-1.1,1-1.6c0.1-0.1,0.1-0.2,0-0.3c-0.1-0.1-0.2-0.1-0.3,0
		c-0.1,0.1-0.2,0.1-0.4,0.1c-0.2,0-0.2,0-0.2-0.2c0-0.2,0.1-0.4,0.1-0.5c0-0.2,0.1-0.3,0.3-0.4C35,33.6,35.1,33.4,35.4,33.4z"/>
	<path id="XMLID_384_" class="st53" d="M24.9,39.8c0.3-0.3,0.7-0.4,1.1-0.5c0.1,0,0.3,0,0.4,0.1c0.1,0.1,0.2,0,0.3-0.1
		c0-0.1,0.1-0.1,0.1-0.1c0.1-0.1,0.2-0.1,0.3,0c0.1,0.1,0.1,0.2,0.2,0.3c0.1,0,0.1,0,0.1,0.1c0,0.1-0.1,0.1-0.2,0.2
		c-0.2,0.1-0.3,0.1-0.3-0.1c0,0,0-0.1,0-0.1c0-0.1-0.1-0.1-0.2-0.1c-0.1,0-0.1,0.1,0,0.2c0.1,0.1,0.2,0.2,0,0.3
		c-0.1,0.1-0.2,0.1-0.4,0.1c-0.3-0.1-0.6-0.1-0.8,0C25.2,40.2,25,40.1,24.9,39.8L24.9,39.8L24.9,39.8z"/>
	<path id="XMLID_383_" class="st13" d="M34.2,36.6c0,0.1,0,0.2,0,0.3c0,0.4-0.2,0.6-0.4,0.7c-0.2,0.1-0.4,0.1-0.6-0.1
		C33,37.4,33,37.2,33,37.1C33.2,36.6,33.8,36.4,34.2,36.6C34.2,36.6,34.2,36.6,34.2,36.6z"/>
	<path id="XMLID_382_" class="st13" d="M37.3,33.6c-0.1,0-0.1,0.1-0.2,0.1c-0.3,0.3-0.6,0.3-0.7-0.2c-0.1-0.4,0.2-1,0.7-0.9
		c0.2,0,0.3,0.1,0.3,0.3c0,0.1,0,0.2,0,0.3C37.4,33.4,37.5,33.6,37.3,33.6z"/>
	<path id="XMLID_381_" class="st13" d="M31.7,38.1c-0.1,0-0.2,0.1-0.3,0.1c-0.2,0.1-0.4,0-0.5-0.1c-0.2-0.2-0.2-0.4-0.2-0.7
		c0.1-0.1,0.1-0.1,0.2-0.2c0.3-0.3,0.5-0.3,0.8,0.1c0,0.1,0.1,0.3,0.1,0.4C31.8,37.9,31.8,38,31.7,38.1z"/>
	<path id="XMLID_380_" class="st13" d="M27.4,39.7c0,0-0.1-0.1-0.1-0.1c0-0.1,0-0.1,0-0.2c0-0.4,0.2-0.6,0.7-0.6
		c0.2,0,0.4,0,0.6,0.1c-0.1,0.4-0.3,0.7-0.7,0.9C27.7,39.7,27.6,39.7,27.4,39.7z"/>
	<path id="XMLID_379_" class="st13" d="M32,36.2c-0.1,0.2-0.2,0.3-0.4,0.4c-0.1,0-0.2,0.1-0.3,0.1c-0.3-0.1-0.4-0.3-0.4-0.6
		c0-0.1,0-0.2,0-0.3c0-0.1,0-0.2,0.1-0.2c0.1,0,0.2,0,0.3,0.1c0.2,0.2,0.3,0.3,0.5,0.5C31.8,36.1,31.9,36.2,32,36.2z"/>
	<path id="XMLID_378_" class="st13" d="M24.5,38.4c0,0.1,0.1,0.2,0.1,0.2c-0.2,0.4-0.7,0.6-1.1,0.4c-0.1-0.1-0.1-0.2-0.1-0.3
		c0-0.2,0.1-0.4,0.3-0.4C24,38.2,24.2,38.3,24.5,38.4z"/>
	<path id="XMLID_377_" class="st50" d="M21.7,38.7c-0.1,0.3-0.2,0.4-0.5,0.3c-0.4-0.1-0.6-0.4-0.5-0.7c0-0.2,0.1-0.2,0.3-0.2
		c0.1,0,0.2,0.2,0.4,0.1C21.6,38.3,21.7,38.4,21.7,38.7z"/>
	<path id="XMLID_376_" class="st13" d="M24.9,39.8C24.9,39.8,24.9,39.9,24.9,39.8c-0.3,0.2-0.6,0.2-0.9,0.1
		c-0.1-0.1-0.2-0.1-0.2-0.3c-0.1-0.3,0.1-0.5,0.4-0.4C24.6,39.2,24.8,39.4,24.9,39.8z"/>
	<path id="XMLID_375_" class="st13" d="M22.4,40.2c0.2-0.2,0.5-0.1,0.7-0.1c0.1,0.1,0.1,0.1,0.2,0.2c0.2,0.3,0.2,0.5-0.1,0.6
		c-0.1,0-0.2,0-0.3,0C22.5,40.9,22.3,40.6,22.4,40.2z"/>
	<path id="XMLID_374_" class="st13" d="M26.4,40.3c0.1,0,0.2,0,0.3,0c0.2,0,0.3,0.1,0.3,0.3c0,0.2,0,0.3-0.2,0.3
		c-0.2,0.1-0.5,0.1-0.7,0c-0.2-0.1-0.2-0.2-0.2-0.4c0-0.2,0.2-0.2,0.3-0.2C26.3,40.2,26.3,40.2,26.4,40.3
		C26.4,40.2,26.4,40.3,26.4,40.3z"/>
	<path id="XMLID_373_" class="st13" d="M30.5,39c0.1-0.1,0.2-0.1,0.2-0.2c0.2-0.2,0.4-0.2,0.6-0.1c0,0.3-0.2,0.7-0.6,0.8
		c-0.2,0.1-0.4-0.1-0.4-0.3C30.5,39.2,30.5,39.1,30.5,39z"/>
	<path id="XMLID_372_" class="st13" d="M35,35.9c0.1-0.3,0.3-0.4,0.6-0.3c0,0.1,0,0.1,0.1,0.2c0.1,0.2,0,0.3-0.1,0.4
		c-0.2,0.2-0.5,0.1-0.5-0.2C35,36,35,35.9,35,35.9z"/>
	<path id="XMLID_371_" class="st51" d="M27.1,38.1c0.3-0.3,0.5-0.4,0.9-0.1c0,0.2-0.2,0.4-0.4,0.4C27.4,38.4,27.3,38.3,27.1,38.1z"
		/>
	<path id="XMLID_370_" class="st47" d="M34.7,33.7c-0.1,0.1-0.2,0.3-0.3,0.4c-0.3,0-0.4-0.1-0.4-0.3c0-0.3,0.2-0.5,0.5-0.4
		c0.1,0,0.2,0.1,0.2,0.2C34.7,33.6,34.7,33.6,34.7,33.7z"/>
	<path id="XMLID_369_" class="st50" d="M20.6,37.6c0-0.1-0.1-0.1-0.1-0.2c0-0.1-0.1-0.2,0-0.3c0.1-0.1,0.2-0.1,0.3-0.1
		c0.1,0.1,0.2,0.2,0.3,0.2c0,0.3-0.1,0.3-0.3,0.3C20.8,37.6,20.7,37.6,20.6,37.6z"/>
	<path id="XMLID_368_" class="st8" d="M11.3,19.4c0.3-0.5,0.7-0.9,1.2-1.2c0.1,0,0.2-0.1,0.3,0c0.1,0.1,0,0.2,0,0.2
		c0,0.1,0,0.2,0,0.3c0,0.1,0,0.2-0.1,0.2c-0.2,0.4-0.1,0.7-0.1,1.1c0,0.3,0,0.5-0.1,0.8c-0.1,0.2-0.1,0.5-0.1,0.7
		c-0.1,0.2-0.1,0.4-0.3,0.6C12,21.1,11.7,20.3,11.3,19.4C11.3,19.4,11.3,19.4,11.3,19.4z"/>
	<path id="XMLID_367_" class="st13" d="M12.3,29.6C12.3,29.6,12.3,29.6,12.3,29.6c0.1,0.1,0.2,0.2,0.2,0.2c0,0.1,0.1,0.2,0.2,0.3
		c0.2,0.1,0.1,0.2,0.1,0.3c0,0.1,0.1,0.3,0.2,0.4c0.1,0.1,0.2,0.3,0.2,0.5c0,0,0,0.1,0,0.1c0,0.4-0.2,0.6-0.5,0.6
		c-0.4,0-0.7-0.2-0.7-0.6c0-0.2,0-0.4,0-0.6c0.1-0.2,0.2-0.4,0-0.5c0-0.1,0-0.2,0-0.3C12,29.7,12,29.6,12.3,29.6z"/>
	<path id="XMLID_366_" class="st13" d="M10.8,25.7c0-0.1,0-0.2,0-0.3c0-0.3,0.2-0.4,0.4-0.3c0.1,0,0.1,0.1,0.2,0.1
		c0,0.2,0.1,0.3,0.1,0.5c0.1,0.3,0.1,0.5-0.2,0.7c-0.1,0.1-0.1,0.1-0.2,0C11,26.2,10.9,25.9,10.8,25.7z"/>
	<path id="XMLID_365_" class="st11" d="M13.8,17.3c0.3,0,0.3,0.1,0.3,0.4C14,17.8,14,17.9,13.9,18c0,0.1-0.1,0.2-0.1,0.2
		c-0.1,0.1-0.3,0.2-0.4,0.1c-0.2-0.1-0.2-0.2-0.2-0.4c0-0.2,0.1-0.4,0.2-0.6c0-0.1,0.1-0.1,0.2,0C13.7,17.4,13.8,17.4,13.8,17.3z"/>
	<path id="XMLID_364_" class="st13" d="M11.3,19.4C11.3,19.4,11.3,19.4,11.3,19.4c0,0.2,0,0.4,0,0.5c0,0.1,0,0.2,0,0.3
		c-0.1,0.1-0.2,0.2-0.3,0.2c-0.1,0-0.1-0.1-0.2-0.2c-0.1-0.2-0.2-0.4-0.1-0.7c0.1-0.3,0.2-0.4,0.5-0.2
		C11.2,19.3,11.3,19.3,11.3,19.4z"/>
	<path id="XMLID_363_" class="st13" d="M12.6,18.9c0-0.1,0.1-0.2,0.1-0.2c0.3-0.1,0.5,0.1,0.5,0.4c0,0.2-0.1,0.4-0.3,0.6
		c-0.2,0.1-0.3,0.1-0.4-0.1C12.6,19.3,12.6,19.1,12.6,18.9z"/>
	<path id="XMLID_362_" class="st47" d="M11.8,30.2c-0.1,0.1-0.3,0.2-0.4,0.3c-0.3-0.3-0.3-0.6-0.2-0.9c0.2,0,0.3,0,0.5,0.1
		C11.8,29.8,11.8,30.1,11.8,30.2z"/>
	<path id="XMLID_361_" class="st13" d="M33.9,12.6c0-0.2-0.2-0.3-0.1-0.5c0,0,0,0,0,0c0.1-0.5,0.4-0.6,0.8-0.3
		c0.3,0.2,0.4,0.6,0.3,0.9c0,0.2-0.2,0.2-0.3,0.2C34.4,13,34.2,12.8,33.9,12.6z"/>
	<path id="XMLID_360_" class="st13" d="M28.5,10.8c0.4,0,0.7,0.2,0.8,0.5c0,0.2-0.1,0.3-0.2,0.4c-0.3,0-0.8-0.3-0.9-0.5
		c-0.1-0.2,0-0.3,0.2-0.4C28.4,10.8,28.5,10.8,28.5,10.8z"/>
	<path id="XMLID_359_" class="st13" d="M26.9,8.9c0.4,0,0.6,0.2,0.6,0.5c0,0.2-0.1,0.3-0.3,0.3c-0.2,0-0.4,0-0.6-0.1
		c-0.2-0.1-0.2-0.3-0.2-0.5C26.5,9,26.6,9,26.7,9C26.7,9,26.8,8.9,26.9,8.9z"/>
	<path id="XMLID_358_" class="st47" d="M23.5,9.6c-0.1,0-0.2,0-0.3,0c-0.2,0-0.3-0.1-0.3-0.3C22.9,9.1,23,9,23.2,9
		c0.2,0,0.4,0,0.6,0c0.2,0,0.3,0.2,0.3,0.4c0,0.2-0.2,0.3-0.3,0.3C23.7,9.6,23.6,9.6,23.5,9.6z"/>
	<path id="XMLID_357_" class="st13" d="M30.6,11.1c0.1-0.2,0.2-0.3,0.4-0.3c0.1,0.1,0.3,0.2,0.4,0.4c0,0.3-0.1,0.4-0.3,0.4
		C30.8,11.6,30.6,11.4,30.6,11.1z"/>
	<path id="XMLID_356_" class="st54" d="M34.9,14c-0.1,0-0.3,0-0.4-0.1c-0.1-0.1-0.1-0.2-0.1-0.3c0.1-0.1,0.2-0.2,0.3-0.2
		c0.1,0,0.2,0,0.3,0.1c0.1,0.1,0.3,0.2,0.2,0.3C35.2,14,35,14,34.9,14z"/>
	<path id="XMLID_355_" class="st50" d="M27,10.2c0.1,0.1,0.3,0.1,0.4,0.2c0.1,0.1,0.1,0.2,0,0.3c-0.1,0.1-0.1,0.1-0.2,0
		c-0.2-0.1-0.3-0.1-0.3-0.4C26.9,10.3,26.9,10.2,27,10.2z"/>
	<path id="XMLID_354_" class="st55" d="M36.7,13.4c0-0.1,0-0.2,0-0.3c0,0,0,0,0,0c0.1,0,0.2-0.1,0.1,0.1c0,0.1,0,0.2,0.1,0.3
		c0,0.1,0.1,0.2,0.2,0.3c0,0-0.1,0-0.1,0C37,13.8,36.8,13.6,36.7,13.4z"/>
	<path id="XMLID_353_" class="st52" d="M18.6,38.9c0,0.1,0.1,0.2,0.1,0.3c0,0,0,0,0,0.1c-0.5,0-1-0.2-1.4-0.5
		c-0.3-0.2-0.7-0.4-0.9-0.7C16.3,38,16.2,38,16.1,38c-0.1-0.2-0.1-0.4,0-0.5c0.4,0.1,0.7,0.1,1.1,0.3c0.4,0.1,0.8,0.4,1,0.8
		c0.1,0.1,0.2,0.2,0.3,0.2C18.6,38.8,18.6,38.8,18.6,38.9z"/>
	<path id="XMLID_352_" class="st56" d="M14.6,36.2c0,0.1,0,0.2-0.1,0.2c-0.1,0-0.1,0-0.2-0.1c-0.1-0.1-0.2-0.2-0.2-0.4
		c-0.1-0.1-0.1-0.3-0.1-0.4c-0.1,0-0.1-0.2-0.2-0.2c-0.1-0.3-0.3-0.4-0.6-0.2c0,0-0.1,0-0.1,0c0-0.3-0.1-0.6-0.3-0.8
		c-0.2-0.2-0.3-0.5-0.3-0.8c0-0.1,0.1-0.3,0.2-0.3c0.1-0.1,0.2,0,0.3,0.1c0.1,0.1,0.3,0.2,0.4,0.4c0.2,0.2,0.2,0.4,0.3,0.7
		c0.2,0.6,0.4,1.1,0.8,1.5C14.5,36,14.6,36.1,14.6,36.2C14.6,36.2,14.6,36.2,14.6,36.2C14.6,36.2,14.6,36.2,14.6,36.2z"/>
	<path id="XMLID_351_" class="st13" d="M16.1,37.4c0,0.2,0,0.4,0,0.5c-0.2,0.1-0.3,0.1-0.5,0.1c-0.4,0-0.7-0.5-0.7-0.9
		c0-0.2,0.3-0.4,0.6-0.4c0.2,0,0.3,0.1,0.4,0.3C15.9,37.2,16,37.3,16.1,37.4z"/>
	<path id="XMLID_350_" class="st13" d="M13.1,35.1c0,0,0.1-0.1,0.1-0.1c0.2-0.2,0.4-0.1,0.6,0.1c0.1,0.1,0.1,0.2,0.2,0.4
		c0,0.2,0,0.4-0.1,0.5c-0.1,0.2-0.3,0.3-0.5,0.2c-0.3-0.1-0.4-0.4-0.4-0.6C13,35.5,13.1,35.3,13.1,35.1z"/>
	<path id="XMLID_349_" class="st47" d="M18.8,39.3C18.8,39.3,18.8,39.2,18.8,39.3c0.3-0.1,0.6-0.1,0.8-0.1c0.1,0,0.2,0.1,0.3,0.3
		c0.1,0.2,0,0.4-0.3,0.3C19.2,39.8,19,39.6,18.8,39.3z"/>
	<path id="XMLID_348_" class="st47" d="M18.6,38.9c0-0.1-0.1-0.1-0.1-0.2c0-0.2-0.1-0.4,0.1-0.5c0.2-0.1,0.4,0,0.5,0.1
		c0,0.1,0.1,0.1,0.1,0.2c0,0.2-0.2,0.3-0.3,0.3C18.9,38.9,18.8,38.9,18.6,38.9z"/>
	<path id="XMLID_347_" class="st47" d="M14.6,36.2C14.6,36.2,14.6,36.2,14.6,36.2c0-0.2,0.1-0.3,0.3-0.4c0.1,0,0.1,0,0.2,0
		c0.1,0,0.2,0.1,0.3,0.1c0.1,0.1,0,0.2,0,0.3c0,0.2-0.1,0.2-0.3,0.2C14.9,36.3,14.8,36.3,14.6,36.2z"/>
	<path id="XMLID_346_" class="st47" d="M12.1,32.7c0,0.1,0,0.3-0.2,0.3c-0.2,0-0.3-0.2-0.3-0.4c0-0.2,0.1-0.3,0.2-0.3
		C12,32.3,12.1,32.4,12.1,32.7z"/>
	<path id="XMLID_345_" class="st57" d="M11.1,29.6c-0.1,0.1-0.2,0.2-0.3,0.1c-0.2-0.1-0.2-0.2-0.2-0.4c0,0,0-0.1,0-0.1
		c0-0.3,0-0.3,0.4-0.3c0.1,0,0.2,0.2,0.2,0.3C11.1,29.3,11.1,29.5,11.1,29.6z"/>
	<path id="XMLID_344_" class="st9" d="M22.8,26.9c-0.6,0-1.2-0.1-1.7-0.6C21.1,26.3,21,26.2,21,26c0.1-0.3,0-0.5-0.3-0.7
		c-0.2-0.1-0.3-0.2-0.5-0.3c-0.4-0.2-0.4-0.6-0.2-1c0.3-0.4,0.6-0.8,1-1.1c0.3-0.2,0.4-0.2,0.6,0.1c0.1,0.2,0.2,0.2,0.3,0
		c0.1-0.1,0.2-0.2,0.4-0.3c0.3-0.1,0.6-0.3,0.8-0.5c0.2-0.3,0.5-0.3,0.7,0c0.2,0.3,0.4,0.3,0.6,0c0.4-0.4,1.3-0.4,1.7,0
		c0.1,0.1,0.2,0.2,0.1,0.3c-0.1,0.1-0.2,0.2-0.4,0.2c0,0,0,0-0.1,0c-0.5-0.3-1,0-1.4,0.2c-0.2,0.1-0.2,0.3-0.2,0.4
		c0.1,0.1,0.3,0.2,0.4,0c0.3-0.3,0.7-0.2,1-0.1c0.2,0.1,0.2,0.2,0.2,0.4c0,0.1-0.1,0.1-0.1,0.2c-0.1,0.2-0.1,0.4,0.1,0.5
		c0.1,0.1,0.3,0.1,0.4,0.2c0.2,0.2,0.3,0.3,0.1,0.5c-0.3,0.4-0.4,0.4-0.8,0.3c-0.2-0.1-0.5-0.1-0.7-0.2c-0.3-0.2-0.3-0.3,0-0.5
		c0,0,0,0,0,0c0.4-0.2,0.3-0.4,0-0.6c-0.3-0.2-1-0.1-1.1,0.3c0,0.1,0,0.2,0,0.3c0.1,0.1,0.2,0.2,0.3,0.3c0.3,0.2,0.3,0.3,0.3,0.6
		c0,0.2-0.1,0.4,0,0.5c0.2,0.1,0.3,0,0.5-0.1c0.1-0.1,0.2,0,0.3,0.1c0.2,0.3,0.3,0.3,0.5,0c0,0,0.1-0.1,0.1-0.1
		c0.2-0.2,0.4-0.2,0.5,0c0.1,0.1,0.2,0.2,0.2,0.3c0.2,0.2,0.3,0.2,0.5,0.1c0.2-0.1,0.5-0.3,0.7-0.4c0.2-0.1,0.3-0.4,0.1-0.6
		c-0.1-0.1-0.2-0.2-0.2-0.3c-0.1-0.2-0.1-0.3,0.1-0.4c0.1,0,0.1,0,0.2,0c0.5-0.1,0.7-0.6,0.4-0.9c-0.1-0.2-0.2-0.3-0.2-0.5
		c-0.4-0.8-0.8-1.6-1.6-2.1c-0.2-0.1-0.3-0.3-0.5-0.4c-0.1-0.1-0.1-0.2-0.1-0.2c0-0.1,0-0.2,0-0.2c0-0.1-0.1-0.2-0.2-0.1
		c-0.4,0.2-0.9,0.2-1.4,0.2c-0.2,0-0.4,0-0.5,0.1c-0.1,0.1-0.2,0-0.2-0.1c0,0,0-0.1,0-0.1c0.2-0.5,0.6-1,1.2-1c0.1,0,0.2,0,0.3-0.1
		c0.1,0,0.2-0.1,0.2-0.3c0-0.1-0.1-0.3-0.2-0.3c-0.1-0.1-0.3-0.1-0.4-0.1c-0.3,0.1-0.6,0.1-1,0.2c-0.2,0-0.4,0.1-0.6,0.3
		c-0.1,0.1-0.1,0.1-0.2,0.1c-0.1,0-0.2,0-0.2-0.1c-0.1-0.1-0.1-0.1,0-0.2c0-0.1,0.1-0.2,0.2-0.2c0.2-0.1,0.3-0.3,0.4-0.5
		c0.1-0.2,0-0.3-0.2-0.4c-0.2-0.1-0.3-0.1-0.5,0c-0.2,0.2-0.4,0.3-0.6,0.4c-0.4,0.1-0.7,0.3-1,0.6c-0.1,0.1-0.2,0.2-0.3,0.1
		c-0.1,0-0.2-0.1-0.2-0.3c0,0,0-0.1,0-0.1c-0.1-0.2-0.2-0.2-0.3-0.1c-0.1,0.1-0.2,0.2-0.4,0.4c-0.5,0.4-0.9,0.8-1.2,1.4
		c-0.1-0.3-0.1-0.5,0.1-0.7c0.4-0.5,0.7-1,1.1-1.4c0.3-0.3,0.6-0.5,1-0.7c0.2-0.1,0.4-0.1,0.6,0c0.3,0.1,0.5,0.1,0.7-0.2
		c0.1-0.1,0.2-0.3,0.3-0.4c0.2-0.1,0.4-0.1,0.6-0.1c0.2,0.1,0.5,0.1,0.7,0c0.2-0.1,0.5-0.1,0.7,0c0.6,0.2,1.2,0.4,1.8,0.4
		c0.3,0,0.6-0.1,0.9-0.1c0.3-0.1,0.6,0,0.9,0.2c0.3,0.3,0.7,0.6,0.9,1c0,0,0,0.1,0.1,0.1c0,0.1,0.1,0.1,0,0.2c-0.1,0.1-0.2,0-0.2,0
		c-0.1-0.1-0.2-0.2-0.3-0.2c-0.1-0.1-0.2-0.1-0.4,0c-0.1,0.1,0,0.2,0,0.3c0.1,0.1,0.1,0.3,0.2,0.4c0,0.1,0,0.2-0.1,0.3
		c-0.1,0.1-0.2,0.1-0.3,0c-0.2-0.1-0.4-0.3-0.5-0.4c-0.1-0.1-0.2-0.2-0.4,0c-0.1,0.2-0.3,0.2-0.5,0.2c-0.4,0.1-0.6,0.4-0.5,0.7
		c0.1,0.2,0.2,0.4,0.4,0.2c0.3-0.2,0.5-0.1,0.7,0.1c0.1,0.1,0.3,0.2,0.5,0c0.3-0.3,0.9-0.1,1,0.3c0.1,0.5,0.4,0.9,0.6,1.3
		c0.2,0.3,0.3,0.7,0.3,1.1c0,0.3,0.2,0.6,0.4,0.8c0.3,0.3,0.5,0.7,0.5,1.1c0,0,0,0.1,0,0.1c-0.1,0-0.1,0-0.1,0c0,0-0.1-0.1-0.1-0.1
		c-0.2-0.2-0.3-0.1-0.4,0.1c-0.1,0.1,0,0.3,0,0.4c0.3,1.1,0,1.8-0.9,2.5c-0.4,0.3-0.9,0.5-1.4,0.8c-0.4,0.2-0.8,0.4-1.2,0.6
		c-0.1,0.1-0.2,0.1-0.3,0.1c0,0-0.1,0-0.1-0.1c0-0.1,0-0.1,0.1-0.1c0.3-0.2,0.6-0.4,0.9-0.7c0.3-0.2,0.6-0.5,0.8-0.8
		c0.1-0.1,0.1-0.2,0-0.3c-0.1-0.1-0.2-0.1-0.3-0.1c-0.2,0.1-0.3,0.1-0.4,0.3c-0.3,0.3-0.7,0.6-1.1,0.8c-0.1,0.1-0.2,0.1-0.3,0.2
		c-0.4,0.4-1,0.3-1.5,0.3c-0.2,0-0.3-0.2-0.3-0.5c0-0.2,0.1-0.4,0-0.7c-0.1-0.4-0.3-0.6-0.6-0.6c-0.6-0.1-0.6-0.4-0.4-0.8
		c0.1-0.1,0.1-0.3,0.2-0.4c0.1-0.3,0-0.5-0.2-0.6c-0.2-0.1-0.4-0.2-0.7-0.2c-0.1,0-0.2,0-0.2,0.1c0,0.2-0.1,0.3-0.2,0.4
		c-0.2,0.2-0.2,0.4,0,0.7c0.2,0.3,0.4,0.7,0.7,0.9C22.6,26.8,22.7,26.8,22.8,26.9z"/>
	<path id="XMLID_343_" class="st8" d="M22.8,32.6c-0.3,0.1-0.6,0-1,0c-0.3-0.1-0.5-0.2-0.8-0.3c-0.2-0.1-0.3-0.1-0.5-0.1
		c-1,0.2-1.9-0.6-2-1.5c0-0.2,0-0.4,0-0.7c0-0.1,0-0.2-0.1-0.3c-0.1-0.1-0.2-0.1-0.3-0.1c-0.1,0-0.1,0.1-0.2,0.2
		c0,0.1-0.1,0.2-0.1,0.3c-0.1,0.2-0.2,0.2-0.3,0.1c-0.3-0.4-0.7-0.8-0.6-1.4c0-0.2-0.1-0.4-0.2-0.6c-0.3-0.5-0.3-1,0.1-1.4
		c0.3-0.3,0.4-0.7,0.5-1c0-0.1,0.1-0.2,0.2-0.3c0-0.1,0.1-0.1,0-0.2c-0.1-0.1-0.2-0.1-0.2,0c-0.1,0.1-0.3,0.1-0.4,0.2
		c-0.1,0.1-0.3,0.2-0.5,0.1c-0.2-0.1-0.2-0.3-0.1-0.5c0.2-0.5,0.5-1,0.9-1.5c0.2-0.2,0.4-0.5,0.7-0.7c0.1-0.1,0.2-0.3,0.1-0.5
		c-0.2-0.5,0.1-0.8,0.4-0.9c0.4-0.2,0.8-0.4,1.2-0.6c0.1-0.1,0.3-0.2,0.4-0.2c0.1-0.1,0.2-0.1,0.3,0c0.1,0.1,0.1,0.2,0.1,0.3
		c0,0.1-0.1,0.2-0.1,0.3c0,0.1,0,0.2,0.1,0.3c0.1,0.1,0.3,0.1,0.4,0c0,0,0.1-0.1,0.1-0.1c0.4-0.5,0.9-0.5,1.5-0.5
		c0.3,0,0.6,0.1,0.9,0c0.1,0,0.2,0,0.4,0.1c0.1,0,0.1,0.1,0.1,0.3c0,0.1-0.1,0.2-0.2,0.2c-0.1,0-0.2,0-0.3,0
		c-0.8-0.1-1.5,0.2-2.2,0.5c-0.3,0.2-0.5,0.3-0.8,0.5c-0.1,0.1-0.2,0.1-0.3,0.1c-0.1-0.1-0.1-0.2-0.1-0.3c0-0.1,0-0.2,0-0.3
		c0-0.1,0-0.2-0.1-0.2c-0.1,0-0.2,0-0.2,0.1c-0.1,0.2-0.2,0.3-0.4,0.4c-0.1,0.1-0.3,0.2-0.4,0.3c-0.1,0.1-0.1,0.1,0,0.2
		c0.2,0.4,0,0.7-0.3,1c-0.2,0.2-0.4,0.3-0.5,0.5c0,0,0,0,0,0c0.4,0,0.5,0.2,0.5,0.6c0,0.3-0.1,0.6-0.1,0.9c0,0.5-0.1,1-0.3,1.4
		c0,0,0,0.1-0.1,0.1c-0.1,0.2,0,0.3,0.2,0.3c0.3,0,0.5,0.2,0.6,0.5c0,0.1,0.1,0.3,0.1,0.4c0.1,0.3,0.3,0.4,0.6,0.3
		c0.4-0.1,0.6,0.1,0.6,0.4c0.1,0.6,0.4,1.1,0.8,1.6c0.5,0.5,1,1,1.6,1.4C22.6,32.5,22.7,32.6,22.8,32.6z"/>
	<path id="XMLID_342_" class="st8" d="M32,20c0.1,0.2,0.1,0.4,0.1,0.6c0,0.3,0,0.5,0,0.8c0,0.5,0.1,1,0.3,1.5c0.2,0.5,0.3,1,0.2,1.6
		c-0.1,0.5-0.2,1-0.4,1.6c-0.1,0.3,0,0.6,0.3,0.8c0.2,0.1,0.3,0.4,0.2,0.6c0,0.4-0.2,0.8-0.4,1.1c-0.1,0.1-0.2,0.2-0.4,0.2
		c-0.4,0.1-0.5,0.2-0.5,0.6c0,0.3-0.1,0.5-0.4,0.6c-0.5,0.2-1.1,0.4-1.6,0.7c-0.4,0.2-0.8,0.2-1.2,0.3c0.1-0.2,0.3-0.3,0.5-0.3
		c0.4-0.2,0.7-0.3,1.1-0.5c0.9-0.4,1.5-1,1.8-2c0-0.1,0-0.3,0.1-0.4c0-0.1,0-0.2-0.1-0.2c-0.1,0-0.2,0-0.2,0.1
		c-0.3,0.3-0.5,0.6-0.9,0.9c-0.3,0.2-0.6,0.4-1,0.4c-0.3,0-0.5,0.2-0.8,0.2c-0.1,0-0.2,0-0.3,0c0.1-0.1,0.2-0.1,0.3-0.1
		c0.6-0.3,1.2-0.6,1.6-1.1c0.5-0.6,0.9-1.3,1-2.1c0-0.1,0-0.1,0-0.2c0-0.2,0-0.2,0.2-0.1c0,0,0.1,0,0.1,0.1c0.2,0.1,0.2,0,0.2-0.1
		c0-0.3,0-0.6-0.1-0.9c0-0.5,0-1,0-1.6c0-0.3,0-0.6,0-0.8c0.1-0.6,0.1-1.2,0.2-1.8C32,20.1,32,20,32,20z"/>
	<path id="XMLID_341_" class="st9" d="M35.4,28.2c-0.1,0.3-0.1,0.6-0.2,0.8c-0.2,0.5-0.5,0.9-0.9,1.3c-0.4,0.4-0.8,0.9-1.2,1.3
		c0,0-0.1,0.1-0.1,0.1c-0.5,0.2-1,0.5-1.4,0.8c-0.3,0.1-0.7,0.1-1,0.2c-0.4,0.1-0.7,0.3-1,0.6c-0.4,0.4-0.8,0.6-1.3,0.6
		c-0.5,0-1.1,0.1-1.6,0.1c-0.2,0-0.4,0-0.6-0.1c0.4-0.1,0.8-0.3,1.3-0.4c0.2-0.1,0.4-0.1,0.7-0.2c0.1,0,0.2-0.1,0.3-0.2
		c0.3-0.5,0.8-0.8,1.4-0.9c0.7-0.1,1.3-0.4,1.8-0.8c0.4-0.3,0.7-0.6,1.2-0.6c0.2,0,0.4-0.2,0.4-0.4c0.1-0.4,0.3-0.6,0.6-0.8
		c0.4-0.2,0.7-0.5,0.9-0.8c0.2-0.4,0.4-0.8,0.3-1.2c-0.1-0.7-0.1-1.4-0.2-2.1c-0.1-0.3-0.1-0.5-0.2-0.8c0-0.1-0.1-0.1-0.1-0.2
		c0.2,0.2,0.4,0.4,0.5,0.7c0.2,0.4,0.3,0.9,0.4,1.4c0,0.4,0.1,0.9,0.2,1.3C35.4,28,35.4,28.1,35.4,28.2z"/>
	<path id="XMLID_340_" class="st9" d="M24.5,35.8c0,0.2-0.2,0.3-0.4,0.4c-0.2,0.1-0.4,0.1-0.7,0.2c-0.2,0-0.4,0.1-0.4,0.3
		c-0.1-0.1-0.1-0.2-0.1-0.2c-0.2-0.2-0.5-0.3-0.8-0.1c-0.1,0-0.1,0.1-0.2,0.1c-0.1-0.1-0.2-0.2-0.4-0.1c-0.7,0.2-1,0-1.4-0.5
		c-0.2-0.3-0.3-0.6-0.6-0.7c-0.1-0.1-0.2-0.1-0.3-0.1c-0.3,0-0.5-0.2-0.6-0.5c0-0.3-0.2-0.6-0.3-0.9c-0.1-0.5-0.2-0.9-0.1-1.4
		c0-0.2,0-0.3,0-0.5c0.3,0.3,0.4,0.6,0.5,0.9c0.2,0.6,0.5,1,0.9,1.4c0.2,0.2,0.5,0.5,0.6,0.8c0.1,0.2,0.2,0.2,0.4,0.1
		c0.3-0.2,0.6-0.2,0.9,0c0.4,0.3,0.7,0.6,1.2,0.7c0.3,0,0.6,0.1,0.9,0.1C23.9,35.6,24.2,35.7,24.5,35.8z"/>
	<path id="XMLID_339_" class="st8" d="M30.2,28.8c-0.2,0.3-0.4,0.5-0.7,0.7c-0.4,0.3-0.9,0.3-1.4,0.5c-0.7,0.2-1.4,0.6-1.8,1.1
		c-0.4,0.5-0.9,0.5-1.5,0.3c-0.2,0-0.3-0.1-0.5-0.2c-0.2-0.1-0.5-0.1-0.7,0c-0.1,0-0.2,0-0.3-0.1c-0.2-0.3-0.5-0.4-0.8-0.6
		c-0.3-0.1-0.6-0.3-0.8-0.5c-0.2-0.2-0.4-0.5-0.4-0.8c-0.1-0.5-0.3-1-0.5-1.5c-0.2-0.4-0.2-0.8-0.3-1.3c0,0,0,0,0,0
		c0.2,0.7,0.6,1.3,1,1.9c0.2,0.3,0.3,0.5,0.5,0.8c0.2,0.3,0.5,0.5,0.9,0.4c0.4-0.1,0.7,0.1,0.9,0.4c0.5,0.7,1.1,0.8,1.9,0.4
		c0.6-0.3,1.3-0.5,1.9-0.7c0.7-0.2,1.5-0.4,2.2-0.8C30,28.9,30,28.8,30.2,28.8z"/>
	<path id="XMLID_338_" class="st9" d="M18.5,18.7c0,0.2,0,0.4-0.2,0.6c-0.5,0.5-0.8,1.1-1.2,1.7c-0.3,0.4-0.5,0.8-0.5,1.4
		c-0.1,0.7-0.5,1.4-0.8,2.1c-0.1,0.1-0.1,0.2-0.2,0.4c-0.1-0.1-0.1-0.3-0.1-0.5c0.2-1.1,0.4-2.3,0.6-3.4c0.1-0.5,0.2-0.7,0.7-0.8
		c0.2,0,0.3-0.1,0.4-0.3c0.1-0.2,0.2-0.4,0.4-0.5C17.9,19.1,18.2,18.9,18.5,18.7z"/>
	<path id="XMLID_337_" class="st8" d="M29.2,17c0.5,0.2,0.9,0.4,1.3,0.7c0.3,0.2,0.5,0.4,0.7,0.8c0.1,0.3,0.2,0.6,0.2,0.9
		c0.1,0.5,0,1-0.3,1.5c0,0-0.1,0.1-0.1,0.1c0-0.3-0.1-0.6-0.1-0.8C30.7,20,30.6,20,30.4,20c-0.4,0-0.6-0.2-0.6-0.6
		c0-0.1,0-0.1,0-0.2c0-0.2,0-0.3,0.1-0.5c0.2-0.3,0.1-0.7-0.3-1C29.5,17.5,29.3,17.3,29.2,17z"/>
	<path id="XMLID_336_" class="st9" d="M23.7,33c0.2,0,0.4-0.1,0.6-0.1c0.5-0.1,1-0.4,1.5-0.5c0.3-0.1,0.5-0.2,0.8-0.2
		c0.1,0,0.2,0,0.3,0.1c0,0.1,0,0.2-0.1,0.3c-0.1,0.1-0.2,0.1-0.3,0.2c-0.5,0.2-1,0.4-1.5,0.4C24.5,33.3,24.1,33.3,23.7,33z"/>
	<path id="XMLID_335_" class="st13" d="M17.2,33.7c-0.1,0.1-0.3,0.2-0.5,0.2c-0.3,0.1-0.6-0.2-0.7-0.6c-0.1-0.3,0-0.5,0.2-0.8
		c0.1-0.1,0.3-0.2,0.5-0.1c0.1,0.1,0.3,0.1,0.4,0.2c0.1,0.1,0.1,0.3,0.2,0.4C17.3,33.2,17.3,33.5,17.2,33.7z"/>
	<path id="XMLID_334_" class="st8" d="M21.4,33.6c1.3,0.4,2.6,0.4,3.9,0.4c-0.2,0.2-0.3,0.2-0.5,0.3c-0.9,0.3-1.7,0.2-2.5-0.2
		C21.9,33.9,21.7,33.8,21.4,33.6z"/>
	<path id="XMLID_333_" class="st58" d="M33.1,26.9c0.2-1.2,0.2-2.3,0.1-3.5c0,0,0,0,0.1,0c0.1,0.2,0.1,0.5,0.2,0.7
		c0.2,0.5,0.3,1.1,0.3,1.6c0,0.3-0.1,0.7-0.3,0.9C33.4,26.8,33.3,26.9,33.1,26.9z"/>
	<path id="XMLID_332_" class="st9" d="M29.4,31.1c-0.2,0.2-0.5,0.4-0.8,0.5c-0.4,0.2-0.7,0.3-1.1,0.4c-0.1,0-0.2,0-0.3-0.1
		c-0.1-0.1,0-0.2,0.1-0.2c0.1-0.2,0.3-0.3,0.6-0.3c0.4,0,0.8-0.2,1.2-0.3C29.2,31.1,29.3,31,29.4,31.1z"/>
	<path id="XMLID_331_" class="st9" d="M34.2,23.8c-0.2-0.6-0.4-1.3-0.5-1.9c0-0.2-0.1-0.3-0.1-0.5c0-0.1-0.1-0.1,0-0.2
		c0.1,0,0.2,0,0.2,0.1c0.2,0.3,0.3,0.6,0.4,0.9C34.3,22.8,34.2,23.3,34.2,23.8z"/>
	<path id="XMLID_330_" class="st59" d="M31.1,21.3c0.5,0.8,0.2,1.7,0.1,2.5C31.1,23,30.8,22.2,31.1,21.3z"/>
	<path id="XMLID_329_" class="st9" d="M34,27.9c0.2,0.8-0.6,1.9-1.6,1.9C33,29.3,33.7,28.8,34,27.9z"/>
	<path id="XMLID_328_" class="st9" d="M22.3,27.5c0.5,0.4,0.9,0.9,1.3,1.4c-0.5-0.1-0.8-0.3-1-0.7C22.4,28,22.3,27.8,22.3,27.5
		C22.2,27.5,22.2,27.5,22.3,27.5z"/>
	<path id="XMLID_327_" class="st60" d="M32.9,20.6c0,0.1,0.1,0.2,0.1,0.2C32.9,20.8,32.9,20.7,32.9,20.6z"/>
	<path id="XMLID_326_" class="st61" d="M22.3,27.5C22.3,27.5,22.2,27.5,22.3,27.5c-0.1,0-0.1,0-0.1-0.1
		C22.2,27.4,22.2,27.5,22.3,27.5z"/>
	<path id="XMLID_325_" class="st13" d="M21.8,36.4c0.1-0.1,0.2-0.1,0.4-0.2c0.3-0.1,0.6,0,0.8,0.3c0.1,0.1,0,0.1,0,0.2
		c-0.1,0.4-0.3,0.6-0.7,0.5C21.9,37.1,21.8,36.8,21.8,36.4z"/>
	<path id="XMLID_324_" class="st9" d="M26.2,36.8c1-0.3,1.9-0.3,2.9,0.1c0,0,0,0,0,0c-0.1,0-0.2,0-0.3,0c-0.5,0-0.9,0.1-1.4,0.1
		C26.9,37.1,26.5,37,26.2,36.8z"/>
	<path id="XMLID_323_" class="st9" d="M12.8,30.4c0-0.1-0.1-0.2-0.2-0.3c-0.2-0.1-0.2-0.3-0.2-0.5c0-0.5,0-1,0-1.5
		C12.7,28.8,12.9,29.6,12.8,30.4z"/>
	<path id="XMLID_322_" class="st13" d="M14.8,32.6c0-0.2,0-0.3,0.1-0.4C15,32,15.1,32,15.3,32c0.1,0,0.2,0.1,0.2,0.2
		c0,0.2,0,0.3,0,0.5c0,0.2,0,0.3-0.2,0.3c-0.2,0-0.3-0.1-0.4-0.2C14.8,32.7,14.8,32.6,14.8,32.6z"/>
	<path id="XMLID_321_" class="st13" d="M18.6,36.5c-0.3,0-0.5-0.2-0.5-0.5c0-0.1,0.1-0.2,0.2-0.2c0.3,0,0.5,0.1,0.7,0.4
		c0.1,0.2,0.1,0.3-0.2,0.3C18.7,36.5,18.7,36.5,18.6,36.5z"/>
	<path id="XMLID_320_" class="st51" d="M16.4,34.8c0.3,0,0.5,0.3,0.6,0.5c0,0.1,0,0.1-0.1,0.1c-0.1,0-0.2,0.1-0.3,0
		c-0.1-0.2-0.3-0.3-0.5-0.4c-0.1,0-0.1-0.1,0-0.2C16.3,34.8,16.4,34.8,16.4,34.8z"/>
	<path id="XMLID_319_" class="st10" d="M30.7,37.4c0,0.2,0,0.5,0.2,0.7c-0.1,0-0.2,0-0.3,0c-0.1,0-0.3,0-0.3-0.2
		c-0.1-0.2,0.1-0.2,0.2-0.3C30.6,37.6,30.7,37.6,30.7,37.4z"/>
</g>
</svg>
