<?xml version="1.0" encoding="utf-8"?>
<!-- Generator: Adobe Illustrator 19.0.0, SVG Export Plug-In . SVG Version: 6.00 Build 0)  -->
<svg version="1.1" xmlns="http://www.w3.org/2000/svg" xmlns:xlink="http://www.w3.org/1999/xlink" x="0px" y="0px"
	 viewBox="0 0 50 50" style="enable-background:new 0 0 50 50;" xml:space="preserve">
<style type="text/css">
	.st0{display:none;}
	.st1{display:inline;}
	.st2{display:inline;fill:none;stroke:#000000;stroke-width:1.250000e-002;stroke-miterlimit:10;}
	.st3{fill:#0D0D0D;}
	.st4{fill:#0E0D0D;}
	.st5{fill:#111010;}
	.st6{fill:#111111;}
	.st7{fill:#21201F;}
	.st8{fill:#ED1D7E;}
	.st9{fill:#CFCACA;}
	.st10{fill:#FFFEFE;}
	.st11{fill:#FFFEFF;}
	.st12{fill:#FFFFFF;}
	.st13{fill:none;stroke:#000000;stroke-width:0.13;stroke-miterlimit:10;}
	.st14{fill:#EE2A7B;}
</style>
<g id="Layer_2" class="st0">
	<rect id="XMLID_3_" x="0.1" class="st1" width="49.9" height="50"/>
</g>
<g id="Layer_3" class="st0">
	<circle id="XMLID_1_" class="st2" cx="25" cy="25.1" r="24.9"/>
	<g id="XMLID_2_" class="st1">
		<path id="XMLID_129_" class="st3" d="M49.9,26.8c0,0.6-0.1,1.2-0.2,1.9c-0.2,1.7-0.6,3.3-1.2,4.9c-2.7,7.1-7.6,12-14.7,14.8
			c-1.6,0.6-3.3,1-5,1.3C27,50,25.2,50,23.4,49.9c-4.8-0.3-9.2-1.9-13.1-4.8c-0.7-0.5-1.4-1.1-2.1-1.7c0,0,0,0-0.1-0.1
			c0,0,0-0.1,0-0.1c0.2,0.1,0.3,0.2,0.4,0.3c1.3,1.1,2.6,2.1,4.1,3c1.4,0.8,2.9,1.5,4.4,2c1.5,0.5,3,0.9,4.5,1.1
			c0.8,0.1,1.6,0.2,2.3,0.2c0.6,0,1.2,0,1.8,0c1.6-0.1,3.1-0.2,4.6-0.6c1.6-0.3,3.1-0.8,4.6-1.5c1.5-0.7,2.9-1.4,4.3-2.4
			c1-0.7,2-1.5,2.9-2.4c1.8-1.7,3.2-3.5,4.4-5.6c0.8-1.4,1.5-2.9,2-4.5c0.6-1.7,0.9-3.4,1.1-5.1c0-0.4,0-0.7,0.1-1.1
			c0-0.1,0-0.1,0.1-0.2C49.9,26.6,49.9,26.7,49.9,26.8z"/>
		<path id="XMLID_128_" class="st4" d="M8.1,6.7c0.4-0.3,0.8-0.7,1.2-1c3.1-2.5,6.5-4.2,10.4-5c2.1-0.5,4.2-0.7,6.3-0.6
			c5.6,0.2,10.5,2.1,14.9,5.6c0.9,0.7,1.8,1.6,2.6,2.4c0.1,0.1,0.2,0.2,0.3,0.3c0,0,0,0.1,0,0.1c-0.1,0-0.1-0.1-0.2-0.1
			c-0.3-0.3-0.6-0.7-0.9-1c-1.7-1.6-3.5-3-5.5-4.2c-1.3-0.7-2.7-1.3-4.1-1.8c-1.5-0.5-3.1-0.9-4.7-1.1c-0.7-0.1-1.4-0.1-2.1-0.2
			c-0.6,0-1.1,0-1.7,0c-0.8,0-1.6,0.1-2.4,0.2c-1.2,0.1-2.3,0.4-3.4,0.7c-1.5,0.4-2.9,0.9-4.2,1.6c-1.8,0.9-3.5,2-5.1,3.2
			C9,6.2,8.6,6.5,8.3,6.7C8.2,6.8,8.2,6.8,8.1,6.7C8.1,6.8,8.1,6.8,8.1,6.7z"/>
		<path id="XMLID_127_" class="st5" d="M43.6,8.6C43.7,8.5,43.7,8.5,43.6,8.6c0.6,0.6,1.2,1.3,1.7,2c2,2.9,3.4,6,4.1,9.4
			c0.4,2.1,0.6,4.2,0.5,6.4c0,0.2,0,0.3,0,0.5c0-0.1,0-0.2,0-0.3c-0.1-0.1-0.1-0.3,0-0.5c0-0.7,0-1.3,0-2c0-0.3,0-0.6,0-0.8
			c-0.1-1.1-0.2-2.2-0.5-3.2c-0.2-1-0.5-1.9-0.8-2.9c-0.3-1-0.7-1.9-1.2-2.9c-0.9-1.9-2-3.6-3.4-5.2C43.8,8.9,43.7,8.8,43.6,8.6z"/>
		<path id="XMLID_126_" class="st5" d="M0.2,26.5c-0.1-1.1-0.1-2.2,0-3.3c0.1-1.6,0.4-3.2,0.8-4.8C2,15,3.5,12,5.7,9.3
			C5.9,9,6.1,8.8,6.4,8.5c0,0,0.1,0.1,0.1,0.1C6.3,8.8,6.2,8.9,6.1,9.1c-1.1,1.3-2,2.6-2.8,4c-0.6,1.1-1.1,2.2-1.6,3.4
			c-0.6,1.5-0.9,3.1-1.2,4.7c-0.1,0.7-0.2,1.3-0.2,2c-0.1,0.9-0.1,1.9-0.1,2.8c0,0.1,0,0.2,0,0.3C0.2,26.4,0.2,26.4,0.2,26.5z"/>
		<path id="XMLID_125_" class="st6" d="M8.2,43.3C8.2,43.3,8.1,43.3,8.2,43.3c-0.9-0.8-1.8-1.7-2.5-2.6c-2.3-2.9-3.9-6.1-4.8-9.7
			c-0.3-1.2-0.5-2.4-0.6-3.6c0-0.1,0-0.2,0-0.4c0-0.1,0-0.2,0-0.3c0.1,0,0.1,0.1,0.1,0.1c0.1,0.9,0.2,1.7,0.3,2.5
			c0.2,1,0.4,1.9,0.7,2.9c0.4,1.3,0.9,2.5,1.5,3.7c0.8,1.7,1.8,3.3,3,4.8c0.6,0.7,1.2,1.4,1.8,2c0.1,0.1,0.3,0.2,0.4,0.4
			C8.1,43.2,8.2,43.2,8.2,43.3z"/>
		<path id="XMLID_124_" class="st7" d="M6.4,8.6C6.4,8.6,6.4,8.5,6.4,8.6c0.5-0.7,1.1-1.3,1.7-1.9c0,0,0,0.1,0,0.1
			C8.1,7,8,7.1,7.9,7.2C7.4,7.5,7,8,6.6,8.4C6.5,8.5,6.5,8.6,6.4,8.6z"/>
		<path id="XMLID_123_" class="st6" d="M0.2,26.5c0.1-0.2,0-0.3,0-0.5c0.1,0.1,0.1,0.2,0.1,0.3c0,0.1,0,0.1,0,0.2
			c0,0.1,0,0.2-0.1,0.3C0.1,26.7,0.2,26.6,0.2,26.5z"/>
		<path id="XMLID_122_" class="st5" d="M0.2,26.8c0-0.1,0-0.2,0-0.3c0.1,0.1,0.1,0.1,0,0.2c0,0.1,0,0.2,0,0.3
			C0.2,27,0.2,26.9,0.2,26.8z"/>
		<path id="XMLID_120_" class="st8" d="M8.5,24c-0.6,0.5-1.2,0.2-1.4-0.5c-0.1-0.4-0.1-0.7,0-1.1c0.1-0.4,0.5-0.7,0.8-0.7
			c0.4,0,0.7,0.2,0.9,0.6C9,22.6,9,22.9,9.1,23.1c0,0.6,0.1,1.1-0.1,1.7c-0.2,0.5-0.6,0.9-1.1,0.8c-0.4,0-0.8-0.4-0.8-0.9
			c0,0,0,0,0,0c0.2-0.1,0.3-0.1,0.5-0.1c0.1,0,0.1,0.1,0.1,0.1C7.8,25,8,25.1,8.2,25c0.1-0.1,0.2-0.2,0.2-0.3
			C8.4,24.5,8.5,24.3,8.5,24z"/>
		<path id="XMLID_119_" class="st8" d="M25.8,43.6c0.5-0.4,1.1-0.3,1.3,0.4c0.2,0.4,0.2,0.8,0,1.2c-0.1,0.4-0.4,0.6-0.8,0.6
			c-0.4,0-0.7-0.2-0.9-0.5c-0.2-0.3-0.2-0.5-0.2-0.8c0-0.5-0.1-1.1,0.1-1.6c0.1-0.5,0.5-0.8,0.9-0.9c0.5,0,0.9,0.4,0.9,0.8
			c0,0.1,0,0.1-0.1,0.1c-0.1,0-0.3,0-0.4,0.1c-0.1,0-0.1-0.1-0.1-0.1c0-0.2-0.1-0.3-0.3-0.3c-0.2,0-0.3,0.1-0.4,0.3
			C25.9,43.1,25.9,43.3,25.8,43.6z"/>
		<path id="XMLID_118_" class="st8" d="M6.7,23.8c0,0.3,0,0.7-0.1,1c0,0.1-0.1,0.2-0.1,0.3c-0.2,0.3-0.4,0.5-0.8,0.5
			c-0.4,0-0.6-0.2-0.8-0.6c-0.1-0.2-0.2-0.5-0.2-0.7c0-0.6-0.1-1.2,0.1-1.8c0.1-0.4,0.3-0.7,0.8-0.8C6,21.8,6.3,22,6.5,22.5
			C6.6,22.9,6.7,23.3,6.7,23.8z"/>
		<path id="XMLID_117_" class="st8" d="M41.9,24.3c0,0.3,0,0.7-0.1,1c0,0.1-0.1,0.2-0.1,0.4c-0.2,0.3-0.4,0.5-0.8,0.5
			c-0.4,0-0.6-0.2-0.7-0.5c-0.1-0.2-0.2-0.5-0.2-0.7c0-0.6-0.1-1.2,0.1-1.8c0.1-0.4,0.4-0.7,0.8-0.8c0.4,0,0.8,0.2,0.9,0.7
			C41.9,23.4,41.9,23.8,41.9,24.3z"/>
		<path id="XMLID_116_" class="st8" d="M22.8,43.8c0-0.3,0-0.6,0.1-1c0-0.1,0.1-0.2,0.1-0.3c0.2-0.3,0.4-0.5,0.8-0.5
			c0.4,0,0.6,0.2,0.7,0.5c0.1,0.3,0.2,0.6,0.2,0.9c0,0.5,0,1.1-0.1,1.6c0,0.1-0.1,0.2-0.1,0.4c-0.2,0.3-0.4,0.5-0.8,0.5
			c-0.4,0-0.6-0.2-0.7-0.6C22.8,44.8,22.8,44.4,22.8,43.8z"/>
		<path id="XMLID_115_" class="st8" d="M26.1,6.9c0.4,0,0.7,0,1,0c0.1,0,0.2,0,0.2,0.2c0,0.5,0,0.5-0.5,0.5c-0.5,0-1,0-1.4,0
			c-0.2,0-0.2,0-0.2-0.2c0.1-0.5,0.4-0.9,0.7-1.3c0.2-0.2,0.4-0.4,0.5-0.7c0.1-0.2,0.2-0.4,0.2-0.6c0-0.2-0.1-0.4-0.3-0.4
			c-0.2,0-0.4,0.1-0.4,0.3c0,0.1,0,0.2-0.1,0.2c-0.2,0-0.3,0-0.5-0.1c0,0,0-0.1,0-0.1c0.1-0.6,0.5-0.9,1.1-0.9c0.5,0,0.9,0.4,0.9,1
			c0,0.5-0.2,0.9-0.5,1.2c-0.2,0.3-0.5,0.5-0.7,0.8C26.1,6.8,26.1,6.8,26.1,6.9z"/>
		<path id="XMLID_114_" class="st8" d="M43.8,24c0.7,0.3,0.7,1.3,0.3,1.7c-0.3,0.3-0.7,0.5-1.1,0.3c-0.4-0.1-0.7-0.5-0.7-0.9
			c0-0.1,0-0.1,0.1-0.1c0.1,0,0.3,0,0.4-0.1c0.1,0,0.1,0,0.1,0.1c0,0,0,0,0,0c0.1,0.3,0.2,0.4,0.4,0.4c0.2,0,0.3-0.2,0.4-0.5
			c0-0.1,0-0.3,0-0.4c-0.1-0.3-0.3-0.4-0.5-0.3c-0.1,0-0.1,0-0.1-0.1c0-0.1,0-0.2,0-0.2c0-0.2,0-0.2,0.2-0.3
			c0.3-0.1,0.4-0.4,0.2-0.7c-0.1-0.1-0.2-0.2-0.3-0.1c-0.2,0-0.2,0.1-0.3,0.3c0,0.1,0,0.2-0.1,0.2c-0.2,0-0.3,0-0.5-0.1
			c0,0,0,0,0-0.1c0.1-0.6,0.4-1,1.1-0.9c0.4,0.1,0.6,0.3,0.7,0.7c0.1,0.3,0,0.6-0.2,0.9C43.9,23.9,43.9,24,43.8,24z"/>
		<path id="XMLID_113_" class="st8" d="M23.7,4.8c-0.2,0.2-0.4,0.3-0.6,0.4c-0.1,0-0.1,0-0.2,0.1c0-0.2,0-0.4,0-0.6
			c0-0.1,0-0.1,0.1-0.1c0.3-0.2,0.6-0.4,0.8-0.8c0-0.1,0.1-0.1,0.2-0.1c0.3,0,0.3,0,0.3,0.3c0,1.1,0,2.2,0,3.2c0,0.2,0,0.2-0.2,0.2
			c-0.4,0-0.4,0-0.4-0.4C23.7,6.4,23.7,5.6,23.7,4.8z"/>
		<path id="XMLID_107_" class="st9" d="M26.8,2.6c0.1,0,0.2,0,0.2,0C26.9,2.7,26.9,2.6,26.8,2.6z"/>
		<path id="XMLID_95_" class="st10" d="M7.6,23c0-0.1,0-0.3,0.1-0.4c0.1-0.3,0.4-0.3,0.6-0.1c0.2,0.2,0.2,0.8,0.1,1
			c-0.2,0.3-0.5,0.2-0.6,0C7.6,23.4,7.6,23.2,7.6,23z"/>
		<path id="XMLID_94_" class="st11" d="M26.7,44.6c0,0.1,0,0.3-0.1,0.4c-0.1,0.3-0.4,0.3-0.6,0.1c-0.2-0.2-0.2-0.8-0.1-1
			c0.2-0.2,0.5-0.2,0.6,0C26.7,44.3,26.7,44.4,26.7,44.6z"/>
		<path id="XMLID_93_" class="st12" d="M5.3,23.7c0-0.3,0-0.5,0-0.8c0-0.1,0-0.1,0-0.2c0-0.2,0.1-0.3,0.3-0.3c0.2,0,0.3,0.2,0.3,0.3
			c0.1,0.5,0.1,1,0.1,1.5c0,0.2,0,0.4-0.1,0.5c0,0.2-0.1,0.3-0.3,0.3c-0.2,0-0.3-0.2-0.3-0.3C5.3,24.4,5.3,24.1,5.3,23.7z"/>
		<path id="XMLID_92_" class="st12" d="M41.3,24.1c0,0.4,0,0.7-0.1,1.1c0,0.1,0,0.1-0.1,0.2c-0.1,0.1-0.1,0.2-0.3,0.2
			c-0.1,0-0.2-0.1-0.3-0.2c-0.1-0.2-0.1-0.4-0.1-0.6c0-0.5,0-0.9,0-1.4c0-0.1,0-0.3,0.1-0.4c0.1-0.2,0.3-0.2,0.4,0
			c0.1,0.1,0.1,0.3,0.1,0.4C41.3,23.7,41.3,23.9,41.3,24.1z"/>
		<path id="XMLID_91_" class="st12" d="M23.4,43.9c0-0.3,0-0.6,0-0.9c0-0.3,0.2-0.5,0.3-0.5c0.2,0,0.3,0.1,0.3,0.4
			c0.1,0.6,0.1,1.2,0,1.8c0,0.2-0.1,0.4-0.3,0.4c-0.2,0-0.3-0.1-0.3-0.4C23.4,44.6,23.4,44.2,23.4,43.9z"/>
	</g>
</g>
<g id="Layer_4">
	<path id="XMLID_121_" class="st13" d="M0.2,26.7c0-0.1,0-0.1,0-0.2c0-0.2,0-0.3,0-0.5c0-0.7,0-1.4,0-2.1c0.1-2.1,0.4-4.1,1-6
		c1-3.4,2.7-6.4,5-9.1c0.1-0.1,0.1-0.1,0.2-0.2C6.9,8,7.5,7.4,8.1,6.8c0.8-0.7,1.6-1.4,2.4-2c2.9-2.1,6.1-3.5,9.5-4.2
		c2.1-0.4,4.3-0.6,6.4-0.4c5.4,0.3,10.2,2.2,14.3,5.7c1,0.8,1.8,1.6,2.7,2.6c0,0,0.1,0.1,0.1,0.1c0.7,0.8,1.4,1.7,2,2.6
		c1.8,2.7,3.1,5.6,3.7,8.8c0.4,2.1,0.6,4.2,0.5,6.3c0,0.1,0,0.2,0,0.3c-0.1,1.2-0.2,2.3-0.5,3.5c-0.8,3.7-2.3,7.1-4.6,10.1
		c-2.8,3.7-6.4,6.3-10.6,8c-1.8,0.7-3.6,1.2-5.5,1.5c-1.7,0.2-3.4,0.3-5.1,0.2c-5.2-0.3-9.9-2.1-14-5.4c-0.5-0.4-0.9-0.8-1.3-1.1
		c-0.6-0.6-1.2-1.2-1.7-1.8c-2.8-3.1-4.6-6.7-5.6-10.8c-0.3-1.3-0.5-2.6-0.6-3.9C0.2,26.8,0.2,26.8,0.2,26.7z"/>
	<g id="XMLID_7_">
		<path id="XMLID_8_" class="st14" d="M23.2,5.2V4.5l0.6-0.4h0.6v3.4h-0.6V4.8L23.2,5.2z"/>
		<path id="XMLID_29_" class="st14" d="M26.1,5.5c0.1-0.2,0.2-0.3,0.2-0.5V4.9c0-0.1,0-0.2-0.1-0.3c-0.1-0.1-0.1-0.1-0.3-0.1
			s-0.2,0-0.3,0.1c-0.1,0.1-0.1,0.2-0.1,0.3V5h-0.6V4.9c0-0.2,0-0.3,0.1-0.5c0.1-0.1,0.2-0.2,0.3-0.3C25.5,4,25.7,4,25.9,4
			c0.2,0,0.4,0,0.5,0.1c0.1,0.1,0.3,0.2,0.3,0.3c0.1,0.1,0.1,0.3,0.1,0.5V5c0,0.1,0,0.3-0.1,0.4c-0.1,0.1-0.1,0.2-0.2,0.4l-0.8,1.1
			h1.1v0.6h-1.9V6.9L26.1,5.5z"/>
	</g>
	<g id="XMLID_9_">
		<path id="XMLID_10_" class="st14" d="M22.5,44.5v-1.3c0-0.4,0.1-0.7,0.3-0.9s0.5-0.3,0.8-0.3c0.4,0,0.6,0.1,0.8,0.3
			c0.2,0.2,0.3,0.5,0.3,0.9v1.3c0,0.4-0.1,0.7-0.3,0.9c-0.2,0.2-0.5,0.3-0.8,0.3c-0.4,0-0.6-0.1-0.8-0.3
			C22.6,45.3,22.5,45,22.5,44.5z M24,44.5v-1.1c0-0.3,0-0.4-0.1-0.6c-0.1-0.1-0.2-0.2-0.3-0.2s-0.3,0.1-0.3,0.2
			c-0.1,0.1-0.1,0.3-0.1,0.6v1.1c0,0.3,0,0.4,0.1,0.6c0.1,0.1,0.2,0.2,0.3,0.2c0.2,0,0.3-0.1,0.3-0.2C24,44.9,24,44.7,24,44.5z"/>
		<path id="XMLID_25_" class="st14" d="M25.2,44.7v-0.2c0-0.1,0-0.3,0.1-0.4c0-0.1,0.1-0.3,0.2-0.4l0.8-1.6H27l-0.8,1.5
			c0.1,0,0.2-0.1,0.3-0.1c0.3,0,0.5,0.1,0.7,0.3c0.2,0.2,0.3,0.4,0.3,0.7v0.2c0,0.3-0.1,0.6-0.3,0.8c-0.2,0.2-0.5,0.3-0.8,0.3
			c-0.4,0-0.6-0.1-0.8-0.3C25.3,45.3,25.2,45.1,25.2,44.7z M26.8,44.7v-0.2c0-0.2,0-0.3-0.1-0.4c-0.1-0.1-0.2-0.1-0.3-0.1
			s-0.2,0-0.3,0.1c-0.1,0.1-0.1,0.2-0.1,0.3v0.2c0,0.1,0,0.3,0.1,0.4s0.2,0.1,0.3,0.1s0.2,0,0.3-0.1S26.8,44.9,26.8,44.7z"/>
	</g>
	<g id="XMLID_11_">
		<path id="XMLID_12_" class="st14" d="M39.9,24.7v-1.2c0-0.4,0.1-0.6,0.3-0.8c0.2-0.2,0.4-0.3,0.7-0.3c0.3,0,0.6,0.1,0.8,0.3
			c0.2,0.2,0.2,0.5,0.2,0.8v1.2c0,0.4-0.1,0.7-0.2,0.9c-0.2,0.2-0.4,0.3-0.8,0.3c-0.3,0-0.6-0.1-0.8-0.3
			C40,25.4,39.9,25.1,39.9,24.7z M41.2,24.6v-1c0-0.2,0-0.4-0.1-0.5C41.1,23,41,23,40.9,23s-0.2,0-0.3,0.1c0,0.1-0.1,0.3-0.1,0.5v1
			c0,0.2,0,0.4,0.1,0.5c0.1,0.1,0.1,0.1,0.3,0.1c0.1,0,0.2,0,0.3-0.1C41.2,25,41.2,24.9,41.2,24.6z"/>
		<path id="XMLID_21_" class="st14" d="M42.3,25v-0.1h0.6V25c0,0.1,0,0.2,0.1,0.3c0.1,0.1,0.2,0.1,0.3,0.1c0.1,0,0.2,0,0.3-0.1
			c0.1-0.1,0.1-0.2,0.1-0.3v-0.1c0-0.1,0-0.3-0.1-0.3s-0.2-0.1-0.3-0.1h-0.2v-0.5h0.2c0.1,0,0.2,0,0.3-0.1c0.1-0.1,0.1-0.2,0.1-0.3
			v-0.1c0-0.1,0-0.2-0.1-0.3c-0.1-0.1-0.1-0.1-0.3-0.1c-0.1,0-0.2,0-0.3,0.1s-0.1,0.1-0.1,0.3v0.1h-0.6v-0.1c0-0.3,0.1-0.5,0.3-0.7
			c0.2-0.2,0.4-0.2,0.7-0.2c0.3,0,0.5,0.1,0.7,0.2c0.2,0.2,0.3,0.4,0.3,0.6v0.1c0,0.1,0,0.3-0.1,0.4c-0.1,0.1-0.2,0.2-0.3,0.3
			c0.1,0.1,0.3,0.2,0.3,0.3c0.1,0.1,0.1,0.3,0.1,0.5v0.1c0,0.2,0,0.4-0.1,0.5s-0.2,0.3-0.4,0.3c-0.2,0.1-0.3,0.1-0.5,0.1
			c-0.3,0-0.6-0.1-0.7-0.2C42.4,25.5,42.3,25.3,42.3,25z"/>
	</g>
	<g id="XMLID_6_">
		<path id="XMLID_13_" class="st14" d="M4.6,24.7v-1.2c0-0.4,0.1-0.7,0.3-0.9c0.2-0.2,0.4-0.3,0.8-0.3c0.4,0,0.6,0.1,0.8,0.3
			c0.2,0.2,0.3,0.5,0.3,0.9v1.2c0,0.4-0.1,0.7-0.3,0.9c-0.2,0.2-0.4,0.3-0.8,0.3c-0.4,0-0.6-0.1-0.8-0.3S4.6,25.1,4.6,24.7z M6,24.7
			v-1.1c0-0.2,0-0.4-0.1-0.5c-0.1-0.1-0.2-0.2-0.3-0.2S5.3,23,5.3,23.1c0,0.1-0.1,0.3-0.1,0.5v1.1c0,0.2,0,0.4,0.1,0.5
			c0.1,0.1,0.1,0.2,0.3,0.2c0.1,0,0.2-0.1,0.3-0.2C5.9,25.1,6,24.9,6,24.7z"/>
		<path id="XMLID_16_" class="st14" d="M8,24.5c-0.3,0-0.5-0.1-0.6-0.3c-0.2-0.2-0.2-0.4-0.2-0.7v-0.2c0-0.3,0.1-0.6,0.3-0.8
			c0.2-0.2,0.5-0.3,0.8-0.3c0.3,0,0.6,0.1,0.8,0.3c0.2,0.2,0.3,0.4,0.3,0.8v0.2c0,0.1,0,0.3-0.1,0.4c0,0.1-0.1,0.3-0.2,0.4l-0.8,1.5
			H7.5l0.7-1.4C8.2,24.5,8.1,24.5,8,24.5z M8.6,23.5v-0.2c0-0.1,0-0.3-0.1-0.3c-0.1-0.1-0.2-0.1-0.3-0.1c-0.1,0-0.2,0-0.3,0.1
			c-0.1,0.1-0.1,0.2-0.1,0.3v0.2c0,0.1,0,0.3,0.1,0.3C7.9,23.9,8,24,8.2,24c0.1,0,0.2,0,0.3-0.1C8.5,23.8,8.6,23.7,8.6,23.5z"/>
	</g>
</g>
</svg>
