<?xml version="1.0" encoding="utf-8"?>
<!-- Generator: Adobe Illustrator 19.0.0, SVG Export Plug-In . SVG Version: 6.00 Build 0)  -->
<svg version="1.1" xmlns="http://www.w3.org/2000/svg" xmlns:xlink="http://www.w3.org/1999/xlink" x="0px" y="0px"
	 viewBox="0 0 2048 2048" style="enable-background:new 0 0 2048 2048;" xml:space="preserve">
<style type="text/css">
	.st0{fill:#FEA500;}
	.st1{fill:#666666;}
	.st2{fill:none;stroke:#FFFFFF;stroke-miterlimit:10;}
	.st3{fill:#FFFFFF;}
	.st4{fill:#F9CACD;}
	.st5{fill:#FBB03B;}
	.st6{fill:#F15A24;}
	.st7{fill:none;}
	.st8{fill:#FFFFFF;stroke:#000000;stroke-miterlimit:10;}
</style>
<g id="feet">
	<path class="st0" d="M1077,1793.5c-7.7,54-58.3,171.1,28.4,102.6c-6,27.5,20.9,77.1,89.2-16c75.3,111.5,113.7-102.4,88.7-193.4
		C1237.1,1469.8,1105.1,1706.9,1077,1793.5z"/>
	<path class="st0" d="M805.6,1762.7c-10.9,50.4-61.9,152.6,14.1,105c-7.2,25.3,10.3,78.8,73.5,3.6c51.2,123.7,100.7-74.5,88.4-167.7
		C962.9,1484.6,835.8,1685.1,805.6,1762.7z"/>
</g>
<g id="penguin_outer_body">
	<path class="st1" d="M610,1050.6c-30.1-110,14.5-204-14.2-356.3c-13.3-89-20-114.9-58.1-315.1c-44.8-170.2,91-254.8,153.3-94.4
		c106.6-243.3,500.2-245,586.8,52.1c27.5-48.6,34.8-122.5,105.3-102.1c130.8,48.5,26,348.8,26,348.8c-12,86.5-123,263.1-14.7,433.5
		c41.2,55.4,67.2,72.6,107.1,98.5c11.4,11.8,47.6-3.7,41.4,97.1c-0.3,165.8-128.5,488.8-397.8,530
		c-541.5,77.9-574.4-241.4-579.2-470.4c0,0-8.9-123.3,41.4-432.7c10.5,7.4,18.8,119.2,3.9,128C605.2,971.2,610,1050.6,610,1050.6z"
		/>
	<path class="st1" d="M440.9,545.4"/>
</g>
<g id="Layer_8">
	<path class="st2" d="M1279.4,339.8c-55.3,127.5-79.8,300.8-139.8,373.5"/>
</g>
<g id="inner_body">
	<path class="st3" d="M1115,1024c58.2,145,215.1,507.1-42,657.7c-130,59.3-260.3,21-312-4.7c-179.6-89.1-165.9-308.6-165.9-422
		c33.8-461.5,131.6-392.5,69.8-744.5c-4.3-29.8-4.7-58.4-5.3-86.1c4.8,3.3,11.6,6,19.3,7.4c16.1,2.9,30.2-1,31.6-8.7
		c1.4-7.7-10.5-16.3-26.6-19.2c-9.6-1.7-18.5-1-24.4,1.4c0.2-11.1,0.9-22,2.1-33c12.6,13.3,31.3,20.3,50.7,17.3
		c31.6-4.8,53.3-34.4,48.5-66c-4.8-31.6-34.4-53.3-66-48.5c-0.5,0.1-1,0.2-1.5,0.3c8-14.8,15.2-37.8,34.3-52.5
		c36.6-7.1,62.1,31.2,57.5,55.9c-0.5,2.5,43.5-65.9,187.8-47.4c87.4,13.4,137.2,59.9,152.3,136.2c24.4,139-73.6,259.9-97.8,314.1
		C991,808.4,1053.4,841.5,1115,1024z"/>
	<path class="st3" d="M710.6,423.2c-1.4,7.7-15.5,11.6-31.6,8.7c-7.8-1.4-14.5-4.1-19.3-7.4c-0.1-6.4-0.2-12.7,0-19
		c5.9-2.5,14.8-3.1,24.4-1.4C700.1,406.9,712,415.5,710.6,423.2z"/>
	<path class="st3" d="M761,323.8c4.8,31.6-16.9,61.2-48.5,66c-19.5,3-38.1-4.1-50.7-17.3c3.7-32,12.8-63.8,31.7-96.9
		c0.5-0.1,1-0.2,1.5-0.3C726.6,270.5,756.1,292.2,761,323.8z"/>
	<path class="st3" d="M1457.4,664.7"/>
	<path class="st3" d="M2002.3,783.6"/>
	<path class="st3" d="M1837.2,691.4"/>
	<path class="st3" d="M186.9,1222.7"/>
</g>
<g id="blush">
	
		<ellipse transform="matrix(0.9842 0.177 -0.177 0.9842 98.0457 -156.4271)" class="st4" cx="925.6" cy="471.2" rx="29.6" ry="14.2"/>
	<path class="st4" d="M710.6,423.2c-1.4,7.7-15.5,11.6-31.6,8.7c-7.8-1.4-14.5-4.1-19.3-7.4c-0.1-6.4-0.2-12.7,0-19
		c5.9-2.5,14.8-3.1,24.4-1.4C700.1,406.9,712,415.5,710.6,423.2z"/>
</g>
<g id="beak_2">
	<path class="st5" d="M696.3,514.8c182.3-27.9,145.1-83,145.1-83L696.3,514.8z"/>
	<path class="st6" d="M719.8,443.5c52.4-79.1,88.5-12.3,104.9-20.2c10,2.2,21.2,5.2,14.1,14.1c-47.3,35.6-84.2,56.7-112,67.9
		c-73.5,29.8-83.6-9-55-28.8C687,466,697.5,456.5,719.8,443.5z"/>
</g>
<g id="beak1">
	<path class="st7" d="M749.5,384.2c19.2-1.1,65.7,8.1,75.5,35.8C573.3,476.6,735.6,384.6,749.5,384.2z"/>
	<path class="st0" d="M759.3,390.2c11.9-4.1,76.4,6.7,81.8,42C572.9,494.5,585.5,421.5,759.3,390.2"/>
	<circle class="st8" cx="957.2" cy="384.1" r="57.9"/>
	<path class="st8" d="M761,323.8c4.8,31.6-16.9,61.2-48.5,66c-19.5,3-38.1-4.1-50.7-17.3c3.7-32,12.8-63.8,31.7-96.9
		c0.5-0.1,1-0.2,1.5-0.3C726.6,270.5,756.1,292.2,761,323.8z"/>
	<path d="M697.8,329l-6.6,0.7c-10.5,1.1-17.1-11.2-10.3-19.3c4-4.8,9.7-8.2,16.2-9.4c15.1-2.8,29.8,7.3,32.6,22.4c0,0.1,0,0.1,0,0.2
		c1.8,10.2-9.8,17.4-18.3,11.4l-5.6-4C703.6,329.5,700.7,328.7,697.8,329z"/>
	<path d="M950.3,386.9l-6.6,0.7c-10.5,1.1-17.1-11.2-10.3-19.3c4-4.8,9.7-8.2,16.2-9.4c15.1-2.8,29.8,7.3,32.6,22.4
		c0,0.1,0,0.1,0,0.2c1.8,10.2-9.8,17.4-18.3,11.4l-5.6-4C956,387.4,953.1,386.6,950.3,386.9z"/>
</g>
</svg>
